<svg viewBox="0 0 120 56" fill="none" xmlns="http://www.w3.org/2000/svg" xmlns:xlink="http://www.w3.org/1999/xlink" x="0" y="0"><g id="Frame_114">
<g id="Button Icon_10">
<path d="M28,0.5c15.19,0 27.5,12.312 27.5,27.5c0,15.188 -12.31,27.5 -27.5,27.5c-15.19,0 -27.5,-12.312 -27.5,-27.5c0,-15.188 12.31,-27.5 27.5,-27.5z" stroke="#D6D3D1"/>
<g id="Monotone add_10">
<path id="Vector_188" fill-rule="evenodd" clip-rule="evenodd" d="M25.67,16.333c-5.16,0 -9.34,4.179 -9.34,9.334c0,5.154 4.18,9.333 9.34,9.333c2.15,0 4.14,-0.732 5.72,-1.96l6.29,6.285l1.64,-1.65l-6.28,-6.285c1.23,-1.581 1.96,-3.566 1.96,-5.723c0,-5.155 -4.18,-9.334 -9.33,-9.334zM18.67,25.667c0,-3.866 3.13,-7 7,-7c3.86,0 7,3.134 7,7c0,3.866 -3.14,7 -7,7c-3.87,0 -7,-3.134 -7,-7z" fill="#57534E"/>
</g>
</g>
<g id="Button Icon_11">
<path d="M92,0.5c15.19,0 27.5,12.312 27.5,27.5c0,15.188 -12.31,27.5 -27.5,27.5c-15.19,0 -27.5,-12.312 -27.5,-27.5c0,-15.188 12.31,-27.5 27.5,-27.5z" stroke="#D6D3D1"/>
<g id="Monotone add_11">
<path id="Vector_189" d="M90.83,29.167v9.333h2.34v-9.333h9.33v-2.334h-9.33v-9.333h-2.34v9.333h-9.33v2.334z" fill="#57534E"/>
</g>
</g>
</g></svg>