<svg viewBox="0 0 114 42" fill="none" xmlns="http://www.w3.org/2000/svg" xmlns:xlink="http://www.w3.org/1999/xlink" x="0" y="0"><g id="Chat Bubble_5">
<g id="Avatar_6">
<rect x="0" y="0" width="40" height="40" rx="20" fill="#F7F3EF"/>
<g id="user single_4">
<path id="Vector_181" fill-rule="evenodd" clip-rule="evenodd" d="M20,10c-3.866,0 -7,3.134 -7,7c0,2.354 1.162,4.437 2.944,5.706c-0.671,0.241 -1.322,0.542 -1.944,0.902c-1.824,1.053 -3.339,2.568 -4.392,4.392l1.732,1c0.877,-1.52 2.14,-2.783 3.66,-3.66c1.52,-0.878 3.245,-1.34 5,-1.34c1.755,0 3.48,0.462 5,1.34c1.52,0.877 2.783,2.14 3.66,3.66l1.732,-1c-1.053,-1.824 -2.568,-3.339 -4.392,-4.392c-0.622,-0.36 -1.273,-0.661 -1.944,-0.902c1.782,-1.269 2.944,-3.352 2.944,-5.706c0,-3.866 -3.134,-7 -7,-7zM15,17c0,-2.761 2.239,-5 5,-5c2.761,0 5,2.239 5,5c0,2.761 -2.239,5 -5,5c-2.761,0 -5,-2.239 -5,-5z" fill="#926247"/>
</g>
</g>
<g id="Frame_101">
<rect x="48.5" y="0.5" width="65" height="41" rx="15.5" fill="white"/>
<rect x="48.5" y="0.5" width="65" height="41" rx="15.5" stroke="#E7E5E4"/>
<g id="Frame_102">
<g id="Frame_103">
<g id="Frame_104">
<circle id="Ellipse" cx="69" cy="21" r="4" fill="#57534E"/>
<circle id="Ellipse_2" cx="81" cy="21" r="4" fill="#57534E"/>
<circle id="Ellipse_3" cx="93" cy="21" r="4" fill="#57534E"/>
</g>
</g>
</g>
</g>
</g></svg>