<svg viewBox="0 0 20.7846 19" fill="none" xmlns="http://www.w3.org/2000/svg" xmlns:xlink="http://www.w3.org/1999/xlink" x="0" y="0"><path id="Vector_94" fill-rule="evenodd" clip-rule="evenodd" d="M10.3923,0c-3.87,0 -7,3.134 -7,7c0,2.354 1.16,4.437 2.94,5.706c-0.67,0.241 -1.32,0.542 -1.94,0.902c-1.82,1.053 -3.34,2.568 -4.39,4.392l1.73,1c0.88,-1.52 2.14,-2.783 3.66,-3.66c1.52,-0.878 3.24,-1.34 5,-1.34c1.76,0 3.48,0.462 5,1.34c1.52,0.877 2.78,2.14 3.66,3.66l1.73,-1c-1.05,-1.824 -2.57,-3.339 -4.39,-4.392c-0.62,-0.36 -1.27,-0.661 -1.94,-0.902c1.78,-1.269 2.94,-3.352 2.94,-5.706c0,-3.866 -3.13,-7 -7,-7zM5.3923,7c0,-2.761 2.24,-5 5,-5c2.76,0 5,2.239 5,5c0,2.761 -2.24,5 -5,5c-2.76,0 -5,-2.239 -5,-5z" fill="currentColor"/></svg>