<svg viewBox="0 0 15.8252 7.7002" fill="none" xmlns="http://www.w3.org/2000/svg" xmlns:xlink="http://www.w3.org/1999/xlink" x="0" y="0"><g id="Vector_93">
<path d="M5.69,6.7234l5.78,-5.781l-0.94,-0.942l-5.78,5.781c-0.35,0.344 -0.62,0.467 -1.03,0.547c-0.38,0.077 -0.79,0.038 -1.15,-0.114c-0.37,-0.151 -0.68,-0.408 -0.9,-0.736c-0.22,-0.329 -0.34,-0.716 -0.34,-1.112h-1.33c0,0.66 0.2,1.304 0.56,1.852c0.37,0.548 0.89,0.976 1.5,1.228c0.61,0.252 1.28,0.318 1.92,0.19c0.64,-0.126 1.16,-0.362 1.71,-0.913z" fill="currentColor"/>
<path d="M10.04,6.7234l5.79,-5.781l-0.95,-0.942l-5.78,5.781c-0.34,0.344 -0.62,0.467 -1.02,0.547c-0.39,0.077 -0.79,0.038 -1.16,-0.114l-0.51,1.232c0.61,0.252 1.28,0.318 1.93,0.19c0.63,-0.126 1.15,-0.362 1.7,-0.913z" fill="currentColor"/>
</g></svg>