<svg viewBox="0 0 24 22.6667" fill="none" xmlns="http://www.w3.org/2000/svg" xmlns:xlink="http://www.w3.org/1999/xlink" x="0" y="0"><g id="Vector_185">
<path d="M8.14,5.6267c0.22,-0.85 0.73,-1.6 1.42,-2.13c0.34,-0.26 0.71,-0.46 1.11,-0.6v11.77h2.66v-11.77c0.4,0.14 0.77,0.34 1.11,0.6c0.69,0.53 1.2,1.28 1.42,2.13l2.58,-0.69c-0.38,-1.41 -1.22,-2.67 -2.38,-3.56c-1.17,-0.89 -2.59,-1.38 -4.06,-1.38c-1.47,0 -2.89,0.49 -4.06,1.38c-1.16,0.89 -2,2.15 -2.38,3.56z" fill="currentColor"/>
<path d="M12,19.9967c5.15,0 9.33,-4.18 9.33,-9.33h2.67c0,6.63 -5.37,12 -12,12c-6.63,0 -12,-5.37 -12,-12h2.67c0,5.15 4.18,9.33 9.33,9.33z" fill="currentColor"/>
</g></svg>