<svg viewBox="0 0 26.6667 26.6667" fill="none" xmlns="http://www.w3.org/2000/svg" xmlns:xlink="http://www.w3.org/1999/xlink" x="0" y="0"><g id="Vector_184">
<path d="M17.3333,18.9233c1.22,-0.7 2.23,-1.71 2.93,-2.92l-2.31,-1.34c-0.47,0.81 -1.14,1.49 -1.95,1.96c-0.81,0.46 -1.73,0.71 -2.67,0.71c-0.94,0 -1.86,-0.25 -2.67,-0.71c-0.81,-0.47 -1.48,-1.15 -1.95,-1.96l-2.31,1.34c0.7,1.21 1.71,2.22 2.93,2.92c1.22,0.71 2.6,1.08 4,1.08c1.4,0 2.78,-0.37 4,-1.08z" fill="currentColor"/>
<path d="M10.6633,10.0033c0,1.1 -0.89,2 -2,2c-1.1,0 -2,-0.9 -2,-2c0,-1.11 0.9,-2 2,-2c1.11,0 2,0.89 2,2z" fill="currentColor"/>
<path d="M18.0033,12.0033c1.1,0 2,-0.9 2,-2c0,-1.11 -0.9,-2 -2,-2c-1.11,0 -2,0.89 -2,2c0,1.1 0.89,2 2,2z" fill="currentColor"/>
<path fill-rule="evenodd" clip-rule="evenodd" d="M13.3333,0.0033c-7.36,0 -13.33,5.97 -13.33,13.33c0,7.36 5.97,13.33 13.33,13.33c7.36,0 13.33,-5.97 13.33,-13.33c0,-7.36 -5.97,-13.33 -13.33,-13.33zM2.6633,13.3333c0,-5.89 4.78,-10.67 10.67,-10.67c5.89,0 10.67,4.78 10.67,10.67c0,5.89 -4.78,10.67 -10.67,10.67c-5.89,0 -10.67,-4.78 -10.67,-10.67z" fill="currentColor"/>
</g></svg>