<svg viewBox="0 0 14 19" fill="none" xmlns="http://www.w3.org/2000/svg" xmlns:xlink="http://www.w3.org/1999/xlink" x="0" y="0"><g id="Vector_14">
<path d="M1,2h12v-2h-12z" fill="#A8A29E"/>
<path d="M6,7.5v2h-2v2h2v2h2v-2h2v-2h-2v-2z" fill="#A8A29E"/>
<path fill-rule="evenodd" clip-rule="evenodd" d="M0,3v9c0,3.866 3.134,7 7,7c3.866,0 7,-3.134 7,-7v-9zM2,12v-7h10v7c0,2.761 -2.239,5 -5,5c-2.761,0 -5,-2.239 -5,-5z" fill="#A8A29E"/>
<path d="M1,2h12v-2h-12z" stroke="#533630"/>
<path d="M6,7.5v2h-2v2h2v2h2v-2h2v-2h-2v-2z" stroke="#533630"/>
<path fill-rule="evenodd" clip-rule="evenodd" d="M0,3v9c0,3.866 3.134,7 7,7c3.866,0 7,-3.134 7,-7v-9zM2,12v-7h10v7c0,2.761 -2.239,5 -5,5c-2.761,0 -5,-2.239 -5,-5z" stroke="#533630"/>
</g></svg>