<svg viewBox="0 0 16 20" fill="none" xmlns="http://www.w3.org/2000/svg" xmlns:xlink="http://www.w3.org/1999/xlink" x="0" y="0"><g id="Vector_13">
<path d="M8,11h-4v-2h4z" fill="#A8A29E"/>
<path d="M4,13v2h8v-2z" fill="#A8A29E"/>
<path fill-rule="evenodd" clip-rule="evenodd" d="M5,0c-2.761,0 -5,2.239 -5,5v10c0,2.761 2.239,5 5,5h6c2.761,0 5,-2.239 5,-5v-7.343c0,-1.326 -0.527,-2.598 -1.464,-3.536l-2.657,-2.657c-0.938,-0.937 -2.21,-1.464 -3.536,-1.464zM2,5c0,-1.657 1.343,-3 3,-3h3v1c0,2.761 2.239,5 5,5h1v7c0,1.657 -1.343,3 -3,3h-6c-1.657,0 -3,-1.343 -3,-3zM13.501,6c-0.11,-0.166 -0.237,-0.322 -0.38,-0.464l-2.657,-2.657c-0.142,-0.143 -0.298,-0.27 -0.464,-0.38v0.501c0,1.657 1.343,3 3,3z" fill="#A8A29E"/>
<path d="M8,11h-4v-2h4z" stroke="#533630"/>
<path d="M4,13v2h8v-2z" stroke="#533630"/>
<path fill-rule="evenodd" clip-rule="evenodd" d="M5,0c-2.761,0 -5,2.239 -5,5v10c0,2.761 2.239,5 5,5h6c2.761,0 5,-2.239 5,-5v-7.343c0,-1.326 -0.527,-2.598 -1.464,-3.536l-2.657,-2.657c-0.938,-0.937 -2.21,-1.464 -3.536,-1.464zM2,5c0,-1.657 1.343,-3 3,-3h3v1c0,2.761 2.239,5 5,5h1v7c0,1.657 -1.343,3 -3,3h-6c-1.657,0 -3,-1.343 -3,-3zM13.501,6c-0.11,-0.166 -0.237,-0.322 -0.38,-0.464l-2.657,-2.657c-0.142,-0.143 -0.298,-0.27 -0.464,-0.38v0.501c0,1.657 1.343,3 3,3z" stroke="#533630"/>
</g></svg>