<svg viewBox="0 0 26.6667 26.6667" fill="none" xmlns="http://www.w3.org/2000/svg" xmlns:xlink="http://www.w3.org/1999/xlink" x="0" y="0"><g id="Vector_187">
<path fill-rule="evenodd" clip-rule="evenodd" d="M13.3333,0.0004c-2.946,0 -5.333,2.387 -5.333,5.333c0,2.945 2.387,5.333 5.333,5.333c2.946,0 5.333,-2.388 5.333,-5.333c0,-2.946 -2.387,-5.333 -5.333,-5.333zM10.6663,5.3334c0,-1.473 1.194,-2.667 2.667,-2.667c1.473,0 2.667,1.194 2.667,2.667c0,1.473 -1.194,2.667 -2.667,2.667c-1.473,0 -2.667,-1.194 -2.667,-2.667z" fill="currentColor"/>
<path fill-rule="evenodd" clip-rule="evenodd" d="M13.3333,16.0004c-2.946,0 -5.333,2.387 -5.333,5.333c0,2.945 2.387,5.333 5.333,5.333c2.946,0 5.333,-2.388 5.333,-5.333c0,-2.946 -2.387,-5.333 -5.333,-5.333zM10.6663,21.3334c0,-1.473 1.194,-2.667 2.667,-2.667c1.473,0 2.667,1.194 2.667,2.667c0,1.473 -1.194,2.667 -2.667,2.667c-1.473,0 -2.667,-1.194 -2.667,-2.667z" fill="currentColor"/>
<path fill-rule="evenodd" clip-rule="evenodd" d="M21.3333,8.0004c2.946,0 5.333,2.387 5.333,5.333c0,2.945 -2.387,5.333 -5.333,5.333c-2.946,0 -5.333,-2.388 -5.333,-5.333c0,-2.946 2.387,-5.333 5.333,-5.333zM24.0003,13.3334c0,-1.473 -1.194,-2.667 -2.667,-2.667c-1.473,0 -2.667,1.194 -2.667,2.667c0,1.473 1.194,2.667 2.667,2.667c1.473,0 2.667,-1.194 2.667,-2.667z" fill="currentColor"/>
<path fill-rule="evenodd" clip-rule="evenodd" d="M10.6663,13.3334c0,-2.946 -2.387,-5.333 -5.333,-5.333c-2.946,0 -5.333,2.387 -5.333,5.333c0,2.945 2.387,5.333 5.333,5.333c2.946,0 5.333,-2.388 5.333,-5.333zM5.3333,10.6664c1.473,0 2.667,1.194 2.667,2.667c0,1.473 -1.194,2.667 -2.667,2.667c-1.473,0 -2.667,-1.194 -2.667,-2.667c0,-1.473 1.194,-2.667 2.667,-2.667z" fill="currentColor"/>
</g></svg>