<svg viewBox="0 0 18 18" fill="none" xmlns="http://www.w3.org/2000/svg" xmlns:xlink="http://www.w3.org/1999/xlink" x="0" y="0"><g id="Vector_8">
<path fill-rule="evenodd" clip-rule="evenodd" d="M4,0c-2.209,0 -4,1.791 -4,4v2c0,2.209 1.791,4 4,4c2.209,0 4,-1.791 4,-4v-2c0,-2.209 -1.791,-4 -4,-4zM2,4c0,-1.105 0.895,-2 2,-2c1.105,0 2,0.895 2,2v2c0,1.105 -0.895,2 -2,2c-1.105,0 -2,-0.895 -2,-2z" fill="#A8A29E"/>
<path fill-rule="evenodd" clip-rule="evenodd" d="M13,0c-1.657,0 -3,1.343 -3,3c0,1.657 1.343,3 3,3h2c1.657,0 3,-1.343 3,-3c0,-1.657 -1.343,-3 -3,-3zM12,3c0,-0.552 0.448,-1 1,-1h2c0.552,0 1,0.448 1,1c0,0.552 -0.448,1 -1,1h-2c-0.552,0 -1,-0.448 -1,-1z" fill="#A8A29E"/>
<path fill-rule="evenodd" clip-rule="evenodd" d="M18,14c0,2.209 -1.791,4 -4,4c-2.209,0 -4,-1.791 -4,-4v-2c0,-2.209 1.791,-4 4,-4c2.209,0 4,1.791 4,4zM14,16c1.105,0 2,-0.895 2,-2v-2c0,-1.105 -0.895,-2 -2,-2c-1.105,0 -2,0.895 -2,2v2c0,1.105 0.895,2 2,2z" fill="#A8A29E"/>
<path fill-rule="evenodd" clip-rule="evenodd" d="M5,18c1.657,0 3,-1.343 3,-3c0,-1.657 -1.343,-3 -3,-3h-2c-1.657,0 -3,1.343 -3,3c0,1.657 1.343,3 3,3zM6,15c0,0.552 -0.448,1 -1,1h-2c-0.552,0 -1,-0.448 -1,-1c0,-0.552 0.448,-1 1,-1h2c0.552,0 1,0.448 1,1z" fill="#A8A29E"/>
<path fill-rule="evenodd" clip-rule="evenodd" d="M4,0c-2.209,0 -4,1.791 -4,4v2c0,2.209 1.791,4 4,4c2.209,0 4,-1.791 4,-4v-2c0,-2.209 -1.791,-4 -4,-4zM2,4c0,-1.105 0.895,-2 2,-2c1.105,0 2,0.895 2,2v2c0,1.105 -0.895,2 -2,2c-1.105,0 -2,-0.895 -2,-2z" stroke="#533630"/>
<path fill-rule="evenodd" clip-rule="evenodd" d="M13,0c-1.657,0 -3,1.343 -3,3c0,1.657 1.343,3 3,3h2c1.657,0 3,-1.343 3,-3c0,-1.657 -1.343,-3 -3,-3zM12,3c0,-0.552 0.448,-1 1,-1h2c0.552,0 1,0.448 1,1c0,0.552 -0.448,1 -1,1h-2c-0.552,0 -1,-0.448 -1,-1z" stroke="#533630"/>
<path fill-rule="evenodd" clip-rule="evenodd" d="M18,14c0,2.209 -1.791,4 -4,4c-2.209,0 -4,-1.791 -4,-4v-2c0,-2.209 1.791,-4 4,-4c2.209,0 4,1.791 4,4zM14,16c1.105,0 2,-0.895 2,-2v-2c0,-1.105 -0.895,-2 -2,-2c-1.105,0 -2,0.895 -2,2v2c0,1.105 0.895,2 2,2z" stroke="#533630"/>
<path fill-rule="evenodd" clip-rule="evenodd" d="M5,18c1.657,0 3,-1.343 3,-3c0,-1.657 -1.343,-3 -3,-3h-2c-1.657,0 -3,1.343 -3,3c0,1.657 1.343,3 3,3zM6,15c0,0.552 -0.448,1 -1,1h-2c-0.552,0 -1,-0.448 -1,-1c0,-0.552 0.448,-1 1,-1h2c0.552,0 1,0.448 1,1z" stroke="#533630"/>
</g></svg>