<svg viewBox="0 0 14 20" fill="none" xmlns="http://www.w3.org/2000/svg" xmlns:xlink="http://www.w3.org/1999/xlink" x="0" y="0"><g id="Vector_10">
<path d="M4,5h6v-2h-6z" fill="#A8A29E"/>
<path fill-rule="evenodd" clip-rule="evenodd" d="M5,0c-2.761,0 -5,2.239 -5,5v10c0,2.761 2.239,5 5,5h4c2.761,0 5,-2.239 5,-5v-10c0,-2.761 -2.239,-5 -5,-5zM2,5c0,-1.657 1.343,-3 3,-3h4c1.657,0 3,1.343 3,3v10c0,1.657 -1.343,3 -3,3h-4c-1.657,0 -3,-1.343 -3,-3z" fill="#A8A29E"/>
<path d="M4,5h6v-2h-6z" stroke="#533630"/>
<path fill-rule="evenodd" clip-rule="evenodd" d="M5,0c-2.761,0 -5,2.239 -5,5v10c0,2.761 2.239,5 5,5h4c2.761,0 5,-2.239 5,-5v-10c0,-2.761 -2.239,-5 -5,-5zM2,5c0,-1.657 1.343,-3 3,-3h4c1.657,0 3,1.343 3,3v10c0,1.657 -1.343,3 -3,3h-4c-1.657,0 -3,-1.343 -3,-3z" stroke="#533630"/>
</g></svg>