<svg viewBox="0 0 12 18" fill="none" xmlns="http://www.w3.org/2000/svg" xmlns:xlink="http://www.w3.org/1999/xlink" x="0" y="0"><path id="Vector_12" d="M6,15c0.69,0 1.25,0.56 1.25,1.25c0,0.69 -0.56,1.25 -1.25,1.25c-0.69,0 -1.25,-0.56 -1.25,-1.25c0,-0.69 0.56,-1.25 1.25,-1.25zM3.896,0.919c1.004,-0.416 2.11,-0.526 3.177,-0.314c1.067,0.213 2.047,0.737 2.816,1.506c0.769,0.769 1.293,1.749 1.506,2.816c0.212,1.067 0.102,2.173 -0.314,3.177c-0.416,1.005 -1.121,1.865 -2.025,2.469c-0.29,0.194 -0.596,0.358 -0.914,0.492c-0.749,0.317 -1.333,0.839 -1.549,1.435h-1.042c0.234,-1.138 1.242,-1.95 2.201,-2.355c0.26,-0.11 0.511,-0.245 0.748,-0.404c0.74,-0.494 1.317,-1.197 1.657,-2.019c0.341,-0.823 0.43,-1.727 0.256,-2.6c-0.174,-0.873 -0.602,-1.674 -1.231,-2.304c-0.63,-0.629 -1.431,-1.057 -2.304,-1.231c-0.873,-0.174 -1.777,-0.085 -2.6,0.256c-0.822,0.34 -1.525,0.917 -2.019,1.657c-0.401,0.601 -0.648,1.287 -0.728,2h-1.006c0.084,-0.911 0.39,-1.79 0.902,-2.556c0.604,-0.904 1.464,-1.609 2.469,-2.025z" fill="currentColor" stroke="currentColor"/></svg>