<svg viewBox="0 0 64 64" fill="none" xmlns="http://www.w3.org/2000/svg" xmlns:xlink="http://www.w3.org/1999/xlink" x="0" y="0"><defs><clipPath id="clip3_22632_171187">
<rect x="0" y="0" width="64" height="64" rx="32" fill="white"/>
</clipPath></defs><g id="Superego lock">
<g clip-path="url(#clip3_22632_171187)">
<rect x="0" y="0" width="64" height="64" rx="32" fill="#F5F5F4"/>
<path id="Vector_49" d="M38.667,14.667c-6.628,-6.628 -17.373,-6.628 -24,0c-6.628,6.627 -6.628,17.372 0,24l28,28l28,-28c6.627,-6.628 6.627,-17.373 0,-24c-6.628,-6.628 -17.373,-6.628 -24,0l-4,4z" fill="#D6D3D1"/>
<path id="Vector_50" fill-rule="evenodd" clip-rule="evenodd" d="M29.333,24.63l-2.666,5.333c-2.259,4.517 -6.876,7.37 -11.926,7.37h-17.408v-5.333h17.408c3.03,0 5.8,-1.712 7.155,-4.422l4.597,-9.193c0.731,-1.462 2.225,-2.385 3.859,-2.385c2.383,0 4.315,1.932 4.315,4.315v24.389l2.666,-5.334c2.259,-4.517 6.876,-7.37 11.926,-7.37h22.741v5.333h-22.741c-3.03,0 -5.8,1.712 -7.155,4.423l-4.597,9.192c-0.731,1.462 -2.225,2.385 -3.859,2.385c-2.383,0 -4.315,-1.931 -4.315,-4.314z" fill="#E7E5E4"/>
</g>
</g></svg>