<svg viewBox="0 0 64 64" fill="none" xmlns="http://www.w3.org/2000/svg" xmlns:xlink="http://www.w3.org/1999/xlink" x="0" y="0"><defs><clipPath id="clip7_22632_171187">
<rect x="0" y="0" width="64" height="64" rx="32" fill="white"/>
</clipPath></defs><g id="Superego lock_6">
<g clip-path="url(#clip7_22632_171187)">
<rect x="0" y="0" width="64" height="64" rx="32" fill="#F5F5F4"/>
<circle id="Vector_74" cx="32.5" cy="32" r="32" fill="#F5F5F4"/>
<path id="Vector_75" fill-rule="evenodd" clip-rule="evenodd" d="M32,10.667c-3.745,0 -7.424,0.985 -10.667,2.858c-3.243,1.872 -5.936,4.565 -7.808,7.808c-1.873,3.243 -2.858,6.922 -2.858,10.667c0,3.745 0.985,7.424 2.858,10.667l-9.238,5.333c-2.808,-4.865 -4.287,-10.383 -4.287,-16c0,-5.617 1.479,-11.135 4.287,-16c2.809,-4.865 6.848,-8.904 11.713,-11.713c4.865,-2.808 10.383,-4.287 16,-4.287c5.617,0 11.135,1.479 16,4.287c4.865,2.809 8.904,6.848 11.713,11.713c2.808,4.865 4.287,10.383 4.287,16c0,5.617 -1.479,11.135 -4.287,16l-9.238,-5.333c1.873,-3.243 2.858,-6.922 2.858,-10.667c0,-3.745 -0.985,-7.424 -2.858,-10.667c-1.872,-3.243 -4.565,-5.936 -7.808,-7.808c-3.243,-1.873 -6.922,-2.858 -10.667,-2.858z" fill="#E7E5E4"/>
<path id="Vector_76" d="M32,18.667l10.667,45.333h-21.334z" fill="#D6D3D1"/>
</g>
</g></svg>