<svg viewBox="0 0 64 64" fill="none" xmlns="http://www.w3.org/2000/svg" xmlns:xlink="http://www.w3.org/1999/xlink" x="0" y="0"><defs><clipPath id="clip5_22632_171187">
<rect x="0" y="0" width="64" height="64" rx="32" fill="white"/>
</clipPath></defs><g id="Superego lock_4">
<g clip-path="url(#clip5_22632_171187)">
<rect x="0" y="0" width="64" height="64" rx="32" fill="#F5F5F4"/>
<circle id="Vector_60" cx="53.33300000000003" cy="53.33299999999997" r="37.3333" fill="#D6D3D1"/>
<circle id="Vector_61" cx="53.33300000000003" cy="53.33299999999997" r="10.6667" fill="#E7E5E4"/>
<ellipse id="Vector_62" cx="48" cy="32" rx="5.33333" ry="5.33333" fill="#D6D3D1"/>
<ellipse id="Vector_63" cx="32" cy="48" rx="5.33333" ry="5.33333" fill="#F5F5F4"/>
<path id="Vector_64" d="M64,5.333c0,1.401 -0.276,2.788 -0.812,4.082c-0.536,1.294 -1.322,2.47 -2.312,3.461c-0.991,0.99 -2.167,1.776 -3.461,2.312c-1.294,0.536 -2.681,0.812 -4.082,0.812c-1.4,0 -2.787,-0.276 -4.082,-0.812c-1.294,-0.536 -2.47,-1.322 -3.46,-2.312c-0.991,-0.991 -1.776,-2.167 -2.312,-3.461c-0.536,-1.294 -0.812,-2.681 -0.812,-4.082h10.666z" fill="#E7E5E4"/>
<path id="Vector_65" d="M86.571,17.097c-0.7,1.213 -1.633,2.277 -2.744,3.129c-1.112,0.853 -2.38,1.479 -3.733,1.841c-1.353,0.363 -2.764,0.455 -4.153,0.272c-1.389,-0.182 -2.728,-0.637 -3.941,-1.337c-1.213,-0.701 -2.276,-1.633 -3.129,-2.745c-0.853,-1.111 -1.478,-2.379 -1.841,-3.732c-0.362,-1.353 -0.455,-2.765 -0.272,-4.153c0.183,-1.389 0.637,-2.728 1.338,-3.941l9.237,5.333z" fill="#E7E5E4"/>
<path id="Vector_66" d="M17.097,86.571c1.213,-0.7 2.277,-1.633 3.129,-2.744c0.853,-1.112 1.479,-2.38 1.841,-3.733c0.363,-1.353 0.455,-2.764 0.272,-4.153c-0.182,-1.389 -0.637,-2.728 -1.337,-3.941c-0.701,-1.213 -1.633,-2.276 -2.745,-3.129c-1.111,-0.853 -2.379,-1.478 -3.732,-1.841c-1.353,-0.362 -2.765,-0.455 -4.153,-0.272c-1.389,0.183 -2.728,0.637 -3.941,1.338l5.333,9.237z" fill="#E7E5E4"/>
<path id="Vector_67" d="M5.333,64c1.401,0 2.788,-0.276 4.082,-0.812c1.294,-0.536 2.47,-1.322 3.461,-2.312c0.99,-0.991 1.776,-2.167 2.312,-3.461c0.536,-1.294 0.812,-2.681 0.812,-4.082c0,-1.4 -0.276,-2.788 -0.812,-4.082c-0.536,-1.294 -1.322,-2.47 -2.312,-3.46c-0.991,-0.991 -2.167,-1.776 -3.461,-2.312c-1.294,-0.536 -2.681,-0.812 -4.082,-0.812v10.666z" fill="#E7E5E4"/>
<path id="Vector_68" d="M6.431,38.571c1.213,0.7 2.552,1.155 3.941,1.338c1.388,0.183 2.8,0.09 4.153,-0.273c1.353,-0.362 2.621,-0.988 3.732,-1.84c1.112,-0.853 2.044,-1.916 2.745,-3.129c0.7,-1.213 1.155,-2.553 1.337,-3.941c0.183,-1.389 0.091,-2.8 -0.272,-4.153c-0.362,-1.354 -0.988,-2.622 -1.841,-3.733c-0.852,-1.111 -1.916,-2.044 -3.129,-2.744l-5.333,9.237z" fill="#E7E5E4"/>
<path id="Vector_69" d="M6.431,38.571c1.213,0.7 2.552,1.155 3.941,1.338c1.388,0.183 2.8,0.09 4.153,-0.273c1.353,-0.362 2.621,-0.988 3.732,-1.84c1.112,-0.853 2.044,-1.916 2.745,-3.129c0.7,-1.213 1.155,-2.553 1.337,-3.941c0.183,-1.389 0.091,-2.8 -0.272,-4.153c-0.362,-1.354 -0.988,-2.622 -1.841,-3.733c-0.852,-1.111 -1.916,-2.044 -3.129,-2.744l-5.333,9.237z" fill="#E7E5E4"/>
<path id="Vector_70" d="M20.096,17.097c0.7,1.213 1.633,2.277 2.744,3.129c1.111,0.853 2.38,1.479 3.733,1.841c1.353,0.363 2.764,0.455 4.153,0.272c1.388,-0.182 2.728,-0.637 3.941,-1.337c1.213,-0.701 2.276,-1.633 3.129,-2.745c0.853,-1.111 1.478,-2.379 1.841,-3.732c0.362,-1.353 0.455,-2.765 0.272,-4.153c-0.183,-1.389 -0.638,-2.728 -1.338,-3.941l-9.238,5.333z" fill="#E7E5E4"/>
</g>
</g></svg>