<svg viewBox="0 0 64 64" fill="none" xmlns="http://www.w3.org/2000/svg" xmlns:xlink="http://www.w3.org/1999/xlink" x="0" y="0"><defs><clipPath id="clip4_22632_171187">
<rect x="0" y="0" width="64" height="64" rx="32" fill="white"/>
</clipPath></defs><g id="Superego lock_3">
<g clip-path="url(#clip4_22632_171187)">
<rect x="0" y="0" width="64" height="64" rx="32" fill="#F5F5F4"/>
<path id="Vector_54" fill-rule="evenodd" clip-rule="evenodd" d="M64,45.333h-64v5.334h64z" fill="#E7E5E4"/>
<path id="Vector_55" fill-rule="evenodd" clip-rule="evenodd" d="M64,29.333h-64v5.334h64z" fill="#E7E5E4"/>
<path id="Vector_56" fill-rule="evenodd" clip-rule="evenodd" d="M64,13.333h-64v5.334h64z" fill="#E7E5E4"/>
<rect id="Vector_57" width="10.6667" height="10.6667" rx="5.33333" transform="matrix(4.37114e-8, 1, 1, -4.37114e-8, 42.66699999999997, 10.666999999999973)" fill="#D6D3D1"/>
<rect id="Vector_58" width="10.6667" height="10.6667" rx="5.33333" transform="matrix(4.37114e-8, 1, 1, -4.37114e-8, 26.666999999999973, 26.666999999999973)" fill="#D6D3D1"/>
<rect id="Vector_59" width="10.6667" height="10.6667" rx="5.33333" transform="matrix(4.37114e-8, 1, 1, -4.37114e-8, 10.666999999999973, 42.66699999999997)" fill="#D6D3D1"/>
</g>
</g></svg>