<svg viewBox="0 0 26.6667 24.7864" fill="none" xmlns="http://www.w3.org/2000/svg" xmlns:xlink="http://www.w3.org/1999/xlink" x="0" y="0"><path id="Vector_48" fill-rule="evenodd" clip-rule="evenodd" d="M0.0003,12c0,-6.627 5.372,-12 12,-12h4c5.891,0 10.666,4.776 10.666,10.667c0,5.891 -4.775,10.666 -10.666,10.666h-7.125c-1.06,0 -2.078,0.422 -2.828,1.172l-1.495,1.495c-1.68,1.68 -4.552,0.49 -4.552,-1.886zM12.0003,2.667c-5.155,0 -9.334,4.178 -9.334,9.333v10.114l1.495,-1.495c1.251,-1.25 2.946,-1.952 4.714,-1.952h7.125c4.418,0 8,-3.582 8,-8c0,-4.419 -3.582,-8 -8,-8z" fill="currentColor"/></svg>