<svg viewBox="0 0 24 29.3333" fill="none" xmlns="http://www.w3.org/2000/svg" xmlns:xlink="http://www.w3.org/1999/xlink" x="0" y="0"><g id="Vector_182">
<path fill-rule="evenodd" clip-rule="evenodd" d="M5.333,6.6667c0,-3.68 2.985,-6.67 6.667,-6.67c3.682,0 6.667,2.99 6.667,6.67v8c0,3.68 -2.985,6.67 -6.667,6.67c-3.682,0 -6.667,-2.99 -6.667,-6.67zM12,2.6667c-2.209,0 -4,1.79 -4,4v8c0,2.21 1.791,4 4,4c2.209,0 4,-1.79 4,-4v-8c0,-2.21 -1.791,-4 -4,-4z" fill="currentColor"/>
<path d="M2.667,13.3367v1.33c0,5.15 4.178,9.33 9.333,9.33c5.155,0 9.333,-4.18 9.333,-9.33v-1.33h2.667v1.33c0,6.18 -4.667,11.26 -10.667,11.93v2.74h-2.666v-2.74c-6,-0.67 -10.667,-5.75 -10.667,-11.93v-1.33z" fill="currentColor"/>
</g></svg>