<svg viewBox="0 0 23.5425 26.3709" fill="none" xmlns="http://www.w3.org/2000/svg" xmlns:xlink="http://www.w3.org/1999/xlink" x="0" y="0"><path id="Vector_183" d="M18.993,3.3845c-0.95,-0.96 -2.5,-0.96 -3.45,0l-11.33,11.33c-2.06,2.06 -2.06,5.39 0,7.45c2.05,2.05 5.39,2.05 7.44,0l10,-10l1.89,1.88l-10,10c-3.1,3.1 -8.12,3.1 -11.22,0c-3.1,-3.1 -3.1,-8.12 0,-11.22l11.33,-11.33c2,-1.99 5.23,-1.99 7.22,0c2,1.99 2,5.23 0,7.22l-12,12l-1.88,-1.89l12,-12c0.95,-0.95 0.95,-2.49 0,-3.44z" fill="currentColor"/></svg>