<svg viewBox="0 0 16.6667 16.6667" fill="none" xmlns="http://www.w3.org/2000/svg" xmlns:xlink="http://www.w3.org/1999/xlink" x="0" y="0"><path id="Vector_100" fill-rule="evenodd" clip-rule="evenodd" d="M0.0033,8.3334c0,-4.602 3.73,-8.333 8.33,-8.333c4.6,0 8.33,3.731 8.33,8.333c0,4.602 -3.73,8.333 -8.33,8.333c-4.6,0 -8.33,-3.731 -8.33,-8.333zM1.6633,8.3334c0,-3.4 2.55,-6.205 5.84,-6.615v6.442c0,0.332 0.13,0.65 0.36,0.884l4.56,4.556c-1.13,0.877 -2.55,1.4 -4.09,1.4c-3.68,0 -6.67,-2.985 -6.67,-6.667zM15.0033,8.3334c0,1.541 -0.53,2.959 -1.4,4.088l-4.09,-4.088l4.09,-4.088c0.87,1.129 1.4,2.547 1.4,4.088zM12.4233,3.0664c-0.92,-0.716 -2.04,-1.196 -3.26,-1.348v4.603z" fill="currentColor"/></svg>