<svg viewBox="0 0 26.2761 26.2761" fill="none" xmlns="http://www.w3.org/2000/svg" xmlns:xlink="http://www.w3.org/1999/xlink" x="0" y="0"><path id="Vector_7" fill-rule="evenodd" clip-rule="evenodd" d="M10.6663,0.0004c-5.891,0 -10.666,4.775 -10.666,10.666c0,5.891 4.775,10.667 10.666,10.667c2.465,0 4.735,-0.836 6.541,-2.24l7.183,7.183l1.886,-1.886l-7.183,-7.183c1.404,-1.806 2.24,-4.076 2.24,-6.541c0,-5.891 -4.776,-10.666 -10.667,-10.666zM2.6663,10.6664c0,-4.418 3.582,-8 8,-8c4.419,0 8,3.582 8,8c0,4.419 -3.581,8 -8,8c-4.418,0 -8,-3.581 -8,-8z" fill="currentColor"/></svg>