<svg viewBox="0 0 24.014 23.3333" fill="none" xmlns="http://www.w3.org/2000/svg" xmlns:xlink="http://www.w3.org/1999/xlink" x="0" y="0"><path id="Vector_186" fill-rule="evenodd" clip-rule="evenodd" d="M4.0029,-0.0033c-2.76,0 -4.69,2.73 -3.77,5.33l1.27,3.64c0.62,1.75 0.62,3.65 0,5.4l-1.11,3.19c-0.99,2.82 1.1,5.78 4.09,5.78c0.7,0 1.38,-0.17 1.99,-0.48l15.64,-8.05c2.55,-1.31 2.53,-4.96 -0.03,-6.24l-16.29,-8.14c-0.56,-0.28 -1.17,-0.43 -1.79,-0.43zM2.4329,4.5567c-0.38,-1.09 0.42,-2.22 1.57,-2.22c0.26,0 0.52,0.06 0.75,0.17l16.28,8.15c0.86,0.42 0.86,1.64 0.01,2.08l-15.64,8.04c-0.28,0.15 -0.6,0.22 -0.92,0.22c-1.38,0 -2.35,-1.37 -1.89,-2.67l1.11,-3.18c0.27,-0.76 0.44,-1.53 0.53,-2.31h9.77v-2.34h-9.77c-0.09,-0.78 -0.26,-1.55 -0.53,-2.31z" fill="currentColor"/></svg>