<svg viewBox="0 0 20 20" fill="none" xmlns="http://www.w3.org/2000/svg" xmlns:xlink="http://www.w3.org/1999/xlink" x="0" y="0"><g id="Vector_15">
<path d="M6.5,6c-0.796,0 -1.559,0.316 -2.121,0.879c-0.563,0.562 -0.879,1.325 -0.879,2.121h2c0,-0.265 0.105,-0.52 0.293,-0.707c0.187,-0.188 0.442,-0.293 0.707,-0.293c0.265,0 0.52,0.105 0.707,0.293c0.188,0.187 0.293,0.442 0.293,0.707h2c0,-0.796 -0.316,-1.559 -0.879,-2.121c-0.562,-0.563 -1.325,-0.879 -2.121,-0.879z" fill="#A8A29E"/>
<path d="M13.5,6c-0.796,0 -1.559,0.316 -2.121,0.879c-0.563,0.562 -0.879,1.325 -0.879,2.121h2c0,-0.265 0.105,-0.52 0.293,-0.707c0.187,-0.188 0.442,-0.293 0.707,-0.293c0.265,0 0.52,0.105 0.707,0.293c0.188,0.187 0.293,0.442 0.293,0.707h2c0,-0.796 -0.316,-1.559 -0.879,-2.121c-0.562,-0.563 -1.325,-0.879 -2.121,-0.879z" fill="#A8A29E"/>
<path d="M13.653,14.76c1.047,-0.804 1.801,-1.931 2.143,-3.207l-1.932,-0.518c-0.228,0.851 -0.73,1.602 -1.429,2.138c-0.699,0.536 -1.554,0.827 -2.435,0.827c-0.881,0 -1.736,-0.291 -2.435,-0.827c-0.699,-0.536 -1.201,-1.287 -1.429,-2.138l-1.932,0.518c0.342,1.276 1.096,2.403 2.143,3.207c1.048,0.804 2.332,1.24 3.653,1.24c1.321,0 2.605,-0.436 3.653,-1.24z" fill="#A8A29E"/>
<path fill-rule="evenodd" clip-rule="evenodd" d="M0,10c0,-5.523 4.477,-10 10,-10c5.523,0 10,4.477 10,10c0,5.523 -4.477,10 -10,10c-5.523,0 -10,-4.477 -10,-10zM10,2c-4.418,0 -8,3.582 -8,8c0,4.418 3.582,8 8,8c4.418,0 8,-3.582 8,-8c0,-4.418 -3.582,-8 -8,-8z" fill="#A8A29E"/>
<path d="M6.5,6c-0.796,0 -1.559,0.316 -2.121,0.879c-0.563,0.562 -0.879,1.325 -0.879,2.121h2c0,-0.265 0.105,-0.52 0.293,-0.707c0.187,-0.188 0.442,-0.293 0.707,-0.293c0.265,0 0.52,0.105 0.707,0.293c0.188,0.187 0.293,0.442 0.293,0.707h2c0,-0.796 -0.316,-1.559 -0.879,-2.121c-0.562,-0.563 -1.325,-0.879 -2.121,-0.879z" stroke="#533630"/>
<path d="M13.5,6c-0.796,0 -1.559,0.316 -2.121,0.879c-0.563,0.562 -0.879,1.325 -0.879,2.121h2c0,-0.265 0.105,-0.52 0.293,-0.707c0.187,-0.188 0.442,-0.293 0.707,-0.293c0.265,0 0.52,0.105 0.707,0.293c0.188,0.187 0.293,0.442 0.293,0.707h2c0,-0.796 -0.316,-1.559 -0.879,-2.121c-0.562,-0.563 -1.325,-0.879 -2.121,-0.879z" stroke="#533630"/>
<path d="M13.653,14.76c1.047,-0.804 1.801,-1.931 2.143,-3.207l-1.932,-0.518c-0.228,0.851 -0.73,1.602 -1.429,2.138c-0.699,0.536 -1.554,0.827 -2.435,0.827c-0.881,0 -1.736,-0.291 -2.435,-0.827c-0.699,-0.536 -1.201,-1.287 -1.429,-2.138l-1.932,0.518c0.342,1.276 1.096,2.403 2.143,3.207c1.048,0.804 2.332,1.24 3.653,1.24c1.321,0 2.605,-0.436 3.653,-1.24z" stroke="#533630"/>
<path fill-rule="evenodd" clip-rule="evenodd" d="M0,10c0,-5.523 4.477,-10 10,-10c5.523,0 10,4.477 10,10c0,5.523 -4.477,10 -10,10c-5.523,0 -10,-4.477 -10,-10zM10,2c-4.418,0 -8,3.582 -8,8c0,4.418 3.582,8 8,8c4.418,0 8,-3.582 8,-8c0,-4.418 -3.582,-8 -8,-8z" stroke="#533630"/>
</g></svg>