<svg viewBox="0 0 22.1382 21.3487" fill="none" xmlns="http://www.w3.org/2000/svg" xmlns:xlink="http://www.w3.org/1999/xlink" x="0" y="0"><path id="Vector_9" fill-rule="evenodd" clip-rule="evenodd" d="M8.3791,1.672c1.1,-2.229 4.28,-2.229 5.38,0l1.562,3.165c0.146,0.295 0.427,0.5 0.753,0.547l3.492,0.507c2.461,0.358 3.443,3.382 1.663,5.117l-2.527,2.464c-0.236,0.229 -0.343,0.56 -0.288,0.885l0.597,3.478c0.42,2.451 -2.152,4.32 -4.353,3.163l-3.124,-1.643c-0.291,-0.153 -0.639,-0.153 -0.93,0l-3.124,1.643c-2.201,1.157 -4.773,-0.712 -4.353,-3.163l0.597,-3.478c0.055,-0.325 -0.052,-0.656 -0.288,-0.885l-2.527,-2.464c-1.78,-1.735 -0.798,-4.759 1.663,-5.117l3.492,-0.507c0.326,-0.047 0.607,-0.252 0.753,-0.547zM11.9661,2.557c-0.367,-0.743 -1.427,-0.743 -1.794,0l-1.562,3.165c-0.437,0.885 -1.281,1.499 -2.258,1.641l-3.493,0.508c-0.82,0.119 -1.147,1.127 -0.554,1.705l2.527,2.464c0.707,0.689 1.03,1.682 0.863,2.655l-0.597,3.478c-0.14,0.817 0.718,1.44 1.451,1.054l3.124,-1.642c0.874,-0.459 1.918,-0.459 2.792,0l3.124,1.642c0.733,0.386 1.591,-0.237 1.451,-1.054l-0.597,-3.478c-0.167,-0.973 0.156,-1.966 0.863,-2.655l2.527,-2.464c0.593,-0.578 0.266,-1.586 -0.554,-1.705l-3.493,-0.508c-0.977,-0.142 -1.821,-0.756 -2.258,-1.641z" fill="currentColor"/></svg>