<svg viewBox="0 0 16.6667 16.6667" fill="none" xmlns="http://www.w3.org/2000/svg" xmlns:xlink="http://www.w3.org/1999/xlink" x="0" y="0"><path id="Vector_98" fill-rule="evenodd" clip-rule="evenodd" d="M5.0003,3.3334c0,-1.841 1.492,-3.333 3.333,-3.333c1.841,0 3.333,1.492 3.333,3.333v1.667h1.667c1.841,0 3.333,1.492 3.333,3.333c0,1.841 -1.492,3.333 -3.333,3.333h-1.667v1.667c0,1.841 -1.492,3.333 -3.333,3.333c-1.841,0 -3.333,-1.492 -3.333,-3.333v-1.667h-1.667c-1.841,0 -3.333,-1.492 -3.333,-3.333c0,-1.841 1.492,-3.333 3.333,-3.333h1.667zM8.3333,1.6664c-0.92,0 -1.667,0.746 -1.667,1.667v3.333h-3.333c-0.92,0 -1.667,0.746 -1.667,1.667c0,0.92 0.747,1.667 1.667,1.667h3.333v3.333c0,0.92 0.747,1.667 1.667,1.667c0.92,0 1.667,-0.747 1.667,-1.667v-3.333h3.333c0.92,0 1.667,-0.747 1.667,-1.667c0,-0.921 -0.747,-1.667 -1.667,-1.667h-3.333v-3.333c0,-0.921 -0.747,-1.667 -1.667,-1.667z" fill="currentColor"/></svg>