<svg viewBox="0 0 18 20" fill="none" xmlns="http://www.w3.org/2000/svg" xmlns:xlink="http://www.w3.org/1999/xlink" x="0" y="0"><g id="Vector_11">
<path d="M6,2h6v-2h-6z" fill="#A8A29E"/>
<path fill-rule="evenodd" clip-rule="evenodd" d="M18,5h-2v8c0,3.866 -3.134,7 -7,7c-3.866,0 -7,-3.134 -7,-7v-8h-2v-2h18zM4,5h10v8c0,2.761 -2.239,5 -5,5c-2.761,0 -5,-2.239 -5,-5z" fill="#A8A29E"/>
<path d="M6,2h6v-2h-6z" stroke="#533630"/>
<path fill-rule="evenodd" clip-rule="evenodd" d="M18,5h-2v8c0,3.866 -3.134,7 -7,7c-3.866,0 -7,-3.134 -7,-7v-8h-2v-2h18zM4,5h10v8c0,2.761 -2.239,5 -5,5c-2.761,0 -5,-2.239 -5,-5z" stroke="#533630"/>
</g></svg>