<svg viewBox="0 0 255 32" fill="none" xmlns="http://www.w3.org/2000/svg" xmlns:xlink="http://www.w3.org/1999/xlink" x="0" y="0"><g id="Frame_96">
<g id="Button Icon_8">
<rect x="0" y="0" width="32" height="32" rx="16" fill="white"/>
<g id="Monotone add_8">
<path id="Vector_106" d="M15.51,10.271c-1.77,-1.216 -4.18,0.051 -4.18,2.198v7.062c0,2.147 2.41,3.414 4.18,2.198l5.14,-3.532c1.54,-1.059 1.54,-3.335 0,-4.394z" fill="#926247" stroke="#926247" stroke-width="1.33333"/>
</g>
</g>
<g id="Frame_97">
<path id="Vector_107" d="M42,15.5v1" stroke="white" stroke-width="2" stroke-linecap="round"/>
<path id="Vector_108" d="M45,15.5v1" stroke="white" stroke-width="2" stroke-linecap="round"/>
<path id="Vector_109" d="M48,15.5v1" stroke="white" stroke-width="2" stroke-linecap="round"/>
<path id="Vector_110" d="M51,13v6" stroke="white" stroke-width="2" stroke-linecap="round"/>
<path id="Vector_111" d="M54,9v14" stroke="white" stroke-width="2" stroke-linecap="round"/>
<path id="Vector_112" d="M57,3v26" stroke="white" stroke-width="2" stroke-linecap="round"/>
<path id="Vector_113" d="M60,6.5v19" stroke="white" stroke-width="2" stroke-linecap="round"/>
<path id="Vector_114" d="M63,13v6" stroke="white" stroke-width="2" stroke-linecap="round"/>
<path id="Vector_115" d="M66,15v2" stroke="white" stroke-width="2" stroke-linecap="round"/>
<path id="Vector_116" d="M69,10v12" stroke="white" stroke-width="2" stroke-linecap="round"/>
<path id="Vector_117" d="M72,11v10" stroke="white" stroke-width="2" stroke-linecap="round"/>
<path id="Vector_118" d="M75,14.5v3" stroke="white" stroke-width="2" stroke-linecap="round"/>
<path id="Vector_119" d="M78,12.5v7" stroke="white" stroke-width="2" stroke-linecap="round"/>
<path id="Vector_120" d="M81,11v10" stroke="white" stroke-width="2" stroke-linecap="round"/>
<path id="Vector_121" d="M84,15v2" stroke="white" stroke-width="2" stroke-linecap="round"/>
<path id="Vector_122" d="M87,15v2" stroke="white" stroke-width="2" stroke-linecap="round"/>
<path id="Vector_123" d="M90,11v10" stroke="white" stroke-width="2" stroke-linecap="round"/>
<path id="Vector_124" d="M93,15.5v1" stroke="white" stroke-width="2" stroke-linecap="round"/>
<path id="Vector_125" d="M96,15.5v1" stroke="white" stroke-width="2" stroke-linecap="round"/>
<path id="Vector_126" d="M99,15.5v1" stroke="white" stroke-width="2" stroke-linecap="round"/>
<path id="Vector_127" d="M102,14.5v3" stroke="white" stroke-width="2" stroke-linecap="round"/>
<path id="Vector_128" d="M105,12v8" stroke="white" stroke-width="2" stroke-linecap="round"/>
<path id="Vector_129" d="M108,14.5v3" stroke="white" stroke-width="2" stroke-linecap="round"/>
<path id="Vector_130" d="M111,9.5v13" stroke="white" stroke-width="2" stroke-linecap="round"/>
<path id="Vector_131" d="M114,12.5v7" stroke="white" stroke-width="2" stroke-linecap="round"/>
<path id="Vector_132" d="M117,11v10" stroke="white" stroke-width="2" stroke-linecap="round"/>
<path id="Vector_133" d="M120,7v18" stroke="white" stroke-width="2" stroke-linecap="round"/>
<path id="Vector_134" d="M123,10v12" stroke="white" stroke-width="2" stroke-linecap="round"/>
<path id="Vector_135" d="M126,11v10" stroke="white" stroke-width="2" stroke-linecap="round"/>
<path id="Vector_136" d="M129,12.5v7" stroke="white" stroke-width="2" stroke-linecap="round"/>
<path id="Vector_137" d="M132,15.5v1" stroke="white" stroke-width="2" stroke-linecap="round"/>
<path id="Vector_138" d="M135,14.5v3" stroke="white" stroke-width="2" stroke-linecap="round"/>
<path id="Vector_139" d="M138,13v6" stroke="white" stroke-width="2" stroke-linecap="round"/>
<path id="Vector_140" d="M141,11v10" stroke="white" stroke-width="2" stroke-linecap="round"/>
<path id="Vector_141" d="M144,15v2" stroke="white" stroke-width="2" stroke-linecap="round"/>
<path id="Vector_142" d="M147,15.5v1" stroke="white" stroke-width="2" stroke-linecap="round"/>
<path id="Vector_143" d="M150,15.5v1" stroke="white" stroke-width="2" stroke-linecap="round"/>
<path id="Vector_144" d="M153,14.5v3" stroke="white" stroke-width="2" stroke-linecap="round"/>
<path id="Vector_145" d="M156,12.5v7" stroke="white" stroke-width="2" stroke-linecap="round"/>
<path id="Vector_146" d="M159,11v10" stroke="white" stroke-width="2" stroke-linecap="round"/>
<path id="Vector_147" d="M162,15v2" stroke="white" stroke-width="2" stroke-linecap="round"/>
<path id="Vector_148" d="M165,15v2" stroke="white" stroke-width="2" stroke-linecap="round"/>
<path id="Vector_149" d="M168,4v24" stroke="white" stroke-width="2" stroke-linecap="round"/>
<path id="Vector_150" d="M171,8v16" stroke="white" stroke-width="2" stroke-linecap="round"/>
<path id="Vector_151" d="M174,9.5v13" stroke="white" stroke-width="2" stroke-linecap="round"/>
<path id="Vector_152" d="M177,12.5v7" stroke="white" stroke-width="2" stroke-linecap="round"/>
<path id="Vector_153" d="M180,14.5v3" stroke="white" stroke-width="2" stroke-linecap="round"/>
<path id="Vector_154" d="M183,12v8" stroke="white" stroke-width="2" stroke-linecap="round"/>
<path id="Vector_155" d="M186,14.5v3" stroke="white" stroke-width="2" stroke-linecap="round"/>
<path id="Vector_156" d="M189,11v10" stroke="white" stroke-width="2" stroke-linecap="round"/>
<path id="Vector_157" d="M192,7v18" stroke="white" stroke-width="2" stroke-linecap="round"/>
<path id="Vector_158" d="M195,15v2" stroke="white" stroke-width="2" stroke-linecap="round"/>
<path id="Vector_159" d="M198,11v10" stroke="white" stroke-width="2" stroke-linecap="round"/>
<path id="Vector_160" d="M201,15.5v1" stroke="white" stroke-width="2" stroke-linecap="round"/>
<path id="Vector_161" d="M204,15.5v1" stroke="white" stroke-width="2" stroke-linecap="round"/>
<path id="Vector_162" d="M207,10v12" stroke="white" stroke-width="2" stroke-linecap="round"/>
<path id="Vector_163" d="M210,14.5v3" stroke="white" stroke-width="2" stroke-linecap="round"/>
<path id="Vector_164" d="M213,12v8" stroke="white" stroke-width="2" stroke-linecap="round"/>
<path id="Vector_165" d="M216,14.5v3" stroke="white" stroke-width="2" stroke-linecap="round"/>
<path id="Vector_166" d="M219,9.5v13" stroke="white" stroke-width="2" stroke-linecap="round"/>
<path id="Vector_167" d="M222,12.5v7" stroke="white" stroke-width="2" stroke-linecap="round"/>
<path id="Vector_168" d="M225,7v18" stroke="white" stroke-width="2" stroke-linecap="round"/>
<path id="Vector_169" d="M228,1.5v29" stroke="white" stroke-width="2" stroke-linecap="round"/>
<path id="Vector_170" d="M231,10v12" stroke="white" stroke-width="2" stroke-linecap="round"/>
<path id="Vector_171" d="M234,13.5v5" stroke="white" stroke-width="2" stroke-linecap="round"/>
<path id="Vector_172" d="M237,12.5v7" stroke="white" stroke-width="2" stroke-linecap="round"/>
<path id="Vector_173" d="M240,15.5v1" stroke="white" stroke-width="2" stroke-linecap="round"/>
<path id="Vector_174" d="M243,14.5v3" stroke="white" stroke-width="2" stroke-linecap="round"/>
<path id="Vector_175" d="M246,13v6" stroke="white" stroke-width="2" stroke-linecap="round"/>
<path id="Vector_176" d="M249,11v10" stroke="white" stroke-width="2" stroke-linecap="round"/>
<path id="Vector_177" d="M252,14.5v3" stroke="white" stroke-width="2" stroke-linecap="round"/>
<path id="Vector_178" d="M255,15.5v1" stroke="white" stroke-width="2" stroke-linecap="round"/>
</g>
</g></svg>