<svg viewBox="0 0 323.3585 238.2049" fill="none" xmlns="http://www.w3.org/2000/svg" xmlns:xlink="http://www.w3.org/1999/xlink" x="0" y="0"><g id="Group">
<path id="Vector" d="M208.405,14.084c-3.518,0.442 -7.092,0.798 -10.738,0.997c-15.482,0.841 -30.208,-5.113 -44.736,-9.457c-18.714,-5.583 -37.984,-7.505 -54.576,-3.489c-17.817,4.315 -36.29,17.02 -43.781,32.586c-7.534,15.681 -4.771,34.581 -13.815,49.478c-8.902,14.641 -23.443,25.024 -32.302,39.708c-15.638,25.892 -7.904,60.686 14.1,82.363c22.005,21.663 55.616,31.006 87.548,29.339c28.769,-1.509 57.254,-11.109 85.767,-7.149c27.459,3.817 51.529,17.176 78.917,4.201c31.504,-14.926 42.812,-51.301 27.359,-81.722c-6.224,-12.263 -15.31,-21.278 -14.328,-35.748c0.855,-12.605 6.381,-24.284 9.4,-36.418c3.39,-13.601 5.185,-30.222 -2.948,-42.684c-9.471,-14.485 -26.676,-21.734 -43.439,-24.326c-14.897,-2.307 -28.299,0.57 -42.428,2.321z" fill="#533630"/>
<path id="Vector_2" d="M230.354,223.303c0,0 4.629,5.868 10.953,14.399c-14.884,-1.666 -29.596,-7.036 -45.448,-9.243c-26.391,-3.661 -52.753,4.287 -79.344,6.679c-9.414,-24.995 -14.598,-53.223 -12.647,-78.347c-7.363,-6.508 -12.932,-11.849 -19.141,-17.632c6.622,-0.641 15.652,1.069 20.936,-2.962c7.021,-5.355 10.682,-14.2 11.679,-22.959c0.996,-8.773 -0.385,-17.617 -1.752,-26.334c7.05,9.016 26.22,35.521 35.392,38.426c0,0 14.798,-7.933 23.585,-8.289c9.101,-0.37 14.428,0.584 21.648,6.067c22.048,16.749 29.539,22.532 46.559,56.585c5.996,11.992 0.982,36.617 -12.42,43.61z" fill="#9BB167"/>
<path id="Vector_3" d="M17.787,99.779c3.547,-2.478 6.651,-5.768 8.531,-8.16c6.751,-8.631 10.867,-19.199 11.451,-30.023c0.214,-3.945 -0.071,-8.773 -3.916,-11.066c-7.492,-4.473 -13.872,4.443 -16.137,10.14c-1.31,3.319 -2.364,6.779 -4.315,9.799c-2.664,4.13 -6.851,7.178 -9.586,11.265c-1.894,2.849 -3.033,6.139 -3.574,9.486c-0.499,3.147 -0.371,6.694 1.823,9.072c4.571,4.942 10.61,3.062 15.723,-0.513z" fill="#533630"/>
<path id="Vector_4" d="M305.923,93.569c-5.882,5.982 -7.434,15.496 -8.203,23.201c-0.812,8.26 1.253,17.148 7.32,23.015c0.598,0.57 1.239,1.126 2.008,1.453c2.521,1.083 5.555,-0.669 6.837,-3.048c1.281,-2.364 1.324,-5.155 1.538,-7.805c0.399,-4.771 1.452,-9.471 3.147,-13.971c1.595,-4.244 3.76,-8.346 4.572,-12.79c1.481,-8.089 -4.814,-18.672 -14.199,-12.533c-1.126,0.726 -2.123,1.552 -3.02,2.478z" fill="#533630"/>
<g id="Group_2">
<path id="Vector_5" d="M181.047,155.997c5.07,-10.682 23.528,-45.704 28.712,-56.329c1.339,-2.734 -3.033,-4.571 -4.358,-1.837c-5.17,10.625 -23.628,45.647 -28.712,56.329c-1.31,2.763 4.358,1.837 4.358,1.837z" fill="#FBBF24"/>
</g>
<path id="Vector_6" d="M161.791,143.76c-2.279,3.219 -4.558,6.423 -6.836,9.628c-0.186,0.256 -0.371,0.555 -0.357,0.854c0.057,0.57 0.755,0.741 1.311,0.812c3.689,0.413 7.178,1.723 10.625,3.019c8.289,3.119 16.563,6.238 24.852,9.357c1.296,-3.688 2.592,-7.391 3.903,-11.08c-11.152,-4.258 -22.289,-8.531 -33.498,-12.59z" fill="#533630"/>
<path id="XMLID_2_" d="M199.763,58.904c-10.924,15.368 -11.137,37.557 -0.498,53.11c0.399,0.57 0.854,1.182 1.51,1.381c0.697,0.2 1.424,-0.071 2.093,-0.37c17.632,-7.676 31.333,-23.842 36.019,-42.499c-11.308,-8.232 -26.847,-13.26 -39.124,-11.622z" fill="#FBBF24"/>
<g id="Group_3">
<path id="Vector_7" d="M200.276,63.746c-3.518,-4.457 -8.688,-8.032 -14.627,-7.334c-5.298,0.626 -9.087,4.757 -10.255,9.827c-1.353,5.839 0.242,12.348 2.393,17.803c2.108,5.341 5.156,10.283 9.058,14.513c4.33,4.685 9.756,8.716 16.293,9.2c1.951,0.143 1.937,-2.891 0,-3.048c-6.152,-0.455 -11.208,-4.885 -15.082,-9.343c-4.017,-4.643 -7.008,-10.197 -8.702,-16.093c-1.624,-5.626 -2.849,-13.274 1.979,-17.761c5.555,-5.17 13.003,-0.398 16.778,4.387c1.225,1.538 3.375,-0.627 2.165,-2.151z" fill="#FBBF24"/>
</g>
<g id="Group_4">
<path id="Vector_8" d="M235.255,79.528c2.848,-1.396 6.181,-1.553 9.143,-0.385c1.738,0.684 3.931,2.009 3.917,4.131c-0.014,1.524 -0.897,2.962 -1.695,4.215c-2.977,4.615 -7.178,8.475 -11.85,11.323c-9.385,5.74 -20.907,7.648 -31.546,4.686c-1.895,-0.527 -2.692,2.407 -0.812,2.934c10.212,2.834 21.192,1.509 30.635,-3.191c4.714,-2.35 9.044,-5.583 12.548,-9.499c3.076,-3.433 7.975,-9.286 4.643,-13.986c-3.59,-5.056 -11.423,-5.327 -16.522,-2.849c-1.751,0.855 -0.213,3.475 1.539,2.621z" fill="#FBBF24"/>
</g>
<path id="Vector_9" d="M238.673,71.482c-0.67,1.994 -9.899,0.726 -20.637,-2.849c-10.725,-3.575 -18.886,-8.09 -18.216,-10.098c0.669,-1.994 9.898,-0.726 20.637,2.849c10.724,3.589 18.885,8.104 18.216,10.098z" fill="#533630"/>
<g id="Group_5">
<path id="Vector_10" d="M203.039,72.107c-2.92,3.603 -5.241,7.549 -6.95,11.864c-0.314,0.783 0.954,1.125 1.253,0.342c1.623,-4.102 3.831,-7.876 6.608,-11.294c0.527,-0.627 -0.384,-1.553 -0.911,-0.912z" fill="#533630"/>
</g>
<g id="Group_6">
<path id="Vector_11" d="M206.386,74.172c-3.148,3.475 -5.797,7.292 -7.948,11.451c-0.384,0.74 0.741,1.41 1.125,0.655c2.094,-4.059 4.672,-7.805 7.734,-11.195c0.57,-0.612 -0.356,-1.538 -0.911,-0.911z" fill="#533630"/>
</g>
<g id="Group_7">
<path id="Vector_12" d="M197.684,76.924c3.233,1.282 6.295,2.835 9.243,4.686c0.712,0.442 1.367,-0.684 0.655,-1.125c-3.034,-1.894 -6.224,-3.49 -9.557,-4.814c-0.783,-0.313 -1.11,0.94 -0.341,1.253z" fill="#533630"/>
</g>
<g id="Group_8">
<path id="Vector_13" d="M196.174,79.059c2.279,2.25 4.899,3.959 7.862,5.17c0.769,0.313 1.111,-0.94 0.342,-1.253c-2.735,-1.126 -5.17,-2.763 -7.278,-4.843c-0.598,-0.584 -1.524,0.342 -0.926,0.926z" fill="#533630"/>
</g>
<g id="Group_9">
<path id="Vector_14" d="M217.35,83.588c1.923,-0.925 3.675,-2.065 5.312,-3.432c-0.341,-0.257 -0.683,-0.527 -1.025,-0.783c-2.849,5.454 -6.053,10.681 -9.628,15.695c-0.484,0.683 0.641,1.338 1.125,0.655c3.575,-4.999 6.78,-10.241 9.628,-15.695c0.356,-0.684 -0.456,-1.254 -1.025,-0.784c-1.567,1.296 -3.219,2.35 -5.056,3.233c-0.741,0.356 -0.086,1.482 0.669,1.111z" fill="#533630"/>
</g>
<g id="Group_10">
<path id="Vector_15" d="M207.083,93.929c3.219,1.424 6.324,3.062 9.3,4.928c0.712,0.442 1.368,-0.684 0.655,-1.125c-2.976,-1.866 -6.081,-3.504 -9.3,-4.928c-0.755,-0.342 -1.424,0.783 -0.655,1.125z" fill="#533630"/>
</g>
<g id="Group_11">
<g id="Group_12">
<path id="Vector_16" d="M143.872,94.968c-2.378,-2.25 -5.198,-4.415 -7.05,-7.149c-1.082,-1.581 -1.694,-3.347 -1.039,-5.227c0.441,-1.282 1.339,-2.379 1.851,-3.632c1.781,-4.444 -3.603,-7.15 -7.235,-7.99c-3.29,-0.769 -8.232,1.239 -6.836,5.44c1.04,3.12 5.782,2.593 5.882,-0.726c0.028,-0.84 -1.282,-0.84 -1.31,0c-0.072,2.493 -3.433,1.638 -3.461,-0.47c-0.015,-1.068 0.612,-2.037 1.509,-2.563c1.937,-1.154 4.287,-0.47 6.153,0.441c1.581,0.755 4.287,1.894 4.429,3.945c0.1,1.581 -1.395,3.205 -1.993,4.586c-2.578,5.939 4.486,10.796 8.175,14.271c0.612,0.584 1.538,-0.342 0.925,-0.926z" fill="#533630"/>
</g>
<g id="Group_13">
<path id="Vector_17" d="M167.301,89.072c2.364,-1.894 3.461,-4.643 4.045,-7.548c0.584,-2.906 1.21,-6.367 0.484,-9.272c-0.883,-3.532 -4.543,-4.672 -6.281,-7.663c-1.168,-2.008 -1.452,-4.728 0.242,-6.565c0.869,-0.94 2.065,-1.325 3.305,-0.954c0.569,0.17 1.068,0.455 1.481,0.883c1.039,1.068 0.669,1.908 -1.111,2.52c-0.456,-0.697 -1.595,-0.042 -1.125,0.656c2.079,3.133 5.426,-1.026 3.475,-3.703c-2.45,-3.362 -7.121,-1.567 -8.232,1.922c-0.641,1.994 -0.2,4.116 0.84,5.897c1.524,2.606 4.956,3.902 5.968,6.736c0.925,2.592 0.256,5.939 -0.2,8.574c-0.512,2.906 -1.452,5.697 -3.831,7.591c-0.641,0.527 0.285,1.453 0.94,0.926z" fill="#533630"/>
</g>
<g id="Group_14">
<path id="Vector_18" d="M150.412,97.703c2.92,2.606 8.075,0.442 11.38,-2.279c5.54,-4.557 9.983,-11.565 8.103,-17.803c-0.299,-0.997 -0.797,-1.979 -1.709,-2.521c-0.911,-0.541 -2.335,-0.455 -3.062,0.399c-0.626,0.741 -0.669,1.894 -1.524,2.379c-1.239,0.698 -2.392,-0.755 -2.706,-1.994c-1.182,-4.572 -0.484,-9.528 -0.812,-14.299c-0.327,-4.772 -2.05,-9.828 -6.437,-11.893c-1.766,-0.826 -4.116,-1.04 -5.811,0.185c-1.723,1.225 -2.193,3.461 -2.122,5.412c0.085,1.937 0.584,3.86 0.199,5.811c-0.37,1.951 -2.022,4.017 -4.087,4.045c-2.08,0.029 -3.789,-1.98 -5.825,-1.381c-1.296,0.384 -2.122,1.794 -2.108,3.047c0.014,1.254 0.669,2.379 1.438,3.333c1.524,1.909 3.561,3.447 4.601,5.654c1.039,2.194 0.598,5.441 -1.809,6.652c-0.527,0.256 -1.125,0.427 -1.496,0.868c-0.512,0.613 -0.341,1.453 -0.128,2.151c1.823,5.668 5.555,10.639 10.554,14.043z" fill="#2F1C19"/>
</g>
<g id="Group_15">
<g id="Group_16">
<g id="Group_17">
<path id="Vector_19" d="M138.401,128.555l10.411,-41.901c0,0 17.789,12.177 15.14,28.2l-8.417,-2.62l2.806,17.247c1.025,6.324 -4.102,11.978 -10.497,11.565c-0.114,-0.015 -0.214,-0.015 -0.328,-0.029c-6.252,-0.441 -10.624,-6.38 -9.115,-12.462z" fill="#FDA4AF"/>
<path id="Vector_20" d="M146.215,101.535c0.59,-2.447 -0.915,-4.909 -3.362,-5.499c-2.447,-0.59 -4.909,0.915 -5.499,3.362c-0.59,2.447 0.915,4.909 3.362,5.499c2.446,0.59 4.908,-0.915 5.499,-3.362z" fill="#FDA4AF"/>
<g id="Group_18">
<path id="Vector_21" d="M143.944,100.983c-1.396,-0.912 -2.792,-1.823 -4.216,-2.706c-0.712,-0.442 -1.367,0.683 -0.655,1.125c1.41,0.883 2.82,1.794 4.216,2.706c0.697,0.456 1.353,-0.67 0.655,-1.125z" fill="#533630"/>
</g>
<path id="Vector_22" d="M155.536,112.233l2.635,16.265l-8.702,-18.629z" fill="#533630"/>
<path id="Vector_23" d="M161.445,104.986c0,0 -5.825,-0.812 -10.382,-2.322c0,0 6.352,7.947 11.493,8.147z" fill="white"/>
<g id="Group_19">
<path id="Vector_24" d="M156.205,94.802c2.122,1.909 4.23,4.059 5.953,6.338c0.185,-0.328 0.371,-0.655 0.57,-0.983c-1.168,0.057 -2.322,0.128 -3.489,0.185c-0.841,0.043 -0.841,1.353 0,1.311c1.167,-0.057 2.321,-0.129 3.489,-0.185c0.441,-0.029 0.883,-0.556 0.555,-0.983c-1.794,-2.379 -3.945,-4.615 -6.167,-6.609c-0.612,-0.555 -1.538,0.371 -0.911,0.926z" fill="#2F1C19"/>
</g>
</g>
</g>
<g id="Group_20">
<path id="Vector_25" d="M153.941,98.144c-1.21,-1.852 -4.5,-1.78 -6.053,-0.456c-0.641,0.541 0.285,1.453 0.926,0.926c0.897,-0.755 3.304,-0.897 4.016,0.199c0.442,0.698 1.581,0.043 1.111,-0.669z" fill="#533630"/>
</g>
</g>
</g>
<path id="Vector_26" d="M89.256,142.648c-9.172,-3.262 -11.821,-19.384 -5.925,-36.019c5.897,-16.635 18.131,-27.488 27.303,-24.24c9.172,3.247 11.821,20.252 5.925,36.887c-5.911,16.65 -18.131,26.633 -27.303,23.372z" fill="#533630"/>
<path id="Vector_27" d="M214.461,227.178c-13.075,1.424 -25.181,-11.195 -27.047,-28.2c-1.865,-17.005 7.236,-31.96 20.31,-33.384c13.074,-1.438 25.18,11.195 27.046,28.2c1.852,17.005 -7.235,31.96 -20.309,33.384z" fill="#533630"/>
<path id="Vector_28" d="M263.623,45.203l-4.273,2.45c-2.592,2.023 -2.222,2.649 -2.763,5.896l-1.31,9.628c-0.057,0.328 -0.513,0.328 -0.584,0.015l-1.695,-9.514c-0.669,-3.205 -0.612,-3.917 -3.261,-5.825l-4.145,-2.265c-0.157,-0.114 -0.157,-0.342 -0.014,-0.47l4.586,-2.307c2.549,-2.023 2.364,-3.333 2.891,-6.537l0.869,-9.087c0.057,-0.328 0.513,-0.328 0.584,-0.014l1.438,9.371c0.641,3.176 0.997,4.486 3.604,6.409l4.059,1.795c0.156,0.099 0.156,0.342 0.014,0.455z" fill="#FBBF24"/>
<path id="Vector_29" d="M277.382,75l-2.991,1.709c-1.809,1.41 -1.552,1.851 -1.923,4.116l-0.911,6.722c-0.043,0.228 -0.356,0.228 -0.399,0.014l-1.182,-6.637c-0.47,-2.236 -0.427,-2.734 -2.279,-4.059l-2.891,-1.581c-0.114,-0.085 -0.114,-0.242 -0.014,-0.327l3.204,-1.61c1.781,-1.41 1.653,-2.321 2.023,-4.557l0.612,-6.338c0.043,-0.228 0.356,-0.228 0.399,-0.014l1.011,6.537c0.456,2.208 0.698,3.133 2.521,4.472l2.834,1.253c0.1,0.043 0.1,0.214 -0.014,0.3z" fill="#FBBF24"/>
<path id="Vector_30" d="M85.68,175.421l-2.976,1.709c-1.809,1.41 -1.553,1.852 -1.923,4.116l-0.912,6.723c-0.042,0.228 -0.356,0.228 -0.398,0.014l-1.182,-6.637c-0.456,-2.236 -0.428,-2.734 -2.279,-4.059l-2.891,-1.581c-0.114,-0.085 -0.114,-0.242 -0.015,-0.327l3.205,-1.61c1.78,-1.41 1.652,-2.321 2.022,-4.557l0.613,-6.338c0.042,-0.228 0.356,-0.228 0.398,-0.014l1.012,6.537c0.455,2.207 0.698,3.133 2.521,4.472l2.834,1.253c0.071,0.057 0.071,0.214 -0.029,0.299z" fill="#FBBF24"/>
<g id="Group_21">
<path id="Vector_31" d="M232.335,147.595c-0.299,-12.405 -5.611,-23.77 -16.592,-28.413c-11.323,-4.786 -25.522,-0.713 -34.096,8.488c-0.584,0.627 -0.94,1.495 -0.84,2.364c0.27,2.578 3.745,2.364 6.01,1.496c-2.421,2.207 -1.852,6.95 1.011,8.417c-0.698,1.438 -1.41,2.948 -1.381,4.543c0.028,1.595 1.039,3.29 2.563,3.447c-1.424,1.994 -1.467,4.928 -0.1,6.936c0.399,0.569 0.898,1.111 1.04,1.794c0.114,0.556 -0.028,1.125 -0.157,1.681c-2.905,11.622 -7.491,20.879 -11.906,31.062c-7.349,16.949 2.578,24.597 5.227,27.061c9.813,9.086 42.442,11.707 46.757,-26.79c1.553,-14 2.806,-28.015 2.464,-42.086z" fill="#FDA4AF"/>
<g id="Group_22">
<path id="Vector_32" d="M186.333,132.983c2.222,-3.418 5.341,-5.127 9.101,-6.437c3.589,-1.254 7.193,-2.464 11.038,-2.336c0.84,0.028 0.84,-1.268 0,-1.296c-4.387,-0.157 -8.659,1.324 -12.718,2.848c-3.575,1.339 -6.452,3.333 -8.546,6.566c-0.456,0.712 0.67,1.367 1.125,0.655z" fill="#533630"/>
</g>
<g id="Group_23">
<path id="Vector_33" d="M187.656,140.772c2.036,-2.962 4.97,-4.956 8.175,-6.494c3.261,-1.567 7.762,-3.945 11.422,-3.205c0.826,0.171 1.168,-1.097 0.342,-1.253c-4.002,-0.798 -8.275,1.424 -11.835,3.062c-3.647,1.681 -6.936,3.888 -9.23,7.235c-0.47,0.698 0.656,1.353 1.126,0.655z" fill="#533630"/>
</g>
<g id="Group_24">
<path id="Vector_34" d="M188.654,148.849c2.022,-2.493 5.27,-4.188 8.047,-5.726c3.133,-1.723 6.395,-2.991 10.012,-2.934c0.84,0.015 0.84,-1.296 0,-1.31c-3.575,-0.057 -6.879,1.097 -10.012,2.763c-3.077,1.638 -6.737,3.532 -8.959,6.281c-0.541,0.655 0.385,1.581 0.912,0.926z" fill="#533630"/>
</g>
<g id="Group_25">
<path id="Vector_35" d="M189.937,157.851c3.803,1.054 7.777,1.196 11.551,-0.086c2.777,-0.94 6.138,-2.635 7.278,-5.554c0.755,-1.952 0.171,-4.772 -1.994,-5.555c-1.011,-0.37 -2.065,-0.114 -2.963,0.442c-0.712,0.427 -3.119,3.389 -3.831,3.147c0.157,0.271 0.299,0.541 0.456,0.798c0.014,-0.071 0.029,-0.143 0.043,-0.2c-0.214,0.157 -0.413,0.314 -0.627,0.485c0.057,0 0.1,0.014 0.157,0.014c0.84,0.071 0.826,-1.225 0,-1.296c-0.057,0 -0.1,-0.014 -0.157,-0.014c-0.27,-0.029 -0.584,0.213 -0.627,0.484c-0.014,0.071 -0.028,0.142 -0.042,0.199c-0.071,0.356 0.099,0.684 0.455,0.798c1.211,0.413 2.521,-1.225 3.29,-1.937c0.926,-0.883 2.265,-2.322 3.703,-1.553c1.724,0.926 1.254,3.404 0.385,4.672c-3.432,5.042 -11.479,5.355 -16.72,3.902c-0.812,-0.228 -1.154,1.026 -0.357,1.254z" fill="#533630"/>
</g>
<g id="Group_26">
<path id="Vector_36" d="M182.088,130.847c2.264,-1.71 3.532,-4.273 3.518,-7.107c0,-0.841 -1.311,-0.841 -1.296,0c0.014,2.35 -0.983,4.557 -2.877,5.981c-0.67,0.485 -0.015,1.624 0.655,1.126z" fill="#533630"/>
</g>
<g id="Group_27">
<path id="Vector_37" d="M207.298,149.289c-2.136,1.068 -3.375,3.446 -3.105,5.81c0.1,0.827 1.396,0.827 1.31,0c-0.227,-1.936 0.684,-3.802 2.45,-4.685c0.755,-0.371 0.1,-1.496 -0.655,-1.125z" fill="#533630"/>
</g>
</g>
<path id="XMLID_1_" d="M83.574,135.541c7.449,2.65 -46.871,-33.497 -35.122,-64.816c6.196,-16.536 20.168,-25.494 33.513,-37.045c6.921,-5.996 16.891,-13.216 25.821,-15.21c1.866,-0.413 4.002,-0.556 5.797,-0.043c1.894,0.541 2.691,2.806 1.637,4.458l-0.712,1.125c1.795,-1.666 3.732,-3.418 6.424,-3.176c1.296,0.114 2.777,1.168 3.19,2.407c0.641,1.951 -0.242,4.002 -1.681,5.326c2.165,-1.994 5.042,-2.691 7.435,-2.022c2.863,0.812 3.831,4.401 1.794,6.566c-0.441,0.47 -0.883,0.94 -1.267,1.41c4.999,-0.556 9.713,5.768 9.272,10.767c-0.456,4.999 -4.216,9.143 -8.446,11.85c-4.244,2.691 -9.073,4.329 -13.459,6.779c-7.477,4.173 -13.958,8.916 -19.099,14.37c-4.216,4.458 -1.353,1.937 -1.353,1.937l16.265,12.163c6.337,5.597 5.483,13.758 1.766,21.364c-2.464,5.013 -4.843,9.571 -5.142,10.126c-6.665,11.835 -20.879,18.743 -26.633,11.664z" fill="#FDA4AF"/>
<g id="Group_28">
<path id="Vector_38" d="M132.751,34.664c-2.891,-0.271 -5.782,0.028 -8.531,0.982c-1.979,0.684 -5.013,1.809 -6.053,3.803c-2.549,4.914 8.531,4.458 10.554,4.244c-0.057,-0.427 -0.114,-0.854 -0.171,-1.282c-9.129,1.467 -18.401,4.857 -23.5,13.061c-0.441,0.712 0.684,1.367 1.125,0.655c4.914,-7.919 13.943,-11.052 22.717,-12.462c0.712,-0.114 0.555,-1.353 -0.171,-1.282c-1.652,0.171 -3.333,0.356 -5.013,0.228c-0.926,-0.086 -2.977,-0.313 -3.675,-1.054c-1.609,-1.738 0.84,-2.891 1.78,-3.418c3.361,-1.852 7.136,-2.521 10.924,-2.165c0.84,0.071 0.84,-1.225 0.014,-1.31z" fill="#533630"/>
</g>
<g id="Group_29">
<path id="Vector_39" d="M107.074,17.161c-2.663,1.951 -5.142,4.13 -7.349,6.594c-1.638,1.823 -3.974,4.159 -4.259,6.708c-0.213,1.852 0.769,3.575 2.664,3.959c2.264,0.456 4.685,-1.153 6.238,-2.62c0.612,-0.584 -0.314,-1.496 -0.926,-0.926c-1.282,1.225 -5.384,4.088 -6.608,0.883c-0.769,-2.008 1.694,-4.614 2.834,-5.967c2.364,-2.835 5.084,-5.341 8.061,-7.52c0.669,-0.47 0.028,-1.61 -0.655,-1.111z" fill="#533630"/>
</g>
<g id="Group_30">
<path id="Vector_40" d="M114.149,23.668c-2.606,1.952 -5.142,3.988 -7.563,6.153c-1.723,1.538 -4.515,3.461 -4.7,6.01c-0.384,5.128 6.666,3.718 9.272,2.279c0.741,-0.399 0.071,-1.524 -0.655,-1.125c-1.624,0.897 -4.187,1.894 -6.025,0.968c-1.31,-0.669 -1.381,-2.492 -0.655,-3.589c0.57,-0.868 1.439,-1.58 2.208,-2.278c2.791,-2.592 5.725,-5.014 8.787,-7.292c0.655,-0.485 0.015,-1.624 -0.669,-1.126z" fill="#533630"/>
</g>
<g id="Group_31">
<path id="Vector_41" d="M121.258,28.572c-2.934,2.207 -5.811,4.486 -8.631,6.836c-2.065,1.738 -5.241,3.817 -4.97,6.922c0.498,5.825 9.357,2.863 12.263,1.31c0.74,-0.398 0.085,-1.524 -0.656,-1.125c-1.922,1.026 -4.087,1.823 -6.295,1.951c-0.883,0.057 -2.279,0.057 -2.991,-0.555c-1.937,-1.681 -0.555,-3.931 0.883,-5.284c3.447,-3.219 7.292,-6.11 11.052,-8.944c0.67,-0.484 0.015,-1.61 -0.655,-1.111z" fill="#533630"/>
</g>
<g id="Group_32">
<path id="Vector_42" d="M100.279,40.419c-0.798,4.472 -1.752,9.271 -5.512,12.234c-0.655,0.513 0.271,1.438 0.926,0.926c3.931,-3.105 5.027,-8.119 5.853,-12.804c0.129,-0.826 -1.125,-1.182 -1.267,-0.356z" fill="#533630"/>
</g>
<g id="Group_33">
<path id="Vector_43" d="M92.23,59.572c-0.869,1.225 -1.723,2.45 -2.592,3.674c-0.484,0.684 0.641,1.339 1.125,0.656c0.869,-1.225 1.724,-2.45 2.592,-3.675c0.485,-0.684 -0.655,-1.324 -1.125,-0.655z" fill="#533630"/>
</g>
<g id="Group_34">
<path id="Vector_44" d="M94.739,60.712c-1.282,1.011 -2.379,2.222 -3.276,3.589c-0.47,0.698 0.669,1.353 1.125,0.655c0.841,-1.282 1.88,-2.378 3.077,-3.332c0.655,-0.513 -0.271,-1.425 -0.926,-0.912z" fill="#533630"/>
</g>
<g id="Group_35">
<path id="Vector_45" d="M119.191,40.76c3.347,1.353 7.164,-0.427 8.489,-3.717c0.313,-0.783 -0.94,-1.111 -1.254,-0.342c-1.082,2.678 -4.272,3.874 -6.893,2.806c-0.769,-0.313 -1.111,0.954 -0.342,1.253z" fill="#533630"/>
</g>
<g id="Group_36">
<path id="Vector_46" d="M110.947,20.45c0.612,0.47 1.039,1.082 1.239,1.823c0.214,0.812 1.481,0.47 1.253,-0.342c-0.256,-0.954 -0.797,-1.795 -1.566,-2.407c-0.285,-0.214 -0.641,-0.271 -0.926,0c-0.228,0.228 -0.285,0.712 0,0.926z" fill="white"/>
</g>
<g id="Group_37">
<path id="Vector_47" d="M118.495,23.497c0.797,0.499 1.581,0.997 2.378,1.496c0.712,0.441 1.367,-0.684 0.655,-1.125c-0.797,-0.499 -1.581,-0.997 -2.378,-1.496c-0.712,-0.456 -1.367,0.67 -0.655,1.125z" fill="white"/>
</g>
<g id="Group_38">
<path id="Vector_48" d="M127.867,30.734c0.641,0.74 1.282,1.495 1.923,2.25c0.541,0.641 1.467,-0.285 0.926,-0.926c-0.641,-0.754 -1.282,-1.495 -1.923,-2.25c-0.541,-0.641 -1.467,0.285 -0.926,0.926z" fill="white"/>
</g>
<g id="Group_39">
<path id="Vector_49" d="M137.168,43.777c0.926,-0.114 1.78,0.057 2.564,0.556c0.712,0.455 1.367,-0.67 0.655,-1.126c-0.955,-0.612 -2.094,-0.883 -3.219,-0.74c-0.826,0.114 -0.84,1.41 0,1.31z" fill="white"/>
</g>
<g id="Group_40">
<path id="Vector_50" d="M103.781,30.236c-2.806,-1.225 -5.939,-0.726 -8.189,1.382c-0.613,0.569 0.313,1.495 0.925,0.925c1.781,-1.666 4.344,-2.164 6.609,-1.182c0.755,0.342 1.41,-0.783 0.655,-1.125z" fill="#533630"/>
</g>
<g id="Group_41">
<path id="Vector_51" d="M111.902,35.834c-2.407,-0.94 -4.971,-0.769 -7.264,0.399c-0.741,0.384 -0.086,1.509 0.655,1.125c1.994,-1.026 4.187,-1.097 6.267,-0.271c0.783,0.314 1.125,-0.954 0.342,-1.253z" fill="#533630"/>
</g>
<g id="Group_42">
<path id="Vector_52" d="M117.186,43.023c-2.065,-1.324 -4.757,-1.054 -6.551,0.613c-0.613,0.569 0.313,1.495 0.925,0.925c1.382,-1.281 3.404,-1.409 4.971,-0.398c0.698,0.441 1.353,-0.684 0.655,-1.14z" fill="#533630"/>
</g>
<g id="Group_43">
<path id="Vector_53" d="M213.376,120.645c0.441,1.04 0.883,2.066 1.324,3.105c0.328,0.769 1.453,0.1 1.125,-0.655c-0.441,-1.04 -0.883,-2.065 -1.324,-3.105c-0.328,-0.769 -1.453,-0.114 -1.125,0.655z" fill="white"/>
</g>
<g id="Group_44">
<path id="Vector_54" d="M216.539,129.332c0.257,1.196 0.513,2.378 0.77,3.575c0.17,0.826 1.438,0.47 1.253,-0.342c-0.257,-1.197 -0.513,-2.379 -0.769,-3.575c-0.171,-0.826 -1.424,-0.47 -1.254,0.342z" fill="white"/>
</g>
<g id="Group_45">
<path id="Vector_55" d="M218.533,138.063c0.171,1.482 0.342,2.949 0.513,4.43c0.099,0.826 1.395,0.826 1.296,0c-0.171,-1.481 -0.342,-2.948 -0.513,-4.43c-0.086,-0.811 -1.396,-0.826 -1.296,0z" fill="white"/>
</g>
</g></svg>