<svg viewBox="0 0 19.8995 19.8995" fill="none" xmlns="http://www.w3.org/2000/svg" xmlns:xlink="http://www.w3.org/1999/xlink" x="0" y="0"><g id="Vector_220">
<path d="M16.7422,3.1592c-1.542,-1.54 -4.043,-1.54 -5.585,0l-2.5,2.5l-1.415,-1.42l2.5,-2.5c2.324,-2.32 6.091,-2.32 8.415,0c2.323,2.33 2.323,6.09 0,8.42l-2.5,2.5l-1.415,-1.42l2.5,-2.5c1.543,-1.54 1.543,-4.04 0,-5.58z" fill="currentColor"/>
<path d="M3.1572,16.7392c1.542,1.55 4.043,1.55 5.585,0l2.5,-2.5l1.415,1.42l-2.5,2.5c-2.324,2.32 -6.091,2.32 -8.415,0c-2.323,-2.33 -2.323,-6.09 0,-8.42l2.5,-2.5l1.415,1.42l-2.5,2.5c-1.543,1.54 -1.543,4.04 0,5.58z" fill="currentColor"/>
<path d="M13.2422,5.2392l-8,8l1.415,1.42l8,-8z" fill="currentColor"/>
</g></svg>