<svg viewBox="0 0 15.5355 15.5355" fill="none" xmlns="http://www.w3.org/2000/svg" xmlns:xlink="http://www.w3.org/1999/xlink" x="0" y="0"><path id="Vector_1560" fill-rule="evenodd" clip-rule="evenodd" d="M1.7,0.6342c1.4,-1.146 3.5,-0.685 4.3,0.949l0.5,0.91c0.7,1.417 0.4,3.13 -0.7,4.25l-0.7,0.715c0.4,1.47 1.5,2.618 3,2.988l0.7,-0.715c1.1,-1.12 2.8,-1.398 4.2,-0.689l1,0.455c1.6,0.817 2,2.934 0.9,4.356c-0.6,0.789 -1.5,1.446 -2.7,1.592c-1.4,0.182 -2.8,0.089 -4.2,-0.279c-1.8,-0.492 -3.5,-1.459 -4.8,-2.804c-1.4,-1.344 -2.3,-3.019 -2.8,-4.856c-0.4,-1.373 -0.5,-2.801 -0.3,-4.202c0.1,-1.12 0.8,-2.034 1.6,-2.67zM4.5,2.3282c-0.3,-0.682 -1.2,-0.875 -1.8,-0.396c-0.5,0.444 -0.9,1.001 -1,1.587c-0.1,1.185 0,2.393 0.3,3.556c0.4,1.554 1.2,2.971 2.4,4.109c1.1,1.138 2.5,1.956 4.1,2.372c1.1,0.312 2.3,0.39 3.5,0.236c0.6,-0.076 1.2,-0.433 1.6,-0.984c0.5,-0.595 0.3,-1.479 -0.4,-1.821l-0.9,-0.455c-0.8,-0.388 -1.7,-0.236 -2.3,0.378l-0.7,0.718c-0.5,0.412 -1.1,0.577 -1.6,0.436c-2.1,-0.518 -3.7,-2.135 -4.2,-4.207c-0.2,-0.565 0,-1.163 0.4,-1.574l0.7,-0.718c0.6,-0.614 0.8,-1.551 0.4,-2.327z" fill="currentColor"/></svg>