<svg viewBox="0 0 32 32" fill="none" xmlns="http://www.w3.org/2000/svg" xmlns:xlink="http://www.w3.org/1999/xlink" x="0" y="0"><defs><clipPath id="clip75_10723_18403">
<rect width="32" height="32" fill="white" transform="translate(0, 0)"/>
</clipPath></defs><g id="Flags_3" clip-path="url(#clip75_10723_18403)">
<path id="Vector_936" d="M16,32c8.837,0 16,-7.2 16,-16c0,-8.8 -7.163,-16 -16,-16c-8.837,0 -16,7.2 -16,16c0,8.8 7.163,16 16,16z" fill="#F0F0F0"/>
<g id="Group_269">
<path id="Vector_937" d="M15.305,16h16.695c0,-1.4 -0.192,-2.8 -0.551,-4.2h-16.144z" fill="#D80027"/>
<path id="Vector_938" d="M15.305,7.7h14.347c-0.98,-1.6 -2.232,-3.1 -3.692,-4.2h-10.655z" fill="#D80027"/>
<path id="Vector_939" d="M15.999,32c3.765,0 7.226,-1.3 9.96,-3.5h-19.92c2.733,2.2 6.194,3.5 9.96,3.5z" fill="#D80027"/>
<path id="Vector_940" d="M2.348,24.3h27.303c0.787,-1.2 1.396,-2.6 1.797,-4.1h-30.897c0.401,1.5 1.011,2.9 1.797,4.1z" fill="#D80027"/>
</g>
<path id="Vector_941" d="M7.411,2.5h1.459l-1.357,1l0.518,1.6l-1.356,-1l-1.356,1l0.447,-1.4c-1.194,1 -2.24,2.2 -3.103,3.5h0.467l-0.863,0.6c-0.134,0.2 -0.263,0.4 -0.387,0.7l0.412,1.2l-0.769,-0.5c-0.191,0.4 -0.366,0.8 -0.523,1.2l0.454,1.4h1.676l-1.356,1l0.518,1.6l-1.356,-1l-0.812,0.6c-0.082,0.7 -0.124,1.3 -0.124,2h16c0,-8.8 0,-9.9 0,-16c-3.161,0 -6.107,0.9 -8.589,2.5zM8.031,14.4l-1.356,-1l-1.356,1l0.518,-1.6l-1.356,-1h1.676l0.518,-1.6l0.518,1.6h1.677l-1.357,1zM7.513,8.1l0.518,1.6l-1.356,-0.9l-1.356,0.9l0.518,-1.6l-1.356,-0.9h1.676l0.518,-1.6l0.518,1.6h1.677zM13.771,14.4l-1.357,-1l-1.356,1l0.518,-1.6l-1.356,-1h1.676l0.518,-1.6l0.518,1.6h1.677l-1.357,1zM13.252,8.1l0.519,1.6l-1.357,-0.9l-1.356,0.9l0.518,-1.6l-1.356,-0.9h1.676l0.518,-1.6l0.518,1.6h1.677zM13.252,3.5l0.519,1.6l-1.357,-1l-1.356,1l0.518,-1.6l-1.356,-1h1.676l0.518,-1.6l0.518,1.6h1.677z" fill="#0052B4"/>
</g></svg>