<svg viewBox="0 0 33.2571 25.1822" fill="none" xmlns="http://www.w3.org/2000/svg" xmlns:xlink="http://www.w3.org/1999/xlink" x="0" y="0"><g id="Group_133">
<g id="Group_134">
<g id="Group_135">
<g id="Group_136">
<g id="Group_137">
<path id="Vector_325" d="M19.3448,12.1562c-0.039,0.04 -0.089,0.06 -0.139,0.06c-0.05,0 -0.099,-0.02 -0.139,-0.06c-0.03,-0.03 -0.06,-0.06 -0.09,-0.09c-0.647,-0.64 -1.403,-1.3 -1.652,-1.43c-0.249,-0.14 -1.125,-0.14 -1.373,0c-0.249,0.14 -0.996,0.8 -1.643,1.43c-0.029,0.03 -0.059,0.06 -0.099,0.09c-0.08,0.08 -0.199,0.08 -0.279,0c-0.02,-0.02 -0.03,-0.04 -0.04,-0.06c0,0 0,-0.01 -0.01,-0.01c-0.029,-0.07 -0.01,-0.16 0.04,-0.21c0.06,-0.05 0.13,-0.12 0.199,-0.19c0.538,-0.53 1.304,-1.23 1.633,-1.41c0.368,-0.2 1.383,-0.2 1.751,0c0.319,0.18 1.095,0.88 1.632,1.41c0.07,0.07 0.14,0.14 0.2,0.19c0.089,0.08 0.079,0.21 0.009,0.28z" fill="#57534E"/>
</g>
<g id="Group_138">
<path id="Vector_326" d="M20.0098,10.7462c0,0.01 0,0.02 0,0.03c0,0 0,0 0,0.01c0,0.02 -0.01,0.03 -0.02,0.04c-0.029,0.06 -0.099,0.1 -0.169,0.1c-0.01,0 -0.01,0 -0.02,0c-0.089,-0.01 -0.179,-0.02 -0.258,-0.04c-0.717,-0.15 -1.354,-0.64 -1.702,-1.33c-0.12,-0.23 -0.189,-0.77 -0.239,-1.47c-0.01,-0.09 -0.01,-0.18 -0.02,-0.28c-0.13,-2.37 0,-6.25 0.04,-7.16c-0.249,-0.14 -1.015,-0.48 -1.941,0.01c0.04,0.92 0.169,4.82 0.04,7.18c0,0.07 -0.01,0.14 -0.01,0.21c-0.05,0.71 -0.13,1.27 -0.249,1.5c-0.348,0.69 -0.985,1.18 -1.702,1.33c-0.09,0.02 -0.169,0.03 -0.259,0.04c-0.079,0.01 -0.159,-0.04 -0.199,-0.11c-0.01,-0.01 -0.01,-0.02 -0.01,-0.03c0,-0.01 -0.01,-0.03 -0.01,-0.04c-0.01,-0.11 0.07,-0.21 0.179,-0.22c0.05,0 0.1,-0.01 0.15,-0.02c0.627,-0.1 1.184,-0.52 1.493,-1.13c0.398,-0.81 0.258,-6.64 0.179,-8.82c0,-0.07 0.03,-0.14 0.099,-0.18c1.394,-0.81 2.518,-0.03 2.568,0.01c0.05,0.04 0.09,0.1 0.08,0.17c-0.09,2.18 -0.229,8.01 0.179,8.82c0.298,0.61 0.866,1.03 1.493,1.13c0.05,0.01 0.099,0.02 0.149,0.02c0.08,0.03 0.159,0.12 0.159,0.23z" fill="#57534E"/>
</g>
</g>
</g>
</g>
<g id="Group_139">
<g id="Group_140">
<g id="Group_141">
<g id="Group_142">
<path id="Vector_327" d="M31.5178,10.3362c-1.542,-3.51 -4.02,-6.71 -6.31,-8.17c-1.373,-0.88 -2.508,-1 -3.204,-0.33c-2.319,2.24 -2.449,4.3 -2.16,5.63c0.219,1.01 0.159,2.06 -0.179,3.05c-0.04,0.12 -0.09,0.24 -0.14,0.37c-0.059,0.14 -0.129,0.29 -0.199,0.43c0,0 -0.159,0.3 -0.189,0.37c-0.069,0.14 -0.129,0.26 -0.179,0.39c-0.448,1.07 -0.229,1.66 0.02,2.33c0.209,0.56 0.448,1.2 0.328,2.34c-0.288,2.79 0.1,4.66 2.936,5.94c0.349,0.16 0.757,0.36 1.185,0.57c1.712,0.84 3.921,1.93 5.802,1.93c0.498,0 0.966,-0.08 1.404,-0.25c0.268,-0.11 0.517,-0.26 0.746,-0.45c0.05,-0.04 0.1,-0.09 0.149,-0.14c0.01,-0.01 0.02,-0.02 0.03,-0.03c0.04,-0.04 0.08,-0.08 0.12,-0.12c0.239,-0.27 0.448,-0.58 0.617,-0.94c0.02,-0.03 0.03,-0.06 0.04,-0.09c0.019,-0.04 0.029,-0.08 0.049,-0.12c0.01,-0.02 0.02,-0.04 0.03,-0.07c0.02,-0.05 0.04,-0.1 0.06,-0.16c0.01,-0.02 0.01,-0.03 0.02,-0.05c1.284,-3.7 0.935,-8.1 -0.976,-12.43zM32.1258,22.6162c-0.01,0.02 -0.01,0.03 -0.02,0.05c-0.06,0.16 -0.12,0.31 -0.189,0.46c-0.209,0.43 -0.468,0.77 -0.787,1.03c-0.01,0.01 -0.01,0.01 -0.02,0.02c-0.189,0.15 -0.398,0.28 -0.627,0.37c-0.378,0.16 -0.806,0.23 -1.254,0.23c-1.771,0 -3.941,-1.07 -5.613,-1.89c-0.428,-0.21 -0.836,-0.41 -1.194,-0.57c-2.638,-1.18 -2.986,-2.86 -2.708,-5.53c0.13,-1.23 -0.139,-1.94 -0.348,-2.52c-0.279,-0.74 -0.468,-1.28 0.239,-2.59l0.04,-0.07c0.01,-0.02 0.02,-0.04 0.03,-0.06c0,0 0,0 0,-0.01l0.02,-0.04c0,0 0,0 0,-0.01c0.109,-0.22 0.209,-0.44 0.288,-0.67c0.01,-0.01 0.01,-0.03 0.02,-0.04c0,0 0,0 0,-0.01c0.398,-1.08 0.478,-2.25 0.239,-3.38c-0.06,-0.28 -0.1,-0.6 -0.1,-0.95c0,-1.17 0.468,-2.68 2.15,-4.31c0.239,-0.23 0.528,-0.32 0.846,-0.32c0.657,0 1.394,0.39 1.861,0.68c2.23,1.43 4.648,4.56 6.161,8c1.861,4.25 2.21,8.56 0.966,12.13z" fill="#F43F5E"/>
<path id="Vector_328" d="M31.1518,10.4862c-1.513,-3.43 -3.931,-6.56 -6.161,-7.99c-0.467,-0.3 -1.204,-0.68 -1.861,-0.68c-0.308,0 -0.607,0.09 -0.846,0.31c-1.682,1.64 -2.149,3.15 -2.149,4.32c0,0.35 0.039,0.67 0.099,0.95c0.249,1.12 0.159,2.3 -0.239,3.38c0,0 0,0 0,0.01c0,0.02 -0.01,0.03 -0.02,0.04c-0.079,0.23 -0.179,0.45 -0.288,0.67l-0.1,0.19c-0.707,1.31 -0.507,1.84 -0.239,2.59c0.209,0.57 0.478,1.29 0.349,2.51c-0.279,2.68 0.069,4.36 2.707,5.54c0.358,0.16 0.766,0.36 1.194,0.57c1.672,0.82 3.842,1.89 5.613,1.89c0.448,0 0.876,-0.07 1.254,-0.23c0.229,-0.09 0.438,-0.22 0.628,-0.37c0.009,-0.01 0.009,-0.01 0.019,-0.02c0.309,-0.26 0.578,-0.61 0.787,-1.04c0.069,-0.13 0.129,-0.29 0.189,-0.45c0.01,-0.02 0.01,-0.03 0.02,-0.05c1.264,-3.59 0.915,-7.9 -0.956,-12.14zM29.9378,17.3462c-0.826,2.14 -2.249,4.17 -4.12,5.88c-0.04,0.03 -0.09,0.05 -0.13,0.05c-0.05,0 -0.109,-0.02 -0.149,-0.07c-0.07,-0.08 -0.07,-0.2 0.01,-0.27c1.831,-1.67 3.225,-3.65 4.021,-5.73c0.886,-2.32 1.045,-4.7 0.458,-7.06c-0.03,-0.11 0.039,-0.22 0.149,-0.24c0.109,-0.03 0.219,0.04 0.239,0.15c0.607,2.43 0.448,4.89 -0.478,7.29z" fill="#FECDD3"/>
</g>
</g>
</g>
</g>
<g id="Group_143">
<path id="Vector_329" d="M17.6148,9.1262c-0.04,0.07 -0.109,0.11 -0.179,0.11c-0.03,0 -0.06,-0.01 -0.09,-0.02c-0.756,-0.36 -1.363,-0.02 -1.393,-0.01c-0.099,0.05 -0.219,0.02 -0.269,-0.07c-0.049,-0.1 -0.02,-0.22 0.07,-0.27c0.03,-0.02 0.806,-0.46 1.762,-0.01c0.099,0.05 0.149,0.17 0.099,0.27z" fill="#57534E"/>
</g>
<g id="Group_144">
<path id="Vector_330" d="M17.5668,7.8062c-0.02,-0.01 -0.029,-0.02 -0.049,-0.03c-0.956,-0.44 -1.732,-0.01 -1.762,0.01c-0.03,0.02 -0.05,0.03 -0.06,0.06c0.14,-2.35 0,-6.26 -0.04,-7.17c0.926,-0.49 1.692,-0.15 1.941,-0.01c-0.02,0.89 -0.159,4.78 -0.03,7.14z" fill="#D6D3D1"/>
<path id="Vector_331" d="M17.8248,9.5562c-0.119,-0.22 -0.189,-0.76 -0.239,-1.47c-0.04,0.05 -0.089,0.07 -0.149,0.07c-0.03,0 -0.06,-0.01 -0.09,-0.02c-0.756,-0.36 -1.363,-0.02 -1.393,-0.01c-0.099,0.05 -0.219,0.02 -0.269,-0.07v-0.01c-0.049,0.72 -0.129,1.28 -0.249,1.5c-0.348,0.69 -0.985,1.19 -1.701,1.34c0.069,0.18 0.159,0.35 0.248,0.52l0.04,0.07c0.04,0.07 0.07,0.13 0.1,0.19c0.537,-0.52 1.304,-1.22 1.632,-1.4c0.368,-0.2 1.383,-0.2 1.752,0c0.318,0.18 1.094,0.88 1.632,1.4c0.03,-0.05 0.07,-0.12 0.099,-0.18l0.04,-0.07l0.03,-0.05c0,-0.01 0.01,-0.01 0.01,-0.02l0.02,-0.04c0.07,-0.14 0.139,-0.28 0.199,-0.43c-0.727,-0.13 -1.363,-0.63 -1.712,-1.32zM17.6158,9.1262c-0.04,0.07 -0.109,0.11 -0.179,0.11c-0.03,0 -0.06,-0.01 -0.09,-0.02c-0.756,-0.36 -1.363,-0.02 -1.393,-0.01c-0.099,0.05 -0.219,0.02 -0.269,-0.07c-0.049,-0.1 -0.02,-0.22 0.07,-0.27c0.03,-0.02 0.806,-0.46 1.762,-0.01c0.099,0.05 0.149,0.17 0.099,0.27z" fill="#D6D3D1"/>
<path id="Vector_332" d="M17.6158,8.0462c-0.01,0.02 -0.02,0.03 -0.029,0.04c-0.04,0.05 -0.09,0.07 -0.15,0.07c-0.03,0 -0.059,-0.01 -0.089,-0.02c-0.757,-0.36 -1.364,-0.02 -1.394,-0.01c-0.099,0.05 -0.219,0.02 -0.268,-0.07v-0.01c-0.03,-0.07 -0.03,-0.15 0.009,-0.21c0.02,-0.02 0.04,-0.04 0.06,-0.06c0.03,-0.02 0.806,-0.45 1.762,-0.01c0.02,0.01 0.03,0.02 0.05,0.03c0.069,0.07 0.089,0.17 0.049,0.25z" fill="#57534E"/>
</g>
<g id="Group_145">
<path id="Vector_333" d="M13.5318,14.8762c-1.065,0.31 -2.12,0.46 -3.145,0.46c-1.214,0 -2.378,-0.22 -3.453,-0.65c-1.891,-0.75 -3.404,-2.17 -4.25,-3.97c-0.05,-0.1 0,-0.22 0.099,-0.27c0.1,-0.05 0.219,0 0.269,0.1c0.806,1.71 2.239,3.05 4.041,3.77c1.901,0.76 4.09,0.82 6.34,0.18c0.109,-0.03 0.219,0.03 0.249,0.14c0.019,0.1 -0.04,0.21 -0.15,0.24z" fill="#F43F5E"/>
</g>
<g id="Group_146">
<path id="Vector_334" d="M7.4668,23.1362c-0.03,0.08 -0.11,0.13 -0.189,0.13c-0.02,0 -0.05,0 -0.07,-0.01c-3.065,-1.13 -4.618,-2.94 -5.394,-4.26c-0.836,-1.45 -0.946,-2.6 -0.946,-2.65c-0.01,-0.11 0.07,-0.21 0.179,-0.21c0.11,-0.01 0.209,0.07 0.219,0.18c0,0.01 0.1,1.13 0.906,2.5c0.737,1.25 2.229,2.98 5.175,4.07c0.11,0.04 0.16,0.15 0.12,0.25z" fill="#F43F5E"/>
</g>
<g id="Group_147">
<path id="Vector_335" d="M29.9348,17.3562c-0.826,2.14 -2.25,4.17 -4.121,5.88c-0.04,0.03 -0.089,0.05 -0.129,0.05c-0.05,0 -0.11,-0.02 -0.149,-0.07c-0.07,-0.08 -0.07,-0.21 0.01,-0.28c1.831,-1.66 3.224,-3.64 4.021,-5.72c0.885,-2.32 1.045,-4.7 0.457,-7.07c-0.03,-0.11 0.04,-0.22 0.15,-0.24c0.109,-0.03 0.219,0.04 0.238,0.15c0.608,2.44 0.448,4.9 -0.477,7.3z" fill="#F43F5E"/>
</g>
<g id="Group_148">
<g id="Group_149">
<g id="Group_150">
<g id="Group_151">
<path id="Vector_336" d="M14.2998,12.0662c-0.05,-0.12 -0.11,-0.25 -0.179,-0.39c-0.03,-0.06 -0.07,-0.13 -0.1,-0.2l-0.04,-0.07c-0.089,-0.17 -0.179,-0.34 -0.248,-0.51c-0.05,-0.13 -0.1,-0.25 -0.14,-0.38c-0.328,-0.99 -0.398,-2.03 -0.179,-3.05c0.07,-0.31 0.11,-0.65 0.11,-1.03c0,-1.27 -0.498,-2.88 -2.27,-4.6c-0.686,-0.67 -1.831,-0.56 -3.204,0.33c-2.29,1.46 -4.768,4.67 -6.311,8.17c-1.91,4.34 -2.259,8.75 -0.985,12.42c0.378,1.09 1.005,1.81 1.871,2.17c0.428,0.18 0.906,0.25 1.404,0.25c1.871,0 4.08,-1.09 5.792,-1.93c0.428,-0.21 0.836,-0.41 1.185,-0.57c2.846,-1.27 3.234,-3.14 2.936,-5.94c-0.12,-1.14 0.119,-1.77 0.328,-2.34c0.249,-0.67 0.468,-1.25 0.03,-2.33zM13.9018,14.2562c-0.209,0.58 -0.478,1.29 -0.349,2.52c0.279,2.68 -0.069,4.36 -2.707,5.53c-0.358,0.16 -0.766,0.36 -1.194,0.57c-2.1,1.03 -4.976,2.45 -6.877,1.66c-0.757,-0.31 -1.294,-0.94 -1.643,-1.93c-1.244,-3.58 -0.895,-7.88 0.966,-12.13c1.513,-3.44 3.931,-6.57 6.161,-7.99c0.467,-0.3 1.214,-0.69 1.861,-0.69c0.159,0 0.308,0.02 0.448,0.07c0.139,0.05 0.278,0.13 0.398,0.25c2.179,2.11 2.319,4.03 2.05,5.26c-0.249,1.13 -0.159,2.31 0.239,3.4c0,0.01 0.01,0.02 0.01,0.03c0.099,0.27 0.219,0.52 0.348,0.77l0.04,0.07c0.08,0.15 0.149,0.29 0.209,0.42c0,0 0,0.01 0.01,0.01c0.458,1.04 0.279,1.52 0.03,2.18z" fill="#F43F5E"/>
<path id="Vector_337" d="M13.8828,12.1062c0,0 0,-0.01 -0.01,-0.01c-0.06,-0.13 -0.13,-0.27 -0.209,-0.42l-0.04,-0.07c-0.14,-0.25 -0.259,-0.51 -0.349,-0.77c-0.009,-0.01 -0.009,-0.02 -0.009,-0.03c-0.399,-1.09 -0.488,-2.27 -0.239,-3.4c0.268,-1.23 0.139,-3.15 -2.051,-5.26c-0.119,-0.12 -0.248,-0.2 -0.398,-0.25c-0.139,-0.05 -0.298,-0.07 -0.448,-0.07c-0.656,0 -1.393,0.39 -1.861,0.69c-2.229,1.4 -4.648,4.55 -6.161,7.98c-1.871,4.24 -2.209,8.55 -0.965,12.13c0.338,0.99 0.876,1.62 1.642,1.93c1.901,0.78 4.778,-0.63 6.878,-1.66c0.428,-0.21 0.836,-0.41 1.194,-0.57c2.637,-1.18 2.986,-2.85 2.707,-5.53c-0.129,-1.23 0.139,-1.94 0.348,-2.52c0.239,-0.68 0.418,-1.16 -0.029,-2.17zM7.4628,23.1362c-0.03,0.08 -0.109,0.13 -0.189,0.13c-0.02,0 -0.05,0 -0.07,-0.01c-3.065,-1.13 -4.618,-2.94 -5.394,-4.26c-0.836,-1.44 -0.946,-2.6 -0.946,-2.65c-0.01,-0.11 0.07,-0.21 0.18,-0.21c0.109,-0.01 0.209,0.07 0.218,0.18c0,0.01 0.1,1.14 0.906,2.5c0.737,1.25 2.23,2.99 5.176,4.07c0.109,0.04 0.159,0.15 0.119,0.25zM13.5338,14.8762c-1.065,0.31 -2.12,0.46 -3.145,0.46c-1.214,0 -2.379,-0.22 -3.453,-0.65c-1.891,-0.76 -3.404,-2.17 -4.25,-3.97c-0.05,-0.1 0,-0.22 0.099,-0.27c0.1,-0.05 0.219,0 0.269,0.1c0.806,1.71 2.239,3.04 4.041,3.77c1.901,0.76 4.09,0.82 6.34,0.18c0.109,-0.03 0.219,0.03 0.249,0.14c0.019,0.1 -0.04,0.21 -0.15,0.24z" fill="#FECDD3"/>
</g>
</g>
</g>
</g>
</g></svg>