<svg viewBox="0 0 20.5834 20" fill="none" xmlns="http://www.w3.org/2000/svg" xmlns:xlink="http://www.w3.org/1999/xlink" x="0" y="0"><path id="Vector_1207" fill-rule="evenodd" clip-rule="evenodd" d="M3.4039,0c-2.3,0 -4,2.33 -3.2,4.56l1.1,3.12c0.5,1.5 0.5,3.14 0,4.64l-1,2.72c-0.8,2.43 1,4.96 3.5,4.96c0.6,0 1.2,-0.14 1.7,-0.41l13.5,-6.9c2.1,-1.12 2.1,-4.25 -0.1,-5.35l-13.9,-6.98c-0.5,-0.24 -1,-0.36 -1.6,-0.36zM2.1039,3.9c-0.3,-0.93 0.3,-1.9 1.3,-1.9c0.2,0 0.5,0.05 0.7,0.15l13.9,6.98c0.8,0.37 0.8,1.41 0,1.78l-13.4,6.9c-0.2,0.12 -0.5,0.19 -0.8,0.19c-1.1,0 -2,-1.17 -1.6,-2.29l1,-2.73c0.2,-0.65 0.4,-1.31 0.4,-1.98h8.4v-2h-8.4c0,-0.67 -0.2,-1.33 -0.4,-1.98z" fill="currentColor"/></svg>