<svg viewBox="0 0 16.5829 15.3033" fill="none" xmlns="http://www.w3.org/2000/svg" xmlns:xlink="http://www.w3.org/1999/xlink" x="0" y="0"><path id="Vector_73" fill-rule="evenodd" clip-rule="evenodd" d="M8.291,1.287c-1.946,-1.77 -4.959,-1.71 -6.839,0.17c-1.936,1.93 -1.936,5.07 0,7.01l6.839,6.84l6.84,-6.84c1.936,-1.94 1.936,-5.08 0,-7.01c-1.88,-1.88 -4.894,-1.94 -6.84,-0.17zM7.286,2.627c-1.286,-1.28 -3.37,-1.28 -4.655,0c-1.286,1.29 -1.286,3.37 0,4.66l5.66,5.66l5.661,-5.66c1.286,-1.29 1.286,-3.37 0,-4.66c-1.285,-1.28 -3.369,-1.28 -4.655,0l-1.006,1.01z" fill="currentColor"/></svg>