<svg viewBox="0 0 24 24" fill="none" xmlns="http://www.w3.org/2000/svg" xmlns:xlink="http://www.w3.org/1999/xlink" x="0" y="0"><g id="Mood Illustration_8">
<rect x="0" y="0" width="24" height="24" rx="12" fill="#FB923C"/>
<path id="Vector_473" fill-rule="evenodd" clip-rule="evenodd" d="M8.35,14.24c1.05,-0.8 2.33,-1.24 3.65,-1.24c1.32,0 2.61,0.44 3.65,1.24c1.05,0.8 1.81,1.93 2.15,3.21c0.14,0.53 -0.18,1.08 -0.71,1.22c-0.53,0.14 -1.08,-0.17 -1.22,-0.71c-0.23,-0.85 -0.73,-1.6 -1.43,-2.13c-0.7,-0.54 -1.56,-0.83 -2.44,-0.83c-0.88,0 -1.73,0.29 -2.43,0.83c-0.7,0.53 -1.2,1.28 -1.43,2.13c-0.14,0.54 -0.69,0.85 -1.23,0.71c-0.53,-0.14 -0.85,-0.69 -0.7,-1.22c0.34,-1.28 1.09,-2.41 2.14,-3.21z" fill="#9A3412"/>
<path id="Vector_474" fill-rule="evenodd" clip-rule="evenodd" d="M6,7c0.55,0 1,0.45 1,1v3c0,0.55 -0.45,1 -1,1c-0.55,0 -1,-0.45 -1,-1v-3c0,-0.55 0.45,-1 1,-1z" fill="#9A3412"/>
<path id="Vector_475" fill-rule="evenodd" clip-rule="evenodd" d="M18,7c0.55,0 1,0.45 1,1v3c0,0.55 -0.45,1 -1,1c-0.55,0 -1,-0.45 -1,-1v-3c0,-0.55 0.45,-1 1,-1z" fill="#9A3412"/>
</g></svg>