<svg viewBox="0 0 19.2361 20" fill="none" xmlns="http://www.w3.org/2000/svg" xmlns:xlink="http://www.w3.org/1999/xlink" x="0" y="0"><path id="Vector_897" fill-rule="evenodd" clip-rule="evenodd" d="M9.6182,0c-3.866,0 -7,3.1 -7,7v3.1c0,1.1 -0.253,2.2 -0.739,3.1l-1.879,3.8h5.745c0.177,0.7 0.535,1.3 1.044,1.8c0.751,0.8 1.768,1.2 2.829,1.2c1.061,0 2.078,-0.4 2.828,-1.2c0.51,-0.5 0.868,-1.1 1.045,-1.8h5.745l-1.879,-3.8c-0.486,-0.9 -0.739,-2 -0.739,-3.1v-3.1c0,-3.9 -3.134,-7 -7,-7zM11.3502,17h-3.464c0.086,0.2 0.193,0.3 0.318,0.4c0.375,0.4 0.883,0.6 1.414,0.6c0.53,0 1.039,-0.2 1.414,-0.6c0.125,-0.1 0.231,-0.2 0.318,-0.4zM16.0002,15l-0.432,-0.9c-0.625,-1.2 -0.95,-2.6 -0.95,-4v-3.1c0,-2.8 -2.239,-5 -5,-5c-2.762,0 -5,2.2 -5,5v3.1c0,1.4 -0.325,2.8 -0.95,4l-0.432,0.9z" fill="currentColor"/></svg>