<svg viewBox="0 0 13.3333 16.6667" fill="none" xmlns="http://www.w3.org/2000/svg" xmlns:xlink="http://www.w3.org/1999/xlink" x="0" y="0"><path id="Vector_189" fill-rule="evenodd" clip-rule="evenodd" d="M6.667,0.0033c0.24,0 0.469,0.1 0.627,0.28l4.187,4.79c1.194,1.36 1.852,3.11 1.852,4.93c0,0.87 -0.172,1.74 -0.507,2.55c-0.335,0.81 -0.826,1.54 -1.445,2.16c-0.619,0.62 -1.354,1.11 -2.163,1.45c-0.809,0.33 -1.676,0.5 -2.551,0.5c-0.876,0 -1.743,-0.17 -2.552,-0.5c-0.808,-0.34 -1.543,-0.83 -2.162,-1.45c-0.619,-0.62 -1.11,-1.35 -1.445,-2.16c-0.336,-0.81 -0.508,-1.68 -0.508,-2.55c0,-1.82 0.658,-3.57 1.852,-4.93l4.188,-4.79c0.158,-0.18 0.386,-0.28 0.627,-0.28z" fill="currentColor"/></svg>