<svg viewBox="0 0 26.5 26.5" fill="none" xmlns="http://www.w3.org/2000/svg" xmlns:xlink="http://www.w3.org/1999/xlink" x="0" y="0"><defs><linearGradient id="paint0_linear_22623_111881" x1="13.25" y1="0.25" x2="13.25" y2="26.25" gradientUnits="userSpaceOnUse">
<stop stop-color="white"/>
<stop offset="1" stop-color="white" stop-opacity="0"/>
</linearGradient></defs><path id="Union" d="M13.25,16.125c2.83,0 5.125,2.295 5.125,5.125c0,2.83 -2.295,5.125 -5.125,5.125c-2.83,0 -5.125,-2.295 -5.125,-5.125c0,-2.83 2.295,-5.125 5.125,-5.125zM5.25,8.125c2.83,0 5.125,2.295 5.125,5.125c0,2.83 -2.295,5.125 -5.125,5.125c-2.83,0 -5.125,-2.295 -5.125,-5.125c0,-2.83 2.295,-5.125 5.125,-5.125zM21.25,8.125c2.83,0 5.125,2.295 5.125,5.125c0,2.83 -2.295,5.125 -5.125,5.125c-2.83,0 -5.125,-2.295 -5.125,-5.125c0,-2.83 2.295,-5.125 5.125,-5.125zM13.25,0.125c2.83,0 5.125,2.295 5.125,5.125c0,2.83 -2.295,5.125 -5.125,5.125c-2.83,0 -5.125,-2.295 -5.125,-5.125c0,-2.83 2.295,-5.125 5.125,-5.125z" fill="white" stroke="url(#paint0_linear_22623_111881)" stroke-width="0.25"/></svg>