<svg viewBox="0 0 26.6667 26.6667" fill="none" xmlns="http://www.w3.org/2000/svg" xmlns:xlink="http://www.w3.org/1999/xlink" x="0" y="0"><g id="Vector_1452">
<path d="M16.832,1.218c-2,-0.804 -4.1,-1.218 -6.2,-1.218v2.667c1.8,0 3.5,0.345 5.1,1.015c1.7,0.67 3.1,1.652 4.4,2.89c1.2,1.238 2.2,2.708 2.9,4.326c0.6,1.617 1,3.351 1,5.102h2.6c0,-2.101 -0.4,-4.182 -1.2,-6.123c-0.8,-1.941 -2,-3.705 -3.5,-5.191c-1.4,-1.485 -3.2,-2.664 -5.1,-3.468z" fill="currentColor"/>
<path fill-rule="evenodd" clip-rule="evenodd" d="M10.632,5.333c-5.9,0 -10.6,4.776 -10.6,10.667c0,5.891 4.7,10.667 10.6,10.667c5.9,0 10.7,-4.776 10.7,-10.667c0,-5.891 -4.8,-10.667 -10.7,-10.667zM2.632,16c0,-4.418 3.6,-8 8,-8c4.5,0 8,3.582 8,8c0,4.418 -3.5,8 -8,8c-4.4,0 -8,-3.582 -8,-8z" fill="currentColor"/>
</g></svg>