<svg viewBox="0 0 20 20" fill="none" xmlns="http://www.w3.org/2000/svg" xmlns:xlink="http://www.w3.org/1999/xlink" x="0" y="0"><path id="Vector_3" fill-rule="evenodd" clip-rule="evenodd" d="M6,4c0,-2.209 1.791,-4 4,-4c2.209,0 4,1.791 4,4v2h2c2.209,0 4,1.791 4,4c0,2.209 -1.791,4 -4,4h-2v2c0,2.209 -1.791,4 -4,4c-2.209,0 -4,-1.791 -4,-4v-2h-2c-2.209,0 -4,-1.791 -4,-4c0,-2.209 1.791,-4 4,-4h2zM10,2c-1.105,0 -2,0.895 -2,2v4h-4c-1.105,0 -2,0.895 -2,2c0,1.105 0.895,2 2,2h4v4c0,1.105 0.895,2 2,2c1.105,0 2,-0.895 2,-2v-4h4c1.105,0 2,-0.895 2,-2c0,-1.105 -0.895,-2 -2,-2h-4v-4c0,-1.105 -0.895,-2 -2,-2z" fill="currentColor"/></svg>