<svg viewBox="0 0 13.3333 11.1193" fill="none" xmlns="http://www.w3.org/2000/svg" xmlns:xlink="http://www.w3.org/1999/xlink" x="0" y="0"><g id="Vector_978">
<path d="M4.167,2.1c0,-1.2 -0.933,-2.1 -2.084,-2.1c-1.15,0 -2.083,0.9 -2.083,2.1c0,1.1 0.933,2.1 2.083,2.1c1.151,0 2.084,-1 2.084,-2.1z" fill="currentColor"/>
<path d="M3.478,6.5c1.011,-0.5 2.094,-0.7 3.189,-0.7c1.094,0 2.178,0.2 3.189,0.7c1.011,0.4 1.929,1 2.703,1.8c0.651,0.6 0.651,1.7 0,2.3c-0.651,0.7 -1.706,0.7 -2.357,0c-0.464,-0.4 -1.015,-0.8 -1.622,-1.1c-0.607,-0.2 -1.257,-0.3 -1.913,-0.3c-0.657,0 -1.307,0.1 -1.914,0.3c-0.606,0.3 -1.158,0.7 -1.622,1.1c-0.651,0.7 -1.706,0.7 -2.357,0c-0.651,-0.6 -0.651,-1.7 0,-2.3c0.774,-0.8 1.693,-1.4 2.704,-1.8z" fill="currentColor"/>
<path d="M11.25,0c1.151,0 2.083,0.9 2.083,2.1c0,1.1 -0.932,2.1 -2.083,2.1c-1.151,0 -2.083,-1 -2.083,-2.1c0,-1.2 0.932,-2.1 2.083,-2.1z" fill="currentColor"/>
</g></svg>