<svg viewBox="0 0 16.5829 15.3033" fill="none" xmlns="http://www.w3.org/2000/svg" xmlns:xlink="http://www.w3.org/1999/xlink" x="0" y="0"><path id="Vector_830" fill-rule="evenodd" clip-rule="evenodd" d="M8.2891,1.2875c-1.94,-1.77 -4.96,-1.72 -6.84,0.16c-1.93,1.94 -1.93,5.08 0,7.02l6.84,6.84l6.84,-6.84c1.94,-1.94 1.94,-5.08 0,-7.02c-1.88,-1.88 -4.89,-1.93 -6.84,-0.16zM7.2891,2.6275c-1.29,-1.28 -3.37,-1.28 -4.66,0c-1.28,1.29 -1.28,3.37 0,4.66l5.66,5.66l5.66,-5.66c1.29,-1.29 1.29,-3.37 0,-4.66c-1.28,-1.28 -3.37,-1.28 -4.65,0l-1.01,1.01z" fill="currentColor"/></svg>