<svg viewBox="0 0 16.0301 16.6667" fill="none" xmlns="http://www.w3.org/2000/svg" xmlns:xlink="http://www.w3.org/1999/xlink" x="0" y="0"><path id="Vector_892" fill-rule="evenodd" clip-rule="evenodd" d="M8.0146,0.0335c-3.221,0 -5.833,2.6 -5.833,5.8v2.6c0,0.9 -0.211,1.8 -0.616,2.6l-1.566,3.1h4.788c0.148,0.6 0.446,1.1 0.87,1.6c0.626,0.6 1.473,0.9 2.357,0.9c0.884,0 1.732,-0.3 2.357,-0.9c0.425,-0.5 0.723,-1 0.871,-1.6h4.787l-1.565,-3.1c-0.405,-0.8 -0.616,-1.7 -0.616,-2.6v-2.6c0,-3.2 -2.612,-5.8 -5.834,-5.8zM9.4586,14.1335h-2.887c0.072,0.2 0.161,0.3 0.265,0.4c0.312,0.3 0.736,0.5 1.178,0.5c0.442,0 0.866,-0.2 1.179,-0.5c0.104,-0.1 0.193,-0.2 0.265,-0.4zM13.3336,12.5335l-0.36,-0.8c-0.521,-1 -0.792,-2.1 -0.792,-3.3v-2.6c0,-2.3 -1.865,-4.2 -4.167,-4.2c-2.301,0 -4.166,1.9 -4.166,4.2v2.6c0,1.2 -0.271,2.3 -0.792,3.3l-0.36,0.8z" fill="currentColor"/></svg>