<svg viewBox="0 0 17.8038 17.8038" fill="none" xmlns="http://www.w3.org/2000/svg" xmlns:xlink="http://www.w3.org/1999/xlink" x="0" y="0"><path id="Vector_724" fill-rule="evenodd" clip-rule="evenodd" d="M6.5093,1.3819c1.063,-1.84 3.722,-1.84 4.785,0c0.248,0.43 0.754,0.64 1.233,0.51c2.055,-0.55 3.935,1.33 3.384,3.38c-0.129,0.48 0.081,0.99 0.51,1.24c1.843,1.06 1.843,3.72 0,4.78c-0.429,0.25 -0.639,0.76 -0.51,1.24c0.551,2.05 -1.329,3.93 -3.384,3.38c-0.479,-0.13 -0.985,0.08 -1.233,0.51c-1.063,1.84 -3.722,1.84 -4.785,0c-0.248,-0.43 -0.754,-0.64 -1.233,-0.51c-2.055,0.55 -3.935,-1.33 -3.384,-3.38c0.129,-0.48 -0.081,-0.99 -0.51,-1.24c-1.843,-1.06 -1.843,-3.72 0,-4.78c0.429,-0.25 0.639,-0.76 0.51,-1.24c-0.551,-2.05 1.329,-3.93 3.384,-3.38c0.479,0.13 0.985,-0.08 1.233,-0.51zM9.0033,11.5019l4.238,-4.24l-1.179,-1.18l-4.238,4.24c-0.116,0.12 -0.265,0.2 -0.426,0.23c-0.162,0.03 -0.33,0.02 -0.482,-0.05c-0.152,-0.06 -0.282,-0.17 -0.374,-0.3c-0.091,-0.14 -0.14,-0.3 -0.14,-0.47v-0.41h-1.667v0.41c0,0.5 0.147,0.98 0.421,1.39c0.275,0.41 0.665,0.73 1.122,0.92c0.457,0.19 0.96,0.24 1.445,0.15c0.485,-0.1 0.93,-0.34 1.28,-0.69z" fill="currentColor"/></svg>