<svg viewBox="0 0 19.0237 19.0237" fill="none" xmlns="http://www.w3.org/2000/svg" xmlns:xlink="http://www.w3.org/1999/xlink" x="0" y="0"><g id="Vector">
<path fill-rule="evenodd" clip-rule="evenodd" d="M9.5117,0l-4.51,4.5119l4.51,4.5118l4.51,-4.5118zM7.3617,4.5119l2.15,-2.1548l2.15,2.1548l-2.15,2.1548z" fill="currentColor"/>
<path fill-rule="evenodd" clip-rule="evenodd" d="M9.5117,10l-4.51,4.5119l4.51,4.5118l4.51,-4.5118zM9.5117,16.6667l-2.15,-2.1548l2.15,-2.1548l2.15,2.1548z" fill="currentColor"/>
<path fill-rule="evenodd" clip-rule="evenodd" d="M0.0017,9.5119l4.51,-4.5119l4.51,4.5119l-4.51,4.5118zM4.5117,11.6667l2.15,-2.1548l-2.15,-2.1548l-2.15,2.1548z" fill="currentColor"/>
<path fill-rule="evenodd" clip-rule="evenodd" d="M10.0017,9.5119l4.51,4.5118l4.51,-4.5118l-4.51,-4.5119zM16.6617,9.5119l-2.15,2.1548l-2.15,-2.1548l2.15,-2.1548z" fill="currentColor"/>
</g></svg>