<svg viewBox="0 0 375 264.156" fill="none" xmlns="http://www.w3.org/2000/svg" xmlns:xlink="http://www.w3.org/1999/xlink" id="76213fca" x="0" y="0"><g id="Achievements" data-node-id="22623:124034"><g id="Achievements_3" data-node-id="22623:124036"><g id="Achievements_7" data-node-id="22623:124230" clip-path="url(#clip28_22623_124034)"><g id="Frame_90" data-node-id="22623:124231" clip-path="url(#clip29_22623_124034)">
<g id="Group_46" data-node-id="22623:124232">
<g id="Group_47" data-node-id="22623:124233">
<g id="Group_48" data-node-id="22623:124234">
<path id="Vector_92" data-node-id="22623:124235" d="M239.3,148.582l1.19,-4.854l2.47,-1.419c0,0 -8.28,-0.522 -13.5,2.241l-3.21,6.496c0.08,0.075 8.5,-2.688 13.05,-2.464z" fill="#A8A29E"/>
<path id="Vector_93" data-node-id="22623:124236" d="M239.3,148.582l1.19,-4.854l2.47,-1.419c0,0 -8.28,-0.522 -13.5,2.241l-3.21,6.496c0.08,0.075 8.5,-2.688 13.05,-2.464z" fill="#A8A29E"/>
<path id="Vector_94" data-node-id="22623:124237" d="M235.43,137.979c8.12,-2.837 17.44,-0.074 17.44,-0.074l2.69,-6.721c-7.01,-2.987 -16.18,0.747 -16.18,0.747l-0.97,2.912z" fill="#A8A29E"/>
<path id="Vector_95" data-node-id="22623:124238" d="M235.43,137.979c8.12,-2.837 17.44,-0.074 17.44,-0.074l2.69,-6.721c-7.01,-2.987 -16.18,0.747 -16.18,0.747l-0.97,2.912z" fill="#A8A29E"/>
<path id="Vector_96" data-node-id="22623:124239" d="M235.88,120.43l16.99,17.4c0,0 2.46,-2.913 2.69,-6.721l-17,-17.4c-2.46,2.913 -2.68,6.721 -2.68,6.721z" fill="#A8A29E"/>
<path id="Vector_97" data-node-id="22623:124240" d="M235.43,137.978l3.95,10.679c0,0 2.91,-2.464 3.65,-6.198l-3.58,-10.455c-3.05,2.241 -4.02,5.974 -4.02,5.974z" fill="#A8A29E"/>
<path id="Vector_98" data-node-id="22623:124241" d="M219.84,173.002l1.79,6.049c0,0 0,-14.114 13.87,-12.695l-0.97,-7.393c0.08,0.075 -13.94,0.747 -14.69,14.039z" fill="#A8A29E"/>
<path id="Vector_99" data-node-id="22623:124242" d="M219.84,173.002l1.79,6.049c0,0 0,-14.114 13.87,-12.695l-0.97,-7.393c0.08,0.075 -13.94,0.747 -14.69,14.039z" fill="#A8A29E"/>
<path id="Vector_100" data-node-id="22623:124243" d="M229.16,181.441l-0.59,-4.929c0,0 -7.31,1.12 -8.65,-3.51c-0.08,0 -1.2,8.961 9.24,8.439z" fill="#A8A29E"/>
<path id="Vector_101" data-node-id="22623:124244" d="M226.33,151.122l9.25,15.234c0,0 2.23,-3.062 2.16,-6.87l-8.28,-14.861c-2.61,2.763 -3.13,6.497 -3.13,6.497z" fill="#A8A29E"/>
</g>
<g id="Group_49" data-node-id="22623:124245">
<path id="Vector_102" data-node-id="22623:124246" d="M107.93,89.067c0,0 14.99,-8.886 9.92,-18.072l-3.65,-3.659c0,0 4.1,9.484 -8.06,16.728l1.35,2.389z" fill="#E11D48"/>
<path id="Vector_103" data-node-id="22623:124247" d="M113.82,115.353c0,0 14.32,-6.348 18.42,-14.786c0,0 0.67,-2.539 -2.09,-5.75c0,0 0.3,6.571 -15.8,13.74l0.37,3.36z" fill="#E11D48"/>
<path id="Vector_104" data-node-id="22623:124248" d="M130,122.223l0.67,-6.348c0,0 -10.06,-1.195 -16.33,-7.318l-0.44,6.87c-0.08,-0.075 5.14,5.9 16.1,6.796z" fill="#FB7185"/>
<path id="Vector_105" data-node-id="22623:124249" d="M97.05,69.427l3.28,5.526c0,0 8.8,-5.078 17.44,-3.958l-3.72,-5.75c0.07,0 -7.68,-1.718 -17,4.182z" fill="#FB7185"/>
<path id="Vector_106" data-node-id="22623:124250" d="M132.24,100.491c0,0 -2.46,-9.633 -24.31,-11.425c0,0 -1.19,-1.867 -1.79,-4.929c0,0 15.21,-2.091 24.24,7.766c-0.08,0 3.8,4.78 1.86,8.588z" fill="#FB7185"/>
</g>
<path id="Vector_107" data-node-id="22623:124252" d="M56.04,165.459c0,0 0.22,7.244 -7.24,7.991l7.24,5.078c0,0 5.07,-2.689 5.51,-12.994h-5.51z" fill="#FB7185"/>
<path id="Vector_108" data-node-id="22623:124254" d="M34.27,22.305l-7.09,-1.344c0,0 -5.21,9.484 -2.83,15.607l6.64,3.585c0,0 -2.61,-13.964 3.28,-17.848z" fill="#60A5FA"/>
<path id="Vector_109" data-node-id="22623:124255" d="M56.11,119.159l-7.08,-1.344c0,0 -5.22,9.484 -2.84,15.607l6.64,3.584c0,0 -2.61,-13.889 3.28,-17.847z" fill="#60A5FA"/>
<path id="Vector_110" data-node-id="22623:124258" d="M0.79,171.955l-9.02,13.965l6.19,3.51l9.91,-10.604z" fill="#9BB167"/>
<path id="Vector_111" data-node-id="22623:124260" d="M26.07,86.004c0,4.182 -3.43,7.617 -7.61,7.617c-4.17,0 -7.6,-3.435 -7.6,-7.617c0,-4.182 3.43,-7.617 7.6,-7.617c4.25,0.075 7.61,3.435 7.61,7.617z" fill="#FB7185"/>
<path id="Vector_112" data-node-id="22623:124261" d="M128.66,53.594c2.18,0 3.95,-1.772 3.95,-3.958c0,-2.186 -1.77,-3.958 -3.95,-3.958c-2.18,0 -3.95,1.772 -3.95,3.958c0,2.186 1.77,3.958 3.95,3.958z" fill="#FB7185"/>
<path id="Vector_113" data-node-id="22623:124262" d="M285.9,64.423c0,2.166 -1.79,3.958 -3.95,3.958c-2.16,0 -3.95,-1.792 -3.95,-3.958c0,-2.166 1.79,-3.958 3.95,-3.958c2.16,0 3.95,1.718 3.95,3.958z" fill="#FB7185"/>
<path id="Vector_114" data-node-id="22623:124263" d="M303.65,104.449c2.18,0 3.95,-1.772 3.95,-3.958c0,-2.185 -1.77,-3.957 -3.95,-3.957c-2.19,0 -3.95,1.772 -3.95,3.957c0,2.186 1.76,3.958 3.95,3.958z" fill="#FB7185"/>
<path id="Vector_115" data-node-id="22623:124264" d="M268.01,169.939c0,2.165 -1.79,3.957 -3.95,3.957c-2.17,0 -3.95,-1.792 -3.95,-3.957c0,-2.166 1.78,-3.958 3.95,-3.958c2.16,0 3.95,1.792 3.95,3.958z" fill="#FB7185"/>
<path id="Vector_116" data-node-id="22623:124265" d="M348.08,152.987c0,2.166 -1.79,3.958 -3.95,3.958c-2.16,0 -3.95,-1.792 -3.95,-3.958c0,-2.165 1.79,-3.957 3.95,-3.957c2.16,0 3.95,1.792 3.95,3.957z" fill="#FB7185"/>
<path id="Vector_117" data-node-id="22623:124269" d="M366.13,51.652c2.18,0 3.95,-1.772 3.95,-3.957c0,-2.186 -1.77,-3.958 -3.95,-3.958c-2.19,0 -3.95,1.772 -3.95,3.958c0,2.185 1.76,3.957 3.95,3.957z" fill="#FB7185"/>
<path id="Vector_118" data-node-id="22623:124270" d="M319.75,21.709c2.18,0 3.95,-1.772 3.95,-3.958c0,-2.186 -1.77,-3.958 -3.95,-3.958c-2.18,0 -3.95,1.772 -3.95,3.958c0,2.186 1.77,3.958 3.95,3.958z" fill="#FB7185"/>
<path id="Vector_119" data-node-id="22623:124271" d="M271.96,23.724c0,2.165 -1.79,3.958 -3.95,3.958c-2.17,0 -3.96,-1.793 -3.96,-3.958c0,-2.166 1.79,-3.958 3.96,-3.958c2.16,0 3.95,1.792 3.95,3.958z" fill="#FB7185"/>
<path id="Vector_120" data-node-id="22623:124272" d="M219.69,96.758c2.19,0 3.96,-1.772 3.96,-3.958c0,-2.186 -1.77,-3.958 -3.96,-3.958c-2.18,0 -3.95,1.772 -3.95,3.958c0,2.186 1.77,3.958 3.95,3.958z" fill="#FB7185"/>
<path id="Vector_121" data-node-id="22623:124273" d="M128.66,167.4c2.18,0 3.95,-1.772 3.95,-3.957c0,-2.186 -1.77,-3.958 -3.95,-3.958c-2.18,0 -3.95,1.772 -3.95,3.958c0,2.185 1.77,3.957 3.95,3.957z" fill="#FB7185"/>
<path id="Vector_122" data-node-id="22623:124274" d="M68.71,236.4c2.19,0 3.95,-1.772 3.95,-3.957c0,-2.186 -1.76,-3.958 -3.95,-3.958c-2.18,0 -3.95,1.772 -3.95,3.958c0,2.185 1.77,3.957 3.95,3.957z" fill="#FB7185"/>
<path id="Vector_123" data-node-id="22623:124276" d="M82.43,117.666c2.18,0 3.95,-1.772 3.95,-3.958c0,-2.186 -1.77,-3.958 -3.95,-3.958c-2.18,0 -3.95,1.772 -3.95,3.958c0,2.186 1.77,3.958 3.95,3.958z" fill="#FB7185"/>
<path id="Vector_124" data-node-id="22623:124277" d="M15.1,53.594c2.19,0 3.96,-1.772 3.96,-3.958c0,-2.186 -1.77,-3.958 -3.96,-3.958c-2.18,0 -3.95,1.772 -3.95,3.958c0,2.186 1.77,3.958 3.95,3.958z" fill="#FB7185"/>
<path id="Vector_125" data-node-id="22623:124279" d="M105.92,28.279c0,2.016 -1.64,3.734 -3.73,3.734c-2.01,0 -3.73,-1.643 -3.73,-3.734c0,-2.016 1.64,-3.734 3.73,-3.734c2.09,0 3.73,1.643 3.73,3.734z" fill="#FB7185"/>
<path id="Vector_126" data-node-id="22623:124280" d="M13.62,8.117c0,4.182 -3.43,7.617 -7.61,7.617c-4.17,0 -7.6,-3.435 -7.6,-7.617c0,-4.182 3.43,-7.617 7.6,-7.617c4.18,0.075 7.61,3.435 7.61,7.617z" fill="#FB7185"/>
<path id="Vector_127" data-node-id="22623:124283" d="M15.78,135.812c0,2.688 -2.17,4.928 -4.93,4.928c-2.68,0 -4.92,-2.165 -4.92,-4.928c0,-2.689 2.17,-4.929 4.92,-4.929c2.76,0 4.93,2.24 4.93,4.929z" fill="#A8A29E"/>
<path id="Vector_128" data-node-id="22623:124287" d="M120.08,146.192c0,4.181 -3.42,7.616 -7.6,7.616c-4.18,0 -7.6,-3.435 -7.6,-7.616c0,-4.182 3.42,-7.617 7.6,-7.617c4.18,0 7.6,3.435 7.6,7.617z" fill="#60A5FA"/>
<path id="Vector_129" data-node-id="22623:124290" d="M145.58,137.455l1.64,3.361l3.73,0.523l-2.68,2.613l0.67,3.734l-3.36,-1.792l-3.28,1.792l0.6,-3.734l-2.69,-2.613l3.73,-0.523z" fill="#A8A29E"/>
<path id="Vector_130" data-node-id="22623:124291" d="M27.48,109.004l1.64,3.361l3.73,0.522l-2.68,2.614l0.67,3.659l-3.36,-1.717l-3.28,1.717l0.6,-3.659l-2.69,-2.614l3.73,-0.522z" fill="#9BB167"/>
<path id="Vector_131" data-node-id="22623:124292" d="M123.07,186.217l1.64,3.361l3.73,0.522l-2.69,2.614l0.67,3.734l-3.35,-1.792l-3.28,1.792l0.59,-3.734l-2.68,-2.614l3.73,-0.522z" fill="#9BB167"/>
<path id="Vector_132" data-node-id="22623:124293" d="M253.47,181.588l1.64,3.361l3.73,0.597l-2.69,2.614l0.6,3.659l-3.28,-1.718l-3.28,1.718l0.6,-3.659l-2.69,-2.614l3.73,-0.597z" fill="#9BB167"/>
<path id="Vector_133" data-node-id="22623:124294" d="M362.18,154.182l1.64,3.36l3.73,0.598l-2.69,2.613l0.6,3.66l-3.28,-1.718l-3.28,1.718l0.59,-3.66l-2.68,-2.613l3.73,-0.598z" fill="#9BB167"/>
<path id="Vector_134" data-node-id="22623:124296" d="M293.58,18.348l1.64,3.36l3.73,0.523l-2.68,2.614l0.59,3.734l-3.28,-1.793l-3.35,1.793l0.67,-3.734l-2.69,-2.614l3.73,-0.523z" fill="#9BB167"/>
<path id="Vector_135" data-node-id="22623:124298" d="M245.72,33.432l1.64,3.36l3.72,0.523l-2.68,2.614l0.6,3.659l-3.28,-1.718l-3.28,1.718l0.59,-3.659l-2.68,-2.614l3.73,-0.523z" fill="#9BB167"/>
<path id="Vector_136" data-node-id="22623:124300" d="M275.76,80.104l1.64,3.36l3.73,0.523l-2.68,2.614l0.67,3.733l-3.36,-1.792l-3.28,1.792l0.6,-3.733l-2.69,-2.614l3.73,-0.523z" fill="#A8A29E"/>
<path id="Vector_137" data-node-id="22623:124301" d="M344.13,112.737l1.64,3.36l3.66,0.598l-2.61,2.613l0.59,3.659l-3.28,-1.717l-3.35,1.717l0.67,-3.659l-2.68,-2.613l3.65,-0.598z" fill="#A8A29E"/>
<path id="Vector_138" data-node-id="22623:124302" d="M343.09,55.313l1.64,3.36l3.73,0.523l-2.69,2.614l0.6,3.733l-3.28,-1.717l-3.36,1.717l0.67,-3.733l-2.68,-2.614l3.73,-0.523z" fill="#A8A29E"/>
<path id="Vector_139" data-node-id="22623:124305" d="M356.36,218.403l1.64,3.36l3.73,0.523l-2.69,2.614l0.6,3.733l-3.28,-1.792l-3.35,1.792l0.67,-3.733l-2.69,-2.614l3.73,-0.523z" fill="#A8A29E"/>
<path id="Vector_140" data-node-id="22623:124306" d="M303.65,128.643l1.64,3.36l3.72,0.523l-2.68,2.614l0.6,3.734l-3.28,-1.718l-3.36,1.718l0.67,-3.734l-2.68,-2.614l3.73,-0.523z" fill="#A8A29E"/>
<path id="Vector_141" data-node-id="22623:124307" d="M250.41,99.371l1.64,3.361l3.73,0.523l-2.68,2.613l0.59,3.734l-3.28,-1.792l-3.28,1.792l0.6,-3.734l-2.69,-2.613l3.73,-0.523z" fill="#A8A29E"/>
<path id="Vector_142" data-node-id="22623:124308" d="M177.42,26.862l1.64,3.36l3.73,0.523l-2.69,2.613l0.67,3.734l-3.35,-1.792l-3.28,1.792l0.59,-3.734l-2.68,-2.613l3.73,-0.523z" fill="#A8A29E"/>
<path id="Vector_143" data-node-id="22623:124310" d="M124.71,19.393l1.71,3.36l3.66,0.598l-2.69,2.613l0.67,3.66l-3.35,-1.718l-3.28,1.718l0.59,-3.66l-2.61,-2.613l3.66,-0.598z" fill="#A8A29E"/>
<path id="Vector_144" data-node-id="22623:124311" d="M74.68,85.854l1.71,3.36l3.66,0.523l-2.69,2.614l0.67,3.733l-3.35,-1.792l-3.28,1.792l0.59,-3.733l-2.68,-2.614l3.73,-0.523z" fill="#A8A29E"/>
<path id="Vector_145" data-node-id="22623:124312" d="M82.43,142.309l2.39,4.854l5.37,0.821l-3.88,3.734l0.97,5.377l-4.85,-2.539l-4.77,2.539l0.9,-5.377l-3.88,-3.734l5.37,-0.821z" fill="#9BB167"/>
<g id="Group_50" data-node-id="22623:124314">
<path id="Vector_146" data-node-id="22623:124315" d="M62.45,62.257l1.19,-4.854l2.46,-1.419c0,0 -8.27,-0.448 -13.49,2.315l-3.13,6.497c0,0 8.42,-2.763 12.97,-2.539z" fill="#A8A29E"/>
<path id="Vector_147" data-node-id="22623:124316" d="M62.45,62.257l1.19,-4.854l2.46,-1.419c0,0 -8.27,-0.448 -13.49,2.315l-3.13,6.497c0,0 8.42,-2.763 12.97,-2.539z" fill="#A8A29E"/>
<path id="Vector_148" data-node-id="22623:124317" d="M58.43,51.577c8.12,-2.912 17.44,-0.149 17.44,-0.149l2.69,-6.721c-7.01,-2.912 -16.18,0.822 -16.18,0.822l-0.97,2.912z" fill="#A8A29E"/>
<path id="Vector_149" data-node-id="22623:124318" d="M58.43,51.577c8.12,-2.912 17.44,-0.149 17.44,-0.149l2.69,-6.721c-7.01,-2.912 -16.18,0.822 -16.18,0.822l-0.97,2.912z" fill="#A8A29E"/>
<path id="Vector_150" data-node-id="22623:124319" d="M58.87,34.104l17.08,17.325c0,0 2.46,-2.913 2.68,-6.721l-17.07,-17.325c-2.54,2.913 -2.69,6.721 -2.69,6.721z" fill="#A8A29E"/>
<path id="Vector_151" data-node-id="22623:124320" d="M58.43,51.579l4.02,10.604c0,0 2.84,-2.539 3.66,-6.273l-3.66,-10.455c-2.98,2.465 -4.02,6.124 -4.02,6.124z" fill="#A8A29E"/>
<path id="Vector_152" data-node-id="22623:124321" d="M43.14,86.751l1.86,6.048c0,0 -0.07,-14.113 13.8,-12.769l-1.05,-7.393c0,0 -13.94,0.822 -14.61,14.114z" fill="#A8A29E"/>
<path id="Vector_153" data-node-id="22623:124322" d="M43.14,86.751l1.86,6.048c0,0 -0.07,-14.113 13.8,-12.769l-1.05,-7.393c0,0 -13.94,0.822 -14.61,14.114z" fill="#A8A29E"/>
<path id="Vector_154" data-node-id="22623:124323" d="M52.46,95.114l-0.6,-4.929c0,0 -7.23,1.195 -8.65,-3.435c-0.07,0 -1.19,8.961 9.25,8.364z" fill="#A8A29E"/>
<path id="Vector_155" data-node-id="22623:124324" d="M49.48,64.796l9.32,15.234c0,0 2.23,-3.062 2.16,-6.945l-8.35,-14.786c-2.61,2.763 -3.13,6.497 -3.13,6.497z" fill="#A8A29E"/>
</g>
<g id="Group_51" data-node-id="22623:124331">
<path id="Vector_156" data-node-id="22623:124332" d="M336.6,188.534c0,0 11.63,6.571 15.73,-0.374l0.97,-3.808c0,0 -4.69,6.347 -14.16,1.045l-1.05,1.793z" fill="#E11D48"/>
<path id="Vector_157" data-node-id="22623:124333" d="M321.54,202.499c0,0 9.7,7.094 16.85,6.497c0,0 1.94,-0.523 2.99,-3.585c0,0 -4.25,2.689 -15.14,-5.227l-2.09,1.568z" fill="#E11D48"/>
<path id="Vector_158" data-node-id="22623:124334" d="M323.18,215.866l4.48,-2.016c0,0 -3.06,-7.169 -1.42,-13.666l-4.7,2.315c0,0 -2.01,5.75 1.64,13.367z" fill="#FB7185"/>
<path id="Vector_159" data-node-id="22623:124335" d="M345.48,173.748l-2.39,4.332c0,0 6.71,3.883 9.32,10.081l2.39,-4.705c0,0 -1.87,-5.75 -9.32,-9.708z" fill="#FB7185"/>
<path id="Vector_160" data-node-id="22623:124336" d="M338.39,209.069c0,0 5.44,-5.302 -1.79,-20.536c0,0 0.75,-1.493 2.61,-3.136c0,0 7.16,9.26 4.18,19.042c-0.08,0 -1.72,4.406 -5,4.63z" fill="#FB7185"/>
</g>
<g id="Group_52" data-node-id="22623:124349">
<g id="Group_53" data-node-id="22623:124350">
<path id="Vector_161" data-node-id="22623:124351" d="M13.24,214.596l0.52,4.779c16.48,3.435 20.73,12.994 20.73,12.994l-0.67,-7.094c-2.98,-6.348 -20.58,-10.679 -20.58,-10.679z" fill="#60A5FA"/>
<path id="Vector_162" data-node-id="22623:124352" d="M35.76,205.785c0,0 -4.99,-7.99 -19.83,-16.205c0,0 -0.82,2.39 -0.15,5.75c0,0 17.82,11.5 18.79,16.28c0,0.074 2.16,-2.241 1.19,-5.825z" fill="#60A5FA"/>
<path id="Vector_163" data-node-id="22623:124353" d="M16.38,169.343c0,0 3.2,6.945 18.04,15.159c0,0 3.06,-0.896 2.31,-4.331c0,0 -18.19,-11.948 -19.16,-16.727c0,0 -2.24,2.315 -1.19,5.899z" fill="#60A5FA"/>
<path id="Vector_164" data-node-id="22623:124354" d="M13.24,214.596l0.52,4.779c16.48,3.435 20.73,12.994 20.73,12.994l-0.67,-7.094c-2.98,-6.348 -20.58,-10.679 -20.58,-10.679z" fill="#60A5FA"/>
<path id="Vector_165" data-node-id="22623:124355" d="M35.76,205.785c0,0 -4.99,-7.99 -19.83,-16.205c0,0 -0.82,2.39 -0.15,5.75c0,0 17.82,11.5 18.79,16.28c0,0.074 2.16,-2.241 1.19,-5.825z" fill="#60A5FA"/>
<path id="Vector_166" data-node-id="22623:124356" d="M16.38,169.343c0,0 3.2,6.945 18.04,15.159c0,0 3.06,-0.896 2.31,-4.331c0,0 -18.19,-11.948 -19.16,-16.727c0,0 -2.24,2.315 -1.19,5.899z" fill="#60A5FA"/>
<path id="Vector_167" data-node-id="22623:124357" d="M13.24,214.596l0.52,4.779c16.48,3.435 20.73,12.994 20.73,12.994l-0.67,-7.094c-2.98,-6.348 -20.58,-10.679 -20.58,-10.679z" fill="#60A5FA"/>
<path id="Vector_168" data-node-id="22623:124358" d="M35.76,205.785c0,0 -4.99,-7.99 -19.83,-16.205c0,0 -0.82,2.39 -0.15,5.75c0,0 17.82,11.5 18.79,16.28c0,0.074 2.16,-2.241 1.19,-5.825z" fill="#60A5FA"/>
<path id="Vector_169" data-node-id="22623:124359" d="M16.38,169.343c0,0 3.2,6.945 18.04,15.159c0,0 3.06,-0.896 2.31,-4.331c0,0 -18.19,-11.948 -19.16,-16.727c0,0 -2.24,2.315 -1.19,5.899z" fill="#60A5FA"/>
<path id="Vector_170" data-node-id="22623:124360" d="M13.24,214.596l0.52,4.779c16.48,3.435 20.73,12.994 20.73,12.994l-0.67,-7.094c-2.98,-6.348 -20.58,-10.679 -20.58,-10.679z" fill="#60A5FA"/>
<path id="Vector_171" data-node-id="22623:124361" d="M35.76,205.785c0,0 -4.99,-7.99 -19.83,-16.205c0,0 -0.82,2.39 -0.15,5.75c0,0 17.82,11.5 18.79,16.28c0,0.074 2.16,-2.241 1.19,-5.825z" fill="#60A5FA"/>
<path id="Vector_172" data-node-id="22623:124362" d="M16.38,169.343c0,0 3.2,6.945 18.04,15.159c0,0 3.06,-0.896 2.31,-4.331c0,0 -18.19,-11.948 -19.16,-16.727c0,0 -2.24,2.315 -1.19,5.899z" fill="#60A5FA"/>
<path id="Vector_173" data-node-id="22623:124363" d="M38.67,156.498l0.3,4.332c0,0 -16.41,0.597 -22.67,8.513c0.08,-0.075 -4.92,-10.903 22.37,-12.845z" fill="#60A5FA"/>
<path id="Vector_174" data-node-id="22623:124364" d="M35.76,205.784c0,0 0.15,8.139 -22.52,8.811c0,0 -0.89,3.062 0.53,4.78c-0.08,0.074 26.02,-0.075 21.99,-13.591z" fill="#60A5FA"/>
<path id="Vector_175" data-node-id="22623:124365" d="M15.78,195.404c0,0 -0.75,-8.14 21.84,-10.38c0,0 0.68,-3.137 -0.82,-4.779c-0.07,-0.075 -26.02,1.941 -21.02,15.159z" fill="#60A5FA"/>
</g>
<path id="Vector_176" data-node-id="22623:124366" d="M33.75,225.35c0,0 -0.75,9.782 -4.77,14.412l3.43,2.763c0,0 6.33,-8.662 1.34,-17.175z" fill="#60A5FA"/>
</g>
<path id="Vector_177" data-node-id="22623:124374" d="M316.1,165.459c0,0 -0.22,7.244 7.23,7.991l-7.23,5.078c0,0 -5.07,-2.689 -5.52,-12.994h5.52z" fill="#FB7185"/>
<path id="Vector_178" data-node-id="22623:124375" d="M154.16,5.428c0,0 -0.23,7.244 7.23,7.99l-7.23,5.078c0,0 -5.07,-2.688 -5.52,-12.993h5.52z" fill="#FB7185"/>
<path id="Vector_179" data-node-id="22623:124376" d="M34.42,138.128c0,0 -0.15,5.152 5.14,5.675l-5.14,3.585c0,0 -3.58,-1.867 -3.96,-9.335h3.96z" fill="#FB7185"/>
<path id="Vector_180" data-node-id="22623:124378" d="M154.98,83.614l-4.47,5.676c0,0 -10.14,-3.734 -12.38,-9.932l2.68,-7.02c0,0 7.16,12.172 14.17,11.276z" fill="#9BB167"/>
<path id="Vector_181" data-node-id="22623:124379" d="M38.74,65.32l-3.35,4.256c0,0 -7.61,-2.763 -9.25,-7.467l2.01,-5.228c0,0 5.37,9.111 10.59,8.439z" fill="#9BB167"/>
<path id="Vector_182" data-node-id="22623:124380" d="M161.46,171.134l-3.35,4.257c0,0 -7.61,-2.763 -9.25,-7.468l2.02,-5.227c0,0 5.29,9.185 10.58,8.438z" fill="#9BB167"/>
<path id="Vector_183" data-node-id="22623:124381" d="M299.85,177.482l-3.36,4.256c0,0 -7.6,-2.763 -9.24,-7.467l2.01,-5.228c0,0 5.37,9.185 10.59,8.439z" fill="#9BB167"/>
<path id="Vector_184" data-node-id="22623:124384" d="M337.87,22.305l7.08,-1.344c0,0 5.22,9.484 2.84,15.607l-6.64,3.585c0.08,0 2.61,-13.964 -3.28,-17.848z" fill="#60A5FA"/>
<path id="Vector_185" data-node-id="22623:124385" d="M146.78,41.05l5.66,-1.046c0,0 4.1,7.543 2.24,12.396l-5.29,2.838c0,0.075 2.08,-11.052 -2.61,-14.188z" fill="#60A5FA"/>
<path id="Vector_186" data-node-id="22623:124386" d="M316.02,119.159l7.09,-1.344c0,0 5.22,9.484 2.83,15.607l-6.64,3.584c0,0 2.61,-13.889 -3.28,-17.847z" fill="#60A5FA"/>
<path id="Vector_187" data-node-id="22623:124387" opacity="0.15" d="M312.97,235.803c2.38,-6.123 -2.84,-15.607 -2.84,-15.607l-7.08,1.344c5.89,3.958 3.28,17.847 3.28,17.847z" fill="#292524"/>
<path id="Vector_188" data-node-id="22623:124388" d="M301.48,219.149l7.09,-1.344c0,0 5.22,9.484 2.83,15.607l-6.64,3.585c0,0 2.61,-13.89 -3.28,-17.848z" fill="#60A5FA"/>
<path id="Vector_189" data-node-id="22623:124391" d="M196.96,128.643v14.188h-6.57l1.87,-14.188z" fill="#A8A29E"/>
<path id="Vector_190" data-node-id="22623:124392" d="M187.26,47.248l-2.68,13.964l-6.56,-1.344l4.62,-13.516z" fill="#A8A29E"/>
<path id="Vector_191" data-node-id="22623:124393" d="M371.34,171.955l9.03,13.965l-6.19,3.51l-9.92,-10.604z" fill="#9BB167"/>
<path id="Vector_192" data-node-id="22623:124395" d="M346.07,86.004c0,4.182 3.43,7.617 7.61,7.617c4.17,0 7.6,-3.435 7.6,-7.617c0,-4.182 -3.43,-7.617 -7.6,-7.617c-4.18,0 -7.61,3.435 -7.61,7.617z" fill="#FB7185"/>
<path id="Vector_193" data-node-id="22623:124396" d="M270.39,112.961c0,4.182 3.43,7.617 7.61,7.617c4.17,0 7.6,-3.435 7.6,-7.617c0,-4.182 -3.43,-7.617 -7.6,-7.617c-4.18,0 -7.61,3.435 -7.61,7.617z" fill="#A8A29E"/>
<path id="Vector_194" data-node-id="22623:124397" d="M79.23,194.358c0,4.181 3.43,7.616 7.6,7.616c4.18,0 7.61,-3.435 7.61,-7.616c0,-4.182 -3.43,-7.617 -7.61,-7.617c-4.17,0 -7.6,3.36 -7.6,7.617z" fill="#A8A29E"/>
<path id="Vector_195" data-node-id="22623:124398" d="M7.57,256.039c0,4.182 3.43,7.617 7.61,7.617c4.17,0 7.6,-3.435 7.6,-7.617c0,-4.182 -3.43,-7.617 -7.6,-7.617c-4.18,0 -7.61,3.435 -7.61,7.617z" fill="#A8A29E"/>
<path id="Vector_196" data-node-id="22623:124399" d="M44.86,11.926c0,4.182 3.43,7.617 7.6,7.617c4.18,0 7.61,-3.435 7.61,-7.617c0,-4.182 -3.43,-7.617 -7.61,-7.617c-4.17,0 -7.6,3.435 -7.6,7.617z" fill="#A8A29E"/>
<path id="Vector_197" data-node-id="22623:124400" d="M230.21,11.926c0,4.182 3.43,7.617 7.6,7.617c4.18,0 7.61,-3.435 7.61,-7.617c0,-4.182 -3.43,-7.617 -7.61,-7.617c-4.25,0.075 -7.6,3.435 -7.6,7.617z" fill="#A8A29E"/>
<path id="Vector_198" data-node-id="22623:124401" d="M358.52,8.117c0,4.182 3.43,7.617 7.61,7.617c4.17,0 7.6,-3.435 7.6,-7.617c0,-4.182 -3.43,-7.617 -7.6,-7.617c-4.18,0.075 -7.61,3.435 -7.61,7.617z" fill="#FB7185"/>
<path id="Vector_199" data-node-id="22623:124404" d="M356.36,135.812c0,2.688 2.16,4.928 4.92,4.928c2.68,0 4.92,-2.165 4.92,-4.928c0,-2.689 -2.16,-4.929 -4.92,-4.929c-2.76,0 -4.92,2.24 -4.92,4.929z" fill="#A8A29E"/>
<path id="Vector_200" data-node-id="22623:124408" d="M256.45,47.695c0,4.182 3.43,7.617 7.61,7.617c4.17,0 7.6,-3.435 7.6,-7.617c0,-4.181 -3.43,-7.616 -7.6,-7.616c-4.25,0.074 -7.61,3.435 -7.61,7.616z" fill="#60A5FA"/>
<path id="Vector_201" data-node-id="22623:124409" d="M282.1,200.182c0,4.182 3.43,7.617 7.61,7.617c4.17,0 7.6,-3.435 7.6,-7.617c0,-4.182 -3.43,-7.617 -7.6,-7.617c-4.18,0.075 -7.61,3.435 -7.61,7.617z" fill="#60A5FA"/>
<path id="Vector_202" data-node-id="22623:124410" d="M207.54,122.893c0,4.181 3.43,7.617 7.61,7.617c4.17,0 7.6,-3.436 7.6,-7.617c0,-4.182 -3.43,-7.617 -7.6,-7.617c-4.18,0 -7.61,3.435 -7.61,7.617z" fill="#60A5FA"/>
<path id="Vector_203" data-node-id="22623:124411" d="M190.69,21.709c0,4.182 3.43,7.617 7.61,7.617c4.17,0 7.6,-3.435 7.6,-7.617c0,-4.182 -3.43,-7.617 -7.6,-7.617c-4.18,0 -7.61,3.435 -7.61,7.617z" fill="#60A5FA"/>
<path id="Vector_204" data-node-id="22623:124413" d="M289.7,142.309l-2.38,4.854l-5.37,0.821l3.88,3.734l-0.9,5.377l4.77,-2.539l4.78,2.539l-0.9,-5.377l3.88,-3.734l-5.37,-0.821z" fill="#9BB167"/>
<g id="Group_54" data-node-id="22623:124415">
<path id="Vector_205" data-node-id="22623:124416" d="M309.69,62.257l-1.19,-4.854l-2.46,-1.419c0,0 8.27,-0.448 13.49,2.315l3.13,6.497c0,0 -8.35,-2.763 -12.97,-2.539z" fill="#A8A29E"/>
<path id="Vector_206" data-node-id="22623:124417" d="M309.69,62.257l-1.19,-4.854l-2.46,-1.419c0,0 8.27,-0.448 13.49,2.315l3.13,6.497c0,0 -8.35,-2.763 -12.97,-2.539z" fill="#A8A29E"/>
<path id="Vector_207" data-node-id="22623:124418" d="M313.71,51.577c-8.12,-2.912 -17.44,-0.149 -17.44,-0.149l-2.69,-6.721c7.01,-2.912 16.18,0.822 16.18,0.822l0.97,2.912z" fill="#A8A29E"/>
<path id="Vector_208" data-node-id="22623:124419" d="M313.71,51.577c-8.12,-2.912 -17.44,-0.149 -17.44,-0.149l-2.69,-6.721c7.01,-2.912 16.18,0.822 16.18,0.822l0.97,2.912z" fill="#A8A29E"/>
<path id="Vector_209" data-node-id="22623:124420" d="M313.34,34.104l-17.07,17.325c0,0 -2.46,-2.913 -2.69,-6.721l17.08,-17.325c2.46,2.913 2.68,6.721 2.68,6.721z" fill="#A8A29E"/>
<path id="Vector_210" data-node-id="22623:124421" d="M313.71,51.579l-4.02,10.604c0,0 -2.83,-2.539 -3.65,-6.273l3.65,-10.455c3.06,2.465 4.02,6.124 4.02,6.124z" fill="#A8A29E"/>
<path id="Vector_211" data-node-id="22623:124422" d="M329,86.751l-1.87,6.048c0,0 0.08,-14.113 -13.79,-12.769l1.04,-7.393c0,0 13.95,0.822 14.62,14.114z" fill="#A8A29E"/>
<path id="Vector_212" data-node-id="22623:124423" d="M329,86.751l-1.87,6.048c0,0 0.08,-14.113 -13.79,-12.769l1.04,-7.393c0,0 13.95,0.822 14.62,14.114z" fill="#A8A29E"/>
<path id="Vector_213" data-node-id="22623:124424" d="M319.75,95.114l0.6,-4.929c0,0 7.23,1.195 8.65,-3.435c0,0 1.12,8.961 -9.25,8.364z" fill="#A8A29E"/>
<path id="Vector_214" data-node-id="22623:124425" d="M322.66,64.796l-9.32,15.234c0,0 -2.24,-3.062 -2.16,-6.945l8.35,-14.786c2.68,2.763 3.13,6.497 3.13,6.497z" fill="#A8A29E"/>
</g>
<g id="Group_55" data-node-id="22623:124444">
<path id="Vector_215" data-node-id="22623:124445" d="M171.08,82.716l2.69,-5.078c19.68,3.435 28.48,-5.302 28.48,-5.302l-3.8,7.543c-6.12,5.75 -27.37,2.837 -27.37,2.837z" fill="#9BB167"/>
<path id="Vector_216" data-node-id="22623:124446" d="M192.03,102.282c0,0 -9.39,6.646 -29.37,9.259c0,0 0.59,-5.078 3.13,-6.347c0,0 24.3,-5.078 27.44,-9.932c0.07,0 1.49,3.51 -1.2,7.02z" fill="#9BB167"/>
<path id="Vector_217" data-node-id="22623:124447" d="M171.08,82.716l2.69,-5.078c19.68,3.435 28.48,-5.302 28.48,-5.302l-3.8,7.543c-6.12,5.75 -27.37,2.837 -27.37,2.837z" fill="#9BB167"/>
<path id="Vector_218" data-node-id="22623:124448" d="M192.03,102.282c0,0 -9.39,6.646 -29.37,9.259c0,0 0.59,-5.078 3.13,-6.347c0,0 24.3,-5.078 27.44,-9.932c0.07,0 1.49,3.51 -1.2,7.02z" fill="#9BB167"/>
<path id="Vector_219" data-node-id="22623:124449" d="M171.08,82.716l2.69,-5.078c19.68,3.435 28.48,-5.302 28.48,-5.302l-3.8,7.543c-6.12,5.75 -27.37,2.837 -27.37,2.837z" fill="#9BB167"/>
<path id="Vector_220" data-node-id="22623:124450" d="M192.03,102.282c0,0 -9.39,6.646 -29.37,9.259c0,0 0.59,-5.078 3.13,-6.347c0,0 24.3,-5.078 27.44,-9.932c0.07,0 1.49,3.51 -1.2,7.02z" fill="#9BB167"/>
<path id="Vector_221" data-node-id="22623:124451" d="M171.08,82.716l2.69,-5.078c19.68,3.435 28.48,-5.302 28.48,-5.302l-3.8,7.543c-6.12,5.75 -27.37,2.837 -27.37,2.837z" fill="#9BB167"/>
<path id="Vector_222" data-node-id="22623:124452" d="M192.03,102.282c0,0 -9.39,6.646 -29.37,9.259c0,0 0.59,-5.078 3.13,-6.347c0,0 24.3,-5.078 27.44,-9.932c0.07,0 1.49,3.51 -1.2,7.02z" fill="#9BB167"/>
<path id="Vector_223" data-node-id="22623:124453" d="M165.86,135.736l4.62,-2.24c0,0 -9.02,-17.176 -4.62,-28.302c-0.07,0 -11.63,1.344 0,30.542z" fill="#9BB167"/>
<path id="Vector_224" data-node-id="22623:124454" d="M192.03,102.282c0,0 3.73,-8.887 -21.02,-19.49c0,0 0.37,-3.734 2.68,-5.078c0,-0.075 28.63,11.425 18.34,24.568z" fill="#9BB167"/>
<path id="Vector_225" data-node-id="22623:124455" d="M198.37,79.879c0,0 3.51,-11.126 1.04,-17.922l5,-1.568c0,0 3.13,12.247 -6.04,19.49z" fill="#9BB167"/>
</g>
<g id="Group_56" data-node-id="22623:124456">
<g id="Group_57" data-node-id="22623:124457">
<path id="Vector_226" data-node-id="22623:124458" d="M217.31,56.209l-2.16,-3.36c8.87,-10.828 6.63,-19.267 6.63,-19.267l3.28,4.929c1.35,5.675 -7.75,17.698 -7.75,17.698z" fill="#60A5FA"/>
<path id="Vector_227" data-node-id="22623:124459" d="M236.4,50.086c0,0 0.89,7.767 -4.4,20.835c0,0 -1.79,-1.12 -3.13,-3.659c0,0 5.51,-16.728 3.65,-20.387c0.08,0.075 2.68,0.374 3.88,3.211z" fill="#60A5FA"/>
<path id="Vector_228" data-node-id="22623:124460" d="M242.88,83.84c0,0 -1.56,-6.124 3.73,-19.267c0,0 2.46,-0.97 3.73,1.569c0,0 -5.52,17.25 -3.65,20.834c0.07,0 -2.54,-0.299 -3.81,-3.136z" fill="#60A5FA"/>
<path id="Vector_229" data-node-id="22623:124461" d="M217.31,56.209l-2.16,-3.36c8.87,-10.828 6.63,-19.267 6.63,-19.267l3.28,4.929c1.35,5.675 -7.75,17.698 -7.75,17.698z" fill="#60A5FA"/>
<path id="Vector_230" data-node-id="22623:124462" d="M236.4,50.086c0,0 0.89,7.767 -4.4,20.835c0,0 -1.79,-1.12 -3.13,-3.659c0,0 5.51,-16.728 3.65,-20.387c0.08,0.075 2.68,0.374 3.88,3.211z" fill="#60A5FA"/>
<path id="Vector_231" data-node-id="22623:124463" d="M242.88,83.84c0,0 -1.56,-6.124 3.73,-19.267c0,0 2.46,-0.97 3.73,1.569c0,0 -5.52,17.25 -3.65,20.834c0.07,0 -2.54,-0.299 -3.81,-3.136z" fill="#60A5FA"/>
<path id="Vector_232" data-node-id="22623:124464" d="M217.31,56.209l-2.16,-3.36c8.87,-10.828 6.63,-19.267 6.63,-19.267l3.28,4.929c1.35,5.675 -7.75,17.698 -7.75,17.698z" fill="#60A5FA"/>
<path id="Vector_233" data-node-id="22623:124465" d="M236.4,50.086c0,0 0.89,7.767 -4.4,20.835c0,0 -1.79,-1.12 -3.13,-3.659c0,0 5.51,-16.728 3.65,-20.387c0.08,0.075 2.68,0.374 3.88,3.211z" fill="#60A5FA"/>
<path id="Vector_234" data-node-id="22623:124466" d="M242.88,83.84c0,0 -1.56,-6.124 3.73,-19.267c0,0 2.46,-0.97 3.73,1.569c0,0 -5.52,17.25 -3.65,20.834c0.07,0 -2.54,-0.299 -3.81,-3.136z" fill="#60A5FA"/>
<path id="Vector_235" data-node-id="22623:124467" d="M217.31,56.209l-2.16,-3.36c8.87,-10.828 6.63,-19.267 6.63,-19.267l3.28,4.929c1.35,5.675 -7.75,17.698 -7.75,17.698z" fill="#60A5FA"/>
<path id="Vector_236" data-node-id="22623:124468" d="M236.4,50.086c0,0 0.89,7.767 -4.4,20.835c0,0 -1.79,-1.12 -3.13,-3.659c0,0 5.51,-16.728 3.65,-20.387c0.08,0.075 2.68,0.374 3.88,3.211z" fill="#60A5FA"/>
<path id="Vector_237" data-node-id="22623:124469" d="M242.88,83.84c0,0 -1.56,-6.124 3.73,-19.267c0,0 2.46,-0.97 3.73,1.569c0,0 -5.52,17.25 -3.65,20.834c0.07,0 -2.54,-0.299 -3.81,-3.136z" fill="#60A5FA"/>
<path id="Vector_238" data-node-id="22623:124470" d="M264.06,80.478l-2.01,-2.987c0,0 -10.89,8.139 -19.09,6.347c-0.08,0 2.38,9.633 21.1,-3.36z" fill="#60A5FA"/>
<path id="Vector_239" data-node-id="22623:124471" d="M236.4,50.086c0,0 -4.18,-5.376 -19.16,6.124c0,0 -2.17,-1.494 -2.17,-3.361c0,0 16.93,-13.591 21.33,-2.763z" fill="#60A5FA"/>
<path id="Vector_240" data-node-id="22623:124472" d="M228.94,67.262c0,0 3.73,5.675 19.54,-4.705c0,0 2.08,1.643 1.93,3.51c0,0.074 -17.82,12.321 -21.47,1.195z" fill="#60A5FA"/>
</g>
<path id="Vector_241" data-node-id="22623:124473" d="M224.99,38.511c0,0 -5.59,-5.974 -10.59,-6.795l0.75,-3.585c0,0 8.57,2.315 9.84,10.38z" fill="#60A5FA"/>
</g>
</g>
</g>
</g><g id="iPhone X (or newer)_4" data-node-id="22623:124491">
<rect id="Rectangle_13" data-node-id="I22623:124491;1295:47827" x="308" y="16.559000000000026" width="3" height="10" rx="1" fill="white"/>
<rect id="Rectangle_14" data-node-id="I22623:124491;1295:47828" x="303" y="18.559000000000026" width="3" height="8" rx="1" fill="white"/>
<rect id="Rectangle_15" data-node-id="I22623:124491;1295:47829" x="298" y="20.559000000000026" width="3" height="6" rx="1" fill="white"/>
<rect id="Rectangle_16" data-node-id="I22623:124491;1295:47830" x="293" y="22.559000000000026" width="3" height="4" rx="1" fill="white"/>
<g id="Battery_4" data-node-id="I22623:124491;1295:47831">
<path id="Vector_245" data-node-id="I22623:124491;1295:47832" opacity="0.35" d="M340,16.393h14c1.93,0 3.5,1.567 3.5,3.5v3.333c0,1.933 -1.57,3.5 -3.5,3.5h-14c-1.93,0 -3.5,-1.567 -3.5,-3.5v-3.333c0,-1.933 1.57,-3.5 3.5,-3.5z" stroke="white"/>
<path id="Combined Shape_4" data-node-id="I22623:124491;1295:47833" opacity="0.4" d="M359,19.559v4c0.8,-0.339 1.33,-1.127 1.33,-2c0,-0.873 -0.53,-1.661 -1.33,-2z" fill="white"/>
<path id="Vector_246" data-node-id="I22623:124491;1295:47834" d="M338,19.893c0,-1.105 0.9,-2 2,-2h14c1.1,0 2,0.895 2,2v3.333c0,1.105 -0.9,2 -2,2h-14c-1.1,0 -2,-0.895 -2,-2z" fill="white"/>
</g>
<path id="Vector_247" data-node-id="I22623:124491;1295:47835" d="M321.59,25.145c0.37,-0.375 0.88,-0.586 1.41,-0.586c0.53,0 1.04,0.211 1.41,0.586M318.76,22.316c0.56,-0.557 1.22,-0.999 1.94,-1.3c0.73,-0.302 1.51,-0.457 2.3,-0.457c0.79,0 1.57,0.155 2.3,0.457c0.72,0.301 1.39,0.743 1.94,1.3M315.93,19.488c0.93,-0.929 2.03,-1.665 3.24,-2.168c1.22,-0.502 2.52,-0.761 3.83,-0.761c1.31,0 2.61,0.259 3.83,0.761c1.21,0.503 2.31,1.239 3.24,2.168" stroke="white" stroke-width="2" stroke-linejoin="round"/>
<g id="9:41_4" data-node-id="I22623:124491;10360:1345">
<path d="M36.25,26.559c-0.84,0 -1.54,-0.155 -2.13,-0.464c-0.57,-0.321 -1.01,-0.735 -1.33,-1.243c-0.32,-0.508 -0.52,-1.055 -0.58,-1.641h2.15c0.11,0.486 0.32,0.862 0.64,1.127c0.33,0.254 0.76,0.381 1.28,0.381c0.49,0 0.92,-0.138 1.27,-0.414c0.37,-0.287 0.65,-0.713 0.86,-1.276c0.2,-0.575 0.32,-1.288 0.36,-2.139c0,-0.022 0,-0.049 0,-0.082c0,-0.034 0,-0.061 0,-0.083c-0.17,0.298 -0.41,0.563 -0.72,0.795c-0.31,0.232 -0.66,0.415 -1.05,0.547c-0.37,0.133 -0.78,0.199 -1.21,0.199c-0.65,0 -1.27,-0.155 -1.85,-0.464c-0.59,-0.309 -1.05,-0.746 -1.41,-1.309c-0.35,-0.564 -0.53,-1.232 -0.53,-2.006c0,-0.707 0.18,-1.359 0.53,-1.956c0.36,-0.596 0.85,-1.071 1.47,-1.425c0.63,-0.365 1.36,-0.547 2.18,-0.547c0.91,0 1.68,0.16 2.3,0.481c0.61,0.32 1.11,0.751 1.49,1.292c0.37,0.542 0.64,1.15 0.8,1.824c0.17,0.663 0.26,1.337 0.26,2.022c0,1.293 -0.19,2.42 -0.57,3.381c-0.37,0.95 -0.92,1.691 -1.62,2.221c-0.71,0.519 -1.57,0.779 -2.59,0.779zM36.33,20.377c0.42,0 0.78,-0.083 1.1,-0.249c0.32,-0.177 0.57,-0.409 0.75,-0.696c0.2,-0.298 0.3,-0.63 0.3,-0.995c0,-0.386 -0.1,-0.729 -0.3,-1.027c-0.18,-0.299 -0.44,-0.525 -0.77,-0.68c-0.32,-0.165 -0.68,-0.248 -1.09,-0.248c-0.4,0 -0.76,0.083 -1.08,0.248c-0.32,0.166 -0.57,0.393 -0.76,0.68c-0.18,0.287 -0.27,0.624 -0.27,1.011c0,0.387 0.09,0.729 0.27,1.028c0.19,0.287 0.44,0.513 0.76,0.679c0.32,0.166 0.68,0.249 1.09,0.249z" fill="white"/>
<path d="M43.9,26.443c-0.42,0 -0.77,-0.122 -1.04,-0.365c-0.26,-0.254 -0.4,-0.563 -0.4,-0.928c0,-0.364 0.14,-0.668 0.4,-0.911c0.27,-0.255 0.62,-0.382 1.04,-0.382c0.43,0 0.77,0.127 1.03,0.382c0.26,0.243 0.4,0.547 0.4,0.911c0,0.365 -0.14,0.674 -0.4,0.928c-0.26,0.243 -0.6,0.365 -1.03,0.365zM43.9,20.393c-0.42,0 -0.77,-0.121 -1.04,-0.364c-0.26,-0.255 -0.4,-0.564 -0.4,-0.929c0,-0.364 0.14,-0.668 0.4,-0.911c0.27,-0.254 0.62,-0.381 1.04,-0.381c0.43,0 0.77,0.127 1.03,0.381c0.26,0.243 0.4,0.547 0.4,0.911c0,0.365 -0.14,0.674 -0.4,0.929c-0.26,0.243 -0.6,0.364 -1.03,0.364z" fill="white"/>
<path d="M52.62,26.36v-2.105h-5.89v-1.773l5.58,-7.724h2.61v7.558h1.57v1.939h-1.57v2.105zM49.2,22.316h3.58v-5.088z" fill="white"/>
<path d="M59.6,26.36v-9.033l-2.11,0.53v-1.773l3.11,-1.326h1.4v11.602z" fill="white"/>
</g>
</g></g></g></g><defs><clipPath id="clip28_22623_124034">
<rect width="375" height="812" fill="white" transform="translate(0, -1.440999999999974)"/>
</clipPath><clipPath id="clip29_22623_124034">
<rect width="570" height="276" fill="white" transform="translate(-98, -1.440999999999974)"/>
</clipPath></defs></svg>