<svg viewBox="0 0 96 96" fill="none" xmlns="http://www.w3.org/2000/svg" xmlns:xlink="http://www.w3.org/1999/xlink" x="0" y="0"><defs><clipPath id="clip6_3_22">
<rect x="0" y="0" width="96" height="96" rx="48" fill="white"/>
</clipPath></defs><g id="Superego control">
<g clip-path="url(#clip6_3_22)">
<rect x="0" y="0" width="96" height="96" rx="48" fill="#E5EAD7"/>
<path id="Vector Stroke_2" fill-rule="evenodd" clip-rule="evenodd" d="M96,68h-96v8h96z" fill="#9BB068"/>
<path id="Vector Stroke_3" fill-rule="evenodd" clip-rule="evenodd" d="M96,44h-96v8h96z" fill="#4B3425"/>
<path id="Vector Stroke_4" fill-rule="evenodd" clip-rule="evenodd" d="M96,20h-96v8h96z" fill="#9BB068"/>
<rect id="Vector_61" width="16" height="16" rx="8" transform="matrix(4.37114e-8, 1, 1, -4.37114e-8, 64, 16)" fill="#4B3425"/>
<rect id="Vector_62" width="16" height="16" rx="8" transform="matrix(4.37114e-8, 1, 1, -4.37114e-8, 40, 40)" fill="#9BB068"/>
<rect id="Vector_63" width="16" height="16" rx="8" transform="matrix(4.37114e-8, 1, 1, -4.37114e-8, 16, 64)" fill="#4B3425"/>
</g>
</g></svg>