<svg viewBox="0 0 14 13.3333" fill="none" xmlns="http://www.w3.org/2000/svg" xmlns:xlink="http://www.w3.org/1999/xlink" x="0" y="0"><path id="Vector_697" fill-rule="evenodd" clip-rule="evenodd" d="M6.252,13.33c0.48,0 0.92,-0.23 1.2,-0.61l2.89,-4.05h3.66v-8.67h-9.69c-1.26,0 -2.41,0.71 -2.98,1.84l-0.98,1.97c-0.23,0.46 -0.35,0.97 -0.35,1.49v0.03c0,1.84 1.49,3.34 3.33,3.34h1.9l-0.43,2.99c-0.12,0.88 0.56,1.67 1.45,1.67zM9.332,1.33v6.46l-2.97,4.15c-0.02,0.04 -0.06,0.06 -0.11,0.06c-0.08,0 -0.14,-0.07 -0.13,-0.15l0.65,-4.52h-3.44c-1.1,0 -2,-0.89 -2,-2v-0.03c0,-0.31 0.07,-0.62 0.21,-0.9l0.98,-1.96c0.34,-0.68 1.04,-1.11 1.79,-1.11zM10.662,1.33v6h2v-6z" fill="currentColor"/></svg>