<svg viewBox="0 0 11.608 10.7123" fill="none" xmlns="http://www.w3.org/2000/svg" xmlns:xlink="http://www.w3.org/1999/xlink" x="0" y="0"><path id="Vector_847" fill-rule="evenodd" clip-rule="evenodd" d="M5.8047,0.9002c-1.36,-1.24 -3.47,-1.2 -4.79,0.12c-1.35,1.35 -1.35,3.55 0,4.9l4.79,4.79l4.79,-4.79c1.35,-1.35 1.35,-3.55 0,-4.9c-1.32,-1.32 -3.43,-1.36 -4.79,-0.12zM5.1047,1.8402c-0.9,-0.9 -2.36,-0.9 -3.26,0c-0.9,0.9 -0.9,2.36 0,3.26l3.96,3.96l3.96,-3.96c0.9,-0.9 0.9,-2.36 0,-3.26c-0.9,-0.9 -2.36,-0.9 -3.26,0l-0.7,0.71z" fill="currentColor"/></svg>