<svg viewBox="0 0 16.6667 17.5" fill="none" xmlns="http://www.w3.org/2000/svg" xmlns:xlink="http://www.w3.org/1999/xlink" x="0" y="0"><path id="Vector_578" fill-rule="evenodd" clip-rule="evenodd" d="M8.334,-0.004c-2.3,0 -4.17,1.87 -4.17,4.17v1.91c-2.41,0.72 -4.16,2.95 -4.16,5.59c0,3.22 2.61,5.83 5.83,5.83h5c3.22,0 5.83,-2.61 5.83,-5.83c0,-2.64 -1.75,-4.87 -4.16,-5.59v-1.91c0,-2.3 -1.87,-4.17 -4.17,-4.17zM10.834,5.836v-1.67c0,-1.38 -1.12,-2.5 -2.5,-2.5c-1.38,0 -2.5,1.12 -2.5,2.5v1.67zM1.664,11.666c0,-2.3 1.87,-4.17 4.17,-4.17h5c2.3,0 4.17,1.87 4.17,4.17c0,2.3 -1.87,4.17 -4.17,4.17h-5c-2.3,0 -4.17,-1.87 -4.17,-4.17z" fill="currentColor"/></svg>