<svg viewBox="0 0 343 265" fill="none" xmlns="http://www.w3.org/2000/svg" xmlns:xlink="http://www.w3.org/1999/xlink" x="0" y="0"><defs><filter id="filter45_dd_22623_111881" x="28" y="0" width="288" height="288" filterUnits="userSpaceOnUse" color-interpolation-filters="sRGB">
<feFlood flood-opacity="0" result="BackgroundImageFix"/>
<feColorMatrix in="SourceAlpha" type="matrix" values="0 0 0 0 0 0 0 0 0 0 0 0 0 0 0 0 0 0 127 0" result="hardAlpha"/>
<feMorphology radius="2" operator="erode" in="SourceAlpha" result="effect1_dropShadow_22623_111881"/>
<feOffset dy="4"/>
<feGaussianBlur stdDeviation="3"/>
<feColorMatrix type="matrix" values="0 0 0 0 0.160784 0 0 0 0 0.145098 0 0 0 0 0.141176 0 0 0 0.03 0"/>
<feBlend mode="normal" in2="BackgroundImageFix" result="effect1_dropShadow_22623_111881"/>
<feColorMatrix in="SourceAlpha" type="matrix" values="0 0 0 0 0 0 0 0 0 0 0 0 0 0 0 0 0 0 127 0" result="hardAlpha"/>
<feMorphology radius="4" operator="erode" in="SourceAlpha" result="effect2_dropShadow_22623_111881"/>
<feOffset dy="12"/>
<feGaussianBlur stdDeviation="8"/>
<feColorMatrix type="matrix" values="0 0 0 0 0.160784 0 0 0 0 0.145098 0 0 0 0 0.141176 0 0 0 0.08 0"/>
<feBlend mode="normal" in2="effect1_dropShadow_22623_111881" result="effect2_dropShadow_22623_111881"/>
<feBlend mode="normal" in="SourceGraphic" in2="effect2_dropShadow_22623_111881" result="shape"/>
</filter><filter id="filter46_d_22623_111881" x="12.699999999999818" y="139.89300000000003" width="122.277" height="121" filterUnits="userSpaceOnUse" color-interpolation-filters="sRGB">
<feFlood flood-opacity="0" result="BackgroundImageFix"/>
<feColorMatrix in="SourceAlpha" type="matrix" values="0 0 0 0 0 0 0 0 0 0 0 0 0 0 0 0 0 0 127 0" result="hardAlpha"/>
<feOffset dy="8"/>
<feGaussianBlur stdDeviation="8"/>
<feColorMatrix type="matrix" values="0 0 0 0 0.247059 0 0 0 0 0.235294 0 0 0 0 0.211765 0 0 0 0.05 0"/>
<feBlend mode="normal" in2="BackgroundImageFix" result="effect1_dropShadow_22623_111881"/>
<feBlend mode="normal" in="SourceGraphic" in2="effect1_dropShadow_22623_111881" result="shape"/>
</filter><filter id="filter47_d_22623_111881" x="110.96000000000004" y="15.334000000000003" width="110.816" height="109.854" filterUnits="userSpaceOnUse" color-interpolation-filters="sRGB">
<feFlood flood-opacity="0" result="BackgroundImageFix"/>
<feColorMatrix in="SourceAlpha" type="matrix" values="0 0 0 0 0 0 0 0 0 0 0 0 0 0 0 0 0 0 127 0" result="hardAlpha"/>
<feOffset dy="8"/>
<feGaussianBlur stdDeviation="8"/>
<feColorMatrix type="matrix" values="0 0 0 0 0.247059 0 0 0 0 0.235294 0 0 0 0 0.211765 0 0 0 0.05 0"/>
<feBlend mode="normal" in2="BackgroundImageFix" result="effect1_dropShadow_22623_111881"/>
<feBlend mode="normal" in="SourceGraphic" in2="effect1_dropShadow_22623_111881" result="shape"/>
</filter><filter id="filter48_dd_22623_111881" x="36.75" y="79.32799999999997" width="269.889" height="146.258" filterUnits="userSpaceOnUse" color-interpolation-filters="sRGB">
<feFlood flood-opacity="0" result="BackgroundImageFix"/>
<feColorMatrix in="SourceAlpha" type="matrix" values="0 0 0 0 0 0 0 0 0 0 0 0 0 0 0 0 0 0 127 0" result="hardAlpha"/>
<feMorphology radius="4" operator="erode" in="SourceAlpha" result="effect1_dropShadow_22623_111881"/>
<feOffset dy="8"/>
<feGaussianBlur stdDeviation="4"/>
<feColorMatrix type="matrix" values="0 0 0 0 0.607843 0 0 0 0 0.694118 0 0 0 0 0.403922 0 0 0 0.03 0"/>
<feBlend mode="normal" in2="BackgroundImageFix" result="effect1_dropShadow_22623_111881"/>
<feColorMatrix in="SourceAlpha" type="matrix" values="0 0 0 0 0 0 0 0 0 0 0 0 0 0 0 0 0 0 127 0" result="hardAlpha"/>
<feMorphology radius="4" operator="erode" in="SourceAlpha" result="effect2_dropShadow_22623_111881"/>
<feOffset dy="20"/>
<feGaussianBlur stdDeviation="12"/>
<feColorMatrix type="matrix" values="0 0 0 0 0.607843 0 0 0 0 0.694118 0 0 0 0 0.403922 0 0 0 0.08 0"/>
<feBlend mode="normal" in2="effect1_dropShadow_22623_111881" result="effect2_dropShadow_22623_111881"/>
<feBlend mode="normal" in="SourceGraphic" in2="effect2_dropShadow_22623_111881" result="shape"/>
</filter><filter id="filter49_d_22623_111881" x="179.9000000000001" y="141.18600000000004" width="132.949" height="110.869" filterUnits="userSpaceOnUse" color-interpolation-filters="sRGB">
<feFlood flood-opacity="0" result="BackgroundImageFix"/>
<feColorMatrix in="SourceAlpha" type="matrix" values="0 0 0 0 0 0 0 0 0 0 0 0 0 0 0 0 0 0 127 0" result="hardAlpha"/>
<feOffset dy="8"/>
<feGaussianBlur stdDeviation="8"/>
<feColorMatrix type="matrix" values="0 0 0 0 0.247059 0 0 0 0 0.235294 0 0 0 0 0.211765 0 0 0 0.05 0"/>
<feBlend mode="normal" in2="BackgroundImageFix" result="effect1_dropShadow_22623_111881"/>
<feBlend mode="normal" in="SourceGraphic" in2="effect1_dropShadow_22623_111881" result="shape"/>
</filter><linearGradient id="paint10_linear_22623_111881" x1="167.92999999999984" y1="89.42200000000003" x2="175.46000000000004" y2="175.49300000000005" gradientUnits="userSpaceOnUse">
<stop stop-color="#9BB167"/>
<stop offset="1" stop-color="#9BB167" stop-opacity="0"/>
</linearGradient></defs><g id="Frame_216">
<g id="Ellipse_7" filter="url(#filter45_dd_22623_111881)">
<circle cx="172" cy="132" r="132" fill="#533630"/>
</g>
<g id="Group_169" filter="url(#filter46_d_22623_111881)">
<path id="Vector_360" d="M55.52,211.74l7.1,19.194c1.23,3.274 4.14,5.57 7.59,5.904c1.92,0.22 3.85,-0.231 5.49,-1.179c1.29,-0.747 2.36,-1.764 3.16,-3.022l10.91,-17.314l20.45,-0.79c1.49,-0.063 2.91,-0.483 4.2,-1.23c1.69,-0.977 3,-2.394 3.77,-4.166c1.4,-3.2 0.9,-6.826 -1.32,-9.525l-13.07,-15.745l5.53,-19.721c0.96,-3.405 -0.08,-6.922 -2.69,-9.262c-2.61,-2.341 -6.23,-2.974 -9.47,-1.697l-19.04,7.605l-17.03,-11.337c-2.92,-1.962 -6.64,-2.073 -9.62,-0.349c-3.04,1.753 -4.75,4.997 -4.51,8.51l1.3,20.417l-16.11,12.682c-2.72,2.172 -3.98,5.621 -3.26,9.054c0.72,3.432 3.3,6.059 6.67,6.963z" fill="white"/>
<g id="Group_170">
<g id="Group_171">
<path id="Vector_361" d="M103.07,158.934c-1.05,-0.915 -2.54,-1.186 -3.85,-0.695l-21.67,8.665l-19.42,-12.945c-1.18,-0.779 -2.68,-0.843 -3.87,-0.154c-1.2,0.69 -1.94,2.048 -1.86,3.459l1.51,23.289l-18.35,14.438c-1.08,0.889 -1.61,2.26 -1.32,3.685c0.26,1.374 1.36,2.467 2.69,2.825l22.62,5.723l8.06,21.891c0.49,1.31 1.68,2.217 3.05,2.418c0.78,0.082 1.54,-0.093 2.24,-0.495c0.5,-0.287 0.94,-0.674 1.29,-1.211l12.44,-19.722l23.3,-0.91c1.41,-0.084 2.65,-0.931 3.24,-2.203c0.59,-1.271 0.37,-2.803 -0.57,-3.854l-14.93,-17.925l6.35,-22.448c0.48,-1.47 0.11,-2.916 -0.95,-3.831z" fill="#C084FC"/>
</g>
<g id="Group_172">
<path id="Vector_362" d="M78.68,196.112c-8.31,4.799 -19.04,1.967 -23.86,-6.395c-0.43,-0.747 -0.18,-1.689 0.56,-2.12c0.75,-0.431 1.69,-0.178 2.12,0.568c3.97,6.869 12.76,9.225 19.63,5.259c6.87,-3.965 9.23,-12.758 5.26,-19.627c-0.43,-0.746 -0.18,-1.688 0.57,-2.119c0.74,-0.431 1.69,-0.179 2.12,0.568c4.83,8.361 1.96,19.038 -6.4,23.866z" fill="#533630"/>
</g>
<g id="Group_173">
<path id="Vector_363" d="M64.58,178.702c1.81,3.135 2.33,6.219 1.19,6.88c-1.15,0.661 -3.56,-1.331 -5.37,-4.467c-1.81,-3.135 -2.33,-6.22 -1.18,-6.88c1.14,-0.661 3.55,1.331 5.36,4.467z" fill="#533630"/>
</g>
<g id="Group_174">
<path id="Vector_364" d="M74.74,172.84c1.81,3.136 2.33,6.22 1.18,6.881c-1.14,0.661 -3.55,-1.331 -5.36,-4.467c-1.82,-3.136 -2.34,-6.22 -1.19,-6.881c1.19,-0.689 3.56,1.332 5.37,4.467z" fill="#533630"/>
</g>
<g id="Group_175">
<path id="Vector_365" d="M64.64,174.424c0.6,1.045 0.24,2.38 -0.8,2.983c-1.05,0.604 -2.38,0.246 -2.99,-0.799c-0.6,-1.045 -0.24,-2.38 0.8,-2.983c1.05,-0.604 2.38,-0.246 2.99,0.799z" fill="white"/>
</g>
<g id="Group_176">
<path id="Vector_366" d="M74.79,168.563c0.6,1.045 0.24,2.38 -0.8,2.983c-1.05,0.604 -2.38,0.246 -2.98,-0.799c-0.61,-1.045 -0.25,-2.38 0.8,-2.983c1.04,-0.604 2.38,-0.246 2.98,0.799z" fill="white"/>
</g>
<g id="Group_177">
<path id="Vector_367" d="M64.54,179.785c0.26,0.448 0.12,0.998 -0.33,1.256c-0.45,0.259 -1,0.111 -1.26,-0.336c-0.26,-0.448 -0.11,-0.998 0.34,-1.257c0.45,-0.258 1,-0.111 1.25,0.337z" fill="white"/>
</g>
<g id="Group_178">
<path id="Vector_368" d="M74.7,173.924c0.26,0.448 0.11,0.997 -0.34,1.256c-0.45,0.258 -1,0.111 -1.26,-0.337c-0.25,-0.448 -0.11,-0.997 0.34,-1.256c0.45,-0.259 1,-0.111 1.26,0.337z" fill="white"/>
</g>
</g>
</g>
<path id="Vector_369" d="M177.5,159c-5.31,0 -7.33,-24.737 -12.24,-26.049c-5.08,-1.362 -19.1,19.003 -23.52,16.406c-4.5,-2.623 6.03,-25.046 2.37,-28.723c-3.65,-3.677 -25.93,6.917 -28.53,2.392c-2.58,-4.475 17.65,-18.592 16.3,-23.683c-1.31,-4.937 -25.88,-6.969 -25.88,-12.317c0,-5.349 24.57,-7.38 25.88,-12.317c1.35,-5.118 -18.88,-19.235 -16.3,-23.683c2.6,-4.526 24.88,6.068 28.53,2.391c3.66,-3.677 -6.87,-26.1 -2.37,-28.723c4.44,-2.597 18.47,17.769 23.52,16.406c4.91,-1.363 6.93,-26.1 12.24,-26.1c5.31,0 7.33,24.737 12.24,26.049c5.08,1.362 19.1,-19.003 23.52,-16.406c4.5,2.623 -6.03,25.046 -2.37,28.723c3.65,3.677 25.93,-6.917 28.53,-2.392c2.58,4.475 -17.65,18.592 -16.3,23.683c1.31,4.937 25.88,6.969 25.88,12.317c0,5.349 -24.57,7.38 -25.88,12.317c-1.35,5.118 18.88,19.235 16.3,23.683c-2.6,4.526 -24.88,-6.068 -28.53,-2.391c-3.66,3.677 6.87,26.1 2.37,28.723c-4.44,2.597 -18.47,-17.769 -23.52,-16.406c-4.91,1.363 -6.93,26.1 -12.24,26.1z" fill="#4C0519"/>
<g id="Group_179" filter="url(#filter47_d_22623_111881)">
<path id="Vector_370" d="M185.12,26.861c-0.58,-1.634 -1.89,-2.895 -3.59,-3.349c-1.69,-0.455 -3.46,-0.019 -4.78,1.104l-48.03,42.429c-1.86,1.66 -2.29,4.329 -1.05,6.48c7.37,12.774 19.3,21.936 33.56,25.758c14.26,3.822 29.17,1.849 41.94,-5.526c2.16,-1.242 3.13,-3.822 2.33,-6.139z" fill="white"/>
<g id="Group_180">
<g id="Group_181">
<path id="Vector_371" d="M180.2,28.496l-48.03,42.429c13.82,23.934 44.47,32.146 68.41,18.328z" fill="#FB923C"/>
</g>
<g id="Group_182">
<path id="Vector_372" d="M180.2,28.496l-43.42,38.378c12.5,21.649 40.23,29.08 61.88,16.581z" fill="#FDBA74"/>
</g>
<g id="Group_183">
<path id="Vector_373" d="M180.2,28.496l-39.82,35.136c11.45,19.834 36.85,26.639 56.68,15.188z" fill="#FFEDD5"/>
</g>
<g id="Group_184">
<path id="Vector_374" d="M168.59,42.322c3.08,0.824 6.24,-1.001 7.06,-4.076c0.47,-1.75 0.05,-3.568 -0.95,-4.916l-8.63,7.578c0.74,0.651 1.57,1.158 2.52,1.414z" fill="#FB923C"/>
</g>
<g id="Group_185">
<path id="Vector_375" d="M187.39,62.307c1.38,0.37 2.8,0.18 3.96,-0.359l-3.62,-10.86c-2.05,0.418 -3.83,1.986 -4.41,4.16c-0.83,3.075 1,6.235 4.07,7.059z" fill="#FB923C"/>
</g>
<g id="Group_186">
<path id="Vector_376" d="M146.05,64.753c3.07,0.824 6.23,-1.001 7.06,-4.076c0.65,-2.439 -0.35,-4.866 -2.31,-6.244l-8.35,7.423c0.71,1.383 1.95,2.456 3.6,2.897z" fill="#FB923C"/>
</g>
<g id="Group_187">
<path id="Vector_377" d="M185.55,77.441c-3.07,-0.824 -6.23,1 -7.06,4.076c-0.25,0.954 -0.23,1.927 -0.02,2.836c3.8,-0.176 7.63,-0.911 11.33,-2.193c-0.38,-2.204 -1.97,-4.108 -4.25,-4.719z" fill="#FB923C"/>
</g>
<g id="Group_188">
<path id="Vector_378" d="M168.27,72.811c-0.83,3.075 -3.99,4.9 -7.06,4.076c-3.08,-0.824 -4.9,-3.984 -4.08,-7.06c0.83,-3.075 3.99,-4.899 7.06,-4.075c3.08,0.824 4.9,3.984 4.08,7.059z" fill="#FB923C"/>
</g>
<g id="Group_189">
<path id="Vector_379" d="M182.4,49.546c-0.51,1.908 -2.46,3.034 -4.37,2.523c-1.91,-0.512 -3.03,-2.462 -2.52,-4.37c0.51,-1.909 2.46,-3.035 4.37,-2.524c1.91,0.512 3.03,2.462 2.52,4.371z" fill="#FB923C"/>
</g>
<g id="Group_190">
<path id="Vector_380" d="M183.38,68.79c-0.51,1.909 -2.46,3.034 -4.37,2.523c-1.91,-0.512 -3.03,-2.461 -2.52,-4.37c0.51,-1.909 2.46,-3.035 4.37,-2.523c1.91,0.511 3.03,2.461 2.52,4.37z" fill="#FB923C"/>
</g>
<g id="Group_191">
<path id="Vector_381" d="M167.49,54.301c-0.51,1.909 -2.46,3.035 -4.37,2.523c-1.91,-0.511 -3.04,-2.461 -2.53,-4.37c0.52,-1.908 2.47,-3.034 4.37,-2.523c1.91,0.512 3.04,2.462 2.53,4.37z" fill="#FB923C"/>
</g>
</g>
</g>
<circle id="Ellipse_8" cx="172" cy="132" r="170.5" stroke="#533630"/>
<circle id="Ellipse_9" opacity="0.64" cx="172" cy="132" r="200.5" stroke="#533630"/>
<circle id="Ellipse_10" opacity="0.32" cx="172" cy="132" r="234.5" stroke="#533630"/>
<g id="Button_19" filter="url(#filter48_dd_22623_111881)">
<path d="M60.92,142.149c-2.08,-23.768 15.5,-44.721 39.27,-46.801l135.48,-11.853c23.77,-2.079 44.73,15.503 46.81,39.27c2.07,23.768 -15.51,44.722 -39.28,46.801l-135.48,11.853c-23.77,2.08 -44.72,-15.502 -46.8,-39.27z" fill="#9BB167"/>
<path d="M235.5,81.503c24.87,-2.176 46.79,16.22 48.97,41.088c2.17,24.868 -16.22,46.792 -41.09,48.968l-135.48,11.853c-24.87,2.176 -46.8,-16.22 -48.97,-41.089c-2.18,-24.868 16.22,-46.792 41.09,-48.967z" stroke="url(#paint10_linear_22623_111881)" stroke-width="4"/>
<g id="star four magic_4">
<path id="Vector_382" d="M127.88,119.996c-1.46,-3.057 -5.93,-2.666 -6.84,0.598l-0.21,0.747c-1.56,5.611 -5.47,10.273 -10.73,12.785l-0.7,0.335c-3.05,1.461 -2.66,5.931 0.6,6.84l0.75,0.208c5.61,1.562 10.27,5.473 12.78,10.728l0.34,0.699c1.46,3.057 5.93,2.666 6.84,-0.598l0.21,-0.747c1.56,-5.611 5.47,-10.273 10.72,-12.785l0.7,-0.335c3.06,-1.461 2.67,-5.931 -0.6,-6.84l-0.74,-0.208c-5.61,-1.562 -10.28,-5.473 -12.79,-10.728z" fill="#D4DEB8"/>
</g>
<g id="plus">
<path d="M167.55,156.409l-5.76,0.504l-3.07,-35.116l5.76,-0.504l0.26,2.973c0.68,-1.129 1.55,-2.07 2.61,-2.823c1.07,-0.77 2.37,-1.222 3.88,-1.354c1.73,-0.151 3.37,0.028 4.92,0.537c1.56,0.509 2.95,1.283 4.18,2.323c1.25,1.023 2.25,2.249 3.01,3.676c0.78,1.427 1.24,2.99 1.39,4.691c0.15,1.702 -0.04,3.33 -0.55,4.884c-0.5,1.554 -1.27,2.95 -2.32,4.19c-1.04,1.223 -2.28,2.22 -3.71,2.991c-1.44,0.77 -3.03,1.232 -4.76,1.383c-1.51,0.132 -2.86,-0.08 -4.06,-0.636c-1.17,-0.573 -2.19,-1.357 -3.06,-2.351zM171.64,125.597c-1.2,0.105 -2.24,0.51 -3.13,1.217c-0.89,0.692 -1.56,1.576 -2,2.653c-0.45,1.077 -0.62,2.239 -0.51,3.488c0.11,1.248 0.48,2.372 1.11,3.371c0.62,0.983 1.43,1.746 2.43,2.287c1,0.526 2.1,0.737 3.29,0.632c1.22,-0.106 2.3,-0.507 3.25,-1.204c0.96,-0.697 1.69,-1.586 2.2,-2.669c0.5,-1.098 0.7,-2.279 0.59,-3.543c-0.11,-1.249 -0.51,-2.362 -1.19,-3.34c-0.69,-0.977 -1.57,-1.726 -2.63,-2.247c-1.04,-0.537 -2.18,-0.752 -3.41,-0.645z" fill="white"/>
<path d="M188.43,142.788l-3.08,-35.116l5.77,-0.504l3.07,35.116z" fill="white"/>
<path d="M197.5,133.266l-1.29,-14.749l5.76,-0.504l1.16,13.25c0.08,0.921 0.38,1.744 0.91,2.469c0.52,0.709 1.18,1.257 1.97,1.643c0.81,0.37 1.68,0.515 2.59,0.435c0.94,-0.083 1.77,-0.376 2.49,-0.879c0.72,-0.519 1.27,-1.173 1.66,-1.962c0.39,-0.804 0.55,-1.667 0.47,-2.588l-1.16,-13.25l5.76,-0.504l2.07,23.408l-5.76,0.504l-0.21,-2.128c-0.75,0.914 -1.66,1.67 -2.73,2.267c-1.08,0.582 -2.25,0.929 -3.53,1.04c-1.71,0.15 -3.32,-0.126 -4.8,-0.83c-1.49,-0.718 -2.73,-1.735 -3.7,-3.05c-0.96,-1.331 -1.51,-2.856 -1.66,-4.572z" fill="white"/>
<path d="M230.96,139.491c-1.24,0.03 -2.45,-0.108 -3.63,-0.413c-1.17,-0.323 -2.23,-0.804 -3.17,-1.445c-0.95,-0.641 -1.7,-1.44 -2.26,-2.397l4.69,-2.486c0.21,0.295 0.55,0.604 1.01,0.926c0.45,0.306 0.98,0.551 1.58,0.734c0.62,0.182 1.28,0.241 1.99,0.18c0.6,-0.053 1.16,-0.18 1.68,-0.383c0.54,-0.22 0.96,-0.516 1.26,-0.889c0.31,-0.373 0.45,-0.833 0.4,-1.379c-0.05,-0.578 -0.29,-1.005 -0.73,-1.281c-0.42,-0.293 -0.95,-0.491 -1.58,-0.594c-0.61,-0.119 -1.2,-0.224 -1.78,-0.315c-1.53,-0.166 -2.96,-0.504 -4.3,-1.016c-1.33,-0.512 -2.44,-1.226 -3.31,-2.14c-0.86,-0.931 -1.35,-2.099 -1.47,-3.504c-0.14,-1.545 0.16,-2.915 0.88,-4.111c0.73,-1.196 1.74,-2.157 3,-2.881c1.29,-0.726 2.7,-1.157 4.25,-1.291c1.87,-0.164 3.62,0.076 5.25,0.72c1.64,0.627 2.98,1.603 4.01,2.927l-4.32,3.068c-0.25,-0.355 -0.59,-0.672 -1.01,-0.95c-0.43,-0.293 -0.9,-0.519 -1.42,-0.678c-0.52,-0.174 -1.06,-0.253 -1.61,-0.236c-0.71,0.031 -1.35,0.15 -1.92,0.357c-0.57,0.207 -1.02,0.513 -1.35,0.92c-0.31,0.404 -0.44,0.919 -0.39,1.543c0.05,0.593 0.33,1.018 0.83,1.273c0.49,0.239 1.08,0.408 1.75,0.507c0.69,0.096 1.35,0.212 1.98,0.345c1.43,0.332 2.78,0.772 4.05,1.321c1.28,0.548 2.34,1.266 3.16,2.153c0.82,0.888 1.28,1.996 1.36,3.325c0.13,1.514 -0.21,2.881 -1.02,4.1c-0.81,1.204 -1.92,2.165 -3.32,2.885c-1.38,0.718 -2.89,1.087 -4.54,1.105z" fill="white"/>
</g>
</g>
<circle id="Ellipse_11" cx="98" cy="45" r="4" fill="#E7E5E4"/>
<circle id="Ellipse_12" cx="289" cy="79" r="6" stroke="#E7E5E4" stroke-width="4"/>
<circle id="Ellipse_13" cx="168" cy="231" r="4" fill="#D9C7AF"/>
<g id="Group_192">
<path id="Vector_383" d="M290.21,43.394c1.06,1.066 4.72,-0.867 8.18,-4.317c3.45,-3.45 5.38,-7.112 4.31,-8.178c-1.06,-1.066 -4.73,0.867 -8.18,4.317c-3.45,3.45 -5.38,7.112 -4.31,8.178z" fill="#3F4B29"/>
<path id="Vector_384" d="M282.9,50.702c1.07,1.066 4.73,-0.866 8.18,-4.317c3.45,-3.45 5.38,-7.111 4.32,-8.177c-1.07,-1.066 -4.73,0.866 -8.18,4.317c-3.45,3.45 -5.39,7.111 -4.32,8.177z" fill="#3F4B29"/>
<path id="Vector_385" d="M294.52,46.385c3.45,3.451 7.11,5.383 8.18,4.317c1.07,-1.066 -0.87,-4.727 -4.32,-8.177c-3.45,-3.451 -7.11,-5.383 -8.18,-4.317c-1.06,1.066 0.87,4.727 4.32,8.177z" fill="#3F4B29"/>
<path id="Vector_386" d="M287.22,39.081c3.45,3.45 7.11,5.383 8.17,4.317c1.07,-1.067 -0.86,-4.728 -4.31,-8.178c-3.45,-3.45 -7.11,-5.383 -8.18,-4.317c-1.07,1.066 0.87,4.727 4.32,8.178z" fill="#3F4B29"/>
</g>
<g id="Group_193">
<path id="Vector_387" d="M70.47,64.562c-1.04,1.793 -5.51,0.958 -6.6,2.192c-1.88,2.138 -3.13,6.411 -4.09,5.855c-0.96,-0.555 2.11,-3.773 3.02,-6.476c0.53,-1.556 -2.43,-5.013 -1.4,-6.806c1.04,-1.793 5.51,-0.958 6.6,-2.191c1.88,-2.139 3.13,-6.412 4.09,-5.856c0.96,0.555 -2.11,3.773 -3.02,6.476c-0.53,1.556 2.43,5.014 1.4,6.806z" fill="#C3A381"/>
<path id="Vector_388" d="M51.16,77.065c1.03,-1.792 5.51,-0.957 6.59,-2.191c1.89,-2.139 3.14,-6.412 4.1,-5.856c0.96,0.556 -2.11,3.774 -3.02,6.476c-0.53,1.556 2.43,5.014 1.4,6.806c-1.04,1.793 -5.51,0.958 -6.6,2.192c-1.88,2.138 -3.13,6.411 -4.09,5.856c-0.97,-0.556 2.11,-3.774 3.02,-6.476c0.52,-1.556 -2.44,-5.014 -1.4,-6.807z" fill="#C3A381"/>
<path id="Vector_389" d="M67.06,80.469c-1.79,-1.035 -0.96,-5.51 -2.19,-6.594c-2.14,-1.886 -6.41,-3.135 -5.86,-4.097c0.56,-0.963 3.78,2.114 6.48,3.023c1.56,0.526 5.01,-2.434 6.81,-1.4c1.79,1.035 0.95,5.51 2.19,6.595c2.14,1.885 6.41,3.134 5.85,4.097c-0.55,0.962 -3.77,-2.114 -6.47,-3.023c-1.56,-0.527 -5.02,2.434 -6.81,1.399z" fill="#C3A381"/>
<path id="Vector_390" d="M54.56,61.161c1.79,1.035 0.95,5.51 2.19,6.594c2.14,1.886 6.41,3.135 5.85,4.097c-0.55,0.963 -3.77,-2.113 -6.47,-3.022c-1.56,-0.527 -5.02,2.434 -6.81,1.399c-1.79,-1.035 -0.96,-5.51 -2.19,-6.594c-2.14,-1.886 -6.41,-3.135 -5.86,-4.097c0.56,-0.963 3.78,2.113 6.48,3.023c1.56,0.519 5.02,-2.431 6.81,-1.4z" fill="#C3A381"/>
</g>
<g id="Group_194" filter="url(#filter49_d_22623_111881)">
<path id="Vector_391" d="M271.33,151.441c-3.21,1.85 -5.59,4.533 -6.97,7.744c-2.92,-1.349 -5.97,-1.032 -8.35,0.341c-1.55,0.895 -2.75,2.278 -3.57,3.851c-0.68,0.121 -1.31,0.346 -1.88,0.674l-7.24,4.178c-1.7,0.985 -2.75,2.759 -2.85,4.61c-3.2,-0.77 -6.34,0.006 -8.97,1.528c-3.26,1.88 -6.16,4.728 -7.97,8.526l-3.08,-9.521c-0.5,-1.574 -1.64,-2.842 -3.18,-3.472c-1.48,-0.66 -3.19,-0.638 -4.7,0.095c-0.75,0.366 -1.56,0.762 -2.44,1.269c-10.44,6.028 -18.05,20.897 -12.2,31.028c2.99,5.168 7.72,7.05 13.04,5.153l5.36,16.685c0.58,1.729 1.92,3.093 3.69,3.655c1.78,0.562 3.65,0.235 5.14,-0.896c0.1,-0.06 0.31,-0.18 0.57,-0.329c2.99,-1.731 7.53,-1.04 12.36,-0.314c5.72,0.833 11.6,1.71 16.72,-1.244c4.08,-2.357 7.29,-8.486 3.02,-18.15c-0.74,-1.64 -2.17,-2.811 -3.85,-3.218c0.06,-0.245 0.16,-0.438 0.17,-0.652c3.44,1.531 7.59,1.202 11.72,-1.185c4.76,-2.746 7.37,-6.94 8.52,-11.742c3.99,1.9 8.75,1.775 13.04,-0.702c13.28,-7.669 9.12,-17.26 7.54,-19.999c-1.02,-1.757 -2.87,-2.823 -4.83,-2.866c0.9,-3.824 0.63,-7.872 -1.52,-11.593c-2.81,-4.511 -8.92,-8.289 -17.29,-3.454z" fill="white"/>
<g id="Group_195">
<g id="Group_196">
<path id="Vector_392" d="M228.15,215.719c5.88,-1.876 14.25,0.455 20.66,-3.245c1.34,-0.776 2.67,-1.818 3.76,-3.274c2.29,5.157 2.03,9.37 -0.65,10.922c-7.19,4.148 -20.14,-3.604 -29.08,1.558c-0.42,0.239 -0.78,0.448 -1.11,0.708l-12.65,-39.215c-3.35,4.345 -3.8,9.64 -0.7,15.016c1.49,2.584 2.37,2.558 2.69,2.993c-3.46,2 -6.09,1.863 -8.21,-1.806c-3.88,-6.72 1.7,-18.419 10.13,-23.283c0.72,-0.418 1.37,-0.724 2.07,-1.06z" fill="#60A5FA"/>
</g>
<g id="Group_197">
<path id="Vector_393" d="M244.7,183.147c0.49,0.132 1.04,0.018 1.72,-0.37c2.37,-1.373 2.42,-3.675 3.84,-5.525l0.8,0.915c-0.42,2.859 -2.1,6.035 -4.52,8.533c4.87,10.698 2.26,18.823 -2.76,21.717c-5.37,3.104 -9.01,2.172 -12.47,-3.823c-7.16,-12.405 -3.93,-21.369 2.99,-25.368c4.79,-2.694 8.18,0.311 10.4,3.921zM243.12,189.365c-1.45,0.836 -2.71,0.19 -3.43,-1.05c-0.84,-1.448 -0.85,-3.505 0.19,-4.798c-1.11,-1.565 -2.24,-2.218 -3.64,-1.413c-4.75,2.746 -0.83,14.195 1.5,18.227c1.73,2.998 3.6,3.019 5.56,1.885c3.11,-1.791 2.01,-7.634 -0.18,-12.851z" fill="#F43F5E"/>
</g>
<g id="Group_198">
<path id="Vector_394" d="M264.68,167.135c4.53,7.856 8.52,23.955 -1.66,29.833c-3.88,2.238 -7.24,1.905 -9.42,-1.868c-0.45,-0.775 -0.87,-1.632 -1.23,-2.733l-6.26,-19.197l7.23,-4.178l6.26,19.197c0.27,0.813 0.49,1.441 0.82,2.01c0.57,0.982 1.39,1.334 2.84,0.498c4.96,-2.865 1.96,-15.814 -1.23,-21.344c-0.25,0.282 -0.66,0.654 -0.91,0.803c-1.45,0.836 -2.93,-0.172 -3.76,-1.619c-0.6,-1.034 -0.25,-3.167 1.46,-4.152c2.15,-1.172 4.34,0.114 5.86,2.75z" fill="#FB923C"/>
</g>
<g id="Group_199">
<path id="Vector_395" d="M272.45,180.84c-3.7,-6.409 -7.44,-19.207 1.71,-24.489c4.14,-2.387 7.45,-2.024 9.48,1.491c3.55,6.15 -1.04,13.485 -5.44,16.85c0.38,0.887 0.74,1.64 1.1,2.261c1.91,3.308 4.16,3.386 6.13,2.252c2.37,-1.372 3.61,-3.88 4.61,-6.934c3.13,5.427 -0.43,9.411 -5.44,12.305c-4.94,2.783 -9.67,0.554 -12.15,-3.736zM277.34,158.032c-2.85,1.642 -1.84,8.64 -0.18,14.022c4.62,-2.737 5.58,-8.597 3.58,-12.193c-0.63,-1.086 -1.9,-2.694 -3.4,-1.829z" fill="#FBBF24"/>
</g>
</g>
</g>
</g></svg>