<svg viewBox="0 0 32 32" fill="none" xmlns="http://www.w3.org/2000/svg" xmlns:xlink="http://www.w3.org/1999/xlink" x="0" y="0"><defs><clipPath id="clip74_10723_18403">
<rect width="32" height="32" fill="white" transform="translate(0, 0)"/>
</clipPath></defs><g id="Flags_2" clip-path="url(#clip74_10723_18403)">
<path id="Vector_930" d="M16,32c8.84,0 16,-7.2 16,-16c0,-8.8 -7.16,-16 -16,-16c-8.84,0 -16,7.2 -16,16c0,8.8 7.16,16 16,16z" fill="#F0F0F0"/>
<g id="Group_268">
<path id="Vector_931" d="M15.3,16h16.7c0,-1.4 -0.19,-2.8 -0.55,-4.2h-16.15z" fill="#D80027"/>
<path id="Vector_932" d="M15.3,7.7h14.35c-0.98,-1.6 -2.23,-3.1 -3.69,-4.2h-10.66z" fill="#D80027"/>
<path id="Vector_933" d="M16,32c3.76,0 7.23,-1.3 9.96,-3.5h-19.92c2.73,2.2 6.19,3.5 9.96,3.5z" fill="#D80027"/>
<path id="Vector_934" d="M2.35,24.3h27.3c0.79,-1.2 1.4,-2.6 1.8,-4.1h-30.9c0.4,1.5 1.01,2.9 1.8,4.1z" fill="#D80027"/>
</g>
<path id="Vector_935" d="M7.41,2.5h1.46l-1.36,1l0.52,1.6l-1.35,-1l-1.36,1l0.45,-1.4c-1.2,1 -2.24,2.2 -3.11,3.5h0.47l-0.86,0.6c-0.14,0.2 -0.27,0.4 -0.39,0.7l0.41,1.2l-0.77,-0.5c-0.19,0.4 -0.36,0.8 -0.52,1.2l0.45,1.4h1.68l-1.36,1l0.52,1.6l-1.35,-1l-0.82,0.6c-0.08,0.7 -0.12,1.3 -0.12,2h16c0,-8.8 0,-9.9 0,-16c-3.16,0 -6.11,0.9 -8.59,2.5zM8.03,14.4l-1.35,-1l-1.36,1l0.52,-1.6l-1.36,-1h1.68l0.52,-1.6l0.51,1.6h1.68l-1.36,1zM7.51,8.1l0.52,1.6l-1.35,-0.9l-1.36,0.9l0.52,-1.6l-1.36,-0.9h1.68l0.52,-1.6l0.51,1.6h1.68zM13.77,14.4l-1.36,-1l-1.35,1l0.52,-1.6l-1.36,-1h1.68l0.51,-1.6l0.52,1.6h1.68l-1.36,1zM13.25,8.1l0.52,1.6l-1.36,-0.9l-1.35,0.9l0.52,-1.6l-1.36,-0.9h1.68l0.51,-1.6l0.52,1.6h1.68zM13.25,3.5l0.52,1.6l-1.36,-1l-1.35,1l0.52,-1.6l-1.36,-1h1.68l0.51,-1.6l0.52,1.6h1.68z" fill="#0052B4"/>
</g></svg>