<svg viewBox="0 0 96 80" fill="none" xmlns="http://www.w3.org/2000/svg" xmlns:xlink="http://www.w3.org/1999/xlink" x="0" y="0"><g id="Frame_18">
<g id="Group">
<path id="XMLID_1_" d="M54.744,-10.96c-15.476,3.856 -22.557,15.04 -26.667,26.05c-2.775,7.42 -12.09,12.7 -17.176,18.78c-4.222,5.05 -11.915,8.27 -17.64,15.63c-3.337,4.28 -6.323,13.84 -5.705,19.23c0.619,5.4 1.532,8.87 4.539,13.39c8.9,13.4 21.04,14.93 38.567,13.48c6.793,-0.56 6.92,-1.04 13.72,-1.42c10.608,-0.58 22.789,-0.13 31.191,2.74c8.402,2.87 16.523,4.51 25.361,3.67c8.837,-0.84 17.879,-6.76 19.206,-15.54c0.422,-2.79 0.057,-5.7 0.759,-8.44c1.405,-5.46 6.765,-9.03 12.161,-10.71c5.233,-1.63 11.752,-3.5 15.855,-7.14c6.456,-5.73 8.465,-13.6 8.072,-19.93c-1.082,-17.45 -8.852,-29.28 -22.972,-32.41c-12.441,-2.75 -23.45,-1.02 -34.88,-6.66c-5.809,-2.87 -7.341,-3.74 -12.862,-7.124c-7.988,-4.91 -23.591,-5.578 -31.529,-3.596z" fill="#2F1C19"/>
<path id="Vector_12" d="M-12.934,44.84c2.908,0.71 6.912,-1.15 8.704,-3.07c2.227,-2.38 3.386,-5.7 3.618,-9.01c0.049,-0.64 0.056,-1.31 -0.204,-1.89c-0.52,-1.16 -1.988,-1.56 -3.168,-1.21c-3.204,0.99 -4.602,5.27 -6.871,7.5c-1.503,1.48 -5.978,2.42 -5.009,5.02c0.576,1.53 1.651,2.34 2.93,2.66z" fill="#2F1C19"/>
</g>
<g id="Group_2">
<path id="Vector_13" d="M27.236,12.05c-0.41,-3.59 -0.865,-7.22 -1.526,-10.79l-14.573,1.87l1.343,10.49c4.896,-0.66 9.815,-1.16 14.756,-1.57z" fill="#FB7185"/>
<path id="Vector_14" d="M27.237,12.05c-4.919,0.44 -9.837,0.92 -14.733,1.6l0.478,3.73c4.919,-0.73 9.792,-1.36 14.619,-1.98c-0.114,-1.11 -0.25,-2.23 -0.364,-3.35z" fill="#2F1C19"/>
<path id="Vector_15" d="M12.844,17.56l1.867,12.21l14.46,-2.21c-0.684,-4.07 -1.23,-8.2 -1.754,-12.32c-4.804,0.73 -9.655,1.48 -14.573,2.32z" fill="#FB7185"/>
<path id="Vector_16" d="M25.711,1.26c1.571,8.77 2.072,17.69 3.347,26.48l4.714,-0.61c-1.435,-8.77 -2.664,-17.58 -4.327,-26.37z" fill="#2F1C19"/>
<path id="Vector_17" d="M47.526,10.26l-1.481,-11.62l-16.6,2.14c0.683,3.65 1.298,7.29 1.89,10.93c5.397,-0.45 10.817,-0.86 16.191,-1.45z" fill="#FB7185"/>
<path id="Vector_18" d="M47.525,10.26c-5.396,0.59 -10.793,1 -16.213,1.45c0.16,1.05 0.342,2.1 0.501,3.15c5.374,-0.69 10.703,-1.35 16.031,-2.05z" fill="#2F1C19"/>
<path id="Vector_19" d="M31.812,14.85c0.638,4.1 1.276,8.2 1.936,12.28l15.689,-2.01l-1.594,-12.32c-5.305,0.73 -10.657,1.39 -16.031,2.05z" fill="#FB7185"/>
<g id="Group_3">
<path id="Vector_20" d="M25.8,0.12c-1.321,0.18 -2.664,-1.52 -3.438,-2.41c-0.433,-0.48 -0.82,-1 -1.185,-1.55c-0.296,-0.434 -1.571,-2.665 0.16,-1.845c0.432,0.205 0.865,0.865 1.184,1.229c0.433,0.506 0.842,1.026 1.23,1.576c0.774,1.11 1.434,2.32 1.958,3.57c0.182,-0.11 0.387,-0.23 0.569,-0.34c-1.116,-0.98 -1.617,-2.32 -1.981,-3.71c-0.364,-1.392 -0.638,-3.077 0.455,-4.238c-0.159,0 -0.318,0 -0.478,0c1.093,0.956 1.344,2.436 1.64,3.778c0.341,1.6 0.615,3.19 0.842,4.81c0.228,-0.07 0.433,-0.12 0.661,-0.19c-1.093,-2.73 -0.866,-6.03 0.933,-8.444c0.114,-0.136 0.228,-0.273 0.342,-0.41c0.615,-0.045 0.865,0.183 0.706,0.638c0.068,0.319 -0.069,0.797 -0.114,1.139c-0.091,0.774 -0.251,1.525 -0.455,2.254c-0.456,1.613 -1.162,3.143 -2.05,4.553c0.205,0.11 0.387,0.23 0.592,0.34c0.82,-1.82 1.708,-3.6 2.664,-5.349c0.501,-0.933 1.002,-1.844 1.89,-2.459c0.752,-0.524 1.64,-0.842 2.482,-1.161c-0.136,-0.068 -0.273,-0.159 -0.409,-0.228c0.25,0.797 -0.684,2.05 -1.093,2.71c-0.456,0.751 -0.957,1.457 -1.503,2.167c-0.957,1.23 -2.027,2.34 -3.188,3.37c-0.319,0.29 0.159,0.77 0.478,0.47c1.48,-1.29 2.801,-2.75 3.939,-4.37c0.592,-0.84 1.162,-1.728 1.64,-2.639c0.341,-0.638 0.615,-1.161 0.387,-1.89c-0.046,-0.159 -0.251,-0.296 -0.41,-0.228c-1.753,0.592 -3.279,1.321 -4.258,2.915c-1.253,2.002 -2.255,4.212 -3.211,6.372c-0.182,0.39 0.342,0.73 0.592,0.35c1.253,-1.96 2.118,-4.15 2.505,-6.449c0.137,-0.797 0.843,-3.666 -0.797,-3.438c-1.503,0.182 -2.368,2.732 -2.687,3.939c-0.547,2.008 -0.41,4.118 0.364,6.058c0.16,0.41 0.729,0.25 0.661,-0.18c-0.251,-1.92 -0.592,-3.81 -1.025,-5.673c-0.296,-1.207 -0.66,-2.391 -1.617,-3.211c-0.136,-0.113 -0.341,-0.136 -0.478,0c-1.116,1.162 -1.093,2.756 -0.774,4.254c0.364,1.71 0.956,3.49 2.322,4.67c0.228,0.21 0.706,0.03 0.57,-0.34c-0.797,-1.87 -1.822,-3.62 -3.12,-5.168c-0.592,-0.706 -2.14,-2.892 -3.211,-1.662c-1.024,1.161 0.57,2.91 1.253,3.8c0.979,1.25 2.732,3.58 4.508,3.33c0.388,-0.09 0.388,-0.78 -0.045,-0.71z" fill="#FBBF24"/>
</g>
<g id="Group_4">
<g id="Group_5">
<path id="Vector_21" d="M82.297,16.75c0,1.09 0,2.18 0,3.28c0,0.88 1.366,0.88 1.366,0c0,-1.1 0,-2.19 0,-3.28c0,-0.89 -1.366,-0.89 -1.366,0z" fill="#2F1C19"/>
</g>
<g id="Group_6">
<path id="Vector_22" d="M82.109,27.36c0,1.09 0,2.18 0,3.28c0,0.88 1.367,0.88 1.367,0c0,-1.1 0,-2.19 0,-3.28c0,-0.87 -1.367,-0.89 -1.367,0z" fill="#2F1C19"/>
</g>
<g id="Group_7">
<path id="Vector_23" d="M76.532,24.37c0.911,0 1.821,0 2.732,0c0.888,0 0.888,-1.36 0,-1.36c-0.911,0 -1.821,0 -2.732,0c-0.866,0 -0.866,1.36 0,1.36z" fill="#2F1C19"/>
</g>
<g id="Group_8">
<path id="Vector_24" d="M86.529,24.37c0.911,0 1.822,0 2.733,0c0.888,0 0.888,-1.36 0,-1.36c-0.911,0 -1.822,0 -2.733,0c-0.888,0 -0.888,1.36 0,1.36z" fill="#2F1C19"/>
</g>
</g>
<g id="Group_9">
<g id="Group_10">
<path id="Vector_25" d="M12.598,64.49c0,0.94 0,1.89 0,2.83c0,0.89 1.366,0.89 1.366,0c0,-0.94 0,-1.89 0,-2.83c0,-0.86 -1.366,-0.86 -1.366,0z" fill="#2F1C19"/>
</g>
<g id="Group_11">
<path id="Vector_26" d="M12.438,73.65c0,0.93 0,1.89 0,2.82c0,0.89 1.366,0.89 1.366,0c0,-0.93 0,-1.89 0,-2.82c0,-0.89 -1.366,-0.89 -1.366,0z" fill="#2F1C19"/>
</g>
<g id="Group_12">
<path id="Vector_27" d="M7.748,71.17c0.797,0 1.571,0 2.368,0c0.888,0 0.888,-1.37 0,-1.37c-0.797,0 -1.571,0 -2.368,0c-0.888,0 -0.888,1.37 0,1.37z" fill="#2F1C19"/>
</g>
<g id="Group_13">
<path id="Vector_28" d="M16.333,71.17c0.797,0 1.571,0 2.368,0c0.888,0 0.888,-1.37 0,-1.37c-0.797,0 -1.571,0 -2.368,0c-0.866,0 -0.866,1.37 0,1.37z" fill="#2F1C19"/>
</g>
</g>
<path id="XMLID_2_" d="M113.105,77.54c-0.546,0.8 -1.07,1.62 -1.799,2.26c-0.478,0.43 -1.093,0.79 -1.753,0.7c-0.569,-0.06 -1.047,-0.47 -1.434,-0.91c-1.367,-1.55 -2.095,-3.5 -2.278,-5.53c-0.159,-1.69 -0.113,-3.35 0.069,-5.03c0.523,-3.05 1.434,-6.01 2.505,-8.93c0.182,-0.5 0.25,-1.07 0.227,-1.64c0.228,-0.61 0.365,-1.27 0.41,-1.96c0.182,-3.53 -1.844,-6.53 -4.622,-8.49c-2.482,-1.75 -5.716,-2.19 -8.653,-1.57c-5.397,1.11 -9.268,5.96 -11.887,10.5c-2.687,4.64 -4.167,9.74 -4.736,15.05c-0.592,5.42 0.114,10.9 0.888,16.28c0.546,3.89 1.298,7.76 2.641,11.43h12.752c-0.137,-0.46 -0.319,-0.91 -0.546,-1.34c-0.342,-0.64 -0.684,-1.28 -0.98,-1.94c-2.983,-6.51 -3.688,-15.96 -3.096,-23.02c0.409,-4.85 2.094,-10.16 5.442,-13.87c-2.004,6.24 -2.983,12.8 -1.366,19.27c0.842,3.37 2.504,6.69 4.986,9.15c3.439,3.42 8.244,4.92 13.003,3.96c3.643,-0.73 6.353,-3.21 8.584,-6.03c-3.074,-2.44 -5.966,-5.08 -8.357,-8.34zM108.87,80.28c0,0 -0.091,-0.07 -0.205,-0.16c0.114,0.06 0.205,0.13 0.205,0.16zM108.688,80.21c0.068,0.07 0.228,0.13 0.364,0.2c-0.159,-0.07 -0.273,-0.13 -0.364,-0.2zM109.849,80.57c-0.114,-0.02 -0.25,-0.04 -0.364,-0.07c0.136,0.03 0.25,0.05 0.387,0.05c-0.023,0.02 -0.023,0.02 -0.023,0.02zM110.077,80.59c-0.046,0 -0.091,-0.02 -0.137,-0.02h0.023c0.046,0 0.091,0.02 0.114,0.02zM110.327,80.62c-0.068,0 -0.136,-0.03 -0.205,-0.03c0.069,0.03 0.137,0.03 0.205,0.03zM110.327,80.62c0.046,0 0.069,0 0.091,0.02c-0.022,0 -0.068,0 -0.091,-0.02z" fill="#9BB167"/>
<path id="Vector_29" d="M43.04,32.32c1.903,-1.9 1.903,-4.99 0,-6.89c-1.903,-1.9 -4.988,-1.9 -6.891,0c-1.903,1.9 -1.903,4.99 0,6.89c1.903,1.91 4.988,1.91 6.891,0z" fill="#533630"/>
<path id="Vector_30" d="M103.269,32.21c-0.478,-0.98 -1.594,-1.44 -2.551,-1.99c-1.502,-0.84 -2.732,-2.07 -3.939,-3.3c-0.319,-0.32 -0.66,-0.66 -0.82,-1.09c-0.159,-0.43 -0.114,-0.98 0.251,-1.25c0.933,-0.75 2.254,1.05 3.37,0.61c0.683,-0.25 0.797,-1.23 0.455,-1.86c-0.341,-0.64 -0.979,-1.05 -1.548,-1.51c-1.799,-1.45 -3.006,-3.6 -3.302,-5.9c-0.091,-0.72 -0.045,-1.59 0.524,-2.02c0.774,-0.59 1.867,-0.07 2.618,0.54c1.526,1.26 2.756,2.9 3.53,4.72c0.342,0.84 0.638,1.75 1.298,2.37c0.66,0.61 1.913,0.73 2.391,-0.03c0.228,-0.34 0.41,-0.91 0.82,-0.82c0.205,0.05 0.318,0.25 0.387,0.46c0.25,0.82 -0.16,1.66 -0.387,2.5c-0.228,0.85 -0.137,1.92 0.637,2.28c0.251,0.12 0.547,0.14 0.797,0.27c0.524,0.32 0.547,1.07 0.501,1.69c-0.136,1.5 -0.387,3.23 -1.708,3.98c-1.184,0.66 -2.664,0.21 -3.939,-0.27z" fill="#533630"/>
<path id="XMLID_1__2" d="M62.257,74.52c-0.501,-5.77 -1.344,-11.53 -2.96,-17.08c-0.889,-3.08 -1.936,-6.26 -3.507,-9.04c-0.888,-1.6 -2.027,-3.17 -3.348,-4.4c-1.73,-1.64 -3.506,-2.71 -5.67,-3.6c-3.871,-1.61 -8.083,-0.86 -11.749,0.92c-3.166,1.5 -5.762,4.41 -7.469,7.51c-2.46,4.44 -3.507,9.59 -3.666,14.66c-0.137,4.58 0.432,9.2 1.184,13.69c0.751,4.51 1.799,8.95 3.051,13.32c0.66,2.3 1.366,4.6 2.14,6.9h14.984c-3.165,-8.24 -6.171,-17.4 -7.059,-26.44c-0.274,-2.68 -0.342,-5.37 -0.182,-8.01c0.136,-2.12 0.933,-8.79 3.962,-8.77c2.983,0.84 4.303,9.25 4.918,11.91c2.3,10.09 2.027,21 0.866,31.29h14.14c0.866,-7.63 1.025,-15.3 0.365,-22.86z" fill="#926247"/>
<path id="Vector_31" d="M57.884,29.38c-0.728,0.73 -0.296,0.46 0,0z" fill="#FDA4AF"/>
<path id="Vector_32" d="M70.07,24.42c-0.114,-0.57 -0.25,-1.14 -0.455,-1.69c-1.458,-4.23 -5.078,-7.47 -9.177,-9.26c-3.939,-1.74 -8.311,-2.24 -12.615,-2.33c0.182,2.53 0.524,5.13 -0.524,7.04c-0.797,1.71 -2.004,3.41 -3.529,4.69c4.303,1.16 9.495,-0.68 13.412,2.19c0.706,0.5 1.343,1.2 1.457,2.05c0.091,0.72 -0.25,1.45 -0.66,2.07c-1.23,1.82 -3.234,3.03 -5.238,3.82c-0.068,0.03 -0.136,0.05 -0.205,0.07c1.822,3.42 3.279,6.95 4.76,10.5c3.415,-1.21 6.535,-3.08 9.131,-6.2c2.96,-3.55 4.531,-8.44 3.643,-12.95zM57.432,25.15c0.046,0.02 0.046,0.02 0,0z" fill="#FDA4AF"/>
<path id="Vector_33" d="M39.667,36.24c-7.742,2.09 -10.999,2.09 -22.543,2.5c-1.207,3.64 -2.505,7.27 -3.12,11.11c1.731,0.41 3.507,0.66 5.306,0.78c6.74,0.41 13.389,-0.94 20.084,-1.78c5.966,-0.73 17.943,-5.24 17.92,-5.3c-1.48,-3.56 -2.937,-7.09 -4.759,-10.5c-3.825,1.46 -7.4,1.71 -12.888,3.19z" fill="#2F1C19"/>
<path id="Vector_34" d="M12.777,16.56c-0.456,0.14 -0.456,0.18 -0.888,0.46c-4.828,2.89 -8.949,6.94 -10.771,12.36c-1.867,5.54 -0.41,12.19 4.053,16.06c2.573,2.23 5.602,3.64 8.835,4.41c0.638,-3.84 1.936,-7.47 3.12,-11.11c-0.751,-0.18 -1.503,-0.43 -2.277,-0.77c-1.253,-0.55 -2.391,-1.57 -2.71,-2.92c-0.615,-2.52 1.685,-5.19 3.598,-6.56c0.205,-0.15 0.433,-0.29 0.66,-0.45c-1.024,-2.89 -1.821,-5.81 -2.504,-9c-0.16,-0.91 -0.82,-1.61 -1.116,-2.48zM13.574,30.48c0.045,-0.07 0.091,-0.14 0.159,-0.16c-0.023,0.02 -0.091,0.09 -0.159,0.16z" fill="#FDA4AF"/>
<path id="Vector_35" d="M81.704,46.78c-2.573,2.34 -5.214,4.51 -8.174,6.35c-2.801,1.76 -4.896,5.06 -2.756,8.34c1.822,2.8 5.078,3.57 8.016,2.09c5.715,-2.89 10.087,-7.56 14.801,-11.79c-2.437,-3.15 -4.395,-6.56 -6.422,-9.96c-1.867,1.62 -3.666,3.33 -5.465,4.97z" fill="#FDA4AF"/>
<path id="Vector_36" d="M109.419,37.76c-2.755,-2.93 -7.059,-3.94 -10.884,-2.8c-4.35,1.3 -7.993,3.94 -11.363,6.86c2.026,3.39 4.008,6.8 6.421,9.95c0.911,-0.82 1.822,-1.62 2.778,-2.37c1.572,-1.16 3.211,-2.12 4.919,-3.03c0,1.5 -0.888,2.87 -1.799,4.08c-1.025,1.34 -2.118,2.62 -3.256,3.84c1.89,3.51 4.281,6.74 6.49,10.07c2.299,-2.28 4.44,-4.69 6.398,-7.31c2.141,-2.85 3.552,-6.1 3.848,-9.68c0.296,-3.48 -1.184,-7.1 -3.552,-9.61zM101.745,46.23c0.069,0 0.091,0.03 0.091,0.03c0,0 -0.045,0 -0.091,-0.03z" fill="#FB7185"/>
<path id="Vector_37" d="M39.555,37.35l0.547,-5.69c0.433,0.32 1.025,0.43 1.571,0.23c0.888,-0.32 1.344,-1.28 1.025,-2.17c-0.319,-0.88 -1.275,-1.34 -2.163,-1.02c-0.046,0.02 -0.091,0.04 -0.16,0.07l0.251,-2.46c0.022,-0.3 -0.16,-0.59 -0.456,-0.66c-1.48,-0.39 -5.738,-1.05 -7.878,3.19c-0.16,0.31 -0.023,0.7 0.318,0.86l1.708,0.73l-2.55,4.49c-0.957,1.68 -0.661,3.84 0.797,5.14c0.068,0.07 0.136,0.12 0.205,0.18c2.573,2.1 6.467,0.41 6.785,-2.89z" fill="#FDA4AF"/>
<path id="Vector_38" d="M108.871,37.85l-1.822,-4.89c0.478,0.09 1.002,-0.07 1.389,-0.44c0.592,-0.61 0.592,-1.59 -0.023,-2.18c-0.615,-0.59 -1.594,-0.59 -2.186,0.02c-0.045,0.05 -0.068,0.07 -0.091,0.12l-0.797,-2.12c-0.091,-0.28 -0.364,-0.41 -0.637,-0.37c-1.367,0.28 -5.124,1.44 -5.192,5.79c0,0.32 0.273,0.59 0.592,0.57l1.685,-0.09l-0.296,4.71c-0.114,1.77 1.002,3.41 2.71,3.92c0.091,0.02 0.159,0.04 0.25,0.06c2.96,0.69 5.488,-2.25 4.418,-5.1z" fill="#FDA4AF"/>
<path id="Vector_39" d="M88.496,44.53l-23.332,3l4.224,32.88l23.332,-2.99z" fill="#FBBF24"/>
<g id="Group_14">
<path id="Vector_40" d="M74.532,45.92c2.095,10.74 3.598,21.61 4.486,32.54c0.045,0.43 0.729,0.43 0.683,0c-0.911,-10.98 -2.414,-21.91 -4.509,-32.73c-0.091,-0.43 -0.751,-0.25 -0.66,0.19z" fill="#533630"/>
</g>
<g id="Group_15">
<path id="Vector_41" d="M77.832,45.09c0.296,11.57 1.89,23.07 4.736,34.27c0.114,0.44 0.775,0.25 0.661,-0.18c-2.847,-11.16 -4.418,-22.59 -4.714,-34.09c0,-0.43 -0.683,-0.43 -0.683,0z" fill="#533630"/>
</g>
<g id="Group_16">
<path id="Vector_42" d="M66.265,63.38c7.538,-1.64 15.075,-3.28 22.612,-4.94c0.433,-0.09 0.251,-0.75 -0.182,-0.66c-7.537,1.64 -15.074,3.28 -22.612,4.94c-0.432,0.09 -0.25,0.75 0.182,0.66z" fill="#533630"/>
</g>
<g id="Group_17">
<path id="Vector_43" d="M67.404,65.61c1.458,-1.14 3.461,-1.37 5.215,-1.75c2.004,-0.46 3.985,-0.89 5.989,-1.35c3.916,-0.86 7.833,-1.75 11.749,-2.61c0.433,-0.1 0.251,-0.76 -0.182,-0.66c-4.212,0.93 -8.425,1.86 -12.638,2.82c-2.072,0.45 -4.144,0.91 -6.216,1.39c-1.571,0.34 -3.12,0.66 -4.418,1.68c-0.341,0.28 0.16,0.75 0.501,0.48z" fill="#533630"/>
</g>
<g id="Group_18">
<path id="Vector_44" d="M75.716,45.57c-1.913,-1.02 -6.035,-3.46 -5.329,-6.1c-0.137,0.07 -0.273,0.16 -0.41,0.23c1.799,0.68 2.414,2.37 3.507,3.76c0.888,1.13 1.913,2.16 3.006,3.09c0.227,0.21 0.706,0.03 0.569,-0.34c-0.501,-1.32 -1.571,-2.34 -1.981,-3.69c-0.41,-1.32 -0.342,-3.48 0.41,-4.67c-0.205,0 -0.387,0 -0.592,0c1.343,2.35 1.981,5.33 1.298,8c0.227,0 0.432,0 0.66,0c-0.364,-1.46 -0.137,-2.87 0.433,-4.24c0.227,-0.57 1.616,-3.73 2.345,-3.53c-0.091,-0.11 -0.159,-0.23 -0.25,-0.32c-0.228,2.92 -1.503,5.54 -2.801,8.09c0.205,0.11 0.387,0.22 0.592,0.34c1.138,-2.55 2.778,-6.13 5.533,-7.29c0.615,-0.27 0.41,-0.04 0.114,0.37c-0.341,0.45 -0.683,0.91 -1.047,1.34c-0.501,0.61 -1.025,1.23 -1.549,1.82c-1.161,1.28 -2.391,2.48 -3.712,3.62c-0.341,0.3 0.16,0.78 0.479,0.48c1.799,-1.57 3.484,-3.28 5.009,-5.15c0.387,-0.47 2.983,-3.07 1.48,-3.46c-0.569,-0.13 -1.298,0.46 -1.707,0.73c-0.775,0.52 -1.458,1.16 -2.073,1.87c-1.343,1.57 -2.299,3.41 -3.119,5.3c-0.182,0.39 0.387,0.76 0.592,0.35c1.343,-2.69 2.664,-5.4 2.892,-8.45c0.023,-0.16 -0.114,-0.3 -0.251,-0.32c-0.569,-0.16 -0.911,0.09 -1.252,0.55c-0.638,0.81 -1.184,1.82 -1.617,2.75c-0.797,1.69 -1.161,3.46 -0.729,5.28c0.092,0.32 0.57,0.32 0.661,0c0.729,-2.82 0.068,-6.01 -1.366,-8.51c-0.137,-0.23 -0.456,-0.21 -0.592,0c-0.82,1.29 -0.775,3.12 -0.593,4.6c0.205,1.64 1.526,2.8 2.095,4.28c0.183,-0.12 0.388,-0.23 0.57,-0.34c-1.321,-1.17 -2.619,-2.44 -3.553,-3.92c-0.842,-1.34 -1.707,-2.55 -3.256,-3.12c-0.182,-0.07 -0.387,0.07 -0.41,0.23c-0.819,3.07 3.393,5.69 5.647,6.87c0.342,0.3 0.684,-0.29 0.297,-0.5z" fill="#533630"/>
</g>
<g id="Group_19">
<path id="Vector_45" d="M13.734,27.45c0.546,0.82 1.844,0.91 2.869,0.2l5.055,-3.39c2.437,-1.64 2.869,-2.78 2.391,-3.49l-0.068,-0.09c-0.433,-0.64 -1.48,-0.73 -2.437,-0.23c0.82,-0.68 1.139,-1.68 0.706,-2.32l-0.068,-0.09c-0.433,-0.66 -1.526,-0.73 -2.482,-0.18c0.865,-0.68 1.207,-1.71 0.751,-2.37l-0.068,-0.09c-0.478,-0.71 -1.708,-0.73 -2.71,-0.05l-6.444,4.33c-1.047,0.71 -1.434,1.94 -0.888,2.73z" fill="#FDA4AF"/>
<g id="Group_20">
<path id="Vector_46" d="M15.349,25.26c2.209,-1.48 4.417,-2.96 6.626,-4.44c0.365,-0.25 0.023,-0.84 -0.341,-0.59c-2.209,1.48 -4.418,2.96 -6.627,4.44c-0.364,0.25 -0.022,0.84 0.342,0.59z" fill="#533630"/>
</g>
<g id="Group_21">
<path id="Vector_47" d="M13.345,22.3c2.186,-1.48 4.395,-2.96 6.581,-4.44c0.364,-0.25 0.023,-0.84 -0.342,-0.59c-2.186,1.48 -4.395,2.96 -6.581,4.44c-0.364,0.23 -0.022,0.82 0.342,0.59z" fill="#533630"/>
</g>
<g id="Group_22">
<path id="Vector_48" d="M23.706,22.76c-1.753,-2.6 -3.484,-5.2 -5.237,-7.79c-0.251,-0.37 -0.843,-0.02 -0.592,0.34c1.753,2.6 3.484,5.19 5.237,7.79c0.251,0.36 0.843,0.02 0.592,-0.34z" fill="#533630"/>
</g>
</g>
<g id="Group_23">
<path id="Vector_49" d="M49.326,21.62c0,0.98 -1.002,1.78 -2.232,1.78h-5.989c-2.891,0 -3.871,-0.71 -3.871,-1.58v-0.11c0,-0.77 0.82,-1.43 1.868,-1.55c-1.048,-0.11 -1.868,-0.77 -1.868,-1.55v-0.11c0,-0.8 0.843,-1.46 1.936,-1.55c-1.093,-0.09 -1.936,-0.75 -1.936,-1.57v-0.11c0,-0.87 1.002,-1.57 2.209,-1.57l7.674,0.02c1.23,0 2.232,0.8 2.232,1.8z" fill="#FDA4AF"/>
<g id="Group_24">
<path id="Vector_50" d="M46.774,20c-2.618,0 -5.237,0 -7.856,-0.02c-0.432,0 -0.432,0.68 0,0.68c2.619,0 5.238,0 7.856,0.02c0.456,0 0.456,-0.68 0,-0.68z" fill="#533630"/>
</g>
<g id="Group_25">
<path id="Vector_51" d="M46.798,16.4c-2.618,0 -5.214,0 -7.833,-0.02c-0.433,0 -0.433,0.68 0,0.68c2.619,0 5.215,0 7.833,0.03c0.433,0 0.433,-0.69 0,-0.69z" fill="#533630"/>
</g>
<g id="Group_26">
<path id="Vector_52" d="M39.257,23.24c0,-3.15 0,-6.29 0.023,-9.45c0,-0.44 -0.683,-0.44 -0.683,0c0,3.14 0,6.28 -0.023,9.45c0,0.45 0.683,0.45 0.683,0z" fill="#533630"/>
</g>
</g>
<g id="Group_27">
<path id="Vector_53" d="M9.951,19.23c0.364,-0.44 0.774,-0.85 1.23,-1.17c0.364,-0.25 0.023,-0.84 -0.342,-0.59c-0.524,0.37 -0.979,0.78 -1.389,1.28c-0.273,0.32 0.228,0.82 0.501,0.48z" fill="#533630"/>
</g>
<g id="Group_28">
<path id="Vector_54" d="M47.572,13.58c0.728,0.14 1.457,0.25 2.163,0.39c0.433,0.06 0.615,-0.6 0.182,-0.66c-0.729,-0.14 -1.457,-0.25 -2.163,-0.39c-0.433,-0.09 -0.615,0.57 -0.182,0.66z" fill="#533630"/>
</g>
<g id="Group_29">
<path id="Vector_55" d="M73.325,73.63l-2.231,2.12c-0.615,0.57 -0.866,1.89 -0.069,2.55c0.797,0.63 1.913,0.25 2.71,-0.46l1.389,-1.16l0.046,0.39l-0.046,6.14c-0.023,1.44 0.683,2.65 1.549,2.65h0.113c0.797,0 1.458,-1.01 1.572,-2.3c0.091,1.29 0.728,2.32 1.525,2.32h0.114c0.569,0 1.093,-0.52 1.366,-1.3c0.251,0.64 0.752,1.09 1.321,1.09c1.048,0 1.913,-1.23 1.936,-2.77l0.114,-12.37l-7.674,-0.07z" fill="#FDA4AF"/>
<g id="Group_30">
<g id="Group_31">
<path id="Vector_56" d="M75.398,76.95c0,-0.84 0.023,-1.69 0.023,-2.53c0,-0.43 -0.683,-0.43 -0.683,0c0,0.84 -0.023,1.69 -0.023,2.53c0,0.43 0.683,0.43 0.683,0z" fill="#533630"/>
</g>
<g id="Group_32">
<path id="Vector_57" d="M78.68,84.58c0.023,-2.23 0.045,-4.47 0.068,-6.7c0,-0.43 -0.683,-0.43 -0.683,0c-0.023,2.23 -0.046,4.47 -0.068,6.7c-0.023,0.43 0.66,0.43 0.683,0z" fill="#533630"/>
</g>
<g id="Group_33">
<path id="Vector_58" d="M81.777,84.62c0.023,-2.16 0.045,-4.3 0.068,-6.46c0,-0.44 -0.683,-0.44 -0.683,0c-0.023,2.16 -0.045,4.3 -0.068,6.46c0,0.44 0.683,0.44 0.683,0z" fill="#533630"/>
</g>
<g id="Group_34">
<path id="Vector_59" d="M84.099,84.28c-2.915,-0.02 -5.829,-0.04 -8.767,-0.07c-0.432,0 -0.432,0.69 0,0.69c2.915,0.02 5.83,0.04 8.767,0.07c0.433,0 0.433,-0.69 0,-0.69z" fill="#533630"/>
</g>
<g id="Group_35">
<path id="Vector_60" d="M73.034,78.13c-0.387,-0.86 -0.888,-1.68 -1.458,-2.43c-0.273,-0.34 -0.865,0 -0.592,0.34c0.57,0.75 1.071,1.57 1.458,2.44c0.182,0.41 0.774,0.06 0.592,-0.35z" fill="#533630"/>
</g>
</g>
</g>
<path id="Vector_61" d="M96.234,54.29c-3.462,3.74 -7.401,7.04 -11.409,10.14c-3.142,2.43 -6.33,4.83 -9.518,7.22c-1.093,0.82 -1.958,1.64 -2.459,2.87c4.212,0.45 8.015,2.45 11.772,4.71c6.24,-4.67 12.57,-9.36 18.08,-14.85c-2.208,-3.34 -4.599,-6.58 -6.466,-10.09z" fill="#FDA4AF"/>
<g id="Group_36">
<path id="Vector_62" d="M37.711,26.85c0.319,-0.09 0.728,0.32 0.569,0.64c-0.182,0.39 0.387,0.75 0.592,0.34c0.41,-0.84 -0.41,-1.91 -1.343,-1.64c-0.433,0.14 -0.251,0.8 0.182,0.66z" fill="#533630"/>
</g>
<g id="Group_37">
<path id="Vector_63" d="M40.715,30.5c0.341,-0.09 0.683,-0.18 1.024,-0.28c0.433,-0.11 0.251,-0.77 -0.182,-0.66c-0.341,0.1 -0.683,0.19 -1.024,0.28c-0.433,0.11 -0.251,0.77 0.182,0.66z" fill="#533630"/>
</g>
<g id="Group_38">
<path id="Vector_64" d="M36.278,25.49c-1.093,-0.05 -2.163,0.09 -3.233,0.36c-0.228,0.07 -0.296,0.3 -0.205,0.5c0.205,0.41 0.501,0.71 0.933,0.92c0.388,0.18 0.752,-0.41 0.342,-0.6c-0.319,-0.16 -0.524,-0.34 -0.683,-0.66c-0.068,0.16 -0.137,0.34 -0.205,0.5c1.002,-0.27 2.004,-0.38 3.051,-0.34c0.433,0.03 0.433,-0.66 0,-0.68z" fill="#533630"/>
</g>
<g id="Group_39">
<path id="Vector_65" d="M34.841,29.34c0.615,0.13 1.23,-0.12 1.549,-0.66c0.227,-0.39 -0.365,-0.73 -0.592,-0.34c-0.16,0.27 -0.479,0.41 -0.775,0.34c-0.432,-0.09 -0.615,0.57 -0.182,0.66z" fill="#533630"/>
</g>
<g id="Group_40">
<path id="Vector_66" d="M1.939,35.17c-0.137,0.86 -0.023,1.66 0.341,2.43c0.182,0.39 0.774,0.05 0.592,-0.34c-0.273,-0.59 -0.387,-1.25 -0.273,-1.91c0.068,-0.44 -0.592,-0.62 -0.66,-0.18z" fill="#533630"/>
</g>
<g id="Group_41">
<path id="Vector_67" d="M67.06,22.23c0.456,0.73 0.593,1.55 0.388,2.39c-0.092,0.44 0.569,0.62 0.66,0.19c0.228,-1.03 0.068,-2.03 -0.455,-2.94c-0.251,-0.37 -0.82,-0.02 -0.593,0.36z" fill="#533630"/>
</g>
<g id="Group_42">
<path id="Vector_68" d="M107.141,31.7c0.273,-0.11 0.569,-0.22 0.842,-0.34c0.183,-0.06 0.296,-0.22 0.228,-0.41c-0.045,-0.16 -0.25,-0.32 -0.41,-0.22c-0.273,0.11 -0.569,0.22 -0.842,0.34c-0.182,0.07 -0.296,0.23 -0.228,0.41c0.023,0.13 0.228,0.29 0.41,0.22z" fill="#533630"/>
</g>
<g id="Group_43">
<path id="Vector_69" d="M102.769,30.68c0.683,-0.3 1.457,-0.23 2.049,0.23c0.342,0.27 0.82,-0.21 0.478,-0.48c-0.774,-0.62 -1.776,-0.8 -2.709,-0.41c-0.41,0.16 -0.228,0.82 0.182,0.66z" fill="#533630"/>
</g>
<g id="Group_44">
<path id="Vector_70" d="M101.105,29.8c-0.751,0.61 -1.457,1.27 -2.117,1.98c-0.205,0.22 -0.069,0.57 0.25,0.59c0.364,0 0.752,0.02 1.116,0.02c0.433,0 0.433,-0.68 0,-0.68c-0.364,0 -0.752,-0.02 -1.116,-0.02c0.091,0.2 0.16,0.38 0.251,0.59c0.66,-0.71 1.366,-1.37 2.117,-1.98c0.319,-0.3 -0.182,-0.8 -0.501,-0.5z" fill="#533630"/>
</g>
<g id="Group_45">
<path id="Vector_71" d="M101.858,33.48c0.569,0.32 1.298,-0.11 1.321,-0.75c0.022,-0.43 -0.661,-0.43 -0.684,0c0,0.11 -0.205,0.23 -0.296,0.18c-0.387,-0.22 -0.728,0.34 -0.341,0.57z" fill="#533630"/>
</g>
<g id="Group_46">
<path id="Vector_72" d="M94.66,69.87c0.661,-0.37 1.253,-0.84 1.731,-1.41c0.296,-0.34 -0.205,-0.82 -0.478,-0.48c-0.456,0.52 -0.979,0.96 -1.594,1.3c-0.387,0.22 -0.046,0.82 0.341,0.59z" fill="#533630"/>
</g>
</g>
</g></svg>