<svg viewBox="0 0 17.6569 19.7782" fill="none" xmlns="http://www.w3.org/2000/svg" xmlns:xlink="http://www.w3.org/1999/xlink" x="0" y="0"><path id="Vector_716" d="M14.2392,2.5386c-0.71,-0.72 -1.87,-0.72 -2.58,0l-8.5,8.5c-1.54,1.54 -1.54,4.04 0,5.58c1.54,1.55 4.04,1.55 5.58,0l7.5,-7.5l1.42,1.42l-7.5,7.5c-2.33,2.32 -6.09,2.32 -8.42,0c-2.32,-2.33 -2.32,-6.09 0,-8.42l8.5,-8.5c1.5,-1.49 3.92,-1.49 5.42,0c1.49,1.5 1.49,3.92 0,5.42l-9,9l-1.42,-1.42l9,-9c0.72,-0.71 0.72,-1.87 0,-2.58z" fill="currentColor"/></svg>