<svg viewBox="0 0 21 21" fill="none" xmlns="http://www.w3.org/2000/svg" xmlns:xlink="http://www.w3.org/1999/xlink" x="0" y="0"><path id="Vector_8" fill-rule="evenodd" clip-rule="evenodd" d="M18.172,4.243c0.523,0.79 0.828,1.738 0.828,2.757h2c0,-3.866 -3.134,-7 -7,-7v2c1.019,0 1.967,0.305 2.757,0.828l-3.851,3.852c-1.355,-1.053 -3.057,-1.68 -4.906,-1.68c-4.418,0 -8,3.582 -8,8c0,4.418 3.582,8 8,8c4.418,0 8,-3.582 8,-8c0,-1.849 -0.627,-3.551 -1.68,-4.906zM8,7c-3.314,0 -6,2.686 -6,6c0,3.314 2.686,6 6,6c3.314,0 6,-2.686 6,-6c0,-3.314 -2.686,-6 -6,-6z" fill="currentColor"/></svg>