<svg viewBox="0 0 21 21" fill="none" xmlns="http://www.w3.org/2000/svg" xmlns:xlink="http://www.w3.org/1999/xlink" x="0" y="0"><path id="Vector_11" fill-rule="evenodd" clip-rule="evenodd" d="M18.17,4.243c0.53,0.79 0.83,1.738 0.83,2.757h2c0,-3.866 -3.13,-7 -7,-7v2c1.02,0 1.97,0.305 2.76,0.828l-3.85,3.852c-1.36,-1.053 -3.06,-1.68 -4.91,-1.68c-4.42,0 -8,3.582 -8,8c0,4.418 3.58,8 8,8c4.42,0 8,-3.582 8,-8c0,-1.849 -0.63,-3.551 -1.68,-4.906zM8,7c-3.31,0 -6,2.686 -6,6c0,3.314 2.69,6 6,6c3.31,0 6,-2.686 6,-6c0,-3.314 -2.69,-6 -6,-6z" fill="currentColor"/></svg>