<svg viewBox="0 0 15.7071 15.7071" fill="none" xmlns="http://www.w3.org/2000/svg" xmlns:xlink="http://www.w3.org/1999/xlink" x="0" y="0"><path id="Vector_852" d="M13.434,7.93c0.364,1.36 0.364,2.78 0,4.14l1.932,0.52c0.455,-1.7 0.455,-3.48 0,-5.18c-0.454,-1.69 -1.347,-3.24 -2.588,-4.48c-1.241,-1.24 -2.787,-2.13 -4.483,-2.59c-1.695,-0.45 -3.481,-0.45 -5.176,0l0.518,1.93c1.356,-0.36 2.784,-0.36 4.141,0c1.032,0.28 1.995,0.76 2.834,1.41l-10.612,10.61l1.414,1.42l10.613,-10.62c0.651,0.84 1.131,1.81 1.407,2.84z" fill="currentColor"/></svg>