<svg viewBox="0 0 20 20" fill="none" xmlns="http://www.w3.org/2000/svg" xmlns:xlink="http://www.w3.org/1999/xlink" x="0" y="0"><g id="Vector_899">
<path d="M8.47,4.3c0.73,-0.3 1.53,-0.4 2.31,-0.2c0.78,0.1 1.49,0.5 2.05,1.1c0.56,0.5 0.94,1.2 1.09,2c0.16,0.8 0.08,1.6 -0.22,2.3c-0.31,0.8 -0.82,1.4 -1.48,1.8c-0.66,0.5 -1.43,0.7 -2.22,0.7h-1v-2h1c0.4,0 0.78,-0.1 1.11,-0.3c0.33,-0.3 0.59,-0.6 0.74,-0.9c0.15,-0.4 0.19,-0.8 0.11,-1.2c-0.08,-0.4 -0.27,-0.7 -0.55,-1c-0.28,-0.3 -0.63,-0.5 -1.02,-0.6c-0.39,0 -0.79,0 -1.16,0.2c-0.36,0.1 -0.67,0.4 -0.89,0.7c-0.22,0.3 -0.34,0.7 -0.34,1.1h-2c0,-0.8 0.23,-1.6 0.67,-2.2c0.44,-0.7 1.07,-1.2 1.8,-1.5z" fill="currentColor"/>
<path d="M11.5,14.5c0,0.8 -0.67,1.5 -1.5,1.5c-0.83,0 -1.5,-0.7 -1.5,-1.5c0,-0.8 0.67,-1.5 1.5,-1.5c0.83,0 1.5,0.7 1.5,1.5z" fill="currentColor"/>
<path fill-rule="evenodd" clip-rule="evenodd" d="M10,0c-5.52,0 -10,4.5 -10,10c0,5.5 4.48,10 10,10c5.52,0 10,-4.5 10,-10c0,-5.5 -4.48,-10 -10,-10zM2,10c0,-4.4 3.58,-8 8,-8c4.42,0 8,3.6 8,8c0,4.4 -3.58,8 -8,8c-4.42,0 -8,-3.6 -8,-8z" fill="currentColor"/>
</g></svg>