<svg viewBox="0 0 32 32" fill="none" xmlns="http://www.w3.org/2000/svg" xmlns:xlink="http://www.w3.org/1999/xlink" x="0" y="0"><g id="Monotone group">
<path id="Vector_132" d="M28,18.67c0,-0.88 -0.172,-1.75 -0.508,-2.55c-0.335,-0.81 -0.826,-1.55 -1.445,-2.17c-0.619,-0.62 -1.354,-1.11 -2.162,-1.44c-0.809,-0.34 -1.676,-0.51 -2.552,-0.51" stroke="#9BB068" stroke-width="2.66667" stroke-linejoin="round"/>
<rect id="Vector_133" x="18.66700000000003" y="6.670000000000073" width="5.33333" height="5.33333" rx="2.66667" stroke="#9BB068" stroke-width="2.66667" stroke-linejoin="round"/>
<path id="Vector_134" d="M4,18.67c0,-0.88 0.172,-1.75 0.508,-2.55c0.335,-0.81 0.826,-1.55 1.445,-2.17c0.619,-0.62 1.354,-1.11 2.162,-1.44c0.809,-0.34 1.676,-0.51 2.552,-0.51" stroke="#9BB068" stroke-width="2.66667" stroke-linejoin="round"/>
<rect id="Vector_135" width="5.33333" height="5.33333" rx="2.66667" transform="matrix(-1, 0, 0, 1, 13.33299999999997, 6.670000000000073)" stroke="#9BB068" stroke-width="2.66667" stroke-linejoin="round"/>
<path id="Vector_136" d="M9.333,28c0,-0.88 0.173,-1.74 0.508,-2.55c0.335,-0.81 0.826,-1.55 1.445,-2.16c0.619,-0.62 1.354,-1.11 2.163,-1.45c0.809,-0.33 1.676,-0.51 2.551,-0.51c0.876,0 1.742,0.18 2.551,0.51c0.809,0.34 1.544,0.83 2.163,1.45c0.619,0.61 1.11,1.35 1.445,2.16c0.335,0.81 0.508,1.67 0.508,2.55" stroke="#9BB068" stroke-width="2.66667" stroke-linejoin="round"/>
<rect id="Vector_137" x="13.33299999999997" y="14.670000000000073" width="5.33333" height="5.33333" rx="2.66667" stroke="#9BB068" stroke-width="2.66667" stroke-linejoin="round"/>
</g></svg>