<svg viewBox="0 0 26.6667 26.6667" fill="none" xmlns="http://www.w3.org/2000/svg" xmlns:xlink="http://www.w3.org/1999/xlink" x="0" y="0"><path id="Vector_309" fill-rule="evenodd" clip-rule="evenodd" d="M8,5.3333c0,-2.95 2.388,-5.33 5.333,-5.33c2.946,0 5.334,2.38 5.334,5.33v2.67h2.666c2.946,0 5.334,2.38 5.334,5.33c0,2.95 -2.388,5.33 -5.334,5.33h-2.666v2.67c0,2.95 -2.388,5.33 -5.334,5.33c-2.945,0 -5.333,-2.38 -5.333,-5.33v-2.67h-2.667c-2.945,0 -5.333,-2.38 -5.333,-5.33c0,-2.95 2.388,-5.33 5.333,-5.33h2.667zM13.333,2.6633c-1.472,0 -2.666,1.2 -2.666,2.67v5.33h-5.334c-1.472,0 -2.666,1.2 -2.666,2.67c0,1.47 1.194,2.67 2.666,2.67h5.334v5.33c0,1.47 1.194,2.67 2.666,2.67c1.473,0 2.667,-1.2 2.667,-2.67v-5.33h5.333c1.473,0 2.667,-1.2 2.667,-2.67c0,-1.47 -1.194,-2.67 -2.667,-2.67h-5.333v-5.33c0,-1.47 -1.194,-2.67 -2.667,-2.67z" fill="currentColor"/></svg>