<svg viewBox="0 0 36.897 35.5812" fill="none" xmlns="http://www.w3.org/2000/svg" xmlns:xlink="http://www.w3.org/1999/xlink" x="0" y="0"><path id="Vector_1124" d="M22.9492,2.7868c-1.9,-3.716 -7.2,-3.716 -9,0l-2.6,5.275c-0.2,0.492 -0.7,0.832 -1.2,0.911l-5.9,0.846c-4.1,0.596 -5.7,5.636 -2.7,8.529l4.2,4.105c0.4,0.383 0.5,0.935 0.5,1.475l-1,5.797c-0.7,4.085 3.5,7.199 7.2,5.271l5.2,-2.737c0.5,-0.255 1.1,-0.255 1.6,0l5.2,2.737c3.6,1.928 7.9,-1.186 7.2,-5.271l-1,-5.797c-0.1,-0.54 0.1,-1.092 0.5,-1.475l4.2,-4.105c3,-2.893 1.4,-7.933 -2.7,-8.529l-5.9,-0.846c-0.5,-0.079 -1,-0.419 -1.2,-0.911z" fill="currentColor"/></svg>