<svg viewBox="0 0 96 96" fill="none" xmlns="http://www.w3.org/2000/svg" xmlns:xlink="http://www.w3.org/1999/xlink" x="0" y="0"><defs><clipPath id="clip5_3_22">
<rect x="0" y="0" width="96" height="96" rx="48" fill="white"/>
</clipPath></defs><g id="Superego heatbeat">
<g clip-path="url(#clip5_3_22)">
<rect x="0" y="0" width="96" height="96" rx="48" fill="#E5EAD7"/>
<path id="Vector_58" d="M58,22c-9.941,-9.94 -26.059,-9.94 -36,0c-9.941,9.94 -9.941,26.06 0,36l42,42l42,-42c9.941,-9.94 9.941,-26.06 0,-36c-9.941,-9.94 -26.059,-9.94 -36,0l-6,6z" fill="#9BB068"/>
<path id="Vector Stroke" fill-rule="evenodd" clip-rule="evenodd" d="M44,36.94l-4,8c-3.388,6.78 -10.313,11.06 -17.889,11.06h-26.111v-8h26.111c4.546,0 8.701,-2.57 10.734,-6.63l6.894,-13.79c1.096,-2.19 3.337,-3.58 5.789,-3.58c3.574,0 6.472,2.9 6.472,6.47v36.59l4,-8c3.388,-6.78 10.313,-11.06 17.889,-11.06h34.111v8h-34.111c-4.546,0 -8.701,2.57 -10.734,6.63l-6.894,13.79c-1.096,2.19 -3.337,3.58 -5.789,3.58c-3.574,0 -6.472,-2.9 -6.472,-6.47z" fill="#4B3425"/>
</g>
</g></svg>