<svg viewBox="0 0 10 15" fill="none" xmlns="http://www.w3.org/2000/svg" xmlns:xlink="http://www.w3.org/1999/xlink" x="0" y="0"><g id="Vector_1454">
<path d="M3.7,1.92c0.6,-0.25 1.3,-0.32 2,-0.19c0.6,0.13 1.2,0.45 1.7,0.91c0.4,0.47 0.7,1.06 0.9,1.71c0.1,0.65 0,1.32 -0.2,1.93c-0.3,0.6 -0.7,1.13 -1.2,1.49c-0.2,0.12 -0.4,0.22 -0.6,0.3c-1,0.41 -2.1,1.34 -2.1,2.76h1.6c0,-0.42 0.4,-0.92 1.1,-1.22c0.3,-0.13 0.6,-0.28 0.9,-0.45c0.8,-0.55 1.4,-1.33 1.8,-2.25c0.4,-0.91 0.5,-1.92 0.3,-2.89c-0.2,-0.97 -0.7,-1.86 -1.4,-2.56c-0.7,-0.69 -1.6,-1.17 -2.5,-1.36c-1,-0.2 -2,-0.1 -2.9,0.28c-0.9,0.38 -1.7,1.02 -2.3,1.84c-0.5,0.82 -0.8,1.79 -0.8,2.78h1.7c0,-0.66 0.2,-1.3 0.5,-1.85c0.4,-0.55 0.9,-0.98 1.5,-1.23z" fill="currentColor"/>
<path d="M5,15c0.8,0 1.5,-0.65 1.5,-1.46c0,-0.8 -0.7,-1.46 -1.5,-1.46c-0.8,0 -1.5,0.66 -1.5,1.46c0,0.81 0.7,1.46 1.5,1.46z" fill="currentColor"/>
</g></svg>