<svg viewBox="0 0 13.3333 17.0988" fill="none" xmlns="http://www.w3.org/2000/svg" xmlns:xlink="http://www.w3.org/1999/xlink" x="0" y="0"><path id="Vector_204" d="M6.667,-0.0037l-4.815,5.51c-1.194,1.36 -1.852,3.11 -1.852,4.93c0,0.87 0.172,1.74 0.508,2.55c0.335,0.81 0.826,1.54 1.445,2.16c0.619,0.62 1.354,1.11 2.162,1.45c0.809,0.33 1.676,0.5 2.552,0.5c0.875,0 1.742,-0.17 2.551,-0.5c0.809,-0.34 1.544,-0.83 2.163,-1.45c0.619,-0.62 1.11,-1.35 1.445,-2.16c0.335,-0.81 0.507,-1.68 0.507,-2.55c0,-1.82 -0.658,-3.57 -1.852,-4.93z" fill="currentColor"/></svg>