<svg viewBox="0 0 17.5 17.0624" fill="none" xmlns="http://www.w3.org/2000/svg" xmlns:xlink="http://www.w3.org/1999/xlink" x="0" y="0"><g id="Vector_556">
<path fill-rule="evenodd" clip-rule="evenodd" d="M16.631,0.849c-1.131,-1.13 -2.964,-1.13 -4.095,0l-0.036,0.03l-0.036,-0.03c-1.131,-1.13 -2.964,-1.13 -4.095,0c-1.131,1.13 -1.131,2.96 0,4.09l4.131,4.14l4.131,-4.14c1.131,-1.13 1.131,-2.96 0,-4.09zM13.714,2.029c0.48,-0.48 1.258,-0.48 1.738,0c0.48,0.48 0.48,1.26 0,1.74l-2.952,2.95l-2.952,-2.95c-0.48,-0.48 -0.48,-1.26 0,-1.74c0.48,-0.48 1.258,-0.48 1.738,0l1.214,1.21z" fill="currentColor"/>
<path fill-rule="evenodd" clip-rule="evenodd" d="M0,7.899v9.16h5v-1.36l1.712,0.53c2.686,0.84 5.573,0.78 8.223,-0.16l1.363,-0.49c0.721,-0.26 1.202,-0.94 1.202,-1.71c0,-1 -0.811,-1.81 -1.811,-1.81h-2.356v-0.14c0,-1 -0.606,-1.92 -1.538,-2.3l-3.359,-1.4c-0.508,-0.21 -1.053,-0.32 -1.603,-0.32zM15.689,13.729c0.08,0 0.144,0.06 0.144,0.14c0,0.07 -0.038,0.12 -0.095,0.14l-1.363,0.49c-2.31,0.82 -4.825,0.87 -7.166,0.14l-2.209,-0.69v-4.39h1.833c0.33,0 0.657,0.07 0.962,0.2l3.359,1.4c0.31,0.12 0.513,0.43 0.513,0.76v0.14h-0.585c-0.627,0 -1.25,-0.1 -1.845,-0.3l-1.473,-0.49l-0.527,1.58l1.473,0.5c0.765,0.25 1.566,0.38 2.372,0.38zM3.333,9.559h-1.666v5.84h1.666z" fill="currentColor"/>
</g></svg>