<svg viewBox="0 0 15.5355 15.5355" fill="none" xmlns="http://www.w3.org/2000/svg" xmlns:xlink="http://www.w3.org/1999/xlink" x="0" y="0"><path id="Vector_802" fill-rule="evenodd" clip-rule="evenodd" d="M1.68,0.6342c1.42,-1.146 3.54,-0.685 4.36,0.949l0.45,0.91c0.71,1.417 0.43,3.13 -0.69,4.25l-0.71,0.715c0.37,1.47 1.52,2.618 2.99,2.988l0.71,-0.715c1.12,-1.12 2.83,-1.398 4.25,-0.689l0.91,0.455c1.64,0.817 2.1,2.934 0.95,4.356c-0.63,0.789 -1.55,1.446 -2.67,1.592c-1.4,0.182 -2.83,0.089 -4.2,-0.279c-1.84,-0.492 -3.51,-1.459 -4.86,-2.804c-1.34,-1.344 -2.31,-3.019 -2.8,-4.856c-0.37,-1.373 -0.46,-2.801 -0.28,-4.202c0.15,-1.12 0.8,-2.034 1.59,-2.67zM4.55,2.3282c-0.34,-0.682 -1.23,-0.875 -1.82,-0.396c-0.55,0.444 -0.91,1.001 -0.99,1.587c-0.15,1.185 -0.07,2.393 0.24,3.556c0.42,1.554 1.23,2.971 2.37,4.109c1.14,1.138 2.56,1.956 4.11,2.372c1.16,0.312 2.37,0.39 3.56,0.236c0.58,-0.076 1.14,-0.433 1.58,-0.984c0.48,-0.595 0.29,-1.479 -0.39,-1.821l-0.91,-0.455c-0.78,-0.388 -1.72,-0.236 -2.33,0.378l-0.72,0.718c-0.41,0.412 -1.01,0.577 -1.57,0.436c-2.07,-0.518 -3.69,-2.135 -4.21,-4.207c-0.14,-0.565 0.03,-1.163 0.44,-1.574l0.72,-0.718c0.61,-0.614 0.76,-1.551 0.37,-2.327z" fill="currentColor"/></svg>