<svg viewBox="0 0 14 13.3333" fill="none" xmlns="http://www.w3.org/2000/svg" xmlns:xlink="http://www.w3.org/1999/xlink" x="0" y="0"><path id="Vector_696" fill-rule="evenodd" clip-rule="evenodd" d="M7.748,0.0033c-0.48,0 -0.92,0.23 -1.2,0.61l-2.89,4.05h-3.66v8.67h9.69c1.26,0 2.41,-0.71 2.98,-1.84l0.98,-1.97c0.23,-0.46 0.35,-0.97 0.35,-1.49v-0.03c0,-1.84 -1.49,-3.34 -3.33,-3.34h-1.9l0.43,-2.99c0.12,-0.88 -0.56,-1.67 -1.45,-1.67zM4.668,12.0033h5.02c0.75,0 1.45,-0.43 1.79,-1.11l0.98,-1.96c0.14,-0.28 0.21,-0.59 0.21,-0.9v-0.03c0,-1.11 -0.9,-2 -2,-2h-3.44l0.65,-4.52c0.01,-0.08 -0.05,-0.15 -0.13,-0.15c-0.05,0 -0.09,0.02 -0.11,0.06l-2.97,4.15zM3.338,12.0033v-6h-2v6z" fill="currentColor"/></svg>