<svg viewBox="0 0 13.3333 17.0118" fill="none" xmlns="http://www.w3.org/2000/svg" xmlns:xlink="http://www.w3.org/1999/xlink" x="0" y="0"><g id="Vector_699">
<path d="M4.998,6.6633c0,-0.92 0.75,-1.66 1.67,-1.66c0.92,0 1.67,0.74 1.67,1.66c0,0.92 -0.75,1.67 -1.67,1.67c-0.92,0 -1.67,-0.75 -1.67,-1.67z" fill="currentColor"/>
<path fill-rule="evenodd" clip-rule="evenodd" d="M4.118,0.5033c0.81,-0.33 1.67,-0.5 2.55,-0.5c0.87,0 1.74,0.17 2.55,0.5c0.81,0.34 1.54,0.83 2.16,1.45c0.62,0.62 1.11,1.35 1.45,2.16c0.33,0.81 0.51,1.68 0.51,2.55c0,2.36 -0.94,4.62 -2.61,6.28l-4.06,4.07l-4.07,-4.07c-1.66,-1.66 -2.6,-3.92 -2.6,-6.28c0,-0.87 0.17,-1.74 0.51,-2.55c0.33,-0.81 0.83,-1.54 1.44,-2.16c0.62,-0.62 1.36,-1.11 2.17,-1.45zM6.668,3.3333c-1.84,0 -3.33,1.49 -3.33,3.33c0,1.84 1.49,3.34 3.33,3.34c1.84,0 3.33,-1.5 3.33,-3.34c0,-1.84 -1.49,-3.33 -3.33,-3.33z" fill="currentColor"/>
</g></svg>