<svg viewBox="0 0 29.3333 18.6667" fill="none" xmlns="http://www.w3.org/2000/svg" xmlns:xlink="http://www.w3.org/1999/xlink" x="0" y="0"><g id="Vector_1388">
<path fill-rule="evenodd" clip-rule="evenodd" d="M14.618,4c-2.9,0 -5.3,2.388 -5.3,5.333c0,2.946 2.4,5.334 5.3,5.334c3,0 5.4,-2.388 5.4,-5.334c0,-2.945 -2.4,-5.333 -5.4,-5.333zM12.018,9.333c0,-1.472 1.2,-2.666 2.6,-2.666c1.5,0 2.7,1.194 2.7,2.666c0,1.473 -1.2,2.667 -2.7,2.667c-1.4,0 -2.6,-1.194 -2.6,-2.667z" fill="currentColor"/>
<path d="M25.318,9.333c0,1.105 -0.9,2 -2,2c-1.1,0 -2,-0.895 -2,-2c0,-1.104 0.9,-2 2,-2c1.1,0 2,0.896 2,2z" fill="currentColor"/>
<path d="M6.018,11.333c1.1,0 2,-0.895 2,-2c0,-1.104 -0.9,-2 -2,-2c-1.1,0 -2,0.896 -2,2c0,1.105 0.9,2 2,2z" fill="currentColor"/>
<path fill-rule="evenodd" clip-rule="evenodd" d="M6.618,0c-3.6,0 -6.6,2.985 -6.6,6.667v5.333c0,3.682 3,6.667 6.6,6.667h16c3.7,0 6.7,-2.985 6.7,-6.667v-5.333c0,-3.682 -3,-6.667 -6.7,-6.667zM2.618,6.667c0,-2.209 1.8,-4 4,-4h16c2.3,0 4,1.791 4,4v5.333c0,2.209 -1.7,4 -4,4h-16c-2.2,0 -4,-1.791 -4,-4z" fill="currentColor"/>
</g></svg>