<svg viewBox="0 0 20 20" fill="none" xmlns="http://www.w3.org/2000/svg" xmlns:xlink="http://www.w3.org/1999/xlink" x="0" y="0"><g id="Logomark_2">
<path id="Vector_94" d="M10.0001,7.7778c2.148,0 3.889,-1.74 3.889,-3.89c0,-2.15 -1.741,-3.89 -3.889,-3.89c-2.148,0 -3.889,1.74 -3.889,3.89c0,2.15 1.741,3.89 3.889,3.89z" fill="currentColor"/>
<path id="Vector_95" d="M3.8891,13.8878c2.148,0 3.889,-1.74 3.889,-3.89c0,-2.15 -1.741,-3.89 -3.889,-3.89c-2.148,0 -3.889,1.74 -3.889,3.89c0,2.15 1.741,3.89 3.889,3.89z" fill="currentColor"/>
<path id="Vector_96" d="M10.0001,19.9978c2.148,0 3.889,-1.74 3.889,-3.89c0,-2.14 -1.741,-3.89 -3.889,-3.89c-2.148,0 -3.889,1.75 -3.889,3.89c0,2.15 1.741,3.89 3.889,3.89z" fill="currentColor"/>
<path id="Vector_97" d="M16.1111,13.8878c2.148,0 3.889,-1.74 3.889,-3.89c0,-2.15 -1.741,-3.89 -3.889,-3.89c-2.148,0 -3.889,1.74 -3.889,3.89c0,2.15 1.741,3.89 3.889,3.89z" fill="currentColor"/>
</g></svg>