<svg viewBox="0 0 32 32" fill="none" xmlns="http://www.w3.org/2000/svg" xmlns:xlink="http://www.w3.org/1999/xlink" x="0" y="0"><g id="Logomark_5">
<path id="Vector_149" d="M16,19.56c3.437,0 6.222,2.78 6.222,6.22c0,3.43 -2.785,6.22 -6.222,6.22c-3.436,0 -6.222,-2.79 -6.222,-6.22c0,-3.44 2.786,-6.22 6.222,-6.22z" fill="currentColor"/>
<path id="Vector_150" d="M6.222,9.78c3.437,0 6.222,2.78 6.222,6.22c0,3.44 -2.785,6.22 -6.222,6.22c-3.436,0 -6.222,-2.78 -6.222,-6.22c0,-3.44 2.786,-6.22 6.222,-6.22z" fill="currentColor"/>
<path id="Vector_151" d="M16,0c3.437,0 6.222,2.79 6.222,6.22c0,3.44 -2.785,6.22 -6.222,6.22c-3.436,0 -6.222,-2.78 -6.222,-6.22c0,-3.43 2.786,-6.22 6.222,-6.22z" fill="currentColor"/>
<path id="Vector_152" d="M25.778,9.78c3.436,0 6.222,2.78 6.222,6.22c0,3.44 -2.786,6.22 -6.222,6.22c-3.437,0 -6.222,-2.78 -6.222,-6.22c0,-3.44 2.785,-6.22 6.222,-6.22z" fill="currentColor"/>
</g></svg>