<svg viewBox="0 0 20 20" fill="none" xmlns="http://www.w3.org/2000/svg" xmlns:xlink="http://www.w3.org/1999/xlink" x="0" y="0"><g id="Logomark_3">
<path id="Vector_99" d="M9.9992,12.226c2.15,0 3.89,1.74 3.89,3.89c0,2.14 -1.74,3.88 -3.89,3.88c-2.15,0 -3.89,-1.74 -3.89,-3.88c0,-2.15 1.74,-3.89 3.89,-3.89z" fill="currentColor"/>
<path id="Vector_100" d="M3.8892,6.116c2.15,0 3.89,1.74 3.89,3.88c0,2.15 -1.74,3.89 -3.89,3.89c-2.15,0 -3.89,-1.74 -3.89,-3.89c0,-2.14 1.74,-3.88 3.89,-3.88z" fill="currentColor"/>
<path id="Vector_101" d="M9.9992,-0.004c2.15,0 3.89,1.75 3.89,3.89c0,2.15 -1.74,3.89 -3.89,3.89c-2.15,0 -3.89,-1.74 -3.89,-3.89c0,-2.14 1.74,-3.89 3.89,-3.89z" fill="currentColor"/>
<path id="Vector_102" d="M16.1092,6.116c2.15,0 3.89,1.74 3.89,3.88c0,2.15 -1.74,3.89 -3.89,3.89c-2.15,0 -3.89,-1.74 -3.89,-3.89c0,-2.14 1.74,-3.88 3.89,-3.88z" fill="currentColor"/>
</g></svg>