<svg viewBox="0 0 11.6667 8.1667" fill="none" xmlns="http://www.w3.org/2000/svg" xmlns:xlink="http://www.w3.org/1999/xlink" x="0" y="0"><g id="Vector_848">
<path fill-rule="evenodd" clip-rule="evenodd" d="M5.832,1.7535c-1.29,0 -2.33,1.04 -2.33,2.33c0,1.29 1.04,2.33 2.33,2.33c1.29,0 2.33,-1.04 2.33,-2.33c0,-1.29 -1.04,-2.33 -2.33,-2.33zM4.662,4.0835c0,-0.64 0.53,-1.17 1.17,-1.17c0.65,0 1.17,0.53 1.17,1.17c0,0.64 -0.52,1.17 -1.17,1.17c-0.64,0 -1.17,-0.53 -1.17,-1.17z" fill="currentColor"/>
<path fill-rule="evenodd" clip-rule="evenodd" d="M4.082,0.0035c-2.25,0 -4.08,1.82 -4.08,4.08c0,2.26 1.83,4.08 4.08,4.08h3.5c2.26,0 4.08,-1.82 4.08,-4.08c0,-2.26 -1.82,-4.08 -4.08,-4.08zM1.162,4.0835c0,-1.61 1.31,-2.92 2.92,-2.92h3.5c1.61,0 2.92,1.31 2.92,2.92c0,1.61 -1.31,2.92 -2.92,2.92h-3.5c-1.61,0 -2.92,-1.31 -2.92,-2.92z" fill="currentColor"/>
</g></svg>