<svg viewBox="0 0 53 53" fill="none" xmlns="http://www.w3.org/2000/svg" xmlns:xlink="http://www.w3.org/1999/xlink" x="0" y="0"><defs><linearGradient id="paint4_linear_22590_66191" x1="26.5" y1="0.5" x2="26.5" y2="52.5" gradientUnits="userSpaceOnUse">
<stop stop-color="white"/>
<stop offset="1" stop-color="white" stop-opacity="0"/>
</linearGradient></defs><path id="Union_3" d="M26.5,32.25c5.66,0 10.25,4.589 10.25,10.25c0,5.661 -4.59,10.25 -10.25,10.25c-5.66,0 -10.25,-4.589 -10.25,-10.25c0,-5.661 4.59,-10.25 10.25,-10.25zM10.5,16.25c5.66,0 10.25,4.589 10.25,10.25c0,5.661 -4.59,10.25 -10.25,10.25c-5.66,0 -10.25,-4.589 -10.25,-10.25c0,-5.661 4.59,-10.25 10.25,-10.25zM42.5,16.25c5.66,0 10.25,4.589 10.25,10.25c0,5.661 -4.59,10.25 -10.25,10.25c-5.66,0 -10.25,-4.589 -10.25,-10.25c0,-5.661 4.59,-10.25 10.25,-10.25zM26.5,0.25c5.66,0 10.25,4.589 10.25,10.25c0,5.661 -4.59,10.25 -10.25,10.25c-5.66,0 -10.25,-4.589 -10.25,-10.25c0,-5.661 4.59,-10.25 10.25,-10.25z" fill="white" stroke="url(#paint4_linear_22590_66191)" stroke-width="0.5"/></svg>