<svg viewBox="0 0 18.1538 19.6346" fill="none" xmlns="http://www.w3.org/2000/svg" xmlns:xlink="http://www.w3.org/1999/xlink" x="0" y="0"><g id="Vector_318">
<path d="M11.8103,0.4123l-0.165,0.39c-0.371,0.87 -1.061,1.56 -1.926,1.93l-0.386,0.16c-0.555,0.24 -0.555,1.03 0,1.27l0.386,0.16c0.865,0.37 1.555,1.06 1.926,1.93l0.165,0.38c0.238,0.56 1.026,0.56 1.264,0l0.165,-0.38c0.371,-0.87 1.061,-1.56 1.926,-1.93l0.386,-0.16c0.555,-0.24 0.555,-1.03 0,-1.27l-0.386,-0.16c-0.865,-0.37 -1.555,-1.06 -1.926,-1.93l-0.165,-0.39c-0.238,-0.55 -1.026,-0.55 -1.264,0z" fill="currentColor"/>
<path fill-rule="evenodd" clip-rule="evenodd" d="M5.4433,6.2023c0.668,-1.82 3.246,-1.82 3.915,0l0.246,0.67c0.538,1.46 1.694,2.62 3.16,3.16l0.67,0.24c1.823,0.67 1.823,3.25 0,3.92l-0.67,0.25c-1.466,0.53 -2.622,1.69 -3.16,3.16l-0.246,0.67c-0.669,1.82 -3.247,1.82 -3.915,0l-0.246,-0.67c-0.538,-1.47 -1.694,-2.63 -3.16,-3.16l-0.67,-0.25c-1.823,-0.67 -1.823,-3.25 0,-3.92l0.67,-0.24c1.466,-0.54 2.622,-1.7 3.16,-3.16zM7.6373,6.8323c-0.081,-0.22 -0.392,-0.22 -0.473,0l-0.246,0.67c-0.724,1.97 -2.278,3.53 -4.25,4.25l-0.67,0.24c-0.22,0.09 -0.22,0.4 0,0.48l0.67,0.24c1.972,0.73 3.526,2.28 4.25,4.25l0.246,0.67c0.081,0.22 0.392,0.22 0.473,0l0.246,-0.67c0.723,-1.97 2.277,-3.52 4.249,-4.25l0.67,-0.24c0.221,-0.08 0.221,-0.39 0,-0.48l-0.67,-0.24c-1.972,-0.72 -3.526,-2.28 -4.249,-4.25z" fill="currentColor"/>
<path d="M15.6453,6.4423l0.042,-0.1c0.159,-0.37 0.684,-0.37 0.843,0l0.043,0.1c0.231,0.54 0.662,0.97 1.203,1.2l0.1,0.05c0.37,0.15 0.37,0.68 0,0.84l-0.1,0.04c-0.541,0.23 -0.972,0.66 -1.203,1.2l-0.043,0.1c-0.159,0.37 -0.684,0.37 -0.843,0l-0.042,-0.1c-0.232,-0.54 -0.663,-0.97 -1.204,-1.2l-0.099,-0.04c-0.371,-0.16 -0.371,-0.69 0,-0.84l0.099,-0.05c0.541,-0.23 0.972,-0.66 1.204,-1.2z" fill="currentColor"/>
</g></svg>