<svg viewBox="0 0 18.3321 20" fill="none" xmlns="http://www.w3.org/2000/svg" xmlns:xlink="http://www.w3.org/1999/xlink" x="0" y="0"><g id="Vector_81">
<path fill-rule="evenodd" clip-rule="evenodd" d="M9.166,6c-2.209,0 -4,1.791 -4,4c0,2.209 1.791,4 4,4c2.209,0 4,-1.791 4,-4c0,-2.209 -1.791,-4 -4,-4zM7.166,10c0,-1.105 0.895,-2 2,-2c1.104,0 2,0.895 2,2c0,1.105 -0.896,2 -2,2c-1.105,0 -2,-0.895 -2,-2z" fill="currentColor"/>
<path fill-rule="evenodd" clip-rule="evenodd" d="M9.166,0c-1.625,0 -3.068,1.04 -3.581,2.581l-0.257,0.771l-0.796,-0.163c-1.592,-0.325 -3.214,0.404 -4.026,1.811c-0.813,1.407 -0.633,3.176 0.445,4.392l0.539,0.608l-0.539,0.608c-1.078,1.216 -1.258,2.985 -0.445,4.392c0.812,1.407 2.434,2.137 4.026,1.811l0.796,-0.163l0.257,0.771c0.513,1.541 1.956,2.581 3.581,2.581c1.625,0 3.067,-1.04 3.581,-2.581l0.257,-0.771l0.796,0.163c1.592,0.326 3.214,-0.404 4.026,-1.811c0.813,-1.407 0.634,-3.176 -0.444,-4.392l-0.54,-0.608l0.54,-0.608c1.078,-1.216 1.257,-2.985 0.444,-4.392c-0.812,-1.407 -2.434,-2.136 -4.026,-1.811l-0.796,0.163l-0.257,-0.771c-0.514,-1.541 -1.956,-2.581 -3.581,-2.581zM7.482,3.214c0.242,-0.725 0.92,-1.214 1.684,-1.214c0.764,0 1.442,0.489 1.684,1.214l0.381,1.144c0.249,0.747 1.017,1.19 1.788,1.033l1.182,-0.242c0.749,-0.154 1.511,0.189 1.893,0.851c0.382,0.662 0.298,1.493 -0.209,2.065l-0.8,0.903c-0.523,0.589 -0.523,1.475 0,2.064l0.8,0.903c0.507,0.572 0.591,1.403 0.209,2.065c-0.382,0.662 -1.144,1.005 -1.893,0.851l-1.182,-0.241c-0.771,-0.158 -1.539,0.285 -1.788,1.032l-0.381,1.144c-0.242,0.725 -0.92,1.214 -1.684,1.214c-0.764,0 -1.442,-0.489 -1.684,-1.214l-0.381,-1.144c-0.249,-0.747 -1.017,-1.19 -1.789,-1.032l-1.181,0.241c-0.749,0.154 -1.511,-0.189 -1.893,-0.851c-0.382,-0.662 -0.298,-1.493 0.209,-2.065l0.8,-0.903c0.523,-0.589 0.523,-1.475 0,-2.064l-0.8,-0.903c-0.507,-0.572 -0.591,-1.403 -0.209,-2.065c0.382,-0.662 1.144,-1.005 1.893,-0.851l1.181,0.241c0.772,0.158 1.54,-0.285 1.789,-1.032z" fill="currentColor"/>
</g></svg>