<svg viewBox="0 0 15 18.3333" fill="none" xmlns="http://www.w3.org/2000/svg" xmlns:xlink="http://www.w3.org/1999/xlink" x="0" y="0"><g id="Vector_1205">
<path fill-rule="evenodd" clip-rule="evenodd" d="M3.3,4.166c0,-2.3 1.9,-4.17 4.2,-4.17c2.3,0 4.2,1.87 4.2,4.17v5c0,2.3 -1.9,4.17 -4.2,4.17c-2.3,0 -4.2,-1.87 -4.2,-4.17zM7.5,1.666c-1.4,0 -2.5,1.12 -2.5,2.5v5c0,1.38 1.1,2.5 2.5,2.5c1.4,0 2.5,-1.12 2.5,-2.5v-5c0,-1.38 -1.1,-2.5 -2.5,-2.5z" fill="currentColor"/>
<path d="M1.7,8.336v0.83c0,3.22 2.6,5.83 5.8,5.83c3.2,0 5.8,-2.61 5.8,-5.83v-0.83h1.7v0.83c0,3.86 -2.9,7.04 -6.7,7.45v1.72h-1.6v-1.72c-3.8,-0.41 -6.7,-3.59 -6.7,-7.45v-0.83z" fill="currentColor"/>
</g></svg>