<svg viewBox="0 0 240 140" fill="none" xmlns="http://www.w3.org/2000/svg" xmlns:xlink="http://www.w3.org/1999/xlink" x="0" y="0"><g id="Frame_320">
<path id="XMLID_1__8" d="M150.005,52.47c-2.358,-0.96 -3.775,-3.79 -3.117,-6.25c0.657,-2.46 3.298,-4.21 5.815,-3.85c1.292,0.18 2.471,0.82 3.616,1.47c1.45,0.82 2.89,1.62 4.341,2.44c-3.605,-1.27 -5.35,-5.72 -4.568,-9.46c0.567,-2.68 2.414,-5.27 5.078,-5.97c2.165,-0.58 4.477,0.16 6.472,1.18c6.178,3.17 10.52,9.01 14.192,14.9c-1.156,-1.58 0.136,-4.02 1.984,-4.65c1.859,-0.64 3.899,0.02 5.656,0.9c3.911,1.96 7.175,5.7 9.42,9.46z" fill="#E7E5E4"/>
<g id="Group_251">
<path id="Vector_664" d="M61.83,22.09c2.8,1.35 4.931,3.49 6.257,6.29c0.159,0.33 0.737,0.34 0.896,0c1.405,-3.13 3.57,-5.73 6.415,-7.65c0.556,-0.37 0.034,-1.27 -0.521,-0.89c-3.004,2 -5.316,4.71 -6.79,8.01c0.295,0 0.601,0 0.896,0c-1.395,-2.95 -3.684,-5.26 -6.62,-6.67c-0.601,-0.27 -1.134,0.62 -0.533,0.91z" fill="#533630"/>
</g>
<g id="Group_252">
<path id="Vector_665" d="M166.184,92.19c2.8,1.35 4.931,3.49 6.257,6.29c0.159,0.33 0.737,0.34 0.895,0c1.406,-3.12 3.571,-5.73 6.416,-7.65c0.556,-0.37 0.034,-1.27 -0.521,-0.89c-3.004,2 -5.316,4.71 -6.79,8.01c0.295,0 0.601,0 0.895,0c-1.394,-2.95 -3.684,-5.26 -6.619,-6.66c-0.612,-0.28 -1.134,0.62 -0.533,0.9z" fill="#533630"/>
</g>
<g id="Group_253">
<g id="Group_254">
<path id="Vector_666" d="M26.813,36.02c3.695,-0.74 7.649,-3.32 9.923,-5.78c2.997,-3.26 5.383,-6.96 7.631,-10.87c1.353,-2.35 2.412,-5.08 2.111,-7.77c-0.931,-8.22 -11.137,-4.3 -15.263,-1.33c-4.669,3.35 -9.587,9.28 -12.05,14.82c-0.776,1.75 -1.172,3.76 -0.732,5.59c1.205,4.96 4.659,6.08 8.38,5.34z" fill="white"/>
<path id="Vector_667" d="M196.23,117.05c-7.167,0 -29.622,4.99 -27.598,14.65c1.628,7.77 22.498,2.75 27.244,1.32c2.137,-0.64 4.273,-1.41 6.073,-2.73c3.505,-2.57 5.375,-8.14 1.421,-11.22c-1.809,-1.41 -4.169,-1.87 -6.46,-2c-0.215,-0.01 -0.439,-0.02 -0.68,-0.02z" fill="white"/>
<path id="Vector_668" d="M58.269,13.33c-1.043,1.17 1.042,-1.16 0,0c-8.441,9.39 -7.571,20.71 -20.758,31.96c-9.449,8.05 -21.913,20.1 -23.256,32.31c-1.715,15.52 5.305,31.15 18.759,39.77c7.434,4.76 19.311,4.5 27.408,7.87c9.259,3.87 19.957,8.62 29.682,11.24c17.33,4.66 31.275,7.26 48.002,-0.04c13.411,-5.85 21.412,-16.11 35.452,-20.36c7.115,-2.15 17.899,-2.64 25.005,-4.83c10.155,-3.13 19.121,-10.37 23.91,-19.61c5.651,-10.9 3.497,-22.37 -3.049,-32.44c-4.591,-7.07 -11.042,-12.64 -15.934,-19.43c-5.091,-7.08 -9.088,-14.81 -13.842,-22.09c-2.463,-3.77 -5.168,-7.47 -8.674,-10.38c-7.252,-6.02 -18.837,-7.29 -28.028,-6.3c-10.086,1.06 -19.113,5.03 -29.371,4.46c-10.155,-0.56 -19.931,-3.61 -29.983,-4.93c-7.58,-1 -15.633,-0.79 -22.679,2.39c-5.202,2.34 -9.001,6.3 -12.644,10.41z" fill="white"/>
</g>
<g id="Group_255">
<path id="Vector_669" d="M144.89,64.35c0,12.19 -9.889,22.08 -22.078,22.08c-12.188,0 -22.078,-9.89 -22.078,-22.08c0,-12.19 9.89,-22.08 22.078,-22.08c12.189,0 22.078,9.89 22.078,22.08z" fill="#FBBF24"/>
<g id="Group_256">
<path id="Vector_670" d="M75.655,81.79c2.669,7.35 7.382,13.42 13.84,17.83c1.615,1.09 3.131,-1.52 1.516,-2.6c-5.767,-3.96 -10.083,-9.46 -12.456,-16.05c-0.659,-1.78 -3.559,-0.99 -2.9,0.82z" fill="#FBBF24"/>
</g>
<g id="Group_257">
<path id="Vector_671" d="M121.297,107.56c16.015,-0.33 30.646,-9.88 37.269,-24.48c0.791,-1.75 -1.812,-3.3 -2.603,-1.52c-6.195,13.68 -19.606,22.67 -34.666,23c-1.911,0.04 -1.944,3.03 0,3z" fill="#FBBF24"/>
</g>
<g id="Group_258">
<path id="Vector_672" d="M167.463,58.3c-0.263,-12.62 -8.6,-23.66 -20.694,-27.32c-1.845,-0.56 -2.669,2.34 -0.79,2.9c10.775,3.26 18.255,13.15 18.486,24.42c0,1.94 3.031,1.94 2.998,0z" fill="#FBBF24"/>
</g>
<g id="Group_259">
<path id="Vector_673" d="M69.002,116.62c10.051,10.02 23.067,15.85 37.236,16.84c1.944,0.13 1.944,-2.86 0,-3c-13.345,-0.92 -25.604,-6.52 -35.094,-15.95c-1.384,-1.38 -3.526,0.76 -2.142,2.11z" fill="#FBBF24"/>
</g>
<g id="Group_260">
<path id="Vector_674" d="M169.473,112.47c23.067,-17.99 28.965,-50.25 13.972,-75.36c-0.989,-1.68 -3.592,-0.16 -2.604,1.52c14.335,24.05 8.535,54.53 -13.51,71.7c-1.516,1.19 0.626,3.3 2.142,2.14z" fill="#FBBF24"/>
</g>
<g id="Group_261">
<path id="Vector_675" d="M84.322,46.6c2.076,-10.64 10.577,-18.65 21.287,-20.17c1.911,-0.26 1.087,-3.16 -0.791,-2.9c-11.665,1.65 -21.155,10.71 -23.396,22.28c-0.363,1.88 2.537,2.7 2.9,0.79z" fill="#FBBF24"/>
</g>
<g id="Group_262">
<path id="Vector_676" d="M56.018,84.83c-6.723,-14.3 -4.91,-31.11 4.415,-43.76c1.154,-1.55 -1.45,-3.07 -2.603,-1.52c-9.984,13.58 -11.566,31.6 -4.416,46.79c0.824,1.75 3.395,0.23 2.604,-1.51z" fill="#FBBF24"/>
</g>
<g id="Group_263">
<path id="Vector_677" d="M134.708,11.41c3.032,-0.86 6.03,-0.33 8.633,1.42c1.615,1.08 3.131,-1.52 1.516,-2.61c-3.262,-2.17 -7.183,-2.77 -10.973,-1.71c-1.845,0.49 -1.054,3.39 0.824,2.9z" fill="#FBBF24"/>
</g>
<g id="Group_264">
<path id="Vector_678" d="M132.465,133.63c3.526,-1.32 6.624,-3.43 9.029,-6.36c1.22,-1.49 -0.889,-3.63 -2.142,-2.14c-2.076,2.5 -4.646,4.44 -7.71,5.56c-1.78,0.7 -0.989,3.6 0.823,2.94z" fill="#FBBF24"/>
</g>
</g>
</g>
<path id="XMLID_3__3" d="M38.852,66.05c-2.052,-0.83 -3.288,-3.31 -2.709,-5.45c0.578,-2.15 2.879,-3.68 5.078,-3.37c1.133,0.16 2.153,0.73 3.151,1.28c1.258,0.7 2.528,1.42 3.786,2.12c-3.14,-1.11 -4.67,-4.99 -3.979,-8.25c0.499,-2.35 2.109,-4.59 4.421,-5.2c1.893,-0.5 3.899,0.13 5.645,1.03c5.384,2.76 9.17,7.85 12.378,13c-1.009,-1.38 0.113,-3.52 1.734,-4.06c1.621,-0.56 3.401,0.02 4.931,0.79c3.412,1.72 6.257,4.98 8.218,8.26z" fill="#E7E5E4"/>
</g></svg>