<svg viewBox="0 0 206.1389 139.0202" fill="none" xmlns="http://www.w3.org/2000/svg" xmlns:xlink="http://www.w3.org/1999/xlink" x="0" y="0"><g id="Group_187">
<g id="Group_188">
<path id="Vector_582" d="M41.5505,11.75c-1.044,1.13 1.053,-1.11 0,0c-8.491,9.03 -6.315,19.59 -19.507,30.32c-9.447,7.7 -20.148,20.76 -21.753,32.72c-2.035,15.18 6.841,30.39 19.849,39.16c7.184,4.84 18.85,4.84 26.709,8.34c8.999,4 19.384,8.89 28.875,11.68c16.902,4.97 30.524,7.83 47.102,1.04c13.288,-5.43 21.375,-15.32 35.243,-19.17c7.021,-1.96 17.621,-2.19 24.641,-4.18c10.03,-2.84 18,-9.22 21.32,-18.87c3.22,-9.33 3.16,-23.05 -3.03,-33.08c-4.35,-7.03 -7.21,-11.29 -11.85,-18.07c-4.85,-7.06 -8.59,-14.73 -13.09,-21.99c-2.33,-3.75 -4.9,-7.44 -8.27,-10.37c-6.985,-6.08 -18.966,-9.42 -28.001,-8.67c-9.92,0.83 -19.726,4.78 -29.778,4c-9.956,-0.78 -17.972,-2.42 -27.796,-3.94c-7.412,-1.16 -16.596,-0.87 -24.314,1.35c-5.386,1.56 -12.675,5.78 -16.35,9.73z" fill="white"/>
<path id="Vector_583" d="M171.5295,119.22c-2.89,-1.13 -6.79,-1.09 -9.464,-0.37c-3.534,0.94 -6.832,2.45 -10.122,4.18c-1.982,1.05 -3.929,2.47 -4.912,4.48c-2.991,6.13 5.842,7.92 10.035,7.68c4.719,-0.26 10.773,-2.22 14.933,-4.98c1.32,-0.88 2.49,-2.11 2.99,-3.56c1.36,-4 -0.54,-6.3 -3.46,-7.43z" fill="white"/>
<path id="Vector_584" d="M38.6845,125.78c-4.719,-2.8 -21.455,-8.28 -23.902,-1.13c-1.965,5.76 13.745,10.6 17.429,11.5c1.657,0.42 3.368,0.74 5.069,0.57c3.316,-0.32 6.719,-3.26 5.316,-6.84c-0.64,-1.63 -2.018,-2.86 -3.474,-3.83c-0.131,-0.08 -0.28,-0.18 -0.438,-0.27z" fill="white"/>
</g>
<g id="Group_189">
<path id="XMLID_4_" d="M41.7565,39.31c-1.377,-0.57 -2.208,-2.24 -1.835,-3.67c0.372,-1.43 1.949,-2.47 3.412,-2.27c0.774,0.12 1.462,0.49 2.121,0.86c0.861,0.49 1.692,0.95 2.552,1.44c-2.121,-0.75 -3.154,-3.36 -2.695,-5.56c0.344,-1.58 1.434,-3.1 2.982,-3.53c1.29,-0.34 2.638,0.09 3.814,0.69c3.641,1.86 6.193,5.3 8.343,8.77c-0.688,-0.94 0.086,-2.38 1.176,-2.75c1.089,-0.37 2.294,0.03 3.326,0.54c2.294,1.15 4.215,3.36 5.534,5.57z" fill="#E7E5E4"/>
<path id="XMLID_3_" d="M131.2445,40.4c-1.376,-0.57 -2.208,-2.24 -1.835,-3.67c0.373,-1.43 1.95,-2.47 3.412,-2.27c0.774,0.12 1.462,0.49 2.122,0.86c0.86,0.49 1.691,0.95 2.552,1.44c-2.122,-0.75 -3.154,-3.36 -2.696,-5.56c0.344,-1.58 1.434,-3.1 2.982,-3.53c1.291,-0.34 2.638,0.09 3.814,0.69c3.641,1.86 6.193,5.3 8.344,8.77c-0.689,-0.94 0.086,-2.38 1.175,-2.75c1.09,-0.37 2.294,0.03 3.326,0.54c2.294,1.15 4.215,3.36 5.534,5.57z" fill="#E7E5E4"/>
<path id="Vector_585" d="M66.7025,88.31c11.641,-7.16 23.856,-14.3 35.497,-21.47c0,4.76 0,9.55 0,14.31c4.76,-2.1 9.233,-4.76 13.419,-7.75c0.287,1.49 0.889,2.7 1.491,4.19c7.828,-3.27 15.77,-6.22 23.827,-8.89l-7.197,-19.3c-3.584,0.98 -4.587,1.35 -7.942,2.99c0,0 -14.595,-35.07 -14.967,-35.99c-10.351,15.54 -21.39,30.68 -33.089,45.33c-2.236,-3.49 -4.473,-6.99 -6.709,-10.52c-5.305,9.81 -10.351,19.73 -15.197,29.76c3.556,-1.43 7.341,-2.12 10.867,-4.01c0,3.9 0,7.45 0,11.35z" fill="#A8A29E"/>
<path id="XMLID_1__6" d="M172.7595,127.85c0,0 -21.931,-47.94 -22.676,-49.63l-4.989,1.72l-4.215,-11.3c-8.057,2.67 -15.999,5.62 -23.827,8.89c-0.602,-1.49 -1.204,-2.69 -1.491,-4.18c-4.186,2.98 -8.659,5.67 -13.419,7.74c0,-4.76 0,-9.55 0,-14.31c-11.641,7.17 -23.856,14.31 -35.497,21.47c0,-3.87 0,-7.45 0,-11.32c-3.526,1.89 -7.283,2.55 -10.867,4.01c-6.422,13.48 -15.454,33.09 -21.103,46.91z" fill="#57534E"/>
<g id="Group_190">
<path id="Vector_586" d="M58.6185,14.85c0.889,1.15 1.778,2.27 2.695,3.41c0.143,0.18 0.459,0.15 0.602,0c1.405,-1.51 2.81,-3.01 4.186,-4.53c0.373,-0.4 -0.229,-1 -0.602,-0.6c-1.405,1.52 -2.81,3.01 -4.186,4.53c0.201,0 0.401,0 0.602,0c-0.889,-1.14 -1.778,-2.26 -2.695,-3.41c-0.344,-0.46 -0.946,0.14 -0.602,0.6z" fill="#57534E"/>
</g>
<g id="Group_191">
<path id="Vector_587" d="M81.5265,29.88c1.003,1.32 2.035,2.63 3.039,3.95c0.201,0.26 0.545,0.29 0.745,0c0.832,-1.34 1.893,-2.43 3.212,-3.32c0.458,-0.29 0.028,-1.04 -0.43,-0.75c-1.463,0.95 -2.638,2.15 -3.527,3.64c0.258,0 0.487,0 0.745,0c-1.003,-1.32 -2.035,-2.63 -3.039,-3.95c-0.344,-0.46 -1.09,-0.03 -0.745,0.43z" fill="#57534E"/>
</g>
<g id="Group_192">
<path id="Vector_588" d="M147.7895,58.15c1.147,1.29 2.293,2.61 3.44,3.9c0.144,0.17 0.459,0.17 0.602,0c1.061,-1.23 2.094,-2.47 3.154,-3.73c0.345,-0.43 -0.258,-1.03 -0.602,-0.6c-1.061,1.23 -2.093,2.46 -3.154,3.73c0.201,0 0.402,0 0.602,0c-1.146,-1.29 -2.293,-2.61 -3.44,-3.9c-0.373,-0.43 -0.975,0.2 -0.602,0.6z" fill="#57534E"/>
</g>
</g>
</g></svg>