<svg viewBox="0 0 195.0573 140.1203" fill="none" xmlns="http://www.w3.org/2000/svg" xmlns:xlink="http://www.w3.org/1999/xlink" x="0" y="0"><g id="Group_193">
<g id="Group_194">
<path id="Vector_590" d="M40.0073,13.64c-0.943,1.18 0.953,-1.16 0,0c-7.664,9.43 -6.738,20.69 -18.76,32.03c-8.609,8.12 -19.96,20.25 -21.063,32.43c-1.402,15.46 5.248,30.95 17.738,39.38c6.906,4.66 17.852,4.28 25.34,7.55c8.582,3.76 18.487,8.36 27.484,10.87c16.026,4.46 28.904,6.9 44.233,-0.55c12.287,-5.96 19.546,-16.26 32.441,-20.64c6.527,-2.21 16.467,-2.82 22.985,-5.07c9.323,-3.21 17.5,-10.53 21.804,-19.77c5.08,-10.9 2.963,-22.3 -3.184,-32.26c-4.313,-6.99 -10.32,-12.47 -14.906,-19.18c-4.772,-6.99 -8.547,-14.65 -13.01,-21.85c-2.32,-3.72 -4.851,-7.38 -8.106,-10.24c-6.747,-5.92 -17.438,-7.05 -25.896,-5.98c-9.279,1.17 -17.561,5.21 -27.016,4.75c-9.367,-0.45 -18.408,-3.38 -27.687,-4.59c-6.994,-0.91 -14.421,-0.61 -20.869,2.62c-4.762,2.39 -8.211,6.38 -11.528,10.5z" fill="white"/>
<path id="Vector_591" d="M171.6013,26.9c0.019,1.82 1.02,4.11 2.139,5.62c1.489,2 3.275,3.8 5.206,5.58c1.155,1.07 2.554,2.08 4.069,2.47c4.647,1.19 3.564,-4.2 2.355,-6.65c-1.353,-2.76 -4.114,-6.15 -6.92,-8.34c-0.884,-0.7 -1.958,-1.27 -3.014,-1.43c-2.86,-0.42 -3.853,0.93 -3.835,2.75z" fill="white"/>
<path id="Vector_592" d="M12.4013,41.86c1.889,-0.43 4.059,-1.97 5.375,-3.47c1.743,-1.97 3.214,-4.2 4.639,-6.58c0.854,-1.42 1.598,-3.08 1.653,-4.72c0.181,-5 -5.193,-2.67 -7.481,-0.89c-2.57,2.01 -5.484,5.6 -7.136,8.96c-0.527,1.06 -0.881,2.29 -0.799,3.4c0.218,3.03 1.843,3.73 3.749,3.3z" fill="white"/>
</g>
<g id="Group_195">
<g id="Group_196">
<path id="Vector_593" d="M44.1943,131.8c-2.645,-3.87 -4.163,-8.33 -4.457,-12.98c-0.22,0.08 -0.465,0.12 -0.685,0.2c2.375,3.79 3.918,8.01 4.579,12.44c0.074,0.41 0.784,0.32 0.71,-0.1c-1.028,-7.74 -2.032,-15.7 -0.049,-23.36c-0.245,0 -0.465,0 -0.71,0c2.498,7.66 1.812,15.82 2.767,23.75c0.049,0.47 0.76,0.49 0.735,0c-0.098,-3.79 1.42,-7.37 4.237,-9.94c-0.172,0 -0.343,0 -0.515,0c1.2,1.44 -0.073,3.6 -0.734,4.97c-0.784,1.69 -1.568,3.36 -2.376,5.05c-0.196,0.41 0.441,0.8 0.637,0.36c1.053,-2.23 2.18,-4.41 3.11,-6.68c0.588,-1.4 0.906,-2.97 -0.147,-4.21c-0.122,-0.15 -0.392,-0.13 -0.514,0c-2.939,2.66 -4.555,6.48 -4.457,10.45c0.245,0 0.49,0 0.735,0c-0.956,-7.98 -0.294,-16.21 -2.792,-23.95c-0.098,-0.34 -0.612,-0.37 -0.71,0c-1.984,7.74 -1.004,15.75 0.024,23.56c0.245,-0.02 0.49,-0.07 0.71,-0.1c-0.685,-4.48 -2.253,-8.76 -4.653,-12.61c-0.171,-0.29 -0.71,-0.2 -0.685,0.2c0.293,4.8 1.836,9.38 4.555,13.34c0.318,0.37 0.955,0 0.685,-0.39z" fill="#9BB167"/>
</g>
<g id="Group_197">
<path id="Vector_594" d="M26.0473,131.83c-1.567,-2.06 -2.645,-4.36 -3.183,-6.91c-0.147,0.15 -0.294,0.29 -0.441,0.44c1.322,0.27 1.983,2.06 2.522,3.14c0.612,1.25 1.127,2.52 1.568,3.82c0.147,0.46 0.783,0.27 0.71,-0.2c-0.417,-2.69 -0.784,-5.44 0.269,-8.06c-0.245,0 -0.465,0 -0.71,0c0.784,2.7 1.2,5.42 1.273,8.21c0,0.14 0.123,0.34 0.27,0.34c0.441,0.07 0.71,-0.02 0.906,-0.44c0.196,-0.42 -0.441,-0.81 -0.637,-0.37c-0.024,0.03 -0.049,0.08 -0.098,0.1c0.098,0.12 0.172,0.25 0.27,0.34c-0.074,-2.86 -0.515,-5.65 -1.298,-8.4c-0.098,-0.36 -0.588,-0.31 -0.711,0c-1.102,2.72 -0.71,5.61 -0.269,8.45c0.245,-0.07 0.465,-0.12 0.71,-0.19c-0.563,-1.64 -1.224,-3.26 -2.057,-4.8c-0.588,-1.11 -1.2,-2.43 -2.547,-2.7c-0.269,-0.05 -0.514,0.17 -0.441,0.44c0.564,2.6 1.641,4.97 3.258,7.08c0.293,0.47 0.93,0.1 0.636,-0.29z" fill="#9BB167"/>
</g>
<g id="Group_198">
<path id="Vector_595" d="M75.0503,131.26c-1.886,-2.77 -3.478,-5.73 -4.727,-8.84c-0.612,-1.54 -1.151,-3.11 -1.592,-4.7c-0.073,-0.29 -0.685,-1.86 -0.538,-2.08c0.636,-0.88 1.885,1.12 2.13,1.47c3.012,4.38 3.478,9.99 6.808,14.2c0.221,0.3 0.735,-0.02 0.612,-0.37c-3.061,-7.88 -4.481,-16.31 -4.212,-24.75c-0.147,0.12 -0.318,0.24 -0.465,0.34c1.127,0.44 1.42,2.13 1.739,3.16c0.294,0.93 0.563,1.88 0.783,2.86c0.49,1.99 0.882,4.02 1.298,6.03c0.808,3.96 1.764,7.88 3.576,11.53c0.171,0.37 0.832,0.1 0.661,-0.29c-1.567,-3.92 -2.057,-8.08 -2.131,-12.27c-0.049,-1.99 -0.024,-3.97 0.049,-5.95c0.074,-2.13 0.27,-4.26 1.298,-6.17c-0.196,0.02 -0.392,0.04 -0.587,0.07c1.493,1.32 1.371,3.67 1.567,5.51c0.196,2.01 0.392,4.02 0.612,6.02c0.416,4.09 0.808,8.18 1.225,12.3c0.049,0.46 0.734,0.49 0.734,0c-0.073,-5.12 -0.049,-10.63 3.061,-14.97c-0.22,-0.02 -0.44,-0.04 -0.661,-0.09c0.906,2.4 0.392,5.14 0.196,7.64c-0.196,2.62 -0.416,5.21 -0.612,7.83c-0.049,0.47 0.686,0.47 0.735,0c0.22,-2.76 0.44,-5.53 0.661,-8.3c0.196,-2.45 0.637,-5.02 -0.27,-7.37c-0.122,-0.32 -0.489,-0.34 -0.661,-0.1c-3.183,4.46 -3.232,10.09 -3.159,15.36c0.245,0 0.49,0 0.735,0c-0.466,-4.58 -0.906,-9.16 -1.372,-13.74c-0.22,-2.23 -0.416,-4.46 -0.661,-6.69c-0.171,-1.47 -0.416,-2.89 -1.567,-3.91c-0.172,-0.15 -0.465,-0.15 -0.588,0.07c-1.886,3.55 -1.518,8.15 -1.445,12.05c0.074,4.38 0.539,8.79 2.18,12.9c0.22,-0.09 0.441,-0.19 0.661,-0.29c-2.106,-4.21 -2.988,-8.84 -3.943,-13.42c-0.465,-2.2 -0.93,-4.43 -1.592,-6.59c-0.44,-1.39 -0.808,-3.28 -2.326,-3.87c-0.22,-0.1 -0.465,0.15 -0.465,0.35c-0.294,8.52 1.151,16.99 4.236,24.95c0.196,-0.12 0.417,-0.25 0.613,-0.37c-2.131,-2.72 -3.086,-6.05 -4.311,-9.21c-0.563,-1.46 -1.175,-2.91 -2.008,-4.26c-0.587,-0.95 -1.445,-2.42 -2.571,-2.81c-1.029,-0.37 -1.445,0.41 -1.298,1.32c0.294,1.89 1.004,3.8 1.665,5.58c1.323,3.6 3.11,7.03 5.265,10.22c0.294,0.41 0.931,0.04 0.662,-0.35z" fill="#9BB167"/>
</g>
<g id="Group_199">
<path id="Vector_596" d="M124.7193,131.41c-0.686,-4.16 -0.882,-8.37 -0.588,-12.56c-0.196,0.1 -0.368,0.22 -0.563,0.32c1.102,0.58 1.077,2.08 1.2,3.16c0.122,1.2 0.195,2.4 0.269,3.6c0.122,2.49 0.098,4.97 -0.025,7.46c0.245,0 0.49,0 0.735,0c-0.22,-7.46 1.543,-14.84 5.143,-21.4c-0.221,-0.07 -0.465,-0.12 -0.686,-0.2c0.367,3.29 -0.514,6.69 -1.053,9.92c-0.514,3.21 -1.053,6.42 -1.567,9.63c-0.074,0.46 0.563,0.66 0.71,0.19c0.661,-1.91 1.469,-3.77 2.449,-5.53c0.441,-0.79 0.906,-1.54 1.518,-2.21c0.392,-0.41 2.572,-2.2 2.719,-0.53c0.024,0.24 -0.515,1.2 -0.637,1.49c-0.172,0.39 -0.368,0.78 -0.563,1.18c-0.441,0.9 -0.931,1.78 -1.445,2.66c-0.441,0.74 -0.906,1.47 -1.396,2.18c-0.368,0.57 -0.735,0.89 -0.637,1.55c0.025,0.12 0.147,0.24 0.245,0.24c0.294,0.05 0.416,0.03 0.612,-0.19c0.098,-0.13 0.147,-0.32 0.049,-0.45c-0.024,-0.02 -0.049,-0.07 -0.073,-0.09c-0.27,-0.39 -0.906,-0.03 -0.637,0.36c0.024,0.03 0.049,0.08 0.073,0.1c0.025,-0.14 0.049,-0.29 0.049,-0.44c0.147,0 0.27,0 0.417,0c0.122,-0.17 0.245,-0.34 0.367,-0.54c0.172,-0.24 0.318,-0.46 0.49,-0.71c0.367,-0.54 0.71,-1.1 1.028,-1.64c0.662,-1.12 1.274,-2.25 1.813,-3.43c0.44,-0.95 2.032,-3.47 0.024,-3.67c-1.739,-0.17 -3.159,1.35 -4.016,2.64c-1.396,2.09 -2.4,4.49 -3.208,6.86c0.245,0.08 0.465,0.12 0.71,0.2c0.539,-3.36 1.102,-6.74 1.641,-10.09c0.514,-3.14 1.347,-6.42 1.004,-9.63c-0.049,-0.34 -0.49,-0.53 -0.686,-0.19c-3.673,6.66 -5.485,14.18 -5.241,21.77c0.025,0.46 0.711,0.46 0.735,0c0.172,-3.14 0.147,-6.27 -0.098,-9.38c-0.122,-1.69 0.074,-4.53 -1.714,-5.49c-0.245,-0.14 -0.539,0.05 -0.563,0.32c-0.294,4.26 -0.098,8.55 0.612,12.76c0.147,0.44 0.857,0.25 0.784,-0.22z" fill="#9BB167"/>
</g>
<g id="Group_200">
<path id="Vector_597" d="M156.1863,131.29c-1.543,-3.55 -2.106,-7.37 -1.764,-11.22c-0.195,0.1 -0.367,0.22 -0.563,0.32c1.347,0.93 1.176,3.6 1.347,5.02c0.22,1.74 0.441,3.5 0.661,5.24c0.049,0.47 0.784,0.47 0.735,0c-0.367,-3.11 0.857,-6.1 3.306,-8.03c-0.22,-0.1 -0.416,-0.17 -0.637,-0.27c0.294,2.94 -0.489,5.75 -2.204,8.13c-0.22,0.29 0.221,0.71 0.515,0.51c0.195,-0.12 0.367,-0.27 0.563,-0.39c0.392,-0.27 0.024,-0.9 -0.368,-0.63c-0.195,0.12 -0.367,0.27 -0.563,0.39c0.172,0.17 0.343,0.34 0.514,0.51c1.788,-2.47 2.596,-5.46 2.302,-8.52c-0.024,-0.34 -0.367,-0.47 -0.636,-0.27c-2.572,2.06 -3.919,5.29 -3.527,8.55c0.245,0 0.49,0 0.735,0c-0.294,-2.38 -0.612,-4.75 -0.906,-7.15c-0.172,-1.38 -0.221,-2.92 -1.469,-3.75c-0.245,-0.17 -0.539,0.07 -0.564,0.32c-0.367,3.99 0.27,7.91 1.861,11.58c0.196,0.47 0.833,0.07 0.662,-0.34z" fill="#9BB167"/>
</g>
<g id="Group_201">
<path id="Vector_598" d="M172.1283,130.67c-0.27,-0.9 -0.466,-1.83 -0.466,-2.79c0,-0.49 -0.024,-1.1 0.123,-1.57c-0.025,-0.34 0.122,-0.56 0.416,-0.71c0.049,0.25 0.073,0.47 0.098,0.71c0.245,1.82 0.196,3.65 -0.784,5.25c-0.245,0.41 0.392,0.78 0.637,0.36c0.759,-1.25 1.053,-2.67 1.004,-4.14c-0.024,-0.73 0.098,-2.64 -0.686,-3.03c-0.857,-0.42 -1.298,0.76 -1.396,1.37c-0.293,1.59 -0.122,3.21 0.343,4.75c0.147,0.47 0.857,0.27 0.711,-0.2z" fill="#9BB167"/>
</g>
<g id="Group_202">
<path id="Vector_599" d="M70.8883,33.06c0.074,0 0.172,0 0.245,0c0.49,0 0.98,-0.2 1.323,-0.54c0.171,-0.17 0.293,-0.37 0.367,-0.59c0.122,-0.22 0.171,-0.44 0.147,-0.68c-0.025,-0.49 -0.172,-0.98 -0.539,-1.32c-0.343,-0.32 -0.784,-0.54 -1.273,-0.54c-0.074,0 -0.172,0 -0.245,0c-0.49,0 -0.98,0.19 -1.323,0.54c-0.171,0.17 -0.294,0.36 -0.367,0.58c-0.122,0.22 -0.171,0.44 -0.147,0.69c0.025,0.49 0.172,0.98 0.539,1.32c0.343,0.32 0.784,0.54 1.273,0.54z" fill="white"/>
</g>
<g id="Group_203">
<path id="Vector_600" d="M75.6373,43.05c2.376,0 2.4,-3.67 0.025,-3.67c-2.351,0 -2.376,3.67 -0.025,3.67z" fill="white"/>
</g>
<g id="Group_204">
<path id="Vector_601" d="M65.1333,31.3c2.376,0 2.4,-3.68 0.025,-3.68c-2.351,0 -2.375,3.68 -0.025,3.68z" fill="white"/>
</g>
<g id="Group_205">
<path id="Vector_602" d="M86.6603,12.54c2.375,0 2.4,-3.67 0.024,-3.67c-2.375,0 -2.4,3.67 -0.024,3.67z" fill="white"/>
</g>
<g id="Group_206">
<path id="Vector_603" d="M42.6303,10.8c2.375,0 2.4,-3.67 0.024,-3.67c-2.351,0 -2.375,3.67 -0.024,3.67z" fill="white"/>
</g>
<g id="Group_207">
<path id="Vector_604" d="M26.4663,39.72c0,-0.07 0,-0.17 0,-0.24c0,-0.49 -0.196,-0.98 -0.539,-1.33c-0.171,-0.17 -0.367,-0.29 -0.587,-0.36c-0.221,-0.13 -0.441,-0.18 -0.686,-0.15c-0.49,0.02 -0.98,0.17 -1.323,0.54c-0.318,0.34 -0.538,0.78 -0.538,1.27c0,0.07 0,0.17 0,0.25c0,0.49 0.196,0.98 0.538,1.32c0.172,0.17 0.368,0.29 0.588,0.37c0.221,0.12 0.441,0.17 0.686,0.14c0.49,-0.02 0.979,-0.17 1.322,-0.54c0.343,-0.34 0.539,-0.78 0.539,-1.27z" fill="white"/>
</g>
<g id="Group_208">
<path id="Vector_605" d="M60.9233,58.9c-0.073,0 -0.171,0 -0.245,0c-0.489,0 -0.979,0.19 -1.322,0.54c-0.171,0.17 -0.294,0.36 -0.367,0.58c-0.123,0.22 -0.172,0.44 -0.147,0.69c0.024,0.49 0.171,0.98 0.538,1.32c0.343,0.32 0.784,0.54 1.274,0.54c0.073,0 0.171,0 0.245,0c0.49,0 0.979,-0.2 1.322,-0.54c0.172,-0.17 0.294,-0.37 0.368,-0.59c0.122,-0.22 0.171,-0.44 0.147,-0.68c-0.025,-0.49 -0.172,-0.98 -0.539,-1.32c-0.343,-0.35 -0.784,-0.54 -1.274,-0.54z" fill="white"/>
</g>
<g id="Group_209">
<path id="Vector_606" d="M124.6673,54.05c2.376,0 2.4,-3.67 0.025,-3.67c-2.375,0 -2.4,3.67 -0.025,3.67z" fill="white"/>
</g>
<g id="Group_210">
<path id="Vector_607" d="M133.6793,34.8c2.376,0 2.4,-3.68 0.025,-3.68c-2.376,0 -2.4,3.68 -0.025,3.68z" fill="white"/>
</g>
<g id="Group_211">
<path id="Vector_608" d="M153.1733,46.8c2.375,0 2.4,-3.68 0.024,-3.68c-2.351,0 -2.375,3.68 -0.024,3.68z" fill="white"/>
</g>
<g id="Group_212">
<path id="Vector_609" d="M164.4373,56.57c2.375,0 2.4,-3.67 0.025,-3.67c-2.376,0 -2.4,3.67 -0.025,3.67z" fill="white"/>
</g>
<g id="Group_213">
<path id="Vector_610" d="M154.4943,69.28c0.073,-0.07 0.171,-0.17 0.245,-0.24c0.318,-0.32 0.538,-0.81 0.538,-1.28c0,-0.24 -0.049,-0.49 -0.147,-0.71c-0.073,-0.24 -0.196,-0.44 -0.391,-0.61c-0.343,-0.32 -0.809,-0.54 -1.274,-0.54c-0.49,0.02 -0.955,0.2 -1.322,0.54c-0.074,0.07 -0.172,0.17 -0.245,0.24c-0.319,0.32 -0.539,0.81 -0.539,1.28c0,0.24 0.049,0.49 0.147,0.71c0.073,0.24 0.196,0.44 0.392,0.61c0.343,0.32 0.808,0.54 1.273,0.54c0.49,-0.03 0.955,-0.2 1.323,-0.54z" fill="white"/>
</g>
<g id="Group_214">
<path id="Vector_611" d="M138.9943,65.51c0.073,-0.08 0.171,-0.17 0.245,-0.25c0.318,-0.31 0.538,-0.8 0.538,-1.27c0,-0.24 -0.049,-0.49 -0.147,-0.71c-0.073,-0.24 -0.196,-0.44 -0.391,-0.61c-0.343,-0.32 -0.809,-0.54 -1.274,-0.54c-0.49,0.02 -0.955,0.19 -1.322,0.54c-0.074,0.07 -0.172,0.17 -0.245,0.24c-0.319,0.32 -0.539,0.81 -0.539,1.28c0,0.24 0.049,0.49 0.147,0.71c0.073,0.24 0.196,0.44 0.392,0.61c0.343,0.32 0.808,0.54 1.273,0.54c0.49,0 0.955,-0.17 1.323,-0.54z" fill="white"/>
</g>
<g id="Group_215">
<path id="Vector_612" d="M169.6763,52.31c2.376,0 2.4,-3.67 0.025,-3.67c-2.351,0 -2.375,3.67 -0.025,3.67z" fill="white"/>
</g>
<g id="Group_216">
<path id="Vector_613" d="M176.6843,37.3c2.376,0 2.4,-3.68 0.025,-3.68c-2.351,0 -2.376,3.68 -0.025,3.68z" fill="white"/>
</g>
<g id="Group_217">
<path id="Vector_614" d="M76.4493,65.68c-0.073,-0.07 -0.171,-0.17 -0.244,-0.24c-0.319,-0.32 -0.809,-0.54 -1.274,-0.54c-0.245,0 -0.49,0.05 -0.71,0.14c-0.245,0.08 -0.441,0.2 -0.612,0.4c-0.319,0.34 -0.539,0.8 -0.539,1.27c0.024,0.49 0.196,0.95 0.539,1.32c0.073,0.07 0.171,0.17 0.245,0.25c0.318,0.31 0.808,0.53 1.273,0.53c0.245,0 0.49,-0.04 0.71,-0.14c0.245,-0.08 0.441,-0.2 0.612,-0.39c0.319,-0.35 0.539,-0.81 0.539,-1.28c0,-0.51 -0.171,-0.98 -0.539,-1.32z" fill="white"/>
</g>
<g id="Group_218">
<path id="Vector_615" d="M47.8943,69.57c2.376,0 2.4,-3.67 0.025,-3.67c-2.376,0 -2.4,3.67 -0.025,3.67z" fill="white"/>
</g>
<g id="Group_219">
<path id="Vector_616" d="M88.1523,18.29c2.375,0 2.4,-3.67 0.024,-3.67c-2.375,0 -2.4,3.67 -0.024,3.67z" fill="white"/>
</g>
<g id="Group_220">
<path id="Vector_617" d="M106.1533,32.55c2.375,0 2.4,-3.68 0.025,-3.68c-2.351,0 -2.376,3.68 -0.025,3.68z" fill="white"/>
</g>
<g id="Group_221">
<path id="Vector_618" d="M113.6713,16.28c2.376,0 2.4,-3.67 0.025,-3.67c-2.376,0 -2.4,3.67 -0.025,3.67z" fill="white"/>
</g>
<g id="Group_222">
<path id="Vector_619" d="M148.4233,9.79c2.375,0 2.4,-3.67 0.024,-3.67c-2.351,0 -2.375,3.67 -0.024,3.67z" fill="white"/>
</g>
<g id="Group_223">
<path id="Vector_620" d="M175.6803,21.55c2.376,0 2.4,-3.67 0.025,-3.67c-2.351,0 -2.376,3.67 -0.025,3.67z" fill="white"/>
</g>
<g id="Group_224">
<path id="Vector_621" d="M21.2253,18.98c0,-0.07 0,-0.17 0,-0.25c0,-0.49 -0.196,-0.98 -0.539,-1.32c-0.171,-0.17 -0.367,-0.29 -0.588,-0.37c-0.22,-0.12 -0.465,-0.17 -0.71,-0.17c-0.49,0.03 -0.979,0.17 -1.322,0.54c-0.319,0.34 -0.539,0.79 -0.539,1.28c0,0.07 0,0.17 0,0.24c0,0.49 0.196,0.98 0.539,1.32c0.171,0.17 0.367,0.3 0.588,0.37c0.22,0.12 0.44,0.17 0.685,0.15c0.49,-0.03 0.98,-0.17 1.323,-0.54c0.342,-0.34 0.563,-0.76 0.563,-1.25z" fill="white"/>
</g>
<path id="Vector_622" d="M132.7243,22.07c-1.812,-0.4 -3.331,-1.77 -4.188,-3.41c-0.857,-1.64 -1.126,-3.55 -1.126,-5.39c1.861,0.25 3.379,1.72 4.187,3.41c0.809,1.69 1.029,3.6 1.249,5.46c-1.567,-5.22 -0.22,-11.22 3.453,-15.23c1.813,5.11 0.784,11.16 -2.669,15.38c0.857,-1.16 1.714,-2.33 2.841,-3.24c1.126,-0.9 2.547,-1.52 3.992,-1.37c-0.784,2.67 -3.747,4.51 -6.49,4.04z" fill="#9BB167"/>
<path id="Vector_623" d="M160.8613,44.5c-0.441,-1.64 -0.074,-3.43 0.71,-4.95c0.784,-1.52 1.935,-2.81 3.086,-4.06c0.734,-0.79 1.787,-1.64 2.742,-1.15c-0.294,3.99 -2.449,7.78 -5.681,10.11c2.498,-1.84 5.902,-2.4 8.865,-1.49c0.147,0.04 0.294,0.09 0.367,0.22c0.147,0.27 -0.147,0.53 -0.392,0.71c-2.816,1.64 -6.391,1.81 -9.354,0.49z" fill="#9BB167"/>
<path id="Vector_624" d="M146.9543,54.49c-2.008,1 -3.306,3.13 -3.82,5.31c-0.514,2.21 -0.392,4.48 -0.245,6.74c3.869,-2.28 5.608,-7.57 3.869,-11.71c0.515,2.06 1.029,4.14 2.204,5.9c1.176,1.74 3.16,3.11 5.266,2.94c-1.078,-3.6 -2.376,-7.47 -5.51,-9.52c-0.637,-0.42 -1.739,-0.62 -1.984,0.09z" fill="#9BB167"/>
<path id="Vector_625" d="M162.4803,17.41c0.588,-2.96 3.012,-5.46 5.927,-6.14c0.293,1.54 -0.172,3.2 -1.225,4.35c-1.053,1.16 -2.669,1.79 -4.212,1.67z" fill="#9BB167"/>
<path id="Vector_626" d="M65.9183,15.84c-1.886,-0.02 -3.894,-0.07 -5.51,-1.02c-2.229,-1.33 -3.233,-3.97 -4.041,-6.42c2.008,-0.69 4.285,0.17 5.853,1.62c1.567,1.42 2.571,3.35 3.526,5.24c-1.151,-1.86 -1.739,-4.07 -1.665,-6.25c0.049,-1.17 0.392,-2.5 1.445,-3.01c1.959,2.74 2.375,6.51 1.004,9.62c0.294,-2.57 2.253,-4.89 4.726,-5.63c0.319,-0.1 0.759,-0.12 0.931,0.17c0.098,0.17 0.049,0.37 0,0.54c-0.661,2.7 -3.257,4.8 -6.049,4.85z" fill="#9BB167"/>
<path id="Vector_627" d="M37.5083,25.79c-0.979,-1.86 -0.93,-4.14 -0.147,-6.1c0.784,-1.93 2.253,-3.55 3.943,-4.8c0.784,1.94 1.2,4.09 0.808,6.15c-0.392,2.05 -1.689,4.01 -3.6,4.85c1.519,-1.28 3.306,-2.31 5.266,-2.65c1.959,-0.34 4.089,0.07 5.608,1.35c-2.817,2.89 -7.715,3.48 -11.119,1.3z" fill="#9BB167"/>
<path id="Vector_628" d="M34.1313,51.16c-4.53,-0.03 -8.742,3.82 -9.159,8.32c4.09,-0.93 7.616,-4.11 8.914,-8.1z" fill="#9BB167"/>
<path id="Vector_629" d="M32.8813,52.04c-3.796,-0.1 -7.347,-2.89 -8.327,-6.56c1.837,-0.2 3.698,0.46 5.217,1.54c1.518,1.08 2.693,2.52 3.771,4.04z" fill="#9BB167"/>
<g id="Group_225">
<path id="Vector_630" d="M66.3823,14.79c-1.518,-0.88 -3.036,-1.76 -4.555,-2.64c-0.416,-0.25 -0.783,0.39 -0.367,0.63c1.518,0.89 3.037,1.77 4.555,2.65c0.416,0.24 0.784,-0.39 0.367,-0.64z" fill="white"/>
</g>
<g id="Group_226">
<path id="Vector_631" d="M66.7493,14.77c-0.515,-1.23 -0.858,-2.5 -1.005,-3.8c-0.048,-0.47 -0.783,-0.47 -0.734,0c0.171,1.44 0.539,2.82 1.102,4.16c0.196,0.42 0.832,0.05 0.637,-0.36z" fill="white"/>
</g>
<g id="Group_227">
<path id="Vector_632" d="M66.9703,14.89c0.784,-1.05 1.763,-1.94 2.865,-2.65c0.392,-0.24 0.025,-0.88 -0.367,-0.63c-1.225,0.78 -2.253,1.74 -3.135,2.89c-0.294,0.39 0.343,0.76 0.637,0.39z" fill="white"/>
</g>
<g id="Group_228">
<path id="Vector_633" d="M37.9733,25.71c0.098,-1.56 0.661,-3.01 1.69,-4.23c0.294,-0.37 -0.22,-0.89 -0.514,-0.52c-1.151,1.37 -1.788,2.97 -1.91,4.75c-0.025,0.47 0.71,0.47 0.734,0z" fill="white"/>
</g>
<g id="Group_229">
<path id="Vector_634" d="M37.6343,25.84c2.081,-0.05 4.187,-0.2 6.269,-0.4c0.465,-0.04 0.465,-0.78 0,-0.73c-2.082,0.2 -4.163,0.34 -6.269,0.39c-0.466,0.03 -0.466,0.76 0,0.74z" fill="white"/>
</g>
<g id="Group_230">
<path id="Vector_635" d="M33.8633,50.84c-1.518,-0.88 -3.037,-1.76 -4.555,-2.67c-0.416,-0.24 -0.784,0.39 -0.367,0.64c1.518,0.88 3.036,1.76 4.555,2.67c0.391,0.24 0.783,-0.4 0.367,-0.64z" fill="white"/>
</g>
<g id="Group_231">
<path id="Vector_636" d="M33.2013,51.16c-1.225,0.88 -2.204,2.03 -2.89,3.38c-0.22,0.41 0.416,0.78 0.637,0.37c0.612,-1.25 1.494,-2.31 2.62,-3.11c0.392,-0.27 0.025,-0.91 -0.367,-0.64z" fill="white"/>
</g>
<g id="Group_232">
<path id="Vector_637" d="M53.2083,51.67c-0.858,3.18 1.077,6.86 4.163,7.98c0.245,-1.71 0.245,-3.55 -0.466,-5.14c-0.71,-1.59 -2.253,-2.89 -3.991,-2.91z" fill="#9BB167"/>
<g id="Group_233">
<path id="Vector_638" d="M53.2803,52.19c0.514,1 1.028,1.98 1.518,2.98c0.22,0.42 0.857,0.05 0.637,-0.36c-0.514,-1.01 -1.029,-1.99 -1.519,-2.99c-0.22,-0.42 -0.857,-0.05 -0.636,0.37z" fill="white"/>
</g>
</g>
<g id="Group_234">
<path id="Vector_639" d="M146.9063,54.56c-0.98,1.81 -1.959,3.6 -2.939,5.41c-0.22,0.42 0.417,0.79 0.637,0.37c0.98,-1.81 1.959,-3.6 2.939,-5.41c0.22,-0.42 -0.392,-0.78 -0.637,-0.37z" fill="white"/>
</g>
<g id="Group_235">
<path id="Vector_640" d="M147.4193,55.49c1.102,1.3 2.082,2.7 2.939,4.19c0.245,0.42 0.882,0.05 0.637,-0.37c-0.882,-1.54 -1.91,-2.99 -3.061,-4.33c-0.294,-0.37 -0.808,0.14 -0.515,0.51z" fill="white"/>
</g>
<g id="Group_236">
<path id="Vector_641" d="M161.4483,44.62c0.906,-1.25 1.836,-2.5 2.742,-3.75c0.27,-0.39 -0.367,-0.76 -0.636,-0.36c-0.906,1.24 -1.837,2.49 -2.743,3.74c-0.27,0.37 0.367,0.74 0.637,0.37z" fill="white"/>
</g>
<g id="Group_237">
<path id="Vector_642" d="M161.7943,45.09c2.008,-0.27 3.991,-0.54 6,-0.81c0.465,-0.08 0.269,-0.79 -0.196,-0.71c-2.009,0.27 -3.992,0.54 -6,0.81c-0.466,0.07 -0.27,0.78 0.196,0.71z" fill="white"/>
</g>
<g id="Group_238">
<path id="Vector_643" d="M132.8223,20.99c-0.612,-0.91 -1.224,-1.81 -1.812,-2.7c-0.269,-0.39 -0.906,-0.02 -0.637,0.37c0.613,0.91 1.225,1.81 1.813,2.7c0.244,0.39 0.881,0.02 0.636,-0.37z" fill="white"/>
</g>
<g id="Group_239">
<path id="Vector_644" d="M133.0413,21.45c0.172,-1.86 0.637,-3.65 1.396,-5.34c0.196,-0.41 -0.441,-0.8 -0.636,-0.36c-0.833,1.81 -1.323,3.72 -1.494,5.7c-0.049,0.47 0.685,0.47 0.734,0z" fill="white"/>
</g>
<g id="Group_240">
<path id="Vector_645" d="M133.3123,22.21c1.371,-0.95 2.865,-1.64 4.481,-2.03c0.466,-0.12 0.27,-0.83 -0.196,-0.71c-1.689,0.42 -3.232,1.13 -4.652,2.11c-0.392,0.26 -0.025,0.9 0.367,0.63z" fill="white"/>
</g>
<g id="Group_241">
<path id="Vector_646" d="M163.5813,17.22c1.274,-0.81 2.523,-1.62 3.796,-2.43c0.392,-0.24 0.025,-0.88 -0.367,-0.64c-1.274,0.81 -2.523,1.62 -3.796,2.43c-0.392,0.24 -0.024,0.88 0.367,0.64z" fill="white"/>
</g>
<path id="XMLID_6_" d="M105.5893,26.82c0.245,0.9 1.273,1.32 2.106,0.85c1.053,-0.58 2.302,0.27 2.13,1.47c-0.122,0.93 0.637,1.74 1.568,1.64c1.2,-0.12 1.983,1.2 1.347,2.21c-0.49,0.78 -0.123,1.83 0.759,2.13c1.126,0.39 1.347,1.91 0.343,2.57c-0.784,0.51 -0.857,1.62 -0.172,2.25c0.882,0.81 0.441,2.28 -0.734,2.48c-0.931,0.14 -1.445,1.12 -1.078,1.98c0.465,1.1 -0.514,2.25 -1.69,1.96c-0.906,-0.22 -1.787,0.44 -1.787,1.37c-0.025,1.2 -1.396,1.86 -2.327,1.13c-0.735,-0.59 -1.812,-0.32 -2.204,0.54c-0.49,1.07 -2.032,1.12 -2.596,0.07c-0.441,-0.83 -1.518,-1.03 -2.228,-0.42c-0.906,0.79 -2.302,0.2 -2.4,-0.98c-0.074,-0.93 -0.98,-1.56 -1.861,-1.27c-1.151,0.37 -2.204,-0.76 -1.788,-1.89c0.318,-0.88 -0.269,-1.81 -1.176,-1.93c-1.2,-0.15 -1.689,-1.59 -0.857,-2.45c0.662,-0.66 0.515,-1.76 -0.294,-2.25c-1.028,-0.62 -0.906,-2.13 0.196,-2.57c0.857,-0.35 1.176,-1.42 0.637,-2.18c-0.686,-0.98 0.049,-2.33 1.225,-2.28c0.93,0.02 1.665,-0.81 1.469,-1.72c-0.245,-1.17 0.979,-2.1 2.057,-1.56c0.833,0.41 1.837,-0.08 2.033,-0.98c0.269,-1.18 1.738,-1.52 2.522,-0.61c0.588,0.71 1.714,0.68 2.277,-0.08c0.686,-0.9 2.18,-0.63 2.523,0.52z" fill="#9BB167"/>
<g id="Group_242">
<path id="Vector_647" d="M87.3973,60.19c-1.469,3.73 -1.788,8.06 -1.69,12.03c0.123,4.11 0.686,8.33 2.523,12.05c1.592,3.18 6.342,4.31 9.281,2.42c3.257,-2.1 4.114,-5.88 2.425,-9.28c-0.074,-0.17 -0.172,-0.34 -0.245,-0.51c0.245,0.56 0.465,1.12 0.71,1.66c-0.588,-1.44 -0.882,-3.01 -1.102,-4.55c0.073,0.61 0.147,1.2 0.22,1.81c-0.367,-2.99 -0.392,-6.05 0,-9.04c-0.073,0.59 -0.171,1.15 -0.245,1.74c0.221,-1.61 0.564,-3.21 1.176,-4.73c0.612,-1.51 0.098,-3.86 -0.686,-5.21c-0.832,-1.4 -2.449,-2.74 -4.065,-3.11c-1.739,-0.39 -3.673,-0.3 -5.216,0.68c-1.543,0.98 -2.4,2.31 -3.086,4.04z" fill="#926247"/>
</g>
<g id="Group_243">
<path id="Vector_648" d="M134.6583,40.43c-6.391,-1.96 -7.959,-9.72 -9.11,-15.38c-0.171,-0.9 -1.322,-1.37 -2.13,-1.1c-0.955,0.29 -1.298,1.23 -1.102,2.13c0.343,1.64 0.71,3.33 1.2,5c-1.396,-0.05 -2.67,-0.52 -3.796,-1.42c-1.665,-1.4 -3.967,1.1 -2.278,2.49c2.033,1.69 4.58,2.55 7.225,2.28c1.739,4.24 4.457,7.86 9.232,9.33c2.082,0.62 2.817,-2.69 0.759,-3.33z" fill="#926247"/>
<path id="Vector_649" d="M162.6263,57.16c-3.33,-0.37 -7.934,-0.86 -9.551,-4.16c2.89,-1.25 5.486,-3.11 7.935,-5.1c0.71,-0.56 1.053,-1.52 0.514,-2.35c-0.465,-0.71 -1.616,-1.08 -2.351,-0.51c-2.865,2.3 -5.877,4.5 -9.453,5.56c-3.747,1.07 -7.714,1 -11.583,0.95c-2.18,-0.02 -2.057,3.36 0.122,3.38c3.87,0.05 7.812,0.05 11.584,-0.88c1.885,4.63 7.469,5.88 12.048,6.37c0.907,0.09 1.788,-0.32 2.033,-1.28c0.171,-0.76 -0.392,-1.88 -1.298,-1.98z" fill="#926247"/>
<path id="Vector_650" d="M160.5433,17.29c-1.91,1.18 -4.335,1 -6.098,-0.29c0.416,-0.96 0.735,-1.96 1.004,-2.97c0.563,-2.1 -2.743,-2.86 -3.306,-0.76c-0.686,2.6 -1.935,6 -4.849,6.62c-0.514,-1.33 -1.739,-2.38 -3.257,-2.26c-1.739,0.15 -3.453,1.62 -3.281,3.5c0.122,1.35 0.367,2.67 0.685,3.97c-2.743,0.17 -5.485,-0.83 -7.518,-2.77c-1.592,-1.49 -3.869,1.01 -2.277,2.5c2.914,2.77 6.906,3.99 10.848,3.53c1.102,2.79 2.645,5.39 4.653,7.71c0.49,1.35 1.763,2.55 3.282,2.31c3.453,-0.54 6.783,-1.25 9.306,-3.87c1.273,-1.33 1.102,-3.58 -0.221,-4.78c-1.396,-1.25 -3.526,-1.1 -4.775,0.22c-0.123,0.15 -0.171,0.2 -0.171,0.2c0,0 -0.025,0.02 -0.049,0.02c-0.172,0.15 -0.368,0.27 -0.564,0.37c-0.122,0.07 -0.367,0.17 -0.416,0.22c-0.22,0.07 -0.416,0.17 -0.637,0.22c-0.318,0.1 -0.661,0.2 -0.979,0.27c-0.392,-0.47 -0.808,-1.03 -1.225,-1.67c-0.343,-0.51 -0.661,-1.05 -0.955,-1.59c-0.122,-0.22 -0.245,-0.44 -0.343,-0.66c-0.049,-0.07 -0.073,-0.17 -0.122,-0.24c0,-0.03 -0.025,-0.08 -0.049,-0.13c-0.441,-1.03 -0.808,-2.08 -1.102,-3.16c-0.049,-0.22 -0.123,-0.44 -0.172,-0.66c2.082,-0.44 3.674,-1.66 4.874,-3.25c2.841,1.91 6.636,2 9.6,0.19c1.787,-1.08 -0.025,-3.94 -1.886,-2.79z" fill="#926247"/>
</g>
<g id="Group_244">
<path id="Vector_651" d="M58.7923,45.43c-3.012,2.52 -6.857,3.35 -10.677,3.82c-3.82,0.46 -8.081,1.08 -11.657,-0.74c-1.934,-0.98 -3.526,2.01 -1.567,3.02c3.183,1.61 6.71,1.73 10.212,1.44c-2.155,3.4 -5.143,6.17 -8.718,8.08c-1.91,1.03 -0.074,3.87 1.836,2.84c4.506,-2.42 8.18,-6.14 10.629,-10.6c0.147,-0.27 0.22,-0.52 0.22,-0.76c4.114,-0.56 8.326,-1.54 11.559,-4.26c0.686,-0.59 1.053,-1.5 0.514,-2.35c-0.44,-0.66 -1.64,-1.08 -2.351,-0.49z" fill="#926247"/>
<path id="Vector_652" d="M77.0863,22.33c-0.245,-0.78 -1.273,-1.49 -2.13,-1.1c-2.474,1.1 -5.216,0.76 -7.249,-0.98c0.882,-1.3 1.494,-2.77 1.788,-4.36c0.392,-2.15 -2.915,-2.91 -3.306,-0.76c-0.539,2.94 -2.523,5.37 -5.29,6.42c0,-0.29 -0.025,-0.59 -0.025,-0.88c-0.073,-1.76 -1.665,-3.41 -3.501,-3.28c-0.907,0.07 -1.739,0.46 -2.351,1.1c-2.082,-0.96 -3.649,-3.16 -3.404,-5.54c0.098,-0.9 -0.319,-1.78 -1.274,-2.03c-0.808,-0.19 -1.935,0.37 -2.032,1.28c-0.441,4.13 1.959,8.17 5.803,9.59c0.074,1.92 0.147,3.87 -0.171,5.66c-0.098,0.57 -0.22,1.1 -0.367,1.64c-0.172,0.57 -0.098,0.42 -0.319,0.93c-0.489,1.13 -0.734,1.52 -1.542,2.35c-0.025,0.03 -0.245,0.25 -0.319,0.32c-0.098,0.08 -0.318,0.25 -0.367,0.27c-0.441,0.32 -0.906,0.59 -1.372,0.83c-0.049,0.03 -0.147,0.08 -0.22,0.1c-0.196,0.08 -0.416,0.17 -0.612,0.25c-0.514,0.19 -1.029,0.34 -1.543,0.49c-1.322,0.34 -2.718,0.49 -4.163,0.59c-0.392,-5.54 -5.021,-9.29 -9.306,-12.27c-0.759,-0.54 -1.714,-0.62 -2.4,0.12c-0.563,0.61 -0.637,1.86 0.122,2.4c0.613,0.41 1.225,0.86 1.862,1.32c-2.009,1.49 -4.555,3.18 -6.955,1.81c-1.886,-1.07 -3.453,1.91 -1.568,3.02c3.845,2.17 7.861,-0.08 10.971,-2.43c0.098,-0.07 0.172,-0.15 0.221,-0.2c1.91,1.79 3.428,3.9 3.649,6.54c-1.421,0.44 -2.596,1.82 -2.474,3.36c0.147,1.81 1.617,3.35 3.502,3.28c5.706,-0.22 11.755,-0.86 15.967,-5.17c3.159,-3.23 4.041,-7.59 4.188,-11.95c0.22,0.03 0.465,0 0.735,-0.1c1.396,-0.46 2.669,-1.2 3.795,-2.1c2.817,2.5 7.078,3.26 10.531,1.69c0.832,-0.47 1.42,-1.28 1.126,-2.21z" fill="#926247"/>
</g>
<g id="Group_245">
<path id="Vector_653" d="M89.8423,115.32c-4.408,3.52 -10.089,4.5 -15.624,5.29c-2.865,-3.45 -7.567,-3.85 -11.779,-3.99c-1.641,-0.05 -1.641,2.49 -0.025,2.54c2.939,0.1 6.123,0.25 8.547,1.91c-0.612,0.1 -1.2,0.17 -1.788,0.3c-7.836,1.32 -15.036,4.43 -21.232,9.43c-1.273,1.02 0.539,2.81 1.812,1.78c2.866,-2.3 5.951,-4.14 9.208,-5.53c0.221,1.2 0.245,2.45 0.049,3.67c-0.269,1.59 2.18,2.28 2.449,0.66c0.294,-1.78 0.294,-3.55 -0.098,-5.29c3.159,-1.15 6.466,-1.96 9.894,-2.49c7.126,-1.13 14.547,-1.82 20.4,-6.49c1.273,-1.03 -0.564,-2.8 -1.813,-1.79z" fill="#704738"/>
<path id="Vector_654" d="M158.9013,131.07c-4.237,-4.78 -10.359,-7.6 -16.751,-6.52c-2.13,-1.44 -4.506,-2.57 -6.954,-3.45c-0.074,-0.03 -0.147,-0.05 -0.221,-0.07c-0.269,-0.25 -0.612,-0.35 -0.93,-0.32c-5.56,-1.81 -11.412,-2.43 -17.02,-4.02c-3.576,-1 -7.078,-2.42 -10.017,-4.7c-1.273,-0.98 -3.085,0.81 -1.787,1.81c5.142,3.99 11.363,5.58 17.656,6.86c3.527,0.71 7.102,1.39 10.506,2.5c1.421,2.4 2.033,5.07 1.764,7.88c-0.147,1.64 2.399,1.64 2.546,0.03c0.196,-2.26 -0.122,-4.51 -0.881,-6.62c1.004,0.45 1.983,0.93 2.914,1.5c2.792,1.64 5.143,3.84 6.808,6.63c0.833,1.4 3.037,0.13 2.18,-1.29c-1.004,-1.72 -2.253,-3.19 -3.649,-4.48c4.653,0.04 8.938,2.52 12.048,6.02c1.078,1.27 2.866,-0.54 1.788,-1.76z" fill="#704738"/>
<path id="Vector_655" d="M119.0103,124.18c-2.865,-1.78 -6.049,-2.67 -9.281,-3.45c-0.637,-1.86 -1.519,-3.67 -2.67,-5.31c-0.93,-1.35 -3.134,-0.08 -2.179,1.29c1.641,2.38 2.743,5.07 3.232,7.89c-5.02,0.69 -9.648,2.94 -13.371,6.44c-1.2,1.13 0.613,2.91 1.813,1.79c3.257,-3.06 7.395,-5.12 11.828,-5.71c0.049,1.42 -0.025,2.84 -0.294,4.26c-0.294,1.6 2.155,2.28 2.449,0.66c0.539,-2.81 0.514,-5.7 -0.049,-8.47c2.424,0.61 4.8,1.35 6.955,2.65c2.302,1.39 4.31,3.25 5.779,5.53c0.882,1.37 3.086,0.1 2.18,-1.3c-1.641,-2.57 -3.82,-4.67 -6.392,-6.27z" fill="#704738"/>
<path id="Vector_656" d="M88.5943,119.38c-4.359,4.98 -11.289,6.52 -15.844,11.32c-1.127,1.17 0.685,2.96 1.812,1.79c1.836,-1.94 4.065,-3.33 6.367,-4.66c0.098,0.05 0.196,0.1 0.318,0.15c1.641,0.54 2.327,2.89 2.841,4.34c0.539,1.54 2.988,0.88 2.449,-0.67c-0.661,-1.88 -1.469,-4.01 -3.037,-5.26c2.523,-1.45 4.972,-2.99 6.906,-5.19c1.053,-1.25 -0.734,-3.04 -1.812,-1.82z" fill="#704738"/>
</g>
<path id="XMLID_5_" d="M107.3783,110.47c-1.959,-3.04 -6.024,-4.38 -9.281,-2.42c-1.959,1.2 -3.943,2.4 -5.902,3.6c-3.012,1.83 -4.433,6.17 -2.425,9.28c1.959,3.04 6.025,4.38 9.282,2.42c1.959,-1.2 3.943,-2.4 5.902,-3.6c3.036,-1.86 4.432,-6.17 2.424,-9.28z" fill="#926247"/>
<path id="XMLID_4__2" d="M110.5623,94.99c-0.833,-1.39 -2.449,-2.74 -4.066,-3.11c-1.738,-0.39 -3.673,-0.29 -5.216,0.69c-1.42,0.9 -2.155,2.74 -3.453,3.92c-1.837,1.61 -4.555,2.45 -6.734,3.45c-1.445,0.69 -2.694,2.55 -3.111,4.06c-0.44,1.62 -0.244,3.78 0.686,5.22c2.155,3.31 5.829,4.04 9.282,2.43c2.253,-1.06 4.604,-2.01 6.685,-3.38c1.225,-0.81 2.498,-1.72 3.478,-2.82c1.518,-1.64 2.326,-3.18 3.134,-5.24c0.612,-1.54 0.098,-3.87 -0.685,-5.22zM98.4153,96.05c-0.025,0.02 -0.025,0.07 -0.049,0.09c0,0 0,0 -0.025,0c0,-0.02 0.025,-0.05 0.025,-0.07c0.024,0 0.049,-0.02 0.049,-0.02zM98.3413,96.17c0.025,0 0.025,0 0,0c-0.049,0.15 -0.122,0.29 -0.171,0.44c0.073,-0.15 0.122,-0.29 0.171,-0.44z" fill="#704738"/>
<path id="XMLID_3__2" d="M112.9123,76.68c-0.832,-1.4 -2.449,-2.75 -4.065,-3.11c-1.739,-0.4 -3.673,-0.3 -5.216,0.68c-3.6,2.33 -3.673,7.64 -7.053,10.48c-2.057,1.5 -4.31,2.67 -6.588,3.8c-3.183,1.54 -4.285,6.37 -2.424,9.28c2.131,3.28 5.853,4.07 9.281,2.42c7.494,-3.64 15.453,-9.45 16.751,-18.34c0.294,-1.86 0.318,-3.5 -0.686,-5.21z" fill="#926247"/>
<path id="Vector_657" d="M96.7263,70.41c0.098,-0.15 0.221,-0.27 0.294,-0.37c-0.098,0.1 -0.22,0.24 -0.294,0.37z" fill="#FB7185"/>
<path id="XMLID_2_" d="M109.0933,54.29c-1.959,-2.96 -6.098,-4.48 -9.282,-2.42c-2.938,1.91 -4.506,6.1 -2.424,9.28c1.984,3.01 1.641,6.17 -0.539,9.06c-2.13,2.84 -5.363,5 -8.62,6.37c0.122,-0.05 0.22,-0.1 0.343,-0.15c-1.396,0.64 -2.523,1.4 -3.355,2.84c-0.833,1.45 -1.176,3.53 -0.686,5.14c0.539,1.67 1.567,3.29 3.159,4.12c1.494,0.78 3.502,1.32 5.143,0.68c6.661,-2.67 12.636,-6.98 16.408,-13.22c4.089,-6.71 4.236,-15.09 -0.147,-21.7z" fill="#704738"/>
<path id="XMLID_1__7" d="M149.9173,33.94c-1.518,-2.13 -4.726,-3.2 -7.028,-1.52c-5.535,4.07 -8.841,10.17 -12.049,16.07c-2.596,4.75 -6.343,14.03 -13.273,12.64c-2.743,-0.57 -4.237,-2.77 -5.682,-4.95c-2.498,-3.75 -5.093,-8.55 -9.501,-10.31c-7.274,-2.94 -15.845,2.3 -23.045,3.53c-1.91,0.31 -3.918,0.51 -5.706,-0.2c-3.306,-1.32 -4.677,-5.09 -6.024,-8.11c-1.69,-3.77 -3.355,-7.56 -6.294,-10.55c-1.861,-1.89 -5.485,-1.69 -7.175,0.34c-1.837,2.21 -1.666,5.14 0.343,7.18c4.555,4.63 5.118,11.75 9.428,16.48c3.061,3.35 7.494,5.02 11.951,5.29c4.555,0.27 9.159,-1.3 13.518,-2.43c3.183,-0.8 7.445,-2.69 10.628,-0.41c3.11,2.23 4.776,7.05 7.518,9.87c4.066,4.16 9.674,5.48 15.257,4.04c7.004,-1.79 11.461,-7.35 14.816,-13.4c1.788,-3.21 3.355,-6.56 5.216,-9.72c2.106,-3.58 10.482,-9.09 7.102,-13.84zM96.6783,55.54c0.122,-0.02 0.22,-0.05 0.342,-0.07c0.613,-0.15 -0.049,0.05 -0.342,0.07zM97.7803,55.47c0.269,0 0.489,-0.03 0,0zM116.2933,60.98c0,-0.03 0.221,0.05 0.441,0.15c-0.196,-0.03 -0.441,-0.1 -0.441,-0.15zM119.8203,61.25c-0.123,0.05 -0.294,0.07 -0.441,0.1c0.22,-0.08 0.465,-0.13 0.441,-0.1z" fill="#926247"/>
<g id="Group_246">
<path id="Vector_658" d="M105.6383,48.41l0.172,-6c0.49,0.3 1.102,0.37 1.665,0.13c0.906,-0.4 1.298,-1.45 0.906,-2.33c-0.392,-0.91 -1.445,-1.3 -2.326,-0.91c-0.049,0.03 -0.098,0.05 -0.147,0.08l0.073,-2.6c0,-0.32 -0.22,-0.59 -0.539,-0.66c-1.567,-0.29 -6.073,-0.69 -8.008,3.92c-0.147,0.34 0.025,0.76 0.392,0.88l1.837,0.64l-2.327,4.87c-0.881,1.84 -0.391,4.07 1.2,5.34c0.074,0.05 0.147,0.12 0.221,0.17c2.841,1.98 6.783,-0.05 6.881,-3.53z" fill="#926247"/>
<g id="Group_247">
<path id="Vector_659" d="M104.4393,39.72c0.123,-0.98 -0.563,-1.89 -1.567,-1.93c-0.465,-0.03 -0.465,0.71 0,0.73c0.49,0.02 0.931,0.51 0.857,1c-0.024,0.2 0.049,0.4 0.245,0.45c0.196,0.04 0.441,-0.05 0.465,-0.25z" fill="white"/>
</g>
<g id="Group_248">
<path id="Vector_660" d="M102.0873,36.46c-1.077,0.15 -2.13,0.32 -3.208,0.47c-0.245,0.05 -0.318,0.34 -0.22,0.54c0.171,0.36 0.343,0.73 0.514,1.1c0.196,0.42 0.833,0.05 0.637,-0.37c-0.172,-0.37 -0.343,-0.73 -0.514,-1.1c-0.074,0.17 -0.147,0.37 -0.221,0.54c1.078,-0.15 2.131,-0.32 3.208,-0.47c0.466,-0.05 0.27,-0.76 -0.196,-0.71z" fill="white"/>
</g>
<g id="Group_249">
<path id="Vector_661" d="M100.6413,39.67c-0.024,0.08 0.025,-0.02 -0.024,0.05c0.024,-0.05 0,0 -0.025,0.03c-0.024,0.02 0.025,0 -0.024,0.02c0.049,-0.02 -0.049,0.02 -0.049,0.02c-0.074,0.03 0,0 -0.025,0c-0.024,0 -0.073,0 -0.024,0c-0.074,0 0,0.03 -0.049,-0.02c0.049,0.02 -0.025,-0.02 -0.025,-0.05c-0.122,-0.15 -0.391,-0.12 -0.514,0c-0.147,0.15 -0.122,0.37 0,0.52c0.416,0.51 1.347,0.26 1.494,-0.37c0.073,-0.47 -0.637,-0.66 -0.735,-0.2z" fill="white"/>
</g>
<g id="Group_250">
<path id="Vector_662" d="M107.1803,40.48c-0.391,0 -0.783,0 -1.175,0c-0.465,0 -0.465,0.74 0,0.74c0.392,0 0.784,0 1.175,0c0.466,0 0.49,-0.74 0,-0.74z" fill="white"/>
</g>
</g>
</g>
</g></svg>