<svg viewBox="0 0 209.1208 131.0468" fill="none" xmlns="http://www.w3.org/2000/svg" xmlns:xlink="http://www.w3.org/1999/xlink" x="0" y="0"><g id="Group_171">
<path id="Vector_560" d="M70.0972,10.69c-1.55,0.87 -3.06,1.8 -4.55,2.77c-10.77,7.07 -21.22,13.85 -33.81,17.52c-11.9,3.47 -22.61,10.26 -27.4,21.85c-4.09,9.92 -3.26,20.89 -1.49,31.2c1.74,10.05 4.23,19.29 11.38,27.11c8.9,9.73 19.54,14.9 32.07,17.78c11.96,2.76 26.16,2.56 38.42,0.96c12.61,-1.66 24.69,-6.04 37.41,-7.1c7,-0.57 13.63,0.36 20.42,1.8c7.26,1.54 21.86,1.55 29.4,0.18c23.83,-4.32 32.36,-19.99 36.81,-41c0.95,-4.45 0,-18.24 -2.53,-23.3c-5.04,-10.05 -11.72,-15.31 -21.19,-20.41c-9.06,-4.9 -18.57,-10.1 -25.7,-17.74c-3.61,-3.88 -5.77,-8.96 -10,-12.21c-4.52,-3.47 -10.14,-5.32 -15.57,-6.97c-15.17,-4.58 -31.98,-3.91 -47.07,0.56c-5.83,1.71 -11.38,4.05 -16.6,7z" fill="white"/>
<path id="XMLID_1__5" d="M166.5572,61.61c-2.98,1.24 -5.97,0.99 -8.95,0.74c-13.7,-1.5 -27.63,-5.48 -40.58,-0.25c-9.2,3.49 -19.16,5.72 -28.62,2.73c-15.68,-5.22 -33.1,-7.96 -48.53,0.26c-3.98,2.24 -8.71,2.73 -12.94,1.49c-8.09,-2.57 -16.35,-7.01 -24.75,-6.38c-1.47,7.83 -0.68,16.02 0.67,23.83c1.73,10.05 4.22,19.29 11.37,27.11c8.9,9.73 19.55,14.9 32.07,17.78c11.96,2.76 26.16,2.56 38.42,0.96c12.61,-1.66 24.7,-6.04 37.42,-7.1c6.99,-0.57 13.62,0.36 20.41,1.8c7.26,1.54 21.86,1.55 29.4,0.18c23.83,-4.32 32.37,-19.99 36.81,-41c0.95,-4.45 0,-18.24 -2.53,-23.3c-0.22,-0.44 -0.44,-0.87 -0.67,-1.29c-2.01,-0.83 -4.04,-1.61 -6.14,-2.29c-11.46,-3.24 -22.41,0.75 -32.86,4.73z" fill="#60A5FA"/>
<g id="Group_172">
<path id="Vector_561" d="M0.6172,74.7c2.16,-2.76 5.97,-3.08 9.13,-2.14c3.71,1.11 6.8,3.61 10.34,5.1c3.13,1.33 6.26,1.64 9.47,0.44c3.15,-1.18 6.25,-3.42 9.78,-2.87c0.48,0.08 0.68,-0.66 0.2,-0.74c-3.27,-0.51 -6.11,1.13 -9,2.39c-1.96,0.85 -3.97,1.44 -6.11,1.21c-2.28,-0.25 -4.43,-1.22 -6.42,-2.29c-3.18,-1.72 -6.31,-3.91 -9.99,-4.4c-2.91,-0.38 -6.05,0.37 -7.92,2.75c-0.31,0.39 0.22,0.93 0.52,0.55z" fill="white"/>
</g>
<g id="Group_173">
<path id="Vector_562" d="M44.2472,74.26c2.67,-0.08 5.26,0.34 7.76,1.28c0.46,0.17 0.67,-0.57 0.21,-0.74c-2.57,-0.95 -5.24,-1.39 -7.98,-1.3c-0.49,0.02 -0.49,0.78 0.01,0.76z" fill="white"/>
</g>
<g id="Group_174">
<path id="Vector_563" d="M44.0572,83.14c2.12,1.45 4.32,2.87 6.78,3.67c2.53,0.83 5.18,0.77 7.78,0.25c5.79,-1.16 11.57,-4.59 17.6,-2.72c0.47,0.14 0.67,-0.6 0.2,-0.74c-5.34,-1.66 -10.57,0.72 -15.66,2.15c-2.89,0.81 -5.92,1.33 -8.88,0.57c-2.74,-0.7 -5.13,-2.28 -7.44,-3.84c-0.41,-0.28 -0.79,0.38 -0.38,0.66z" fill="white"/>
</g>
<g id="Group_175">
<path id="Vector_564" d="M103.8272,79.99c2.89,0.72 5.86,1.43 8.87,1.4c2.94,-0.02 5.45,-0.92 7.88,-2.53c2.59,-1.71 5.23,-3 8.34,-3.42c3.14,-0.42 6.31,0.02 9.23,1.25c0.45,0.19 0.66,-0.56 0.2,-0.74c-5.11,-2.14 -11.11,-1.86 -15.97,0.87c-1.26,0.71 -2.4,1.6 -3.66,2.32c-1.53,0.86 -3.2,1.32 -4.95,1.46c-3.28,0.27 -6.57,-0.54 -9.74,-1.33c-0.48,-0.13 -0.69,0.6 -0.2,0.72z" fill="white"/>
</g>
<g id="Group_176">
<path id="Vector_565" d="M196.0172,72.49c2.43,1.18 4.94,2.15 7.53,2.91c0.47,0.14 0.67,-0.61 0.2,-0.74c-2.53,-0.74 -4.98,-1.68 -7.35,-2.83c-0.43,-0.21 -0.83,0.45 -0.38,0.66z" fill="white"/>
</g>
<g id="Group_177">
<path id="Vector_566" d="M129.7572,95.51c2.3,0.59 4.48,-0.25 6.49,-1.35c1.29,-0.7 2.54,-1.49 3.93,-1.96c1.49,-0.51 3.07,-0.52 4.62,-0.24c2.64,0.47 5.1,1.63 7.65,2.42c2.65,0.81 5.38,1.18 8.15,1.17c0.49,0 0.49,-0.77 0,-0.77c-2.85,0.01 -5.65,-0.41 -8.37,-1.28c-2.54,-0.82 -5,-1.96 -7.66,-2.35c-2.24,-0.33 -4.31,0.04 -6.33,1.05c-2.6,1.3 -5.2,3.36 -8.28,2.58c-0.48,-0.13 -0.68,0.61 -0.2,0.73z" fill="white"/>
</g>
<g id="Group_178" opacity="0.47">
<path id="Vector_567" d="M144.4272,48.89c1.95,-2.19 3.75,-4.19 6.01,-5.78c0.83,-0.58 2.12,-1.03 3.03,-0.67c0.9,0.36 1.44,2.11 0.68,2.85c1.56,-1.87 2.99,-3.81 5,-4.69c1.39,-0.61 3.15,-0.64 4.39,0.38c1.24,1.02 1.38,3.31 0.61,4.97c1.68,-1.57 3.22,-2.56 5.09,-2.54c3.1,0.03 3.98,3.17 3.79,5.58z" fill="#E7E5E4"/>
</g>
<g id="Group_179" opacity="0.47">
<path id="Vector_568" d="M126.9472,15.19c1.25,-1.39 2.39,-2.68 3.84,-3.69c0.54,-0.38 1.36,-0.66 1.93,-0.43c0.58,0.22 0.92,1.34 0.44,1.82c0.99,-1.2 1.9,-2.44 3.19,-3c0.89,-0.38 2.01,-0.4 2.8,0.25c0.8,0.65 0.89,2.1 0.39,3.17c1.07,-1.01 2.06,-1.64 3.25,-1.63c1.98,0.02 2.54,2.03 2.42,3.57z" fill="#E7E5E4"/>
</g>
<g id="Group_180" opacity="0.47">
<path id="Vector_569" d="M15.6672,52.16c1.25,-1.38 2.39,-2.67 3.84,-3.68c0.53,-0.38 1.35,-0.66 1.93,-0.44c0.58,0.23 0.92,1.35 0.44,1.82c0.99,-1.19 1.9,-2.43 3.19,-2.99c0.89,-0.38 2.01,-0.4 2.8,0.24c0.8,0.66 0.89,2.11 0.39,3.17c1.07,-1 2.06,-1.64 3.25,-1.62c1.98,0.02 2.54,2.02 2.42,3.56z" fill="#E7E5E4"/>
</g>
<g id="Group_181" opacity="0.47">
<path id="Vector_570" d="M110.0772,29.57c1.55,-1.74 3,-3.35 4.81,-4.62c0.67,-0.47 1.69,-0.83 2.42,-0.54c0.73,0.28 1.16,1.69 0.55,2.28c1.26,-1.5 2.4,-3.05 4.01,-3.76c1.11,-0.48 2.52,-0.51 3.51,0.31c1,0.82 1.11,2.65 0.49,3.98c1.34,-1.25 2.58,-2.04 4.08,-2.03c2.48,0.03 3.19,2.54 3.03,4.48z" fill="#E7E5E4"/>
</g>
<g id="Group_182">
<path id="Vector_571" d="M65.3072,102.49c1.9,-1.05 4,-1.58 6.18,-1.52c2.42,0.08 4.27,1 6.39,2.05c3,1.48 6.54,1.18 9.21,-0.85c0.39,-0.29 0.01,-0.96 -0.38,-0.66c-1.58,1.19 -3.48,1.81 -5.47,1.68c-2.18,-0.14 -3.82,-1.46 -5.8,-2.21c-3.44,-1.3 -7.32,-0.92 -10.53,0.86c-0.42,0.23 -0.04,0.89 0.4,0.65z" fill="white"/>
</g>
<g id="Group_183">
<path id="Vector_572" d="M118.1772,113.58c1.78,-0.75 3.64,-1.54 5.59,-1.7c1.9,-0.16 3.65,0.43 5.38,1.13c2.69,1.08 5.47,2.2 8.31,1c0.45,-0.19 0.06,-0.85 -0.39,-0.66c-3.53,1.49 -6.95,-1.12 -10.27,-1.96c-3.16,-0.81 -6.11,0.3 -9.01,1.53c-0.45,0.19 -0.06,0.85 0.39,0.66z" fill="white"/>
</g>
<g id="Group_184">
<path id="Vector_573" d="M43.4672,119.89c2.69,1.28 5.73,1.64 8.62,0.89c1.59,-0.42 2.99,-1.31 4.56,-1.76c1.91,-0.55 3.88,-0.49 5.78,0.04c0.48,0.14 0.68,-0.6 0.2,-0.73c-2.97,-0.85 -5.7,-0.38 -8.47,0.87c-3.34,1.5 -6.97,1.63 -10.31,0.04c-0.44,-0.22 -0.82,0.44 -0.38,0.65z" fill="white"/>
</g>
<g id="Group_185">
<path id="Vector_574" d="M161.7472,75.92c2.69,1.28 5.73,1.64 8.62,0.89c1.59,-0.42 2.98,-1.3 4.56,-1.75c1.9,-0.56 3.88,-0.5 5.78,0.04c0.47,0.13 0.67,-0.61 0.2,-0.74c-2.97,-0.84 -5.71,-0.38 -8.48,0.87c-3.33,1.51 -6.96,1.63 -10.31,0.04c-0.43,-0.21 -0.82,0.45 -0.37,0.65z" fill="white"/>
</g>
<g id="Group_186">
<path id="Vector_575" d="M182.3172,98.33c1.18,-1 2.69,-1.18 4.18,-1.2c1.3,-0.02 2.72,-0.05 3.96,0.38c1.8,0.62 3.2,3.74 5.39,2.51c0.43,-0.24 0.04,-0.9 -0.39,-0.66c-1.45,0.81 -2.76,-1.56 -3.82,-2.17c-1.03,-0.59 -2.25,-0.74 -3.4,-0.8c-2.23,-0.11 -4.68,-0.12 -6.46,1.4c-0.37,0.32 0.17,0.86 0.54,0.54z" fill="white"/>
</g>
<path id="Vector_576" d="M64.6472,15.2l-2.77,1.51c-1.69,1.26 -1.47,1.67 -1.85,3.75l-0.97,6.17c-0.04,0.21 -0.34,0.21 -0.37,0l-0.96,-6.13c-0.39,-2.07 -0.34,-2.52 -2.02,-3.78l-2.63,-1.51c-0.1,-0.08 -0.1,-0.23 0,-0.31l2.98,-1.42c1.66,-1.26 1.56,-2.1 1.94,-4.15l0.69,-5.83c0.04,-0.21 0.33,-0.21 0.37,0l0.8,6.04c0.37,2.04 0.59,2.89 2.23,4.16l2.57,1.2c0.09,0.07 0.09,0.22 -0.01,0.3z" fill="#93C5FD"/>
<path id="Vector_577" d="M50.3672,38.69l-2.28,1.24c-1.38,1.03 -1.19,1.36 -1.51,3.06l-0.79,5.04c-0.04,0.17 -0.28,0.17 -0.31,0l-0.78,-5.02c-0.31,-1.69 -0.28,-2.05 -1.65,-3.09l-2.15,-1.24c-0.08,-0.06 -0.08,-0.18 0,-0.24l2.44,-1.16c1.36,-1.04 1.27,-1.73 1.58,-3.41l0.56,-4.76c0.04,-0.17 0.28,-0.17 0.31,0l0.65,4.93c0.3,1.67 0.47,2.37 1.82,3.4l2.11,0.99c0.08,0.08 0.08,0.19 0,0.26z" fill="#93C5FD"/>
<path id="Vector_578" d="M89.4272,22.9l-2.06,1.13c-1.26,0.94 -1.09,1.25 -1.38,2.79l-0.72,4.58c-0.03,0.15 -0.25,0.15 -0.28,0l-0.71,-4.56c-0.28,-1.53 -0.25,-1.87 -1.49,-2.81l-1.96,-1.13c-0.08,-0.06 -0.08,-0.17 0,-0.22l2.21,-1.06c1.23,-0.94 1.16,-1.56 1.44,-3.09l0.51,-4.34c0.03,-0.15 0.25,-0.15 0.28,0l0.59,4.5c0.28,1.52 0.44,2.15 1.66,3.09l1.91,0.9c0.08,0.05 0.08,0.16 0,0.22z" fill="#93C5FD"/>
<path id="Vector_579" d="M168.2772,22.31c3.25,4.26 8.35,8.06 11.4,9.93c3.71,2.29 16.88,6.89 19.03,0.19c0.33,-1.02 -0.15,-2.15 -0.9,-2.91c-0.75,-0.75 -1.74,-1.22 -2.7,-1.69c-7.33,-3.71 -13.59,-9.18 -20.09,-14.19c-1.52,-1.16 -3.14,-2.35 -5.03,-2.62c-1.89,-0.26 -4.1,0.71 -4.54,2.57c-0.66,2.82 0.68,5.87 2.83,8.72z" fill="white"/>
<path id="Vector_580" d="M12.4872,31.97c2,0.36 4.24,0.25 5.73,0c3.54,-0.6 19.67,-8.1 13.47,-13.56c-1.23,-1.09 -3.11,-0.78 -4.7,-0.38c-4.38,1.11 -8.68,2.49 -12.9,4.13c-1.93,0.74 -4.86,1.97 -5.65,4.09c-1.38,3.64 1.07,5.2 4.05,5.72z" fill="white"/>
</g></svg>