<svg viewBox="0 0 16.6667 15.4915" fill="none" xmlns="http://www.w3.org/2000/svg" xmlns:xlink="http://www.w3.org/1999/xlink" x="0" y="0"><g id="Vector_752">
<path d="M12.5,5.83h-8.333v-1.66h8.333z" fill="currentColor"/>
<path d="M4.167,9.17h5v-1.67h-5z" fill="currentColor"/>
<path fill-rule="evenodd" clip-rule="evenodd" d="M0,7.5c0,-4.14 3.358,-7.5 7.5,-7.5h2.5c3.682,0 6.667,2.98 6.667,6.67c0,3.68 -2.985,6.66 -6.667,6.66h-4.453c-0.663,0 -1.299,0.27 -1.767,0.74l-0.935,0.93c-1.05,1.05 -2.845,0.31 -2.845,-1.18zM7.5,1.67c-3.222,0 -5.833,2.61 -5.833,5.83v6.32l0.934,-0.93c0.781,-0.78 1.841,-1.22 2.946,-1.22h4.453c2.761,0 5,-2.24 5,-5c0,-2.76 -2.239,-5 -5,-5z" fill="currentColor"/>
</g></svg>