<svg viewBox="0 0 96 96" fill="none" xmlns="http://www.w3.org/2000/svg" xmlns:xlink="http://www.w3.org/1999/xlink" x="0" y="0"><defs><clipPath id="clip7_3_22">
<rect x="0" y="0" width="96" height="96" rx="48" fill="white"/>
</clipPath></defs><g id="Superego microsope">
<g clip-path="url(#clip7_3_22)">
<rect x="0" y="0" width="96" height="96" rx="48" fill="#E5EAD7"/>
<rect id="Vector_66" x="31.072000000000003" y="9.610000000000127" width="16" height="24" transform="rotate(30, 31.072000000000003, 9.610000000000127)" fill="#9BB068"/>
<path id="Vector Stroke_5" fill-rule="evenodd" clip-rule="evenodd" d="M64.9,20.83c-5.07,-3.16 -10.93,-4.83 -16.9,-4.83v-16c8.96,0 17.74,2.51 25.35,7.24c7.61,4.73 13.74,11.5 17.7,19.53c3.96,8.04 5.6,17.02 4.72,25.93c-0.88,8.92 -4.24,17.41 -9.69,24.52c-5.45,7.11 -12.79,12.55 -21.17,15.7c-8.39,3.16 -17.488,3.91 -26.274,2.16c-8.787,-1.75 -16.91,-5.92 -23.449,-12.05c-6.538,-6.12 -11.233,-13.95 -13.552,-22.61l15.455,-4.14c1.546,5.77 4.676,10.99 9.035,15.08c4.359,4.08 9.774,6.86 15.632,8.03c5.858,1.16 11.923,0.66 17.513,-1.44c5.59,-2.1 10.48,-5.73 14.12,-10.47c3.63,-4.74 5.87,-10.4 6.46,-16.34c0.58,-5.95 -0.51,-11.94 -3.15,-17.29c-2.64,-5.36 -6.73,-9.87 -11.8,-13.02z" fill="#9BB068"/>
<rect id="Vector_67" x="42.144000000000005" y="-24.7800000000002" width="32" height="48" transform="rotate(30, 42.144000000000005, -24.7800000000002)" fill="#4B3425"/>
<rect id="Vector_68" x="-4" y="52" width="40" height="16" fill="#4B3425"/>
</g>
</g></svg>