<svg viewBox="0 0 16.6667 16.6667" fill="none" xmlns="http://www.w3.org/2000/svg" xmlns:xlink="http://www.w3.org/1999/xlink" x="0" y="0"><path id="Vector_186" fill-rule="evenodd" clip-rule="evenodd" d="M0,8.3333c0,-4.6 3.731,-8.33 8.333,-8.33c4.603,0 8.334,3.73 8.334,8.33c0,4.6 -3.731,8.33 -8.334,8.33c-4.602,0 -8.333,-3.73 -8.333,-8.33zM4.339,8.9233l1.078,-1.08l1.077,1.08l1.179,-1.18l-1.078,-1.08l1.078,-1.07l-1.179,-1.18l-1.077,1.07l-1.078,-1.07l-1.178,1.18l1.077,1.07l-1.077,1.08zM10.173,8.9233l1.077,-1.08l1.077,1.08l1.179,-1.18l-1.078,-1.08l1.078,-1.07l-1.179,-1.18l-1.077,1.07l-1.077,-1.07l-1.179,1.18l1.077,1.07l-1.077,1.08zM8.333,13.3333c0.921,0 1.667,-0.75 1.667,-1.67c0,-0.92 -0.746,-1.66 -1.667,-1.66c-0.92,0 -1.666,0.74 -1.666,1.66c0,0.92 0.746,1.67 1.666,1.67z" fill="currentColor"/></svg>