<svg viewBox="0 0 20 20" fill="none" xmlns="http://www.w3.org/2000/svg" xmlns:xlink="http://www.w3.org/1999/xlink" x="0" y="0"><g id="Mood Illustration_2">
<rect x="0" y="0" width="20" height="20" rx="10" fill="#C084FC"/>
<path id="Vector_451" fill-rule="evenodd" clip-rule="evenodd" d="M12.74,5.24c0.33,-0.32 0.86,-0.32 1.18,0l2.5,2.5c0.33,0.33 0.33,0.86 0,1.18c-0.32,0.33 -0.85,0.33 -1.18,0l-2.5,-2.5c-0.32,-0.32 -0.32,-0.85 0,-1.18z" fill="#6B21A8"/>
<path id="Vector_452" fill-rule="evenodd" clip-rule="evenodd" d="M16.42,5.24c0.33,0.33 0.33,0.86 0,1.18l-2.5,2.5c-0.32,0.33 -0.85,0.33 -1.17,0c-0.33,-0.32 -0.33,-0.85 0,-1.18l2.5,-2.5c0.32,-0.32 0.85,-0.32 1.17,0z" fill="#6B21A8"/>
<path id="Vector_453" fill-rule="evenodd" clip-rule="evenodd" d="M3.58,5.24c0.32,-0.32 0.85,-0.32 1.17,0l2.5,2.5c0.33,0.33 0.33,0.86 0,1.18c-0.32,0.33 -0.85,0.33 -1.17,0l-2.5,-2.5c-0.33,-0.32 -0.33,-0.85 0,-1.18z" fill="#6B21A8"/>
<path id="Vector_454" fill-rule="evenodd" clip-rule="evenodd" d="M7.26,5.24c0.32,0.33 0.32,0.86 0,1.18l-2.5,2.5c-0.33,0.33 -0.86,0.33 -1.18,0c-0.33,-0.32 -0.33,-0.85 0,-1.18l2.5,-2.5c0.32,-0.32 0.85,-0.32 1.18,0z" fill="#6B21A8"/>
<path id="Vector_455" fill-rule="evenodd" clip-rule="evenodd" d="M6.96,11.87c0.87,-0.67 1.94,-1.04 3.04,-1.04c1.1,0 2.17,0.37 3.05,1.04c0.87,0.67 1.5,1.61 1.78,2.67c0.12,0.44 -0.14,0.9 -0.59,1.02c-0.44,0.12 -0.9,-0.14 -1.02,-0.59c-0.19,-0.71 -0.61,-1.33 -1.19,-1.78c-0.58,-0.45 -1.29,-0.69 -2.03,-0.69c-0.73,0 -1.44,0.24 -2.03,0.69c-0.58,0.45 -1,1.07 -1.19,1.78c-0.12,0.45 -0.57,0.71 -1.02,0.59c-0.44,-0.12 -0.71,-0.58 -0.59,-1.02c0.29,-1.06 0.92,-2 1.79,-2.67z" fill="#6B21A8"/>
</g></svg>