<svg viewBox="0 0 16.6667 16.6667" fill="none" xmlns="http://www.w3.org/2000/svg" xmlns:xlink="http://www.w3.org/1999/xlink" x="0" y="0"><path id="Vector_187" fill-rule="evenodd" clip-rule="evenodd" d="M0,8.3333c0,-4.6 3.731,-8.33 8.333,-8.33c4.603,0 8.334,3.73 8.334,8.33c0,4.6 -3.731,8.33 -8.334,8.33c-4.602,0 -8.333,-3.73 -8.333,-8.33zM5.417,7.5033c0.69,0 1.25,-0.56 1.25,-1.25c0,-0.69 -0.56,-1.25 -1.25,-1.25c-0.691,0 -1.25,0.56 -1.25,1.25c0,0.69 0.559,1.25 1.25,1.25zM12.5,6.2533c0,0.69 -0.56,1.25 -1.25,1.25c-0.69,0 -1.25,-0.56 -1.25,-1.25c0,-0.69 0.56,-1.25 1.25,-1.25c0.69,0 1.25,0.56 1.25,1.25zM4.756,10.2433c0.135,0.14 0.353,0.14 0.488,0c0.786,-0.78 2.06,-0.78 2.845,0c0.135,0.14 0.354,0.14 0.488,0c0.786,-0.78 2.06,-0.78 2.846,0c0.134,0.14 0.353,0.14 0.488,0l0.416,-0.42l1.179,1.18l-0.417,0.42c-0.785,0.78 -2.059,0.78 -2.845,0c-0.135,-0.14 -0.353,-0.14 -0.488,0c-0.786,0.78 -2.06,0.78 -2.845,0c-0.135,-0.14 -0.354,-0.14 -0.488,0c-0.786,0.78 -2.06,0.78 -2.846,0l-0.416,-0.42l1.178,-1.18z" fill="currentColor"/></svg>