<svg viewBox="0 0 20 20" fill="none" xmlns="http://www.w3.org/2000/svg" xmlns:xlink="http://www.w3.org/1999/xlink" x="0" y="0"><g id="Mood Illustration_5">
<rect x="0" y="0" width="20" height="20" rx="10" fill="#FBBF24"/>
<path id="Vector_462" fill-rule="evenodd" clip-rule="evenodd" d="M15,5.83c0.46,0 0.83,0.38 0.83,0.84v2.5c0,0.46 -0.37,0.83 -0.83,0.83c-0.46,0 -0.83,-0.37 -0.83,-0.83v-2.5c0,-0.46 0.37,-0.84 0.83,-0.84z" fill="#92400E"/>
<path id="Vector_463" fill-rule="evenodd" clip-rule="evenodd" d="M5,5.83c0.46,0 0.83,0.38 0.83,0.84v2.5c0,0.46 -0.37,0.83 -0.83,0.83c-0.46,0 -0.83,-0.37 -0.83,-0.83v-2.5c0,-0.46 0.37,-0.84 0.83,-0.84z" fill="#92400E"/>
<path id="Vector_464" fill-rule="evenodd" clip-rule="evenodd" d="M14.24,11.94c0.45,0.12 0.71,0.58 0.59,1.02c-0.28,1.06 -0.91,2 -1.78,2.67c-0.88,0.67 -1.95,1.04 -3.05,1.04c-1.1,0 -2.17,-0.37 -3.04,-1.04c-0.87,-0.67 -1.5,-1.61 -1.79,-2.67c-0.12,-0.44 0.15,-0.9 0.59,-1.02c0.45,-0.12 0.9,0.14 1.02,0.59c0.19,0.71 0.61,1.33 1.19,1.78c0.59,0.45 1.3,0.69 2.03,0.69c0.74,0 1.45,-0.24 2.03,-0.69c0.58,-0.45 1,-1.07 1.19,-1.78c0.12,-0.45 0.58,-0.71 1.02,-0.59z" fill="#92400E"/>
</g></svg>