<svg viewBox="0 0 16.6667 16.6667" fill="none" xmlns="http://www.w3.org/2000/svg" xmlns:xlink="http://www.w3.org/1999/xlink" x="0" y="0"><path id="Vector_184" fill-rule="evenodd" clip-rule="evenodd" d="M0,8.3333c0,-4.6 3.731,-8.33 8.333,-8.33c4.603,0 8.334,3.73 8.334,8.33c0,4.6 -3.731,8.33 -8.334,8.33c-4.602,0 -8.333,-3.73 -8.333,-8.33zM5.417,7.5033c0.69,0 1.25,-0.56 1.25,-1.25c0,-0.69 -0.56,-1.25 -1.25,-1.25c-0.691,0 -1.25,0.56 -1.25,1.25c0,0.69 0.559,1.25 1.25,1.25zM12.5,6.2533c0,0.69 -0.56,1.25 -1.25,1.25c-0.69,0 -1.25,-0.56 -1.25,-1.25c0,-0.69 0.56,-1.25 1.25,-1.25c0.69,0 1.25,0.56 1.25,1.25zM5,10.0033v1.66h6.667v-1.66z" fill="currentColor"/></svg>