<svg viewBox="0 0 20 20" fill="none" xmlns="http://www.w3.org/2000/svg" xmlns:xlink="http://www.w3.org/1999/xlink" x="0" y="0"><g id="Mood Illustration_4">
<rect x="0" y="0" width="20" height="20" rx="10" fill="#B1865E"/>
<path id="Vector_459" fill-rule="evenodd" clip-rule="evenodd" d="M15,5.83c0.46,0 0.83,0.38 0.83,0.84v2.5c0,0.46 -0.37,0.83 -0.83,0.83c-0.46,0 -0.83,-0.37 -0.83,-0.83v-2.5c0,-0.46 0.37,-0.84 0.83,-0.84z" fill="#533630"/>
<path id="Vector_460" fill-rule="evenodd" clip-rule="evenodd" d="M5,5.83c0.46,0 0.83,0.38 0.83,0.84v2.5c0,0.46 -0.37,0.83 -0.83,0.83c-0.46,0 -0.83,-0.37 -0.83,-0.83v-2.5c0,-0.46 0.37,-0.84 0.83,-0.84z" fill="#533630"/>
<path id="Vector_461" fill-rule="evenodd" clip-rule="evenodd" d="M4.17,13.33c0,-0.46 0.37,-0.83 0.83,-0.83h10c0.46,0 0.83,0.37 0.83,0.83c0,0.46 -0.37,0.84 -0.83,0.84h-10c-0.46,0 -0.83,-0.38 -0.83,-0.84z" fill="#533630"/>
</g></svg>