<svg viewBox="0 0 16.6667 16.6667" fill="none" xmlns="http://www.w3.org/2000/svg" xmlns:xlink="http://www.w3.org/1999/xlink" x="0" y="0"><path id="Vector_183" fill-rule="evenodd" clip-rule="evenodd" d="M0,8.3333c0,-4.6 3.731,-8.33 8.333,-8.33c4.603,0 8.334,3.73 8.334,8.33c0,4.6 -3.731,8.33 -8.334,8.33c-4.602,0 -8.333,-3.73 -8.333,-8.33zM5.417,5.0033c-0.663,0 -1.299,0.26 -1.768,0.73c-0.469,0.47 -0.732,1.1 -0.732,1.77h1.666c0,-0.22 0.088,-0.44 0.244,-0.59c0.157,-0.16 0.369,-0.25 0.59,-0.25c0.221,0 0.433,0.09 0.589,0.25c0.156,0.15 0.244,0.37 0.244,0.59h1.667c0,-0.67 -0.264,-1.3 -0.733,-1.77c-0.468,-0.47 -1.104,-0.73 -1.767,-0.73zM9.482,5.7333c0.469,-0.47 1.105,-0.73 1.768,-0.73c0.663,0 1.299,0.26 1.768,0.73c0.469,0.47 0.732,1.1 0.732,1.77h-1.667c0,-0.22 -0.087,-0.44 -0.244,-0.59c-0.156,-0.16 -0.368,-0.25 -0.589,-0.25c-0.221,0 -0.433,0.09 -0.589,0.25c-0.157,0.15 -0.244,0.37 -0.244,0.59h-1.667c0,-0.67 0.263,-1.3 0.732,-1.77zM11.377,12.3033c0.873,-0.67 1.501,-1.61 1.786,-2.68l-1.61,-0.43c-0.19,0.71 -0.608,1.34 -1.19,1.78c-0.583,0.45 -1.296,0.69 -2.03,0.69c-0.733,0 -1.447,-0.24 -2.029,-0.69c-0.582,-0.44 -1.001,-1.07 -1.19,-1.78l-1.61,0.43c0.285,1.07 0.912,2.01 1.785,2.68c0.874,0.67 1.944,1.03 3.044,1.03c1.101,0 2.171,-0.36 3.044,-1.03z" fill="currentColor"/></svg>