<svg viewBox="0 0 20 20" fill="none" xmlns="http://www.w3.org/2000/svg" xmlns:xlink="http://www.w3.org/1999/xlink" x="0" y="0"><g id="Vector_311">
<path d="M13,14.2c0.91,-0.53 1.67,-1.29 2.2,-2.2l-1.74,-1c-0.35,0.61 -0.85,1.11 -1.46,1.46c-0.61,0.36 -1.3,0.54 -2,0.54c-0.7,0 -1.39,-0.18 -2,-0.54c-0.61,-0.35 -1.11,-0.85 -1.46,-1.46l-1.74,1c0.53,0.91 1.29,1.67 2.2,2.2c0.91,0.52 1.95,0.8 3,0.8c1.05,0 2.09,-0.28 3,-0.8z" fill="currentColor"/>
<path d="M8,7.5c0,0.83 -0.67,1.5 -1.5,1.5c-0.83,0 -1.5,-0.67 -1.5,-1.5c0,-0.83 0.67,-1.5 1.5,-1.5c0.83,0 1.5,0.67 1.5,1.5z" fill="currentColor"/>
<path d="M13.5,9c0.83,0 1.5,-0.67 1.5,-1.5c0,-0.83 -0.67,-1.5 -1.5,-1.5c-0.83,0 -1.5,0.67 -1.5,1.5c0,0.83 0.67,1.5 1.5,1.5z" fill="currentColor"/>
<path fill-rule="evenodd" clip-rule="evenodd" d="M10,0c-5.52,0 -10,4.48 -10,10c0,5.52 4.48,10 10,10c5.52,0 10,-4.48 10,-10c0,-5.52 -4.48,-10 -10,-10zM2,10c0,-4.42 3.58,-8 8,-8c4.42,0 8,3.58 8,8c0,4.42 -3.58,8 -8,8c-4.42,0 -8,-3.58 -8,-8z" fill="currentColor"/>
</g></svg>