<svg viewBox="0 0 20 20" fill="none" xmlns="http://www.w3.org/2000/svg" xmlns:xlink="http://www.w3.org/1999/xlink" x="0" y="0"><g id="Mood Illustration_6">
<rect x="0" y="0" width="20" height="20" rx="10" fill="#9BB167"/>
<path id="Vector_465" fill-rule="evenodd" clip-rule="evenodd" d="M13.21,6.86c0.3,-0.13 0.63,-0.19 0.96,-0.19c0.33,0 0.65,0.06 0.95,0.19c0.31,0.12 0.58,0.31 0.82,0.54c0.23,0.23 0.41,0.51 0.54,0.81c0.12,0.3 0.19,0.63 0.19,0.96c0,0.46 -0.38,0.83 -0.84,0.83c-0.46,0 -0.83,-0.37 -0.83,-0.83c0,-0.11 -0.02,-0.22 -0.06,-0.32c-0.04,-0.1 -0.11,-0.2 -0.18,-0.27c-0.08,-0.08 -0.17,-0.14 -0.27,-0.18c-0.1,-0.05 -0.21,-0.07 -0.32,-0.07c-0.11,0 -0.22,0.02 -0.32,0.07c-0.1,0.04 -0.19,0.1 -0.27,0.18c-0.08,0.07 -0.14,0.17 -0.18,0.27c-0.04,0.1 -0.07,0.21 -0.07,0.32c0,0.46 -0.37,0.83 -0.83,0.83c-0.46,0 -0.83,-0.37 -0.83,-0.83c0,-0.33 0.06,-0.66 0.19,-0.96c0.12,-0.3 0.31,-0.58 0.54,-0.81c0.23,-0.23 0.51,-0.42 0.81,-0.54z" fill="#3F4B29"/>
<path id="Vector_466" fill-rule="evenodd" clip-rule="evenodd" d="M14.24,11.94c0.45,0.12 0.71,0.58 0.59,1.02c-0.28,1.06 -0.91,2 -1.78,2.67c-0.88,0.67 -1.95,1.04 -3.05,1.04c-1.1,0 -2.17,-0.37 -3.04,-1.04c-0.87,-0.67 -1.5,-1.61 -1.79,-2.67c-0.12,-0.44 0.15,-0.9 0.59,-1.02c0.45,-0.12 0.9,0.14 1.02,0.59c0.19,0.71 0.61,1.33 1.19,1.78c0.59,0.45 1.3,0.69 2.03,0.69c0.74,0 1.45,-0.24 2.03,-0.69c0.58,-0.45 1,-1.07 1.19,-1.78c0.12,-0.45 0.58,-0.71 1.02,-0.59z" fill="#3F4B29"/>
<path id="Vector_467" fill-rule="evenodd" clip-rule="evenodd" d="M4.88,6.86c0.3,-0.13 0.62,-0.19 0.95,-0.19c0.33,0 0.66,0.06 0.96,0.19c0.3,0.12 0.58,0.31 0.81,0.54c0.23,0.23 0.42,0.51 0.54,0.81c0.13,0.3 0.19,0.63 0.19,0.96c0,0.46 -0.37,0.83 -0.83,0.83c-0.46,0 -0.83,-0.37 -0.83,-0.83c0,-0.11 -0.03,-0.22 -0.07,-0.32c-0.04,-0.1 -0.1,-0.2 -0.18,-0.27c-0.08,-0.08 -0.17,-0.14 -0.27,-0.18c-0.1,-0.05 -0.21,-0.07 -0.32,-0.07c-0.11,0 -0.22,0.02 -0.32,0.07c-0.1,0.04 -0.19,0.1 -0.27,0.18c-0.07,0.07 -0.14,0.17 -0.18,0.27c-0.04,0.1 -0.06,0.21 -0.06,0.32c0,0.46 -0.37,0.83 -0.83,0.83c-0.46,0 -0.84,-0.37 -0.84,-0.83c0,-0.33 0.07,-0.66 0.19,-0.96c0.13,-0.3 0.31,-0.58 0.54,-0.81c0.24,-0.23 0.51,-0.42 0.82,-0.54z" fill="#3F4B29"/>
</g></svg>