<svg viewBox="0 0 16.6667 16.6667" fill="none" xmlns="http://www.w3.org/2000/svg" xmlns:xlink="http://www.w3.org/1999/xlink" x="0" y="0"><path id="Vector_188" fill-rule="evenodd" clip-rule="evenodd" d="M0,8.3333c0,-4.6 3.731,-8.33 8.333,-8.33c4.603,0 8.334,3.73 8.334,8.33c0,4.6 -3.731,8.33 -8.334,8.33c-4.602,0 -8.333,-3.73 -8.333,-8.33zM10.833,11.8333c0.76,-0.44 1.392,-1.07 1.83,-1.83l-1.443,-0.84c-0.293,0.51 -0.713,0.93 -1.22,1.22c-0.507,0.3 -1.082,0.45 -1.667,0.45c-0.585,0 -1.16,-0.15 -1.666,-0.45c-0.507,-0.29 -0.928,-0.71 -1.22,-1.22l-1.444,0.84c0.439,0.76 1.07,1.39 1.83,1.83c0.76,0.44 1.623,0.67 2.5,0.67c0.878,0 1.74,-0.23 2.5,-0.67zM6.667,6.2533c0,0.69 -0.56,1.25 -1.25,1.25c-0.691,0 -1.25,-0.56 -1.25,-1.25c0,-0.69 0.559,-1.25 1.25,-1.25c0.69,0 1.25,0.56 1.25,1.25zM11.25,7.5033c0.69,0 1.25,-0.56 1.25,-1.25c0,-0.69 -0.56,-1.25 -1.25,-1.25c-0.69,0 -1.25,0.56 -1.25,1.25c0,0.69 0.56,1.25 1.25,1.25z" fill="currentColor"/></svg>