<svg viewBox="0 0 782 424" fill="none" xmlns="http://www.w3.org/2000/svg" xmlns:xlink="http://www.w3.org/1999/xlink" x="0" y="0"><defs><filter id="filter27_dd_10723_18403" x="12" y="12" width="104" height="104" filterUnits="userSpaceOnUse" color-interpolation-filters="sRGB">
<feFlood flood-opacity="0" result="BackgroundImageFix"/>
<feColorMatrix in="SourceAlpha" type="matrix" values="0 0 0 0 0 0 0 0 0 0 0 0 0 0 0 0 0 0 127 0" result="hardAlpha"/>
<feMorphology radius="2" operator="erode" in="SourceAlpha" result="effect1_dropShadow_10723_18403"/>
<feOffset dy="4"/>
<feGaussianBlur stdDeviation="3"/>
<feColorMatrix type="matrix" values="0 0 0 0 0.160784 0 0 0 0 0.145098 0 0 0 0 0.141176 0 0 0 0.03 0"/>
<feBlend mode="normal" in2="BackgroundImageFix" result="effect1_dropShadow_10723_18403"/>
<feColorMatrix in="SourceAlpha" type="matrix" values="0 0 0 0 0 0 0 0 0 0 0 0 0 0 0 0 0 0 127 0" result="hardAlpha"/>
<feMorphology radius="4" operator="erode" in="SourceAlpha" result="effect2_dropShadow_10723_18403"/>
<feOffset dy="12"/>
<feGaussianBlur stdDeviation="8"/>
<feColorMatrix type="matrix" values="0 0 0 0 0.160784 0 0 0 0 0.145098 0 0 0 0 0.141176 0 0 0 0.08 0"/>
<feBlend mode="normal" in2="effect1_dropShadow_10723_18403" result="effect2_dropShadow_10723_18403"/>
<feBlend mode="normal" in="SourceGraphic" in2="effect2_dropShadow_10723_18403" result="shape"/>
</filter><filter id="filter28_dd_10723_18403" x="78" y="92" width="104" height="104" filterUnits="userSpaceOnUse" color-interpolation-filters="sRGB">
<feFlood flood-opacity="0" result="BackgroundImageFix"/>
<feColorMatrix in="SourceAlpha" type="matrix" values="0 0 0 0 0 0 0 0 0 0 0 0 0 0 0 0 0 0 127 0" result="hardAlpha"/>
<feMorphology radius="2" operator="erode" in="SourceAlpha" result="effect1_dropShadow_10723_18403"/>
<feOffset dy="4"/>
<feGaussianBlur stdDeviation="3"/>
<feColorMatrix type="matrix" values="0 0 0 0 0.160784 0 0 0 0 0.145098 0 0 0 0 0.141176 0 0 0 0.03 0"/>
<feBlend mode="normal" in2="BackgroundImageFix" result="effect1_dropShadow_10723_18403"/>
<feColorMatrix in="SourceAlpha" type="matrix" values="0 0 0 0 0 0 0 0 0 0 0 0 0 0 0 0 0 0 127 0" result="hardAlpha"/>
<feMorphology radius="4" operator="erode" in="SourceAlpha" result="effect2_dropShadow_10723_18403"/>
<feOffset dy="12"/>
<feGaussianBlur stdDeviation="8"/>
<feColorMatrix type="matrix" values="0 0 0 0 0.160784 0 0 0 0 0.145098 0 0 0 0 0.141176 0 0 0 0.08 0"/>
<feBlend mode="normal" in2="effect1_dropShadow_10723_18403" result="effect2_dropShadow_10723_18403"/>
<feBlend mode="normal" in="SourceGraphic" in2="effect2_dropShadow_10723_18403" result="shape"/>
</filter><filter id="filter29_dd_10723_18403" x="143" y="172" width="104" height="104" filterUnits="userSpaceOnUse" color-interpolation-filters="sRGB">
<feFlood flood-opacity="0" result="BackgroundImageFix"/>
<feColorMatrix in="SourceAlpha" type="matrix" values="0 0 0 0 0 0 0 0 0 0 0 0 0 0 0 0 0 0 127 0" result="hardAlpha"/>
<feMorphology radius="2" operator="erode" in="SourceAlpha" result="effect1_dropShadow_10723_18403"/>
<feOffset dy="4"/>
<feGaussianBlur stdDeviation="3"/>
<feColorMatrix type="matrix" values="0 0 0 0 0.160784 0 0 0 0 0.145098 0 0 0 0 0.141176 0 0 0 0.03 0"/>
<feBlend mode="normal" in2="BackgroundImageFix" result="effect1_dropShadow_10723_18403"/>
<feColorMatrix in="SourceAlpha" type="matrix" values="0 0 0 0 0 0 0 0 0 0 0 0 0 0 0 0 0 0 127 0" result="hardAlpha"/>
<feMorphology radius="4" operator="erode" in="SourceAlpha" result="effect2_dropShadow_10723_18403"/>
<feOffset dy="12"/>
<feGaussianBlur stdDeviation="8"/>
<feColorMatrix type="matrix" values="0 0 0 0 0.160784 0 0 0 0 0.145098 0 0 0 0 0.141176 0 0 0 0.08 0"/>
<feBlend mode="normal" in2="effect1_dropShadow_10723_18403" result="effect2_dropShadow_10723_18403"/>
<feBlend mode="normal" in="SourceGraphic" in2="effect2_dropShadow_10723_18403" result="shape"/>
</filter><filter id="filter30_dd_10723_18403" x="209" y="252" width="104" height="104" filterUnits="userSpaceOnUse" color-interpolation-filters="sRGB">
<feFlood flood-opacity="0" result="BackgroundImageFix"/>
<feColorMatrix in="SourceAlpha" type="matrix" values="0 0 0 0 0 0 0 0 0 0 0 0 0 0 0 0 0 0 127 0" result="hardAlpha"/>
<feMorphology radius="2" operator="erode" in="SourceAlpha" result="effect1_dropShadow_10723_18403"/>
<feOffset dy="4"/>
<feGaussianBlur stdDeviation="3"/>
<feColorMatrix type="matrix" values="0 0 0 0 0.160784 0 0 0 0 0.145098 0 0 0 0 0.141176 0 0 0 0.03 0"/>
<feBlend mode="normal" in2="BackgroundImageFix" result="effect1_dropShadow_10723_18403"/>
<feColorMatrix in="SourceAlpha" type="matrix" values="0 0 0 0 0 0 0 0 0 0 0 0 0 0 0 0 0 0 127 0" result="hardAlpha"/>
<feMorphology radius="4" operator="erode" in="SourceAlpha" result="effect2_dropShadow_10723_18403"/>
<feOffset dy="12"/>
<feGaussianBlur stdDeviation="8"/>
<feColorMatrix type="matrix" values="0 0 0 0 0.160784 0 0 0 0 0.145098 0 0 0 0 0.141176 0 0 0 0.08 0"/>
<feBlend mode="normal" in2="effect1_dropShadow_10723_18403" result="effect2_dropShadow_10723_18403"/>
<feBlend mode="normal" in="SourceGraphic" in2="effect2_dropShadow_10723_18403" result="shape"/>
</filter><filter id="filter31_dd_10723_18403" x="275" y="332" width="104" height="104" filterUnits="userSpaceOnUse" color-interpolation-filters="sRGB">
<feFlood flood-opacity="0" result="BackgroundImageFix"/>
<feColorMatrix in="SourceAlpha" type="matrix" values="0 0 0 0 0 0 0 0 0 0 0 0 0 0 0 0 0 0 127 0" result="hardAlpha"/>
<feMorphology radius="2" operator="erode" in="SourceAlpha" result="effect1_dropShadow_10723_18403"/>
<feOffset dy="4"/>
<feGaussianBlur stdDeviation="3"/>
<feColorMatrix type="matrix" values="0 0 0 0 0.160784 0 0 0 0 0.145098 0 0 0 0 0.141176 0 0 0 0.03 0"/>
<feBlend mode="normal" in2="BackgroundImageFix" result="effect1_dropShadow_10723_18403"/>
<feColorMatrix in="SourceAlpha" type="matrix" values="0 0 0 0 0 0 0 0 0 0 0 0 0 0 0 0 0 0 127 0" result="hardAlpha"/>
<feMorphology radius="4" operator="erode" in="SourceAlpha" result="effect2_dropShadow_10723_18403"/>
<feOffset dy="12"/>
<feGaussianBlur stdDeviation="8"/>
<feColorMatrix type="matrix" values="0 0 0 0 0.160784 0 0 0 0 0.145098 0 0 0 0 0.141176 0 0 0 0.08 0"/>
<feBlend mode="normal" in2="effect1_dropShadow_10723_18403" result="effect2_dropShadow_10723_18403"/>
<feBlend mode="normal" in="SourceGraphic" in2="effect2_dropShadow_10723_18403" result="shape"/>
</filter><clipPath id="clip31_10723_18403">
<rect x="0" y="0" width="782" height="424" rx="5" fill="white"/>
</clipPath></defs><g id="Slider Mood">
<g clip-path="url(#clip31_10723_18403)">
<g id="Emotion=1 - Depressed, Type=Button Icon">
<path d="M24,52c0,-15.46 12.536,-28 28,-28h287c15.464,0 28,12.54 28,28c0,15.46 -12.536,28 -28,28h-287c-15.464,0 -28,-12.54 -28,-28z" fill="white"/>
<g id="Frame_235">
<g id="face depressed">
<g id="Vector_352">
<path d="M52.203,44.93c0.957,-0.55 2.18,-0.22 2.733,0.74c0.175,0.3 0.428,0.55 0.732,0.73c0.304,0.17 0.648,0.27 1,0.27c0.351,0 0.696,-0.1 1,-0.27c0.304,-0.18 0.556,-0.43 0.732,-0.73c0.552,-0.96 1.775,-1.29 2.732,-0.74c0.956,0.56 1.284,1.78 0.732,2.74c-0.527,0.91 -1.284,1.67 -2.196,2.19c-0.913,0.53 -1.947,0.81 -3,0.81c-1.054,0 -2.088,-0.28 -3,-0.81c-0.913,-0.52 -1.67,-1.28 -2.197,-2.19c-0.552,-0.96 -0.224,-2.18 0.732,-2.74z" fill="#D6D3D1"/>
<path d="M66.87,44.93c0.957,-0.55 2.18,-0.22 2.732,0.74c0.176,0.3 0.428,0.55 0.732,0.73c0.304,0.17 0.649,0.27 1,0.27c0.351,0 0.696,-0.1 1,-0.27c0.304,-0.18 0.557,-0.43 0.732,-0.73c0.553,-0.96 1.776,-1.29 2.732,-0.74c0.957,0.56 1.285,1.78 0.732,2.74c-0.526,0.91 -1.284,1.67 -2.196,2.19c-0.912,0.53 -1.947,0.81 -3,0.81c-1.053,0 -2.088,-0.28 -3,-0.81c-0.912,-0.52 -1.669,-1.28 -2.196,-2.19c-0.552,-0.96 -0.224,-2.18 0.732,-2.74z" fill="#D6D3D1"/>
<path d="M64.001,53.33c-1.751,0 -3.485,0.35 -5.102,1.02c-1.618,0.67 -3.088,1.65 -4.326,2.89c-0.763,0.76 -0.991,1.91 -0.578,2.9c0.413,1 1.385,1.65 2.464,1.65h15.085c1.078,0 2.05,-0.65 2.463,-1.65c0.413,-0.99 0.185,-2.14 -0.578,-2.9c-1.238,-1.24 -2.708,-2.22 -4.326,-2.89c-1.617,-0.67 -3.351,-1.02 -5.102,-1.02z" fill="#D6D3D1"/>
</g>
</g>
</g>
<path id="Vector_353" d="M96.875,41v22" stroke="#F5F5F4" stroke-width="2" stroke-linecap="round" stroke-linejoin="round"/>
<g id="Frame_236">
<g id="face sad">
<g id="Vector_354">
<path d="M125.749,47.33c0,-1.84 -1.493,-3.33 -3.334,-3.33c-1.841,0 -3.333,1.49 -3.333,3.33c0,1.84 1.492,3.34 3.333,3.34c1.841,0 3.334,-1.5 3.334,-3.34z" fill="#D6D3D1"/>
<path d="M124.646,54.35c1.618,-0.67 3.352,-1.02 5.103,-1.02c1.751,0 3.484,0.35 5.102,1.02c1.618,0.67 3.088,1.65 4.326,2.89c1.041,1.04 1.041,2.73 0,3.77c-1.042,1.04 -2.73,1.04 -3.771,0c-0.743,-0.74 -1.625,-1.33 -2.596,-1.73c-0.97,-0.41 -2.011,-0.61 -3.061,-0.61c-1.051,0 -2.091,0.2 -3.062,0.61c-0.97,0.4 -1.852,0.99 -2.595,1.73c-1.042,1.04 -2.73,1.04 -3.771,0c-1.042,-1.04 -1.042,-2.73 0,-3.77c1.238,-1.24 2.708,-2.22 4.325,-2.89z" fill="#D6D3D1"/>
<path d="M137.082,44c1.841,0 3.333,1.49 3.333,3.33c0,1.84 -1.492,3.34 -3.333,3.34c-1.841,0 -3.333,-1.5 -3.333,-3.34c0,-1.84 1.492,-3.33 3.333,-3.33z" fill="#D6D3D1"/>
</g>
</g>
</g>
<path id="Vector_355" d="M162.625,41v22" stroke="#F5F5F4" stroke-width="2" stroke-linecap="round" stroke-linejoin="round"/>
<g id="Frame_237">
<g id="face neutral">
<g id="Vector_356">
<path d="M191.499,47.33c0,-1.84 -1.493,-3.33 -3.334,-3.33c-1.841,0 -3.333,1.49 -3.333,3.33c0,1.84 1.492,3.34 3.333,3.34c1.841,0 3.334,-1.5 3.334,-3.34z" fill="#D6D3D1"/>
<path d="M206.165,47.33c0,-1.84 -1.492,-3.33 -3.333,-3.33c-1.841,0 -3.333,1.49 -3.333,3.33c0,1.84 1.492,3.34 3.333,3.34c1.841,0 3.333,-1.5 3.333,-3.34z" fill="#D6D3D1"/>
<path d="M188.832,56c-1.473,0 -2.667,1.19 -2.667,2.67c0,1.47 1.194,2.66 2.667,2.66h13.333c1.473,0 2.667,-1.19 2.667,-2.66c0,-1.48 -1.194,-2.67 -2.667,-2.67z" fill="#D6D3D1"/>
</g>
</g>
</g>
<path id="Vector_357" d="M228.375,41v22" stroke="#F5F5F4" stroke-width="2" stroke-linecap="round" stroke-linejoin="round"/>
<g id="Frame_238">
<g id="face happy">
<g id="Vector_358">
<path d="M257.249,47.33c0,-1.84 -1.493,-3.33 -3.334,-3.33c-1.841,0 -3.333,1.49 -3.333,3.33c0,1.84 1.492,3.34 3.333,3.34c1.841,0 3.334,-1.5 3.334,-3.34z" fill="#D6D3D1"/>
<path d="M271.915,47.33c0,-1.84 -1.492,-3.33 -3.333,-3.33c-1.841,0 -3.333,1.49 -3.333,3.33c0,1.84 1.492,3.34 3.333,3.34c1.841,0 3.333,-1.5 3.333,-3.34z" fill="#D6D3D1"/>
<path d="M261.249,62.67c-1.751,0 -3.485,-0.35 -5.103,-1.02c-1.617,-0.67 -3.087,-1.65 -4.325,-2.89c-1.042,-1.04 -1.042,-2.73 0,-3.77c1.041,-1.04 2.729,-1.04 3.771,0c0.743,0.74 1.625,1.33 2.595,1.73c0.971,0.41 2.011,0.61 3.062,0.61c1.05,0 2.091,-0.2 3.061,-0.61c0.971,-0.4 1.853,-0.99 2.596,-1.73c1.041,-1.04 2.729,-1.04 3.771,0c1.041,1.04 1.041,2.73 0,3.77c-1.238,1.24 -2.708,2.22 -4.326,2.89c-1.618,0.67 -3.351,1.02 -5.102,1.02z" fill="#D6D3D1"/>
</g>
</g>
</g>
<path id="Vector_359" d="M294.125,41v22" stroke="#F5F5F4" stroke-width="2" stroke-linecap="round" stroke-linejoin="round"/>
<g id="Frame_239">
<g id="face overjoyed_3">
<g id="Vector_360">
<path d="M315.203,50.4c0.957,0.55 2.18,0.22 2.733,-0.73c0.175,-0.31 0.428,-0.56 0.732,-0.74c0.304,-0.17 0.648,-0.26 1,-0.26c0.351,0 0.696,0.09 1,0.26c0.304,0.18 0.556,0.43 0.732,0.74c0.552,0.95 1.775,1.28 2.732,0.73c0.956,-0.55 1.284,-1.78 0.732,-2.73c-0.527,-0.92 -1.284,-1.67 -2.196,-2.2c-0.913,-0.53 -1.947,-0.8 -3,-0.8c-1.054,0 -2.088,0.27 -3,0.8c-0.913,0.53 -1.67,1.28 -2.197,2.2c-0.552,0.95 -0.224,2.18 0.732,2.73z" fill="#D6D3D1"/>
<path d="M329.87,50.4c0.957,0.55 2.18,0.22 2.732,-0.73c0.176,-0.31 0.428,-0.56 0.732,-0.74c0.304,-0.17 0.649,-0.26 1,-0.26c0.351,0 0.696,0.09 1,0.26c0.304,0.18 0.557,0.43 0.732,0.74c0.553,0.95 1.776,1.28 2.732,0.73c0.957,-0.55 1.285,-1.78 0.732,-2.73c-0.526,-0.92 -1.284,-1.67 -2.196,-2.2c-0.912,-0.53 -1.947,-0.8 -3,-0.8c-1.053,0 -2.088,0.27 -3,0.8c-0.912,0.53 -1.669,1.28 -2.196,2.2c-0.552,0.95 -0.224,2.18 0.732,2.73z" fill="#D6D3D1"/>
<path d="M327.001,62.67c-1.751,0 -3.485,-0.35 -5.102,-1.02c-1.618,-0.67 -3.088,-1.65 -4.326,-2.89c-0.763,-0.76 -0.991,-1.91 -0.578,-2.9c0.413,-1 1.385,-1.65 2.464,-1.65h15.085c1.078,0 2.05,0.65 2.463,1.65c0.413,0.99 0.185,2.14 -0.578,2.9c-1.238,1.24 -2.708,2.22 -4.326,2.89c-1.617,0.67 -3.351,1.02 -5.102,1.02z" fill="#D6D3D1"/>
</g>
</g>
</g>
<g id="Frame_240" filter="url(#filter27_dd_10723_18403)">
<path d="M24,52c0,-22.09 17.909,-40 40,-40c22.091,0 40,17.91 40,40c0,22.09 -17.909,40 -40,40c-22.091,0 -40,-17.91 -40,-40z" fill="#C084FC"/>
<g id="face depressed_2">
<g id="Vector_361">
<path d="M46.305,41.4c1.435,-0.83 3.27,-0.33 4.098,1.1c0.264,0.46 0.642,0.84 1.098,1.1c0.456,0.26 0.974,0.4 1.5,0.4c0.527,0 1.044,-0.14 1.5,-0.4c0.456,-0.26 0.835,-0.64 1.098,-1.1c0.829,-1.43 2.664,-1.93 4.098,-1.1c1.435,0.83 1.927,2.67 1.099,4.1c-0.79,1.37 -1.926,2.5 -3.295,3.29c-1.368,0.79 -2.92,1.21 -4.5,1.21c-1.579,0 -3.131,-0.42 -4.5,-1.21c-1.368,-0.79 -2.504,-1.92 -3.294,-3.29c-0.828,-1.43 -0.337,-3.27 1.098,-4.1z" fill="#6B21A8"/>
<path d="M68.305,41.4c1.435,-0.83 3.27,-0.33 4.098,1.1c0.264,0.46 0.642,0.84 1.098,1.1c0.456,0.26 0.974,0.4 1.5,0.4c0.527,0 1.044,-0.14 1.5,-0.4c0.456,-0.26 0.835,-0.64 1.098,-1.1c0.829,-1.43 2.664,-1.93 4.098,-1.1c1.435,0.83 1.927,2.67 1.099,4.1c-0.79,1.37 -1.926,2.5 -3.295,3.29c-1.368,0.79 -2.92,1.21 -4.5,1.21c-1.579,0 -3.131,-0.42 -4.5,-1.21c-1.368,-0.79 -2.504,-1.92 -3.294,-3.29c-0.828,-1.43 -0.337,-3.27 1.098,-4.1z" fill="#6B21A8"/>
<path d="M64.002,54c-2.627,0 -5.228,0.52 -7.654,1.52c-2.427,1.01 -4.631,2.48 -6.489,4.34c-1.144,1.14 -1.486,2.86 -0.867,4.36c0.619,1.49 2.078,2.47 3.696,2.47h22.627c1.618,0 3.077,-0.98 3.696,-2.47c0.619,-1.5 0.277,-3.22 -0.867,-4.36c-1.857,-1.86 -4.062,-3.33 -6.489,-4.34c-2.426,-1 -5.027,-1.52 -7.653,-1.52z" fill="#6B21A8"/>
</g>
</g>
</g>
</g>
<g id="Emotion=1 - Depressed, Type=Simple">
<path d="M391,52c0,-15.46 12.536,-28 28,-28h287c15.464,0 28,12.54 28,28c0,15.46 -12.536,28 -28,28h-287c-15.464,0 -28,-12.54 -28,-28z" fill="white"/>
<g id="Frame_241">
<g id="face depressed_3">
<g id="Vector_362">
<path d="M419.203,44.93c0.957,-0.55 2.18,-0.22 2.733,0.74c0.175,0.3 0.428,0.55 0.732,0.73c0.304,0.17 0.648,0.27 1,0.27c0.351,0 0.696,-0.1 1,-0.27c0.304,-0.18 0.556,-0.43 0.732,-0.73c0.552,-0.96 1.775,-1.29 2.732,-0.74c0.956,0.56 1.284,1.78 0.732,2.74c-0.527,0.91 -1.284,1.67 -2.196,2.19c-0.913,0.53 -1.947,0.81 -3,0.81c-1.054,0 -2.088,-0.28 -3,-0.81c-0.913,-0.52 -1.67,-1.28 -2.197,-2.19c-0.552,-0.96 -0.224,-2.18 0.732,-2.74z" fill="#C084FC"/>
<path d="M433.87,44.93c0.957,-0.55 2.18,-0.22 2.732,0.74c0.176,0.3 0.428,0.55 0.732,0.73c0.304,0.17 0.649,0.27 1,0.27c0.351,0 0.696,-0.1 1,-0.27c0.304,-0.18 0.557,-0.43 0.732,-0.73c0.553,-0.96 1.776,-1.29 2.732,-0.74c0.957,0.56 1.285,1.78 0.732,2.74c-0.526,0.91 -1.284,1.67 -2.196,2.19c-0.912,0.53 -1.947,0.81 -3,0.81c-1.053,0 -2.088,-0.28 -3,-0.81c-0.912,-0.52 -1.669,-1.28 -2.196,-2.19c-0.552,-0.96 -0.224,-2.18 0.732,-2.74z" fill="#C084FC"/>
<path d="M431.001,53.33c-1.751,0 -3.485,0.35 -5.102,1.02c-1.618,0.67 -3.088,1.65 -4.326,2.89c-0.763,0.76 -0.991,1.91 -0.578,2.9c0.413,1 1.385,1.65 2.464,1.65h15.085c1.078,0 2.05,-0.65 2.463,-1.65c0.413,-0.99 0.185,-2.14 -0.578,-2.9c-1.238,-1.24 -2.708,-2.22 -4.326,-2.89c-1.617,-0.67 -3.351,-1.02 -5.102,-1.02z" fill="#C084FC"/>
</g>
</g>
</g>
<path id="Vector_363" d="M463.875,41v22" stroke="#F5F5F4" stroke-width="2" stroke-linecap="round" stroke-linejoin="round"/>
<g id="Frame_242">
<g id="face sad_2">
<g id="Vector_364">
<path d="M492.749,47.33c0,-1.84 -1.493,-3.33 -3.334,-3.33c-1.841,0 -3.333,1.49 -3.333,3.33c0,1.84 1.492,3.34 3.333,3.34c1.841,0 3.334,-1.5 3.334,-3.34z" fill="#D6D3D1"/>
<path d="M491.646,54.35c1.618,-0.67 3.352,-1.02 5.103,-1.02c1.751,0 3.484,0.35 5.102,1.02c1.618,0.67 3.088,1.65 4.326,2.89c1.041,1.04 1.041,2.73 0,3.77c-1.042,1.04 -2.73,1.04 -3.771,0c-0.743,-0.74 -1.625,-1.33 -2.596,-1.73c-0.97,-0.41 -2.011,-0.61 -3.061,-0.61c-1.051,0 -2.091,0.2 -3.062,0.61c-0.97,0.4 -1.852,0.99 -2.595,1.73c-1.042,1.04 -2.73,1.04 -3.771,0c-1.042,-1.04 -1.042,-2.73 0,-3.77c1.238,-1.24 2.708,-2.22 4.325,-2.89z" fill="#D6D3D1"/>
<path d="M504.082,44c1.841,0 3.333,1.49 3.333,3.33c0,1.84 -1.492,3.34 -3.333,3.34c-1.841,0 -3.333,-1.5 -3.333,-3.34c0,-1.84 1.492,-3.33 3.333,-3.33z" fill="#D6D3D1"/>
</g>
</g>
</g>
<path id="Vector_365" d="M529.625,41v22" stroke="#F5F5F4" stroke-width="2" stroke-linecap="round" stroke-linejoin="round"/>
<g id="Frame_243">
<g id="face neutral_2">
<g id="Vector_366">
<path d="M558.499,47.33c0,-1.84 -1.493,-3.33 -3.334,-3.33c-1.841,0 -3.333,1.49 -3.333,3.33c0,1.84 1.492,3.34 3.333,3.34c1.841,0 3.334,-1.5 3.334,-3.34z" fill="#D6D3D1"/>
<path d="M573.165,47.33c0,-1.84 -1.492,-3.33 -3.333,-3.33c-1.841,0 -3.333,1.49 -3.333,3.33c0,1.84 1.492,3.34 3.333,3.34c1.841,0 3.333,-1.5 3.333,-3.34z" fill="#D6D3D1"/>
<path d="M555.832,56c-1.473,0 -2.667,1.19 -2.667,2.67c0,1.47 1.194,2.66 2.667,2.66h13.333c1.473,0 2.667,-1.19 2.667,-2.66c0,-1.48 -1.194,-2.67 -2.667,-2.67z" fill="#D6D3D1"/>
</g>
</g>
</g>
<path id="Vector_367" d="M595.375,41v22" stroke="#F5F5F4" stroke-width="2" stroke-linecap="round" stroke-linejoin="round"/>
<g id="Frame_244">
<g id="face happy_2">
<g id="Vector_368">
<path d="M624.249,47.33c0,-1.84 -1.493,-3.33 -3.334,-3.33c-1.841,0 -3.333,1.49 -3.333,3.33c0,1.84 1.492,3.34 3.333,3.34c1.841,0 3.334,-1.5 3.334,-3.34z" fill="#D6D3D1"/>
<path d="M638.915,47.33c0,-1.84 -1.492,-3.33 -3.333,-3.33c-1.841,0 -3.333,1.49 -3.333,3.33c0,1.84 1.492,3.34 3.333,3.34c1.841,0 3.333,-1.5 3.333,-3.34z" fill="#D6D3D1"/>
<path d="M628.249,62.67c-1.751,0 -3.485,-0.35 -5.103,-1.02c-1.617,-0.67 -3.087,-1.65 -4.325,-2.89c-1.042,-1.04 -1.042,-2.73 0,-3.77c1.041,-1.04 2.729,-1.04 3.771,0c0.743,0.74 1.625,1.33 2.595,1.73c0.971,0.41 2.011,0.61 3.062,0.61c1.05,0 2.091,-0.2 3.061,-0.61c0.971,-0.4 1.853,-0.99 2.596,-1.73c1.041,-1.04 2.729,-1.04 3.771,0c1.041,1.04 1.041,2.73 0,3.77c-1.238,1.24 -2.708,2.22 -4.326,2.89c-1.618,0.67 -3.351,1.02 -5.102,1.02z" fill="#D6D3D1"/>
</g>
</g>
</g>
<path id="Vector_369" d="M661.125,41v22" stroke="#F5F5F4" stroke-width="2" stroke-linecap="round" stroke-linejoin="round"/>
<g id="Frame_245">
<g id="face overjoyed_4">
<g id="Vector_370">
<path d="M682.203,50.4c0.957,0.55 2.18,0.22 2.733,-0.73c0.175,-0.31 0.428,-0.56 0.732,-0.74c0.304,-0.17 0.648,-0.26 1,-0.26c0.351,0 0.696,0.09 1,0.26c0.304,0.18 0.556,0.43 0.732,0.74c0.552,0.95 1.775,1.28 2.732,0.73c0.956,-0.55 1.284,-1.78 0.732,-2.73c-0.527,-0.92 -1.284,-1.67 -2.196,-2.2c-0.913,-0.53 -1.947,-0.8 -3,-0.8c-1.054,0 -2.088,0.27 -3,0.8c-0.913,0.53 -1.67,1.28 -2.197,2.2c-0.552,0.95 -0.224,2.18 0.732,2.73z" fill="#D6D3D1"/>
<path d="M696.87,50.4c0.957,0.55 2.18,0.22 2.732,-0.73c0.176,-0.31 0.428,-0.56 0.732,-0.74c0.304,-0.17 0.649,-0.26 1,-0.26c0.351,0 0.696,0.09 1,0.26c0.304,0.18 0.557,0.43 0.732,0.74c0.553,0.95 1.776,1.28 2.732,0.73c0.957,-0.55 1.285,-1.78 0.732,-2.73c-0.526,-0.92 -1.284,-1.67 -2.196,-2.2c-0.912,-0.53 -1.947,-0.8 -3,-0.8c-1.053,0 -2.088,0.27 -3,0.8c-0.912,0.53 -1.669,1.28 -2.196,2.2c-0.552,0.95 -0.224,2.18 0.732,2.73z" fill="#D6D3D1"/>
<path d="M694.001,62.67c-1.751,0 -3.485,-0.35 -5.102,-1.02c-1.618,-0.67 -3.088,-1.65 -4.326,-2.89c-0.763,-0.76 -0.991,-1.91 -0.578,-2.9c0.413,-1 1.385,-1.65 2.464,-1.65h15.085c1.078,0 2.05,0.65 2.463,1.65c0.413,0.99 0.185,2.14 -0.578,2.9c-1.238,1.24 -2.708,2.22 -4.326,2.89c-1.617,0.67 -3.351,1.02 -5.102,1.02z" fill="#D6D3D1"/>
</g>
</g>
</g>
</g>
<g id="Emotion=2 - Sad, Type=Button Icon">
<path d="M24,132c0,-15.46 12.536,-28 28,-28h287c15.464,0 28,12.54 28,28c0,15.46 -12.536,28 -28,28h-287c-15.464,0 -28,-12.54 -28,-28z" fill="white"/>
<g id="Frame_246">
<g id="face depressed_4">
<g id="Vector_371">
<path d="M52.203,124.93c0.957,-0.55 2.18,-0.22 2.733,0.74c0.175,0.3 0.428,0.55 0.732,0.73c0.304,0.17 0.648,0.27 1,0.27c0.351,0 0.696,-0.1 1,-0.27c0.304,-0.18 0.556,-0.43 0.732,-0.73c0.552,-0.96 1.775,-1.29 2.732,-0.74c0.956,0.56 1.284,1.78 0.732,2.74c-0.527,0.91 -1.284,1.67 -2.196,2.19c-0.913,0.53 -1.947,0.81 -3,0.81c-1.054,0 -2.088,-0.28 -3,-0.81c-0.913,-0.52 -1.67,-1.28 -2.197,-2.19c-0.552,-0.96 -0.224,-2.18 0.732,-2.74z" fill="#D6D3D1"/>
<path d="M66.87,124.93c0.957,-0.55 2.18,-0.22 2.732,0.74c0.176,0.3 0.428,0.55 0.732,0.73c0.304,0.17 0.649,0.27 1,0.27c0.351,0 0.696,-0.1 1,-0.27c0.304,-0.18 0.557,-0.43 0.732,-0.73c0.553,-0.96 1.776,-1.29 2.732,-0.74c0.957,0.56 1.285,1.78 0.732,2.74c-0.526,0.91 -1.284,1.67 -2.196,2.19c-0.912,0.53 -1.947,0.81 -3,0.81c-1.053,0 -2.088,-0.28 -3,-0.81c-0.912,-0.52 -1.669,-1.28 -2.196,-2.19c-0.552,-0.96 -0.224,-2.18 0.732,-2.74z" fill="#D6D3D1"/>
<path d="M64.001,133.33c-1.751,0 -3.485,0.35 -5.102,1.02c-1.618,0.67 -3.088,1.65 -4.326,2.89c-0.763,0.76 -0.991,1.91 -0.578,2.9c0.413,1 1.385,1.65 2.464,1.65h15.085c1.078,0 2.05,-0.65 2.463,-1.65c0.413,-0.99 0.185,-2.14 -0.578,-2.9c-1.238,-1.24 -2.708,-2.22 -4.326,-2.89c-1.617,-0.67 -3.351,-1.02 -5.102,-1.02z" fill="#D6D3D1"/>
</g>
</g>
</g>
<path id="Vector_372" d="M96.875,121v22" stroke="#F5F5F4" stroke-width="2" stroke-linecap="round" stroke-linejoin="round"/>
<g id="Frame_247">
<g id="face sad_3">
<g id="Vector_373">
<path d="M125.749,127.33c0,-1.84 -1.493,-3.33 -3.334,-3.33c-1.841,0 -3.333,1.49 -3.333,3.33c0,1.84 1.492,3.34 3.333,3.34c1.841,0 3.334,-1.5 3.334,-3.34z" fill="#D6D3D1"/>
<path d="M124.646,134.35c1.618,-0.67 3.352,-1.02 5.103,-1.02c1.751,0 3.484,0.35 5.102,1.02c1.618,0.67 3.088,1.65 4.326,2.89c1.041,1.04 1.041,2.73 0,3.77c-1.042,1.04 -2.73,1.04 -3.771,0c-0.743,-0.74 -1.625,-1.33 -2.596,-1.73c-0.97,-0.41 -2.011,-0.61 -3.061,-0.61c-1.051,0 -2.091,0.2 -3.062,0.61c-0.97,0.4 -1.852,0.99 -2.595,1.73c-1.042,1.04 -2.73,1.04 -3.771,0c-1.042,-1.04 -1.042,-2.73 0,-3.77c1.238,-1.24 2.708,-2.22 4.325,-2.89z" fill="#D6D3D1"/>
<path d="M137.082,124c1.841,0 3.333,1.49 3.333,3.33c0,1.84 -1.492,3.34 -3.333,3.34c-1.841,0 -3.333,-1.5 -3.333,-3.34c0,-1.84 1.492,-3.33 3.333,-3.33z" fill="#D6D3D1"/>
</g>
</g>
</g>
<path id="Vector_374" d="M162.625,121v22" stroke="#F5F5F4" stroke-width="2" stroke-linecap="round" stroke-linejoin="round"/>
<g id="Frame_248">
<g id="face neutral_3">
<g id="Vector_375">
<path d="M191.499,127.33c0,-1.84 -1.493,-3.33 -3.334,-3.33c-1.841,0 -3.333,1.49 -3.333,3.33c0,1.84 1.492,3.34 3.333,3.34c1.841,0 3.334,-1.5 3.334,-3.34z" fill="#D6D3D1"/>
<path d="M206.165,127.33c0,-1.84 -1.492,-3.33 -3.333,-3.33c-1.841,0 -3.333,1.49 -3.333,3.33c0,1.84 1.492,3.34 3.333,3.34c1.841,0 3.333,-1.5 3.333,-3.34z" fill="#D6D3D1"/>
<path d="M188.832,136c-1.473,0 -2.667,1.19 -2.667,2.67c0,1.47 1.194,2.66 2.667,2.66h13.333c1.473,0 2.667,-1.19 2.667,-2.66c0,-1.48 -1.194,-2.67 -2.667,-2.67z" fill="#D6D3D1"/>
</g>
</g>
</g>
<path id="Vector_376" d="M228.375,121v22" stroke="#F5F5F4" stroke-width="2" stroke-linecap="round" stroke-linejoin="round"/>
<g id="Frame_249">
<g id="face happy_3">
<g id="Vector_377">
<path d="M257.249,127.33c0,-1.84 -1.493,-3.33 -3.334,-3.33c-1.841,0 -3.333,1.49 -3.333,3.33c0,1.84 1.492,3.34 3.333,3.34c1.841,0 3.334,-1.5 3.334,-3.34z" fill="#D6D3D1"/>
<path d="M271.915,127.33c0,-1.84 -1.492,-3.33 -3.333,-3.33c-1.841,0 -3.333,1.49 -3.333,3.33c0,1.84 1.492,3.34 3.333,3.34c1.841,0 3.333,-1.5 3.333,-3.34z" fill="#D6D3D1"/>
<path d="M261.249,142.67c-1.751,0 -3.485,-0.35 -5.103,-1.02c-1.617,-0.67 -3.087,-1.65 -4.325,-2.89c-1.042,-1.04 -1.042,-2.73 0,-3.77c1.041,-1.04 2.729,-1.04 3.771,0c0.743,0.74 1.625,1.33 2.595,1.73c0.971,0.41 2.011,0.61 3.062,0.61c1.05,0 2.091,-0.2 3.061,-0.61c0.971,-0.4 1.853,-0.99 2.596,-1.73c1.041,-1.04 2.729,-1.04 3.771,0c1.041,1.04 1.041,2.73 0,3.77c-1.238,1.24 -2.708,2.22 -4.326,2.89c-1.618,0.67 -3.351,1.02 -5.102,1.02z" fill="#D6D3D1"/>
</g>
</g>
</g>
<path id="Vector_378" d="M294.125,121v22" stroke="#F5F5F4" stroke-width="2" stroke-linecap="round" stroke-linejoin="round"/>
<g id="Frame_250">
<g id="face overjoyed_5">
<g id="Vector_379">
<path d="M315.203,130.4c0.957,0.55 2.18,0.22 2.733,-0.73c0.175,-0.31 0.428,-0.56 0.732,-0.74c0.304,-0.17 0.648,-0.26 1,-0.26c0.351,0 0.696,0.09 1,0.26c0.304,0.18 0.556,0.43 0.732,0.74c0.552,0.95 1.775,1.28 2.732,0.73c0.956,-0.55 1.284,-1.78 0.732,-2.73c-0.527,-0.92 -1.284,-1.67 -2.196,-2.2c-0.913,-0.53 -1.947,-0.8 -3,-0.8c-1.054,0 -2.088,0.27 -3,0.8c-0.913,0.53 -1.67,1.28 -2.197,2.2c-0.552,0.95 -0.224,2.18 0.732,2.73z" fill="#D6D3D1"/>
<path d="M329.87,130.4c0.957,0.55 2.18,0.22 2.732,-0.73c0.176,-0.31 0.428,-0.56 0.732,-0.74c0.304,-0.17 0.649,-0.26 1,-0.26c0.351,0 0.696,0.09 1,0.26c0.304,0.18 0.557,0.43 0.732,0.74c0.553,0.95 1.776,1.28 2.732,0.73c0.957,-0.55 1.285,-1.78 0.732,-2.73c-0.526,-0.92 -1.284,-1.67 -2.196,-2.2c-0.912,-0.53 -1.947,-0.8 -3,-0.8c-1.053,0 -2.088,0.27 -3,0.8c-0.912,0.53 -1.669,1.28 -2.196,2.2c-0.552,0.95 -0.224,2.18 0.732,2.73z" fill="#D6D3D1"/>
<path d="M327.001,142.67c-1.751,0 -3.485,-0.35 -5.102,-1.02c-1.618,-0.67 -3.088,-1.65 -4.326,-2.89c-0.763,-0.76 -0.991,-1.91 -0.578,-2.9c0.413,-1 1.385,-1.65 2.464,-1.65h15.085c1.078,0 2.05,0.65 2.463,1.65c0.413,0.99 0.185,2.14 -0.578,2.9c-1.238,1.24 -2.708,2.22 -4.326,2.89c-1.617,0.67 -3.351,1.02 -5.102,1.02z" fill="#D6D3D1"/>
</g>
</g>
</g>
<g id="Frame_251" filter="url(#filter28_dd_10723_18403)">
<path d="M90,132c0,-22.09 17.909,-40 40,-40c22.091,0 40,17.91 40,40c0,22.09 -17.909,40 -40,40c-22.091,0 -40,-17.91 -40,-40z" fill="#FB923C"/>
<g id="face sad_4">
<g id="Vector_380">
<path d="M124,125c0,-2.76 -2.239,-5 -5,-5c-2.761,0 -5,2.24 -5,5c0,2.76 2.239,5 5,5c2.761,0 5,-2.24 5,-5z" fill="#9A3412"/>
<path d="M122.346,135.52c2.427,-1 5.028,-1.52 7.654,-1.52c2.626,0 5.227,0.52 7.654,1.52c2.426,1.01 4.631,2.48 6.488,4.34c1.562,1.56 1.562,4.09 0,5.65c-1.562,1.57 -4.095,1.57 -5.657,0c-1.114,-1.11 -2.437,-1.99 -3.893,-2.6c-1.456,-0.6 -3.016,-0.91 -4.592,-0.91c-1.576,0 -3.136,0.31 -4.592,0.91c-1.456,0.61 -2.779,1.49 -3.893,2.6c-1.562,1.57 -4.095,1.57 -5.657,0c-1.562,-1.56 -1.562,-4.09 0,-5.65c1.857,-1.86 4.062,-3.33 6.488,-4.34z" fill="#9A3412"/>
<path d="M141,120c2.761,0 5,2.24 5,5c0,2.76 -2.239,5 -5,5c-2.761,0 -5,-2.24 -5,-5c0,-2.76 2.239,-5 5,-5z" fill="#9A3412"/>
</g>
</g>
</g>
</g>
<g id="Emotion=2 - Sad, Type=Simple">
<path d="M391,132c0,-15.46 12.536,-28 28,-28h287c15.464,0 28,12.54 28,28c0,15.46 -12.536,28 -28,28h-287c-15.464,0 -28,-12.54 -28,-28z" fill="white"/>
<g id="Frame_252">
<g id="face depressed_5">
<g id="Vector_381">
<path d="M419.203,124.93c0.957,-0.55 2.18,-0.22 2.733,0.74c0.175,0.3 0.428,0.55 0.732,0.73c0.304,0.17 0.648,0.27 1,0.27c0.351,0 0.696,-0.1 1,-0.27c0.304,-0.18 0.556,-0.43 0.732,-0.73c0.552,-0.96 1.775,-1.29 2.732,-0.74c0.956,0.56 1.284,1.78 0.732,2.74c-0.527,0.91 -1.284,1.67 -2.196,2.19c-0.913,0.53 -1.947,0.81 -3,0.81c-1.054,0 -2.088,-0.28 -3,-0.81c-0.913,-0.52 -1.67,-1.28 -2.197,-2.19c-0.552,-0.96 -0.224,-2.18 0.732,-2.74z" fill="#D6D3D1"/>
<path d="M433.87,124.93c0.957,-0.55 2.18,-0.22 2.732,0.74c0.176,0.3 0.428,0.55 0.732,0.73c0.304,0.17 0.649,0.27 1,0.27c0.351,0 0.696,-0.1 1,-0.27c0.304,-0.18 0.557,-0.43 0.732,-0.73c0.553,-0.96 1.776,-1.29 2.732,-0.74c0.957,0.56 1.285,1.78 0.732,2.74c-0.526,0.91 -1.284,1.67 -2.196,2.19c-0.912,0.53 -1.947,0.81 -3,0.81c-1.053,0 -2.088,-0.28 -3,-0.81c-0.912,-0.52 -1.669,-1.28 -2.196,-2.19c-0.552,-0.96 -0.224,-2.18 0.732,-2.74z" fill="#D6D3D1"/>
<path d="M431.001,133.33c-1.751,0 -3.485,0.35 -5.102,1.02c-1.618,0.67 -3.088,1.65 -4.326,2.89c-0.763,0.76 -0.991,1.91 -0.578,2.9c0.413,1 1.385,1.65 2.464,1.65h15.085c1.078,0 2.05,-0.65 2.463,-1.65c0.413,-0.99 0.185,-2.14 -0.578,-2.9c-1.238,-1.24 -2.708,-2.22 -4.326,-2.89c-1.617,-0.67 -3.351,-1.02 -5.102,-1.02z" fill="#D6D3D1"/>
</g>
</g>
</g>
<path id="Vector_382" d="M463.875,121v22" stroke="#F5F5F4" stroke-width="2" stroke-linecap="round" stroke-linejoin="round"/>
<g id="Frame_253">
<g id="face sad_5">
<g id="Vector_383">
<path d="M492.749,127.33c0,-1.84 -1.493,-3.33 -3.334,-3.33c-1.841,0 -3.333,1.49 -3.333,3.33c0,1.84 1.492,3.34 3.333,3.34c1.841,0 3.334,-1.5 3.334,-3.34z" fill="#FB923C"/>
<path d="M491.646,134.35c1.618,-0.67 3.352,-1.02 5.103,-1.02c1.751,0 3.484,0.35 5.102,1.02c1.618,0.67 3.088,1.65 4.326,2.89c1.041,1.04 1.041,2.73 0,3.77c-1.042,1.04 -2.73,1.04 -3.771,0c-0.743,-0.74 -1.625,-1.33 -2.596,-1.73c-0.97,-0.41 -2.011,-0.61 -3.061,-0.61c-1.051,0 -2.091,0.2 -3.062,0.61c-0.97,0.4 -1.852,0.99 -2.595,1.73c-1.042,1.04 -2.73,1.04 -3.771,0c-1.042,-1.04 -1.042,-2.73 0,-3.77c1.238,-1.24 2.708,-2.22 4.325,-2.89z" fill="#FB923C"/>
<path d="M504.082,124c1.841,0 3.333,1.49 3.333,3.33c0,1.84 -1.492,3.34 -3.333,3.34c-1.841,0 -3.333,-1.5 -3.333,-3.34c0,-1.84 1.492,-3.33 3.333,-3.33z" fill="#FB923C"/>
</g>
</g>
</g>
<path id="Vector_384" d="M529.625,121v22" stroke="#F5F5F4" stroke-width="2" stroke-linecap="round" stroke-linejoin="round"/>
<g id="Frame_254">
<g id="face neutral_4">
<g id="Vector_385">
<path d="M558.499,127.33c0,-1.84 -1.493,-3.33 -3.334,-3.33c-1.841,0 -3.333,1.49 -3.333,3.33c0,1.84 1.492,3.34 3.333,3.34c1.841,0 3.334,-1.5 3.334,-3.34z" fill="#D6D3D1"/>
<path d="M573.165,127.33c0,-1.84 -1.492,-3.33 -3.333,-3.33c-1.841,0 -3.333,1.49 -3.333,3.33c0,1.84 1.492,3.34 3.333,3.34c1.841,0 3.333,-1.5 3.333,-3.34z" fill="#D6D3D1"/>
<path d="M555.832,136c-1.473,0 -2.667,1.19 -2.667,2.67c0,1.47 1.194,2.66 2.667,2.66h13.333c1.473,0 2.667,-1.19 2.667,-2.66c0,-1.48 -1.194,-2.67 -2.667,-2.67z" fill="#D6D3D1"/>
</g>
</g>
</g>
<path id="Vector_386" d="M595.375,121v22" stroke="#F5F5F4" stroke-width="2" stroke-linecap="round" stroke-linejoin="round"/>
<g id="Frame_255">
<g id="face happy_4">
<g id="Vector_387">
<path d="M624.249,127.33c0,-1.84 -1.493,-3.33 -3.334,-3.33c-1.841,0 -3.333,1.49 -3.333,3.33c0,1.84 1.492,3.34 3.333,3.34c1.841,0 3.334,-1.5 3.334,-3.34z" fill="#D6D3D1"/>
<path d="M638.915,127.33c0,-1.84 -1.492,-3.33 -3.333,-3.33c-1.841,0 -3.333,1.49 -3.333,3.33c0,1.84 1.492,3.34 3.333,3.34c1.841,0 3.333,-1.5 3.333,-3.34z" fill="#D6D3D1"/>
<path d="M628.249,142.67c-1.751,0 -3.485,-0.35 -5.103,-1.02c-1.617,-0.67 -3.087,-1.65 -4.325,-2.89c-1.042,-1.04 -1.042,-2.73 0,-3.77c1.041,-1.04 2.729,-1.04 3.771,0c0.743,0.74 1.625,1.33 2.595,1.73c0.971,0.41 2.011,0.61 3.062,0.61c1.05,0 2.091,-0.2 3.061,-0.61c0.971,-0.4 1.853,-0.99 2.596,-1.73c1.041,-1.04 2.729,-1.04 3.771,0c1.041,1.04 1.041,2.73 0,3.77c-1.238,1.24 -2.708,2.22 -4.326,2.89c-1.618,0.67 -3.351,1.02 -5.102,1.02z" fill="#D6D3D1"/>
</g>
</g>
</g>
<path id="Vector_388" d="M661.125,121v22" stroke="#F5F5F4" stroke-width="2" stroke-linecap="round" stroke-linejoin="round"/>
<g id="Frame_256">
<g id="face overjoyed_6">
<g id="Vector_389">
<path d="M682.203,130.4c0.957,0.55 2.18,0.22 2.733,-0.73c0.175,-0.31 0.428,-0.56 0.732,-0.74c0.304,-0.17 0.648,-0.26 1,-0.26c0.351,0 0.696,0.09 1,0.26c0.304,0.18 0.556,0.43 0.732,0.74c0.552,0.95 1.775,1.28 2.732,0.73c0.956,-0.55 1.284,-1.78 0.732,-2.73c-0.527,-0.92 -1.284,-1.67 -2.196,-2.2c-0.913,-0.53 -1.947,-0.8 -3,-0.8c-1.054,0 -2.088,0.27 -3,0.8c-0.913,0.53 -1.67,1.28 -2.197,2.2c-0.552,0.95 -0.224,2.18 0.732,2.73z" fill="#D6D3D1"/>
<path d="M696.87,130.4c0.957,0.55 2.18,0.22 2.732,-0.73c0.176,-0.31 0.428,-0.56 0.732,-0.74c0.304,-0.17 0.649,-0.26 1,-0.26c0.351,0 0.696,0.09 1,0.26c0.304,0.18 0.557,0.43 0.732,0.74c0.553,0.95 1.776,1.28 2.732,0.73c0.957,-0.55 1.285,-1.78 0.732,-2.73c-0.526,-0.92 -1.284,-1.67 -2.196,-2.2c-0.912,-0.53 -1.947,-0.8 -3,-0.8c-1.053,0 -2.088,0.27 -3,0.8c-0.912,0.53 -1.669,1.28 -2.196,2.2c-0.552,0.95 -0.224,2.18 0.732,2.73z" fill="#D6D3D1"/>
<path d="M694.001,142.67c-1.751,0 -3.485,-0.35 -5.102,-1.02c-1.618,-0.67 -3.088,-1.65 -4.326,-2.89c-0.763,-0.76 -0.991,-1.91 -0.578,-2.9c0.413,-1 1.385,-1.65 2.464,-1.65h15.085c1.078,0 2.05,0.65 2.463,1.65c0.413,0.99 0.185,2.14 -0.578,2.9c-1.238,1.24 -2.708,2.22 -4.326,2.89c-1.617,0.67 -3.351,1.02 -5.102,1.02z" fill="#D6D3D1"/>
</g>
</g>
</g>
</g>
<g id="Emotion=3 - Neutral, Type=Button Icon">
<path d="M24,212c0,-15.46 12.536,-28 28,-28h287c15.464,0 28,12.54 28,28c0,15.46 -12.536,28 -28,28h-287c-15.464,0 -28,-12.54 -28,-28z" fill="white"/>
<g id="Frame_257">
<g id="face depressed_6">
<g id="Vector_390">
<path d="M52.203,204.93c0.957,-0.55 2.18,-0.22 2.733,0.74c0.175,0.3 0.428,0.55 0.732,0.73c0.304,0.17 0.648,0.27 1,0.27c0.351,0 0.696,-0.1 1,-0.27c0.304,-0.18 0.556,-0.43 0.732,-0.73c0.552,-0.96 1.775,-1.29 2.732,-0.74c0.956,0.56 1.284,1.78 0.732,2.74c-0.527,0.91 -1.284,1.67 -2.196,2.19c-0.913,0.53 -1.947,0.81 -3,0.81c-1.054,0 -2.088,-0.28 -3,-0.81c-0.913,-0.52 -1.67,-1.28 -2.197,-2.19c-0.552,-0.96 -0.224,-2.18 0.732,-2.74z" fill="#D6D3D1"/>
<path d="M66.87,204.93c0.957,-0.55 2.18,-0.22 2.732,0.74c0.176,0.3 0.428,0.55 0.732,0.73c0.304,0.17 0.649,0.27 1,0.27c0.351,0 0.696,-0.1 1,-0.27c0.304,-0.18 0.557,-0.43 0.732,-0.73c0.553,-0.96 1.776,-1.29 2.732,-0.74c0.957,0.56 1.285,1.78 0.732,2.74c-0.526,0.91 -1.284,1.67 -2.196,2.19c-0.912,0.53 -1.947,0.81 -3,0.81c-1.053,0 -2.088,-0.28 -3,-0.81c-0.912,-0.52 -1.669,-1.28 -2.196,-2.19c-0.552,-0.96 -0.224,-2.18 0.732,-2.74z" fill="#D6D3D1"/>
<path d="M64.001,213.33c-1.751,0 -3.485,0.35 -5.102,1.02c-1.618,0.67 -3.088,1.65 -4.326,2.89c-0.763,0.76 -0.991,1.91 -0.578,2.9c0.413,1 1.385,1.65 2.464,1.65h15.085c1.078,0 2.05,-0.65 2.463,-1.65c0.413,-0.99 0.185,-2.14 -0.578,-2.9c-1.238,-1.24 -2.708,-2.22 -4.326,-2.89c-1.617,-0.67 -3.351,-1.02 -5.102,-1.02z" fill="#D6D3D1"/>
</g>
</g>
</g>
<path id="Vector_391" d="M96.875,201v22" stroke="#F5F5F4" stroke-width="2" stroke-linecap="round" stroke-linejoin="round"/>
<g id="Frame_258">
<g id="face sad_6">
<g id="Vector_392">
<path d="M125.749,207.33c0,-1.84 -1.493,-3.33 -3.334,-3.33c-1.841,0 -3.333,1.49 -3.333,3.33c0,1.84 1.492,3.34 3.333,3.34c1.841,0 3.334,-1.5 3.334,-3.34z" fill="#D6D3D1"/>
<path d="M124.646,214.35c1.618,-0.67 3.352,-1.02 5.103,-1.02c1.751,0 3.484,0.35 5.102,1.02c1.618,0.67 3.088,1.65 4.326,2.89c1.041,1.04 1.041,2.73 0,3.77c-1.042,1.04 -2.73,1.04 -3.771,0c-0.743,-0.74 -1.625,-1.33 -2.596,-1.73c-0.97,-0.41 -2.011,-0.61 -3.061,-0.61c-1.051,0 -2.091,0.2 -3.062,0.61c-0.97,0.4 -1.852,0.99 -2.595,1.73c-1.042,1.04 -2.73,1.04 -3.771,0c-1.042,-1.04 -1.042,-2.73 0,-3.77c1.238,-1.24 2.708,-2.22 4.325,-2.89z" fill="#D6D3D1"/>
<path d="M137.082,204c1.841,0 3.333,1.49 3.333,3.33c0,1.84 -1.492,3.34 -3.333,3.34c-1.841,0 -3.333,-1.5 -3.333,-3.34c0,-1.84 1.492,-3.33 3.333,-3.33z" fill="#D6D3D1"/>
</g>
</g>
</g>
<path id="Vector_393" d="M162.625,201v22" stroke="#F5F5F4" stroke-width="2" stroke-linecap="round" stroke-linejoin="round"/>
<g id="Frame_259">
<g id="face neutral_5">
<g id="Vector_394">
<path d="M191.499,207.33c0,-1.84 -1.493,-3.33 -3.334,-3.33c-1.841,0 -3.333,1.49 -3.333,3.33c0,1.84 1.492,3.34 3.333,3.34c1.841,0 3.334,-1.5 3.334,-3.34z" fill="#D6D3D1"/>
<path d="M206.165,207.33c0,-1.84 -1.492,-3.33 -3.333,-3.33c-1.841,0 -3.333,1.49 -3.333,3.33c0,1.84 1.492,3.34 3.333,3.34c1.841,0 3.333,-1.5 3.333,-3.34z" fill="#D6D3D1"/>
<path d="M188.832,216c-1.473,0 -2.667,1.19 -2.667,2.67c0,1.47 1.194,2.66 2.667,2.66h13.333c1.473,0 2.667,-1.19 2.667,-2.66c0,-1.48 -1.194,-2.67 -2.667,-2.67z" fill="#D6D3D1"/>
</g>
</g>
</g>
<path id="Vector_395" d="M228.375,201v22" stroke="#F5F5F4" stroke-width="2" stroke-linecap="round" stroke-linejoin="round"/>
<g id="Frame_260">
<g id="face happy_5">
<g id="Vector_396">
<path d="M257.249,207.33c0,-1.84 -1.493,-3.33 -3.334,-3.33c-1.841,0 -3.333,1.49 -3.333,3.33c0,1.84 1.492,3.34 3.333,3.34c1.841,0 3.334,-1.5 3.334,-3.34z" fill="#D6D3D1"/>
<path d="M271.915,207.33c0,-1.84 -1.492,-3.33 -3.333,-3.33c-1.841,0 -3.333,1.49 -3.333,3.33c0,1.84 1.492,3.34 3.333,3.34c1.841,0 3.333,-1.5 3.333,-3.34z" fill="#D6D3D1"/>
<path d="M261.249,222.67c-1.751,0 -3.485,-0.35 -5.103,-1.02c-1.617,-0.67 -3.087,-1.65 -4.325,-2.89c-1.042,-1.04 -1.042,-2.73 0,-3.77c1.041,-1.04 2.729,-1.04 3.771,0c0.743,0.74 1.625,1.33 2.595,1.73c0.971,0.41 2.011,0.61 3.062,0.61c1.05,0 2.091,-0.2 3.061,-0.61c0.971,-0.4 1.853,-0.99 2.596,-1.73c1.041,-1.04 2.729,-1.04 3.771,0c1.041,1.04 1.041,2.73 0,3.77c-1.238,1.24 -2.708,2.22 -4.326,2.89c-1.618,0.67 -3.351,1.02 -5.102,1.02z" fill="#D6D3D1"/>
</g>
</g>
</g>
<path id="Vector_397" d="M294.125,201v22" stroke="#F5F5F4" stroke-width="2" stroke-linecap="round" stroke-linejoin="round"/>
<g id="Frame_261">
<g id="face overjoyed_7">
<g id="Vector_398">
<path d="M315.203,210.4c0.957,0.55 2.18,0.22 2.733,-0.73c0.175,-0.31 0.428,-0.56 0.732,-0.74c0.304,-0.17 0.648,-0.26 1,-0.26c0.351,0 0.696,0.09 1,0.26c0.304,0.18 0.556,0.43 0.732,0.74c0.552,0.95 1.775,1.28 2.732,0.73c0.956,-0.55 1.284,-1.78 0.732,-2.73c-0.527,-0.92 -1.284,-1.67 -2.196,-2.2c-0.913,-0.53 -1.947,-0.8 -3,-0.8c-1.054,0 -2.088,0.27 -3,0.8c-0.913,0.53 -1.67,1.28 -2.197,2.2c-0.552,0.95 -0.224,2.18 0.732,2.73z" fill="#D6D3D1"/>
<path d="M329.87,210.4c0.957,0.55 2.18,0.22 2.732,-0.73c0.176,-0.31 0.428,-0.56 0.732,-0.74c0.304,-0.17 0.649,-0.26 1,-0.26c0.351,0 0.696,0.09 1,0.26c0.304,0.18 0.557,0.43 0.732,0.74c0.553,0.95 1.776,1.28 2.732,0.73c0.957,-0.55 1.285,-1.78 0.732,-2.73c-0.526,-0.92 -1.284,-1.67 -2.196,-2.2c-0.912,-0.53 -1.947,-0.8 -3,-0.8c-1.053,0 -2.088,0.27 -3,0.8c-0.912,0.53 -1.669,1.28 -2.196,2.2c-0.552,0.95 -0.224,2.18 0.732,2.73z" fill="#D6D3D1"/>
<path d="M327.001,222.67c-1.751,0 -3.485,-0.35 -5.102,-1.02c-1.618,-0.67 -3.088,-1.65 -4.326,-2.89c-0.763,-0.76 -0.991,-1.91 -0.578,-2.9c0.413,-1 1.385,-1.65 2.464,-1.65h15.085c1.078,0 2.05,0.65 2.463,1.65c0.413,0.99 0.185,2.14 -0.578,2.9c-1.238,1.24 -2.708,2.22 -4.326,2.89c-1.617,0.67 -3.351,1.02 -5.102,1.02z" fill="#D6D3D1"/>
</g>
</g>
</g>
<g id="Frame_262" filter="url(#filter29_dd_10723_18403)">
<path d="M155,212c0,-22.09 17.909,-40 40,-40c22.091,0 40,17.91 40,40c0,22.09 -17.909,40 -40,40c-22.091,0 -40,-17.91 -40,-40z" fill="#B1865E"/>
<g id="face happy_6">
<g id="Vector_399">
<path d="M189,205c0,-2.76 -2.239,-5 -5,-5c-2.761,0 -5,2.24 -5,5c0,2.76 2.239,5 5,5c2.761,0 5,-2.24 5,-5z" fill="#533630"/>
<path d="M211,205c0,-2.76 -2.239,-5 -5,-5c-2.761,0 -5,2.24 -5,5c0,2.76 2.239,5 5,5c2.761,0 5,-2.24 5,-5z" fill="#533630"/>
<path d="M195,228c-2.626,0 -5.227,-0.52 -7.654,-1.52c-2.426,-1.01 -4.631,-2.48 -6.488,-4.34c-1.562,-1.56 -1.562,-4.09 0,-5.65c1.562,-1.57 4.095,-1.57 5.657,0c1.114,1.11 2.437,1.99 3.893,2.6c1.456,0.6 3.016,0.91 4.592,0.91c1.576,0 3.136,-0.31 4.592,-0.91c1.456,-0.61 2.779,-1.49 3.893,-2.6c1.562,-1.57 4.095,-1.57 5.657,0c1.562,1.56 1.562,4.09 0,5.65c-1.857,1.86 -4.062,3.33 -6.488,4.34c-2.427,1 -5.028,1.52 -7.654,1.52z" fill="#533630"/>
</g>
</g>
</g>
</g>
<g id="Emotion=3 - Neutral, Type=Simple">
<path d="M391,212c0,-15.46 12.536,-28 28,-28h287c15.464,0 28,12.54 28,28c0,15.46 -12.536,28 -28,28h-287c-15.464,0 -28,-12.54 -28,-28z" fill="white"/>
<g id="Frame_263">
<g id="face depressed_7">
<g id="Vector_400">
<path d="M419.203,204.93c0.957,-0.55 2.18,-0.22 2.733,0.74c0.175,0.3 0.428,0.55 0.732,0.73c0.304,0.17 0.648,0.27 1,0.27c0.351,0 0.696,-0.1 1,-0.27c0.304,-0.18 0.556,-0.43 0.732,-0.73c0.552,-0.96 1.775,-1.29 2.732,-0.74c0.956,0.56 1.284,1.78 0.732,2.74c-0.527,0.91 -1.284,1.67 -2.196,2.19c-0.913,0.53 -1.947,0.81 -3,0.81c-1.054,0 -2.088,-0.28 -3,-0.81c-0.913,-0.52 -1.67,-1.28 -2.197,-2.19c-0.552,-0.96 -0.224,-2.18 0.732,-2.74z" fill="#D6D3D1"/>
<path d="M433.87,204.93c0.957,-0.55 2.18,-0.22 2.732,0.74c0.176,0.3 0.428,0.55 0.732,0.73c0.304,0.17 0.649,0.27 1,0.27c0.351,0 0.696,-0.1 1,-0.27c0.304,-0.18 0.557,-0.43 0.732,-0.73c0.553,-0.96 1.776,-1.29 2.732,-0.74c0.957,0.56 1.285,1.78 0.732,2.74c-0.526,0.91 -1.284,1.67 -2.196,2.19c-0.912,0.53 -1.947,0.81 -3,0.81c-1.053,0 -2.088,-0.28 -3,-0.81c-0.912,-0.52 -1.669,-1.28 -2.196,-2.19c-0.552,-0.96 -0.224,-2.18 0.732,-2.74z" fill="#D6D3D1"/>
<path d="M431.001,213.33c-1.751,0 -3.485,0.35 -5.102,1.02c-1.618,0.67 -3.088,1.65 -4.326,2.89c-0.763,0.76 -0.991,1.91 -0.578,2.9c0.413,1 1.385,1.65 2.464,1.65h15.085c1.078,0 2.05,-0.65 2.463,-1.65c0.413,-0.99 0.185,-2.14 -0.578,-2.9c-1.238,-1.24 -2.708,-2.22 -4.326,-2.89c-1.617,-0.67 -3.351,-1.02 -5.102,-1.02z" fill="#D6D3D1"/>
</g>
</g>
</g>
<path id="Vector_401" d="M463.875,201v22" stroke="#F5F5F4" stroke-width="2" stroke-linecap="round" stroke-linejoin="round"/>
<g id="Frame_264">
<g id="face sad_7">
<g id="Vector_402">
<path d="M492.749,207.33c0,-1.84 -1.493,-3.33 -3.334,-3.33c-1.841,0 -3.333,1.49 -3.333,3.33c0,1.84 1.492,3.34 3.333,3.34c1.841,0 3.334,-1.5 3.334,-3.34z" fill="#D6D3D1"/>
<path d="M491.646,214.35c1.618,-0.67 3.352,-1.02 5.103,-1.02c1.751,0 3.484,0.35 5.102,1.02c1.618,0.67 3.088,1.65 4.326,2.89c1.041,1.04 1.041,2.73 0,3.77c-1.042,1.04 -2.73,1.04 -3.771,0c-0.743,-0.74 -1.625,-1.33 -2.596,-1.73c-0.97,-0.41 -2.011,-0.61 -3.061,-0.61c-1.051,0 -2.091,0.2 -3.062,0.61c-0.97,0.4 -1.852,0.99 -2.595,1.73c-1.042,1.04 -2.73,1.04 -3.771,0c-1.042,-1.04 -1.042,-2.73 0,-3.77c1.238,-1.24 2.708,-2.22 4.325,-2.89z" fill="#D6D3D1"/>
<path d="M504.082,204c1.841,0 3.333,1.49 3.333,3.33c0,1.84 -1.492,3.34 -3.333,3.34c-1.841,0 -3.333,-1.5 -3.333,-3.34c0,-1.84 1.492,-3.33 3.333,-3.33z" fill="#D6D3D1"/>
</g>
</g>
</g>
<path id="Vector_403" d="M529.625,201v22" stroke="#F5F5F4" stroke-width="2" stroke-linecap="round" stroke-linejoin="round"/>
<g id="Frame_265">
<g id="face neutral_6">
<g id="Vector_404">
<path d="M558.499,207.33c0,-1.84 -1.493,-3.33 -3.334,-3.33c-1.841,0 -3.333,1.49 -3.333,3.33c0,1.84 1.492,3.34 3.333,3.34c1.841,0 3.334,-1.5 3.334,-3.34z" fill="#B1865E"/>
<path d="M573.165,207.33c0,-1.84 -1.492,-3.33 -3.333,-3.33c-1.841,0 -3.333,1.49 -3.333,3.33c0,1.84 1.492,3.34 3.333,3.34c1.841,0 3.333,-1.5 3.333,-3.34z" fill="#B1865E"/>
<path d="M555.832,216c-1.473,0 -2.667,1.19 -2.667,2.67c0,1.47 1.194,2.66 2.667,2.66h13.333c1.473,0 2.667,-1.19 2.667,-2.66c0,-1.48 -1.194,-2.67 -2.667,-2.67z" fill="#B1865E"/>
</g>
</g>
</g>
<path id="Vector_405" d="M595.375,201v22" stroke="#F5F5F4" stroke-width="2" stroke-linecap="round" stroke-linejoin="round"/>
<g id="Frame_266">
<g id="face happy_7">
<g id="Vector_406">
<path d="M624.249,207.33c0,-1.84 -1.493,-3.33 -3.334,-3.33c-1.841,0 -3.333,1.49 -3.333,3.33c0,1.84 1.492,3.34 3.333,3.34c1.841,0 3.334,-1.5 3.334,-3.34z" fill="#D6D3D1"/>
<path d="M638.915,207.33c0,-1.84 -1.492,-3.33 -3.333,-3.33c-1.841,0 -3.333,1.49 -3.333,3.33c0,1.84 1.492,3.34 3.333,3.34c1.841,0 3.333,-1.5 3.333,-3.34z" fill="#D6D3D1"/>
<path d="M628.249,222.67c-1.751,0 -3.485,-0.35 -5.103,-1.02c-1.617,-0.67 -3.087,-1.65 -4.325,-2.89c-1.042,-1.04 -1.042,-2.73 0,-3.77c1.041,-1.04 2.729,-1.04 3.771,0c0.743,0.74 1.625,1.33 2.595,1.73c0.971,0.41 2.011,0.61 3.062,0.61c1.05,0 2.091,-0.2 3.061,-0.61c0.971,-0.4 1.853,-0.99 2.596,-1.73c1.041,-1.04 2.729,-1.04 3.771,0c1.041,1.04 1.041,2.73 0,3.77c-1.238,1.24 -2.708,2.22 -4.326,2.89c-1.618,0.67 -3.351,1.02 -5.102,1.02z" fill="#D6D3D1"/>
</g>
</g>
</g>
<path id="Vector_407" d="M661.125,201v22" stroke="#F5F5F4" stroke-width="2" stroke-linecap="round" stroke-linejoin="round"/>
<g id="Frame_267">
<g id="face overjoyed_8">
<g id="Vector_408">
<path d="M682.203,210.4c0.957,0.55 2.18,0.22 2.733,-0.73c0.175,-0.31 0.428,-0.56 0.732,-0.74c0.304,-0.17 0.648,-0.26 1,-0.26c0.351,0 0.696,0.09 1,0.26c0.304,0.18 0.556,0.43 0.732,0.74c0.552,0.95 1.775,1.28 2.732,0.73c0.956,-0.55 1.284,-1.78 0.732,-2.73c-0.527,-0.92 -1.284,-1.67 -2.196,-2.2c-0.913,-0.53 -1.947,-0.8 -3,-0.8c-1.054,0 -2.088,0.27 -3,0.8c-0.913,0.53 -1.67,1.28 -2.197,2.2c-0.552,0.95 -0.224,2.18 0.732,2.73z" fill="#D6D3D1"/>
<path d="M696.87,210.4c0.957,0.55 2.18,0.22 2.732,-0.73c0.176,-0.31 0.428,-0.56 0.732,-0.74c0.304,-0.17 0.649,-0.26 1,-0.26c0.351,0 0.696,0.09 1,0.26c0.304,0.18 0.557,0.43 0.732,0.74c0.553,0.95 1.776,1.28 2.732,0.73c0.957,-0.55 1.285,-1.78 0.732,-2.73c-0.526,-0.92 -1.284,-1.67 -2.196,-2.2c-0.912,-0.53 -1.947,-0.8 -3,-0.8c-1.053,0 -2.088,0.27 -3,0.8c-0.912,0.53 -1.669,1.28 -2.196,2.2c-0.552,0.95 -0.224,2.18 0.732,2.73z" fill="#D6D3D1"/>
<path d="M694.001,222.67c-1.751,0 -3.485,-0.35 -5.102,-1.02c-1.618,-0.67 -3.088,-1.65 -4.326,-2.89c-0.763,-0.76 -0.991,-1.91 -0.578,-2.9c0.413,-1 1.385,-1.65 2.464,-1.65h15.085c1.078,0 2.05,0.65 2.463,1.65c0.413,0.99 0.185,2.14 -0.578,2.9c-1.238,1.24 -2.708,2.22 -4.326,2.89c-1.617,0.67 -3.351,1.02 -5.102,1.02z" fill="#D6D3D1"/>
</g>
</g>
</g>
</g>
<g id="Emotion=4 - Happy, Type=Button Icon">
<path d="M24,292c0,-15.46 12.536,-28 28,-28h287c15.464,0 28,12.54 28,28c0,15.46 -12.536,28 -28,28h-287c-15.464,0 -28,-12.54 -28,-28z" fill="white"/>
<g id="Frame_268">
<g id="face depressed_8">
<g id="Vector_409">
<path d="M52.203,284.93c0.957,-0.55 2.18,-0.22 2.733,0.74c0.175,0.3 0.428,0.55 0.732,0.73c0.304,0.17 0.648,0.27 1,0.27c0.351,0 0.696,-0.1 1,-0.27c0.304,-0.18 0.556,-0.43 0.732,-0.73c0.552,-0.96 1.775,-1.29 2.732,-0.74c0.956,0.56 1.284,1.78 0.732,2.74c-0.527,0.91 -1.284,1.67 -2.196,2.19c-0.913,0.53 -1.947,0.81 -3,0.81c-1.054,0 -2.088,-0.28 -3,-0.81c-0.913,-0.52 -1.67,-1.28 -2.197,-2.19c-0.552,-0.96 -0.224,-2.18 0.732,-2.74z" fill="#D6D3D1"/>
<path d="M66.87,284.93c0.957,-0.55 2.18,-0.22 2.732,0.74c0.176,0.3 0.428,0.55 0.732,0.73c0.304,0.17 0.649,0.27 1,0.27c0.351,0 0.696,-0.1 1,-0.27c0.304,-0.18 0.557,-0.43 0.732,-0.73c0.553,-0.96 1.776,-1.29 2.732,-0.74c0.957,0.56 1.285,1.78 0.732,2.74c-0.526,0.91 -1.284,1.67 -2.196,2.19c-0.912,0.53 -1.947,0.81 -3,0.81c-1.053,0 -2.088,-0.28 -3,-0.81c-0.912,-0.52 -1.669,-1.28 -2.196,-2.19c-0.552,-0.96 -0.224,-2.18 0.732,-2.74z" fill="#D6D3D1"/>
<path d="M64.001,293.33c-1.751,0 -3.485,0.35 -5.102,1.02c-1.618,0.67 -3.088,1.65 -4.326,2.89c-0.763,0.76 -0.991,1.91 -0.578,2.9c0.413,1 1.385,1.65 2.464,1.65h15.085c1.078,0 2.05,-0.65 2.463,-1.65c0.413,-0.99 0.185,-2.14 -0.578,-2.9c-1.238,-1.24 -2.708,-2.22 -4.326,-2.89c-1.617,-0.67 -3.351,-1.02 -5.102,-1.02z" fill="#D6D3D1"/>
</g>
</g>
</g>
<path id="Vector_410" d="M96.875,281v22" stroke="#F5F5F4" stroke-width="2" stroke-linecap="round" stroke-linejoin="round"/>
<g id="Frame_269">
<g id="face sad_8">
<g id="Vector_411">
<path d="M125.749,287.33c0,-1.84 -1.493,-3.33 -3.334,-3.33c-1.841,0 -3.333,1.49 -3.333,3.33c0,1.84 1.492,3.34 3.333,3.34c1.841,0 3.334,-1.5 3.334,-3.34z" fill="#D6D3D1"/>
<path d="M124.646,294.35c1.618,-0.67 3.352,-1.02 5.103,-1.02c1.751,0 3.484,0.35 5.102,1.02c1.618,0.67 3.088,1.65 4.326,2.89c1.041,1.04 1.041,2.73 0,3.77c-1.042,1.04 -2.73,1.04 -3.771,0c-0.743,-0.74 -1.625,-1.33 -2.596,-1.73c-0.97,-0.41 -2.011,-0.61 -3.061,-0.61c-1.051,0 -2.091,0.2 -3.062,0.61c-0.97,0.4 -1.852,0.99 -2.595,1.73c-1.042,1.04 -2.73,1.04 -3.771,0c-1.042,-1.04 -1.042,-2.73 0,-3.77c1.238,-1.24 2.708,-2.22 4.325,-2.89z" fill="#D6D3D1"/>
<path d="M137.082,284c1.841,0 3.333,1.49 3.333,3.33c0,1.84 -1.492,3.34 -3.333,3.34c-1.841,0 -3.333,-1.5 -3.333,-3.34c0,-1.84 1.492,-3.33 3.333,-3.33z" fill="#D6D3D1"/>
</g>
</g>
</g>
<path id="Vector_412" d="M162.625,281v22" stroke="#F5F5F4" stroke-width="2" stroke-linecap="round" stroke-linejoin="round"/>
<g id="Frame_270">
<g id="face neutral_7">
<g id="Vector_413">
<path d="M191.499,287.33c0,-1.84 -1.493,-3.33 -3.334,-3.33c-1.841,0 -3.333,1.49 -3.333,3.33c0,1.84 1.492,3.34 3.333,3.34c1.841,0 3.334,-1.5 3.334,-3.34z" fill="#D6D3D1"/>
<path d="M206.165,287.33c0,-1.84 -1.492,-3.33 -3.333,-3.33c-1.841,0 -3.333,1.49 -3.333,3.33c0,1.84 1.492,3.34 3.333,3.34c1.841,0 3.333,-1.5 3.333,-3.34z" fill="#D6D3D1"/>
<path d="M188.832,296c-1.473,0 -2.667,1.19 -2.667,2.67c0,1.47 1.194,2.66 2.667,2.66h13.333c1.473,0 2.667,-1.19 2.667,-2.66c0,-1.48 -1.194,-2.67 -2.667,-2.67z" fill="#D6D3D1"/>
</g>
</g>
</g>
<path id="Vector_414" d="M228.375,281v22" stroke="#F5F5F4" stroke-width="2" stroke-linecap="round" stroke-linejoin="round"/>
<g id="Frame_271">
<g id="face happy_8">
<g id="Vector_415">
<path d="M257.249,287.33c0,-1.84 -1.493,-3.33 -3.334,-3.33c-1.841,0 -3.333,1.49 -3.333,3.33c0,1.84 1.492,3.34 3.333,3.34c1.841,0 3.334,-1.5 3.334,-3.34z" fill="#D6D3D1"/>
<path d="M271.915,287.33c0,-1.84 -1.492,-3.33 -3.333,-3.33c-1.841,0 -3.333,1.49 -3.333,3.33c0,1.84 1.492,3.34 3.333,3.34c1.841,0 3.333,-1.5 3.333,-3.34z" fill="#D6D3D1"/>
<path d="M261.249,302.67c-1.751,0 -3.485,-0.35 -5.103,-1.02c-1.617,-0.67 -3.087,-1.65 -4.325,-2.89c-1.042,-1.04 -1.042,-2.73 0,-3.77c1.041,-1.04 2.729,-1.04 3.771,0c0.743,0.74 1.625,1.33 2.595,1.73c0.971,0.41 2.011,0.61 3.062,0.61c1.05,0 2.091,-0.2 3.061,-0.61c0.971,-0.4 1.853,-0.99 2.596,-1.73c1.041,-1.04 2.729,-1.04 3.771,0c1.041,1.04 1.041,2.73 0,3.77c-1.238,1.24 -2.708,2.22 -4.326,2.89c-1.618,0.67 -3.351,1.02 -5.102,1.02z" fill="#D6D3D1"/>
</g>
</g>
</g>
<path id="Vector_416" d="M294.125,281v22" stroke="#F5F5F4" stroke-width="2" stroke-linecap="round" stroke-linejoin="round"/>
<g id="Frame_272">
<g id="face overjoyed_9">
<g id="Vector_417">
<path d="M315.203,290.4c0.957,0.55 2.18,0.22 2.733,-0.73c0.175,-0.31 0.428,-0.56 0.732,-0.74c0.304,-0.17 0.648,-0.26 1,-0.26c0.351,0 0.696,0.09 1,0.26c0.304,0.18 0.556,0.43 0.732,0.74c0.552,0.95 1.775,1.28 2.732,0.73c0.956,-0.55 1.284,-1.78 0.732,-2.73c-0.527,-0.92 -1.284,-1.67 -2.196,-2.2c-0.913,-0.53 -1.947,-0.8 -3,-0.8c-1.054,0 -2.088,0.27 -3,0.8c-0.913,0.53 -1.67,1.28 -2.197,2.2c-0.552,0.95 -0.224,2.18 0.732,2.73z" fill="#D6D3D1"/>
<path d="M329.87,290.4c0.957,0.55 2.18,0.22 2.732,-0.73c0.176,-0.31 0.428,-0.56 0.732,-0.74c0.304,-0.17 0.649,-0.26 1,-0.26c0.351,0 0.696,0.09 1,0.26c0.304,0.18 0.557,0.43 0.732,0.74c0.553,0.95 1.776,1.28 2.732,0.73c0.957,-0.55 1.285,-1.78 0.732,-2.73c-0.526,-0.92 -1.284,-1.67 -2.196,-2.2c-0.912,-0.53 -1.947,-0.8 -3,-0.8c-1.053,0 -2.088,0.27 -3,0.8c-0.912,0.53 -1.669,1.28 -2.196,2.2c-0.552,0.95 -0.224,2.18 0.732,2.73z" fill="#D6D3D1"/>
<path d="M327.001,302.67c-1.751,0 -3.485,-0.35 -5.102,-1.02c-1.618,-0.67 -3.088,-1.65 -4.326,-2.89c-0.763,-0.76 -0.991,-1.91 -0.578,-2.9c0.413,-1 1.385,-1.65 2.464,-1.65h15.085c1.078,0 2.05,0.65 2.463,1.65c0.413,0.99 0.185,2.14 -0.578,2.9c-1.238,1.24 -2.708,2.22 -4.326,2.89c-1.617,0.67 -3.351,1.02 -5.102,1.02z" fill="#D6D3D1"/>
</g>
</g>
</g>
<g id="Frame_273" filter="url(#filter30_dd_10723_18403)">
<path d="M221,292c0,-22.09 17.909,-40 40,-40c22.091,0 40,17.91 40,40c0,22.09 -17.909,40 -40,40c-22.091,0 -40,-17.91 -40,-40z" fill="#FBBF24"/>
<g id="face happy_9">
<g id="Vector_418">
<path d="M255,285c0,-2.76 -2.239,-5 -5,-5c-2.761,0 -5,2.24 -5,5c0,2.76 2.239,5 5,5c2.761,0 5,-2.24 5,-5z" fill="#92400E"/>
<path d="M277,285c0,-2.76 -2.239,-5 -5,-5c-2.761,0 -5,2.24 -5,5c0,2.76 2.239,5 5,5c2.761,0 5,-2.24 5,-5z" fill="#92400E"/>
<path d="M261,308c-2.626,0 -5.227,-0.52 -7.654,-1.52c-2.426,-1.01 -4.631,-2.48 -6.488,-4.34c-1.562,-1.56 -1.562,-4.09 0,-5.65c1.562,-1.57 4.095,-1.57 5.657,0c1.114,1.11 2.437,1.99 3.893,2.6c1.456,0.6 3.016,0.91 4.592,0.91c1.576,0 3.136,-0.31 4.592,-0.91c1.456,-0.61 2.779,-1.49 3.893,-2.6c1.562,-1.57 4.095,-1.57 5.657,0c1.562,1.56 1.562,4.09 0,5.65c-1.857,1.86 -4.062,3.33 -6.488,4.34c-2.427,1 -5.028,1.52 -7.654,1.52z" fill="#92400E"/>
</g>
</g>
</g>
</g>
<g id="Emotion=4 - Happy, Type=Simple">
<path d="M391,292c0,-15.46 12.536,-28 28,-28h287c15.464,0 28,12.54 28,28c0,15.46 -12.536,28 -28,28h-287c-15.464,0 -28,-12.54 -28,-28z" fill="white"/>
<g id="Frame_274">
<g id="face depressed_9">
<g id="Vector_419">
<path d="M419.203,284.93c0.957,-0.55 2.18,-0.22 2.733,0.74c0.175,0.3 0.428,0.55 0.732,0.73c0.304,0.17 0.648,0.27 1,0.27c0.351,0 0.696,-0.1 1,-0.27c0.304,-0.18 0.556,-0.43 0.732,-0.73c0.552,-0.96 1.775,-1.29 2.732,-0.74c0.956,0.56 1.284,1.78 0.732,2.74c-0.527,0.91 -1.284,1.67 -2.196,2.19c-0.913,0.53 -1.947,0.81 -3,0.81c-1.054,0 -2.088,-0.28 -3,-0.81c-0.913,-0.52 -1.67,-1.28 -2.197,-2.19c-0.552,-0.96 -0.224,-2.18 0.732,-2.74z" fill="#D6D3D1"/>
<path d="M433.87,284.93c0.957,-0.55 2.18,-0.22 2.732,0.74c0.176,0.3 0.428,0.55 0.732,0.73c0.304,0.17 0.649,0.27 1,0.27c0.351,0 0.696,-0.1 1,-0.27c0.304,-0.18 0.557,-0.43 0.732,-0.73c0.553,-0.96 1.776,-1.29 2.732,-0.74c0.957,0.56 1.285,1.78 0.732,2.74c-0.526,0.91 -1.284,1.67 -2.196,2.19c-0.912,0.53 -1.947,0.81 -3,0.81c-1.053,0 -2.088,-0.28 -3,-0.81c-0.912,-0.52 -1.669,-1.28 -2.196,-2.19c-0.552,-0.96 -0.224,-2.18 0.732,-2.74z" fill="#D6D3D1"/>
<path d="M431.001,293.33c-1.751,0 -3.485,0.35 -5.102,1.02c-1.618,0.67 -3.088,1.65 -4.326,2.89c-0.763,0.76 -0.991,1.91 -0.578,2.9c0.413,1 1.385,1.65 2.464,1.65h15.085c1.078,0 2.05,-0.65 2.463,-1.65c0.413,-0.99 0.185,-2.14 -0.578,-2.9c-1.238,-1.24 -2.708,-2.22 -4.326,-2.89c-1.617,-0.67 -3.351,-1.02 -5.102,-1.02z" fill="#D6D3D1"/>
</g>
</g>
</g>
<path id="Vector_420" d="M463.875,281v22" stroke="#F5F5F4" stroke-width="2" stroke-linecap="round" stroke-linejoin="round"/>
<g id="Frame_275">
<g id="face sad_9">
<g id="Vector_421">
<path d="M492.749,287.33c0,-1.84 -1.493,-3.33 -3.334,-3.33c-1.841,0 -3.333,1.49 -3.333,3.33c0,1.84 1.492,3.34 3.333,3.34c1.841,0 3.334,-1.5 3.334,-3.34z" fill="#D6D3D1"/>
<path d="M491.646,294.35c1.618,-0.67 3.352,-1.02 5.103,-1.02c1.751,0 3.484,0.35 5.102,1.02c1.618,0.67 3.088,1.65 4.326,2.89c1.041,1.04 1.041,2.73 0,3.77c-1.042,1.04 -2.73,1.04 -3.771,0c-0.743,-0.74 -1.625,-1.33 -2.596,-1.73c-0.97,-0.41 -2.011,-0.61 -3.061,-0.61c-1.051,0 -2.091,0.2 -3.062,0.61c-0.97,0.4 -1.852,0.99 -2.595,1.73c-1.042,1.04 -2.73,1.04 -3.771,0c-1.042,-1.04 -1.042,-2.73 0,-3.77c1.238,-1.24 2.708,-2.22 4.325,-2.89z" fill="#D6D3D1"/>
<path d="M504.082,284c1.841,0 3.333,1.49 3.333,3.33c0,1.84 -1.492,3.34 -3.333,3.34c-1.841,0 -3.333,-1.5 -3.333,-3.34c0,-1.84 1.492,-3.33 3.333,-3.33z" fill="#D6D3D1"/>
</g>
</g>
</g>
<path id="Vector_422" d="M529.625,281v22" stroke="#F5F5F4" stroke-width="2" stroke-linecap="round" stroke-linejoin="round"/>
<g id="Frame_276">
<g id="face neutral_8">
<g id="Vector_423">
<path d="M558.499,287.33c0,-1.84 -1.493,-3.33 -3.334,-3.33c-1.841,0 -3.333,1.49 -3.333,3.33c0,1.84 1.492,3.34 3.333,3.34c1.841,0 3.334,-1.5 3.334,-3.34z" fill="#D6D3D1"/>
<path d="M573.165,287.33c0,-1.84 -1.492,-3.33 -3.333,-3.33c-1.841,0 -3.333,1.49 -3.333,3.33c0,1.84 1.492,3.34 3.333,3.34c1.841,0 3.333,-1.5 3.333,-3.34z" fill="#D6D3D1"/>
<path d="M555.832,296c-1.473,0 -2.667,1.19 -2.667,2.67c0,1.47 1.194,2.66 2.667,2.66h13.333c1.473,0 2.667,-1.19 2.667,-2.66c0,-1.48 -1.194,-2.67 -2.667,-2.67z" fill="#D6D3D1"/>
</g>
</g>
</g>
<path id="Vector_424" d="M595.375,281v22" stroke="#F5F5F4" stroke-width="2" stroke-linecap="round" stroke-linejoin="round"/>
<g id="Frame_277">
<g id="face happy_10">
<g id="Vector_425">
<path d="M624.249,287.33c0,-1.84 -1.493,-3.33 -3.334,-3.33c-1.841,0 -3.333,1.49 -3.333,3.33c0,1.84 1.492,3.34 3.333,3.34c1.841,0 3.334,-1.5 3.334,-3.34z" fill="#FBBF24"/>
<path d="M638.915,287.33c0,-1.84 -1.492,-3.33 -3.333,-3.33c-1.841,0 -3.333,1.49 -3.333,3.33c0,1.84 1.492,3.34 3.333,3.34c1.841,0 3.333,-1.5 3.333,-3.34z" fill="#FBBF24"/>
<path d="M628.249,302.67c-1.751,0 -3.485,-0.35 -5.103,-1.02c-1.617,-0.67 -3.087,-1.65 -4.325,-2.89c-1.042,-1.04 -1.042,-2.73 0,-3.77c1.041,-1.04 2.729,-1.04 3.771,0c0.743,0.74 1.625,1.33 2.595,1.73c0.971,0.41 2.011,0.61 3.062,0.61c1.05,0 2.091,-0.2 3.061,-0.61c0.971,-0.4 1.853,-0.99 2.596,-1.73c1.041,-1.04 2.729,-1.04 3.771,0c1.041,1.04 1.041,2.73 0,3.77c-1.238,1.24 -2.708,2.22 -4.326,2.89c-1.618,0.67 -3.351,1.02 -5.102,1.02z" fill="#FBBF24"/>
</g>
</g>
</g>
<path id="Vector_426" d="M661.125,281v22" stroke="#F5F5F4" stroke-width="2" stroke-linecap="round" stroke-linejoin="round"/>
<g id="Frame_278">
<g id="face overjoyed_10">
<g id="Vector_427">
<path d="M682.203,290.4c0.957,0.55 2.18,0.22 2.733,-0.73c0.175,-0.31 0.428,-0.56 0.732,-0.74c0.304,-0.17 0.648,-0.26 1,-0.26c0.351,0 0.696,0.09 1,0.26c0.304,0.18 0.556,0.43 0.732,0.74c0.552,0.95 1.775,1.28 2.732,0.73c0.956,-0.55 1.284,-1.78 0.732,-2.73c-0.527,-0.92 -1.284,-1.67 -2.196,-2.2c-0.913,-0.53 -1.947,-0.8 -3,-0.8c-1.054,0 -2.088,0.27 -3,0.8c-0.913,0.53 -1.67,1.28 -2.197,2.2c-0.552,0.95 -0.224,2.18 0.732,2.73z" fill="#D6D3D1"/>
<path d="M696.87,290.4c0.957,0.55 2.18,0.22 2.732,-0.73c0.176,-0.31 0.428,-0.56 0.732,-0.74c0.304,-0.17 0.649,-0.26 1,-0.26c0.351,0 0.696,0.09 1,0.26c0.304,0.18 0.557,0.43 0.732,0.74c0.553,0.95 1.776,1.28 2.732,0.73c0.957,-0.55 1.285,-1.78 0.732,-2.73c-0.526,-0.92 -1.284,-1.67 -2.196,-2.2c-0.912,-0.53 -1.947,-0.8 -3,-0.8c-1.053,0 -2.088,0.27 -3,0.8c-0.912,0.53 -1.669,1.28 -2.196,2.2c-0.552,0.95 -0.224,2.18 0.732,2.73z" fill="#D6D3D1"/>
<path d="M694.001,302.67c-1.751,0 -3.485,-0.35 -5.102,-1.02c-1.618,-0.67 -3.088,-1.65 -4.326,-2.89c-0.763,-0.76 -0.991,-1.91 -0.578,-2.9c0.413,-1 1.385,-1.65 2.464,-1.65h15.085c1.078,0 2.05,0.65 2.463,1.65c0.413,0.99 0.185,2.14 -0.578,2.9c-1.238,1.24 -2.708,2.22 -4.326,2.89c-1.617,0.67 -3.351,1.02 -5.102,1.02z" fill="#D6D3D1"/>
</g>
</g>
</g>
</g>
<g id="Emotion=5 - Overjoyed, Type=Button Icon">
<path d="M24,372c0,-15.46 12.536,-28 28,-28h287c15.464,0 28,12.54 28,28c0,15.46 -12.536,28 -28,28h-287c-15.464,0 -28,-12.54 -28,-28z" fill="white"/>
<g id="Frame_279">
<g id="face depressed_10">
<g id="Vector_428">
<path d="M52.203,364.93c0.957,-0.55 2.18,-0.22 2.733,0.74c0.175,0.3 0.428,0.55 0.732,0.73c0.304,0.17 0.648,0.27 1,0.27c0.351,0 0.696,-0.1 1,-0.27c0.304,-0.18 0.556,-0.43 0.732,-0.73c0.552,-0.96 1.775,-1.29 2.732,-0.74c0.956,0.56 1.284,1.78 0.732,2.74c-0.527,0.91 -1.284,1.67 -2.196,2.19c-0.913,0.53 -1.947,0.81 -3,0.81c-1.054,0 -2.088,-0.28 -3,-0.81c-0.913,-0.52 -1.67,-1.28 -2.197,-2.19c-0.552,-0.96 -0.224,-2.18 0.732,-2.74z" fill="#D6D3D1"/>
<path d="M66.87,364.93c0.957,-0.55 2.18,-0.22 2.732,0.74c0.176,0.3 0.428,0.55 0.732,0.73c0.304,0.17 0.649,0.27 1,0.27c0.351,0 0.696,-0.1 1,-0.27c0.304,-0.18 0.557,-0.43 0.732,-0.73c0.553,-0.96 1.776,-1.29 2.732,-0.74c0.957,0.56 1.285,1.78 0.732,2.74c-0.526,0.91 -1.284,1.67 -2.196,2.19c-0.912,0.53 -1.947,0.81 -3,0.81c-1.053,0 -2.088,-0.28 -3,-0.81c-0.912,-0.52 -1.669,-1.28 -2.196,-2.19c-0.552,-0.96 -0.224,-2.18 0.732,-2.74z" fill="#D6D3D1"/>
<path d="M64.001,373.33c-1.751,0 -3.485,0.35 -5.102,1.02c-1.618,0.67 -3.088,1.65 -4.326,2.89c-0.763,0.76 -0.991,1.91 -0.578,2.9c0.413,1 1.385,1.65 2.464,1.65h15.085c1.078,0 2.05,-0.65 2.463,-1.65c0.413,-0.99 0.185,-2.14 -0.578,-2.9c-1.238,-1.24 -2.708,-2.22 -4.326,-2.89c-1.617,-0.67 -3.351,-1.02 -5.102,-1.02z" fill="#D6D3D1"/>
</g>
</g>
</g>
<path id="Vector_429" d="M96.875,361v22" stroke="#F5F5F4" stroke-width="2" stroke-linecap="round" stroke-linejoin="round"/>
<g id="Frame_280">
<g id="face sad_10">
<g id="Vector_430">
<path d="M125.749,367.33c0,-1.84 -1.493,-3.33 -3.334,-3.33c-1.841,0 -3.333,1.49 -3.333,3.33c0,1.84 1.492,3.34 3.333,3.34c1.841,0 3.334,-1.5 3.334,-3.34z" fill="#D6D3D1"/>
<path d="M124.646,374.35c1.618,-0.67 3.352,-1.02 5.103,-1.02c1.751,0 3.484,0.35 5.102,1.02c1.618,0.67 3.088,1.65 4.326,2.89c1.041,1.04 1.041,2.73 0,3.77c-1.042,1.04 -2.73,1.04 -3.771,0c-0.743,-0.74 -1.625,-1.33 -2.596,-1.73c-0.97,-0.41 -2.011,-0.61 -3.061,-0.61c-1.051,0 -2.091,0.2 -3.062,0.61c-0.97,0.4 -1.852,0.99 -2.595,1.73c-1.042,1.04 -2.73,1.04 -3.771,0c-1.042,-1.04 -1.042,-2.73 0,-3.77c1.238,-1.24 2.708,-2.22 4.325,-2.89z" fill="#D6D3D1"/>
<path d="M137.082,364c1.841,0 3.333,1.49 3.333,3.33c0,1.84 -1.492,3.34 -3.333,3.34c-1.841,0 -3.333,-1.5 -3.333,-3.34c0,-1.84 1.492,-3.33 3.333,-3.33z" fill="#D6D3D1"/>
</g>
</g>
</g>
<path id="Vector_431" d="M162.625,361v22" stroke="#F5F5F4" stroke-width="2" stroke-linecap="round" stroke-linejoin="round"/>
<g id="Frame_281">
<g id="face neutral_9">
<g id="Vector_432">
<path d="M191.499,367.33c0,-1.84 -1.493,-3.33 -3.334,-3.33c-1.841,0 -3.333,1.49 -3.333,3.33c0,1.84 1.492,3.34 3.333,3.34c1.841,0 3.334,-1.5 3.334,-3.34z" fill="#D6D3D1"/>
<path d="M206.165,367.33c0,-1.84 -1.492,-3.33 -3.333,-3.33c-1.841,0 -3.333,1.49 -3.333,3.33c0,1.84 1.492,3.34 3.333,3.34c1.841,0 3.333,-1.5 3.333,-3.34z" fill="#D6D3D1"/>
<path d="M188.832,376c-1.473,0 -2.667,1.19 -2.667,2.67c0,1.47 1.194,2.66 2.667,2.66h13.333c1.473,0 2.667,-1.19 2.667,-2.66c0,-1.48 -1.194,-2.67 -2.667,-2.67z" fill="#D6D3D1"/>
</g>
</g>
</g>
<path id="Vector_433" d="M228.375,361v22" stroke="#F5F5F4" stroke-width="2" stroke-linecap="round" stroke-linejoin="round"/>
<g id="Frame_282">
<g id="face happy_11">
<g id="Vector_434">
<path d="M257.249,367.33c0,-1.84 -1.493,-3.33 -3.334,-3.33c-1.841,0 -3.333,1.49 -3.333,3.33c0,1.84 1.492,3.34 3.333,3.34c1.841,0 3.334,-1.5 3.334,-3.34z" fill="#D6D3D1"/>
<path d="M271.915,367.33c0,-1.84 -1.492,-3.33 -3.333,-3.33c-1.841,0 -3.333,1.49 -3.333,3.33c0,1.84 1.492,3.34 3.333,3.34c1.841,0 3.333,-1.5 3.333,-3.34z" fill="#D6D3D1"/>
<path d="M261.249,382.67c-1.751,0 -3.485,-0.35 -5.103,-1.02c-1.617,-0.67 -3.087,-1.65 -4.325,-2.89c-1.042,-1.04 -1.042,-2.73 0,-3.77c1.041,-1.04 2.729,-1.04 3.771,0c0.743,0.74 1.625,1.33 2.595,1.73c0.971,0.41 2.011,0.61 3.062,0.61c1.05,0 2.091,-0.2 3.061,-0.61c0.971,-0.4 1.853,-0.99 2.596,-1.73c1.041,-1.04 2.729,-1.04 3.771,0c1.041,1.04 1.041,2.73 0,3.77c-1.238,1.24 -2.708,2.22 -4.326,2.89c-1.618,0.67 -3.351,1.02 -5.102,1.02z" fill="#D6D3D1"/>
</g>
</g>
</g>
<path id="Vector_435" d="M294.125,361v22" stroke="#F5F5F4" stroke-width="2" stroke-linecap="round" stroke-linejoin="round"/>
<g id="Frame_283">
<g id="face overjoyed_11">
<g id="Vector_436">
<path d="M315.203,370.4c0.957,0.55 2.18,0.22 2.733,-0.73c0.175,-0.31 0.428,-0.56 0.732,-0.74c0.304,-0.17 0.648,-0.26 1,-0.26c0.351,0 0.696,0.09 1,0.26c0.304,0.18 0.556,0.43 0.732,0.74c0.552,0.95 1.775,1.28 2.732,0.73c0.956,-0.55 1.284,-1.78 0.732,-2.73c-0.527,-0.92 -1.284,-1.67 -2.196,-2.2c-0.913,-0.53 -1.947,-0.8 -3,-0.8c-1.054,0 -2.088,0.27 -3,0.8c-0.913,0.53 -1.67,1.28 -2.197,2.2c-0.552,0.95 -0.224,2.18 0.732,2.73z" fill="#D6D3D1"/>
<path d="M329.87,370.4c0.957,0.55 2.18,0.22 2.732,-0.73c0.176,-0.31 0.428,-0.56 0.732,-0.74c0.304,-0.17 0.649,-0.26 1,-0.26c0.351,0 0.696,0.09 1,0.26c0.304,0.18 0.557,0.43 0.732,0.74c0.553,0.95 1.776,1.28 2.732,0.73c0.957,-0.55 1.285,-1.78 0.732,-2.73c-0.526,-0.92 -1.284,-1.67 -2.196,-2.2c-0.912,-0.53 -1.947,-0.8 -3,-0.8c-1.053,0 -2.088,0.27 -3,0.8c-0.912,0.53 -1.669,1.28 -2.196,2.2c-0.552,0.95 -0.224,2.18 0.732,2.73z" fill="#D6D3D1"/>
<path d="M327.001,382.67c-1.751,0 -3.485,-0.35 -5.102,-1.02c-1.618,-0.67 -3.088,-1.65 -4.326,-2.89c-0.763,-0.76 -0.991,-1.91 -0.578,-2.9c0.413,-1 1.385,-1.65 2.464,-1.65h15.085c1.078,0 2.05,0.65 2.463,1.65c0.413,0.99 0.185,2.14 -0.578,2.9c-1.238,1.24 -2.708,2.22 -4.326,2.89c-1.617,0.67 -3.351,1.02 -5.102,1.02z" fill="#D6D3D1"/>
</g>
</g>
</g>
<g id="Frame_284" filter="url(#filter31_dd_10723_18403)">
<path d="M287,372c0,-22.09 17.909,-40 40,-40c22.091,0 40,17.91 40,40c0,22.09 -17.909,40 -40,40c-22.091,0 -40,-17.91 -40,-40z" fill="#9BB167"/>
<g id="face overjoyed_12">
<g id="Vector_437">
<path d="M309.305,369.6c1.435,0.83 3.27,0.33 4.098,-1.1c0.264,-0.46 0.642,-0.83 1.098,-1.1c0.456,-0.26 0.974,-0.4 1.5,-0.4c0.527,0 1.044,0.14 1.5,0.4c0.456,0.27 0.835,0.64 1.098,1.1c0.829,1.43 2.664,1.93 4.098,1.1c1.435,-0.83 1.927,-2.67 1.099,-4.1c-0.79,-1.37 -1.926,-2.5 -3.295,-3.29c-1.368,-0.79 -2.92,-1.21 -4.5,-1.21c-1.579,0 -3.131,0.42 -4.5,1.21c-1.368,0.79 -2.504,1.92 -3.294,3.29c-0.828,1.43 -0.337,3.27 1.098,4.1z" fill="#3F4B29"/>
<path d="M331.305,369.6c1.435,0.83 3.27,0.33 4.098,-1.1c0.264,-0.46 0.642,-0.83 1.098,-1.1c0.456,-0.26 0.974,-0.4 1.5,-0.4c0.527,0 1.044,0.14 1.5,0.4c0.456,0.27 0.835,0.64 1.098,1.1c0.829,1.43 2.664,1.93 4.098,1.1c1.435,-0.83 1.927,-2.67 1.099,-4.1c-0.79,-1.37 -1.926,-2.5 -3.295,-3.29c-1.368,-0.79 -2.92,-1.21 -4.5,-1.21c-1.579,0 -3.131,0.42 -4.5,1.21c-1.368,0.79 -2.504,1.92 -3.294,3.29c-0.828,1.43 -0.337,3.27 1.098,4.1z" fill="#3F4B29"/>
<path d="M327.002,388c-2.627,0 -5.228,-0.52 -7.654,-1.52c-2.427,-1.01 -4.631,-2.48 -6.489,-4.34c-1.144,-1.14 -1.486,-2.86 -0.867,-4.36c0.619,-1.49 2.078,-2.47 3.696,-2.47h22.627c1.618,0 3.077,0.98 3.696,2.47c0.619,1.5 0.277,3.22 -0.867,4.36c-1.857,1.86 -4.062,3.33 -6.489,4.34c-2.426,1 -5.027,1.52 -7.653,1.52z" fill="#3F4B29"/>
</g>
</g>
</g>
</g>
<g id="Emotion=5 - Overjoyed, Type=Simple">
<path d="M391,372c0,-15.46 12.536,-28 28,-28h287c15.464,0 28,12.54 28,28c0,15.46 -12.536,28 -28,28h-287c-15.464,0 -28,-12.54 -28,-28z" fill="white"/>
<g id="Frame_285">
<g id="face depressed_11">
<g id="Vector_438">
<path d="M419.203,364.93c0.957,-0.55 2.18,-0.22 2.733,0.74c0.175,0.3 0.428,0.55 0.732,0.73c0.304,0.17 0.648,0.27 1,0.27c0.351,0 0.696,-0.1 1,-0.27c0.304,-0.18 0.556,-0.43 0.732,-0.73c0.552,-0.96 1.775,-1.29 2.732,-0.74c0.956,0.56 1.284,1.78 0.732,2.74c-0.527,0.91 -1.284,1.67 -2.196,2.19c-0.913,0.53 -1.947,0.81 -3,0.81c-1.054,0 -2.088,-0.28 -3,-0.81c-0.913,-0.52 -1.67,-1.28 -2.197,-2.19c-0.552,-0.96 -0.224,-2.18 0.732,-2.74z" fill="#D6D3D1"/>
<path d="M433.87,364.93c0.957,-0.55 2.18,-0.22 2.732,0.74c0.176,0.3 0.428,0.55 0.732,0.73c0.304,0.17 0.649,0.27 1,0.27c0.351,0 0.696,-0.1 1,-0.27c0.304,-0.18 0.557,-0.43 0.732,-0.73c0.553,-0.96 1.776,-1.29 2.732,-0.74c0.957,0.56 1.285,1.78 0.732,2.74c-0.526,0.91 -1.284,1.67 -2.196,2.19c-0.912,0.53 -1.947,0.81 -3,0.81c-1.053,0 -2.088,-0.28 -3,-0.81c-0.912,-0.52 -1.669,-1.28 -2.196,-2.19c-0.552,-0.96 -0.224,-2.18 0.732,-2.74z" fill="#D6D3D1"/>
<path d="M431.001,373.33c-1.751,0 -3.485,0.35 -5.102,1.02c-1.618,0.67 -3.088,1.65 -4.326,2.89c-0.763,0.76 -0.991,1.91 -0.578,2.9c0.413,1 1.385,1.65 2.464,1.65h15.085c1.078,0 2.05,-0.65 2.463,-1.65c0.413,-0.99 0.185,-2.14 -0.578,-2.9c-1.238,-1.24 -2.708,-2.22 -4.326,-2.89c-1.617,-0.67 -3.351,-1.02 -5.102,-1.02z" fill="#D6D3D1"/>
</g>
</g>
</g>
<path id="Vector_439" d="M463.875,361v22" stroke="#F5F5F4" stroke-width="2" stroke-linecap="round" stroke-linejoin="round"/>
<g id="Frame_286">
<g id="face sad_11">
<g id="Vector_440">
<path d="M492.749,367.33c0,-1.84 -1.493,-3.33 -3.334,-3.33c-1.841,0 -3.333,1.49 -3.333,3.33c0,1.84 1.492,3.34 3.333,3.34c1.841,0 3.334,-1.5 3.334,-3.34z" fill="#D6D3D1"/>
<path d="M491.646,374.35c1.618,-0.67 3.352,-1.02 5.103,-1.02c1.751,0 3.484,0.35 5.102,1.02c1.618,0.67 3.088,1.65 4.326,2.89c1.041,1.04 1.041,2.73 0,3.77c-1.042,1.04 -2.73,1.04 -3.771,0c-0.743,-0.74 -1.625,-1.33 -2.596,-1.73c-0.97,-0.41 -2.011,-0.61 -3.061,-0.61c-1.051,0 -2.091,0.2 -3.062,0.61c-0.97,0.4 -1.852,0.99 -2.595,1.73c-1.042,1.04 -2.73,1.04 -3.771,0c-1.042,-1.04 -1.042,-2.73 0,-3.77c1.238,-1.24 2.708,-2.22 4.325,-2.89z" fill="#D6D3D1"/>
<path d="M504.082,364c1.841,0 3.333,1.49 3.333,3.33c0,1.84 -1.492,3.34 -3.333,3.34c-1.841,0 -3.333,-1.5 -3.333,-3.34c0,-1.84 1.492,-3.33 3.333,-3.33z" fill="#D6D3D1"/>
</g>
</g>
</g>
<path id="Vector_441" d="M529.625,361v22" stroke="#F5F5F4" stroke-width="2" stroke-linecap="round" stroke-linejoin="round"/>
<g id="Frame_287">
<g id="face neutral_10">
<g id="Vector_442">
<path d="M558.499,367.33c0,-1.84 -1.493,-3.33 -3.334,-3.33c-1.841,0 -3.333,1.49 -3.333,3.33c0,1.84 1.492,3.34 3.333,3.34c1.841,0 3.334,-1.5 3.334,-3.34z" fill="#D6D3D1"/>
<path d="M573.165,367.33c0,-1.84 -1.492,-3.33 -3.333,-3.33c-1.841,0 -3.333,1.49 -3.333,3.33c0,1.84 1.492,3.34 3.333,3.34c1.841,0 3.333,-1.5 3.333,-3.34z" fill="#D6D3D1"/>
<path d="M555.832,376c-1.473,0 -2.667,1.19 -2.667,2.67c0,1.47 1.194,2.66 2.667,2.66h13.333c1.473,0 2.667,-1.19 2.667,-2.66c0,-1.48 -1.194,-2.67 -2.667,-2.67z" fill="#D6D3D1"/>
</g>
</g>
</g>
<path id="Vector_443" d="M595.375,361v22" stroke="#F5F5F4" stroke-width="2" stroke-linecap="round" stroke-linejoin="round"/>
<g id="Frame_288">
<g id="face happy_12">
<g id="Vector_444">
<path d="M624.249,367.33c0,-1.84 -1.493,-3.33 -3.334,-3.33c-1.841,0 -3.333,1.49 -3.333,3.33c0,1.84 1.492,3.34 3.333,3.34c1.841,0 3.334,-1.5 3.334,-3.34z" fill="#D6D3D1"/>
<path d="M638.915,367.33c0,-1.84 -1.492,-3.33 -3.333,-3.33c-1.841,0 -3.333,1.49 -3.333,3.33c0,1.84 1.492,3.34 3.333,3.34c1.841,0 3.333,-1.5 3.333,-3.34z" fill="#D6D3D1"/>
<path d="M628.249,382.67c-1.751,0 -3.485,-0.35 -5.103,-1.02c-1.617,-0.67 -3.087,-1.65 -4.325,-2.89c-1.042,-1.04 -1.042,-2.73 0,-3.77c1.041,-1.04 2.729,-1.04 3.771,0c0.743,0.74 1.625,1.33 2.595,1.73c0.971,0.41 2.011,0.61 3.062,0.61c1.05,0 2.091,-0.2 3.061,-0.61c0.971,-0.4 1.853,-0.99 2.596,-1.73c1.041,-1.04 2.729,-1.04 3.771,0c1.041,1.04 1.041,2.73 0,3.77c-1.238,1.24 -2.708,2.22 -4.326,2.89c-1.618,0.67 -3.351,1.02 -5.102,1.02z" fill="#D6D3D1"/>
</g>
</g>
</g>
<path id="Vector_445" d="M661.125,361v22" stroke="#F5F5F4" stroke-width="2" stroke-linecap="round" stroke-linejoin="round"/>
<g id="Frame_289">
<g id="face overjoyed_13">
<g id="Vector_446">
<path d="M682.203,370.4c0.957,0.55 2.18,0.22 2.733,-0.73c0.175,-0.31 0.428,-0.56 0.732,-0.74c0.304,-0.17 0.648,-0.26 1,-0.26c0.351,0 0.696,0.09 1,0.26c0.304,0.18 0.556,0.43 0.732,0.74c0.552,0.95 1.775,1.28 2.732,0.73c0.956,-0.55 1.284,-1.78 0.732,-2.73c-0.527,-0.92 -1.284,-1.67 -2.196,-2.2c-0.913,-0.53 -1.947,-0.8 -3,-0.8c-1.054,0 -2.088,0.27 -3,0.8c-0.913,0.53 -1.67,1.28 -2.197,2.2c-0.552,0.95 -0.224,2.18 0.732,2.73z" fill="#9BB167"/>
<path d="M696.87,370.4c0.957,0.55 2.18,0.22 2.732,-0.73c0.176,-0.31 0.428,-0.56 0.732,-0.74c0.304,-0.17 0.649,-0.26 1,-0.26c0.351,0 0.696,0.09 1,0.26c0.304,0.18 0.557,0.43 0.732,0.74c0.553,0.95 1.776,1.28 2.732,0.73c0.957,-0.55 1.285,-1.78 0.732,-2.73c-0.526,-0.92 -1.284,-1.67 -2.196,-2.2c-0.912,-0.53 -1.947,-0.8 -3,-0.8c-1.053,0 -2.088,0.27 -3,0.8c-0.912,0.53 -1.669,1.28 -2.196,2.2c-0.552,0.95 -0.224,2.18 0.732,2.73z" fill="#9BB167"/>
<path d="M694.001,382.67c-1.751,0 -3.485,-0.35 -5.102,-1.02c-1.618,-0.67 -3.088,-1.65 -4.326,-2.89c-0.763,-0.76 -0.991,-1.91 -0.578,-2.9c0.413,-1 1.385,-1.65 2.464,-1.65h15.085c1.078,0 2.05,0.65 2.463,1.65c0.413,0.99 0.185,2.14 -0.578,2.9c-1.238,1.24 -2.708,2.22 -4.326,2.89c-1.617,0.67 -3.351,1.02 -5.102,1.02z" fill="#9BB167"/>
</g>
</g>
</g>
</g>
</g>
<rect x="0.5" y="0.5" width="781" height="423" rx="4.5" stroke="#9747FF" stroke-dasharray="10 5"/>
</g></svg>