<svg viewBox="0 0 12 18" fill="none" xmlns="http://www.w3.org/2000/svg" xmlns:xlink="http://www.w3.org/1999/xlink" x="0" y="0"><g id="Vector_222">
<path d="M4.469,2.3c0.731,-0.3 1.535,-0.38 2.311,-0.22c0.776,0.15 1.489,0.53 2.048,1.09c0.56,0.56 0.941,1.27 1.095,2.05c0.154,0.78 0.075,1.58 -0.227,2.31c-0.303,0.73 -0.816,1.36 -1.474,1.8c-0.21,0.14 -0.433,0.26 -0.664,0.35c-1.163,0.5 -2.558,1.62 -2.558,3.32h2c0,-0.51 0.465,-1.11 1.337,-1.47c0.346,-0.15 0.68,-0.33 0.996,-0.54c0.987,-0.66 1.756,-1.6 2.21,-2.69c0.454,-1.1 0.573,-2.31 0.342,-3.47c-0.232,-1.16 -0.803,-2.23 -1.642,-3.07c-0.839,-0.84 -1.909,-1.41 -3.072,-1.64c-1.164,-0.24 -2.371,-0.12 -3.467,0.34c-1.096,0.45 -2.034,1.22 -2.693,2.21c-0.659,0.98 -1.011,2.14 -1.011,3.33h2c0,-0.79 0.235,-1.56 0.674,-2.22c0.44,-0.66 1.064,-1.17 1.795,-1.48z" fill="currentColor"/>
<path d="M6,18c0.966,0 1.75,-0.78 1.75,-1.75c0,-0.97 -0.784,-1.75 -1.75,-1.75c-0.966,0 -1.75,0.78 -1.75,1.75c0,0.97 0.784,1.75 1.75,1.75z" fill="currentColor"/>
</g></svg>