<svg viewBox="0 0 13.3333 13.3333" fill="none" xmlns="http://www.w3.org/2000/svg" xmlns:xlink="http://www.w3.org/1999/xlink" x="0" y="0"><path id="Vector_748" fill-rule="evenodd" clip-rule="evenodd" d="M0,6.6665c0,-3.68 2.985,-6.67 6.667,-6.67c3.682,0 6.666,2.99 6.666,6.67c0,3.68 -2.984,6.67 -6.666,6.67c-3.682,0 -6.667,-2.99 -6.667,-6.67zM6.748,8.7465l3.39,-3.39l-0.943,-0.94l-3.39,3.39c-0.093,0.09 -0.212,0.15 -0.342,0.18c-0.129,0.03 -0.263,0.01 -0.385,-0.04c-0.122,-0.05 -0.226,-0.13 -0.299,-0.24c-0.073,-0.11 -0.112,-0.24 -0.112,-0.37v-0.34h-1.334v0.34c0,0.39 0.118,0.78 0.337,1.11c0.22,0.33 0.533,0.58 0.898,0.73c0.365,0.16 0.768,0.2 1.156,0.12c0.388,-0.08 0.744,-0.27 1.024,-0.55z" fill="currentColor"/></svg>