<svg viewBox="0 0 54 54" fill="none" xmlns="http://www.w3.org/2000/svg" xmlns:xlink="http://www.w3.org/1999/xlink" x="0" y="0"><defs><filter id="filter77_dd_10723_18403" x="-16" y="-8" width="86" height="86" filterUnits="userSpaceOnUse" color-interpolation-filters="sRGB">
<feFlood flood-opacity="0" result="BackgroundImageFix"/>
<feColorMatrix in="SourceAlpha" type="matrix" values="0 0 0 0 0 0 0 0 0 0 0 0 0 0 0 0 0 0 127 0" result="hardAlpha"/>
<feOffset dy="8"/>
<feGaussianBlur stdDeviation="8"/>
<feColorMatrix type="matrix" values="0 0 0 0 0.0588235 0 0 0 0 0.0901961 0 0 0 0 0.164706 0 0 0 0.02 0"/>
<feBlend mode="normal" in2="BackgroundImageFix" result="effect1_dropShadow_10723_18403"/>
<feColorMatrix in="SourceAlpha" type="matrix" values="0 0 0 0 0 0 0 0 0 0 0 0 0 0 0 0 0 0 127 0" result="hardAlpha"/>
<feOffset dy="4"/>
<feGaussianBlur stdDeviation="4"/>
<feColorMatrix type="matrix" values="0 0 0 0 0.0588235 0 0 0 0 0.0901961 0 0 0 0 0.164706 0 0 0 0.03 0"/>
<feBlend mode="normal" in2="effect1_dropShadow_10723_18403" result="effect2_dropShadow_10723_18403"/>
<feBlend mode="normal" in="SourceGraphic" in2="effect2_dropShadow_10723_18403" result="shape"/>
</filter><filter id="filter78_dd_10723_18403" x="1" y="13" width="52" height="52" filterUnits="userSpaceOnUse" color-interpolation-filters="sRGB">
<feFlood flood-opacity="0" result="BackgroundImageFix"/>
<feColorMatrix in="SourceAlpha" type="matrix" values="0 0 0 0 0 0 0 0 0 0 0 0 0 0 0 0 0 0 127 0" result="hardAlpha"/>
<feMorphology radius="2" operator="erode" in="SourceAlpha" result="effect1_dropShadow_10723_18403"/>
<feOffset dy="4"/>
<feGaussianBlur stdDeviation="3"/>
<feColorMatrix type="matrix" values="0 0 0 0 0.160784 0 0 0 0 0.145098 0 0 0 0 0.141176 0 0 0 0.03 0"/>
<feBlend mode="normal" in2="BackgroundImageFix" result="effect1_dropShadow_10723_18403"/>
<feColorMatrix in="SourceAlpha" type="matrix" values="0 0 0 0 0 0 0 0 0 0 0 0 0 0 0 0 0 0 127 0" result="hardAlpha"/>
<feMorphology radius="4" operator="erode" in="SourceAlpha" result="effect2_dropShadow_10723_18403"/>
<feOffset dy="12"/>
<feGaussianBlur stdDeviation="8"/>
<feColorMatrix type="matrix" values="0 0 0 0 0.160784 0 0 0 0 0.145098 0 0 0 0 0.141176 0 0 0 0.08 0"/>
<feBlend mode="normal" in2="effect1_dropShadow_10723_18403" result="effect2_dropShadow_10723_18403"/>
<feBlend mode="normal" in="SourceGraphic" in2="effect2_dropShadow_10723_18403" result="shape"/>
</filter><linearGradient id="paint9_linear_10723_18403" x1="27.5" y1="5" x2="27.5" y2="48" gradientUnits="userSpaceOnUse">
<stop stop-color="#533630" stop-opacity="0"/>
<stop offset="1" stop-color="#533630"/>
</linearGradient><linearGradient id="paint10_linear_10723_18403" x1="27.172000000000025" y1="15.299999999999272" x2="27.172000000000025" y2="38.29999999999927" gradientUnits="userSpaceOnUse">
<stop stop-color="white"/>
<stop offset="1" stop-color="white" stop-opacity="0"/>
</linearGradient><clipPath id="clip65_10723_18403">
<rect width="54" height="54" fill="white" transform="translate(0, 0)"/>
</clipPath></defs><g id="Frame_579" clip-path="url(#clip65_10723_18403)" filter="url(#filter77_dd_10723_18403)">
<path id="Polygon" d="M23.693,1.1c2.2,-1.3 4.911,-1.3 7.111,0l17.138,9.8c2.2,1.3 3.555,3.7 3.555,6.2v19.8c0,2.5 -1.355,4.9 -3.555,6.2l-17.138,9.8c-2.2,1.3 -4.911,1.3 -7.111,0l-17.137,-9.8c-2.201,-1.3 -3.556,-3.7 -3.556,-6.2v-19.8c0,-2.5 1.355,-4.9 3.556,-6.2z" fill="#A27450"/>
<path id="Polygon_2" d="M25.239,5.7c1.398,-0.8 3.124,-0.8 4.522,0l14.5,8.5c1.386,0.8 2.239,2.2 2.239,3.9v16.8c0,1.7 -0.853,3.1 -2.239,3.9l-14.5,8.5c-1.398,0.8 -3.124,0.8 -4.522,0l-14.5,-8.5c-1.386,-0.8 -2.239,-2.2 -2.239,-3.9v-16.8c0,-1.7 0.853,-3.1 2.239,-3.9z" fill="#926247" stroke="url(#paint9_linear_10723_18403)"/>
<g id="leaf single_3" filter="url(#filter78_dd_10723_18403)">
<path id="Vector_901" d="M19.33,33l1.65,1.7l0.155,0.1l-0.155,0.2l-3.654,3.6l-0.155,-0.1l-1.65,-1.7l-0.155,-0.1l0.155,-0.2l3.5,-3.5l0.155,-0.1zM38.886,15.1v10.7c0,2.2 -0.628,4.2 -1.806,6c-1.178,1.8 -2.852,3.1 -4.81,3.9c-1.959,0.8 -4.115,1.1 -6.194,0.6c-1.687,-0.3 -3.263,-1 -4.598,-2.1l-0.192,-0.1l0.173,-0.2l9.557,-9.6l-1.341,-1.3l-9.557,9.5l-0.173,0.2l-0.152,-0.2c-1.067,-1.3 -1.803,-2.9 -2.139,-4.6c-0.413,-2.1 -0.2,-4.2 0.611,-6.2c0.811,-1.9 2.184,-3.6 3.947,-4.8c1.762,-1.2 3.835,-1.8 5.955,-1.8z" fill="white" stroke="url(#paint10_linear_10723_18403)" stroke-width="0.4375"/>
</g>
</g></svg>