<svg viewBox="0 0 19.7071 19.7071" fill="none" xmlns="http://www.w3.org/2000/svg" xmlns:xlink="http://www.w3.org/1999/xlink" x="0" y="0"><path id="Vector_6" fill-rule="evenodd" clip-rule="evenodd" d="M10.707,0c-1.78,0 -3.52,0.528 -5,1.517c-1.48,0.989 -2.634,2.394 -3.315,4.039c-0.681,1.644 -0.859,3.454 -0.512,5.2c0.282,1.417 0.9,2.74 1.795,3.861l-3.675,3.676l1.414,1.414l3.676,-3.675c1.121,0.895 2.444,1.513 3.861,1.795c1.746,0.347 3.556,0.169 5.2,-0.512c1.645,-0.681 3.05,-1.835 4.039,-3.315c0.989,-1.48 1.517,-3.22 1.517,-5v-9zM6.515,14.606c0.833,0.623 1.798,1.055 2.826,1.259c1.358,0.271 2.766,0.132 4.045,-0.398c1.279,-0.53 2.372,-1.427 3.141,-2.578c0.77,-1.151 1.18,-2.505 1.18,-3.889v-7h-7c-1.384,0 -2.738,0.411 -3.889,1.18c-1.151,0.769 -2.048,1.862 -2.578,3.141c-0.53,1.279 -0.669,2.687 -0.398,4.045c0.204,1.028 0.636,1.993 1.259,2.826l6.899,-6.899l1.414,1.414z" fill="currentColor"/></svg>