<svg viewBox="0 0 13.3333 16.6667" fill="none" xmlns="http://www.w3.org/2000/svg" xmlns:xlink="http://www.w3.org/1999/xlink" x="0" y="0"><path id="Vector_884" fill-rule="evenodd" clip-rule="evenodd" d="M8.1,8.3335l3.963,-2.83c0.797,-0.57 1.27,-1.49 1.27,-2.47c0,-1.68 -1.358,-3.03 -3.034,-3.03h-7.265c-1.676,0 -3.034,1.35 -3.034,3.03c0,0.98 0.473,1.9 1.271,2.47l3.962,2.83l-3.962,2.83c-0.798,0.57 -1.271,1.49 -1.271,2.47c0,1.67 1.358,3.03 3.034,3.03h7.265c1.676,0 3.034,-1.36 3.034,-3.03c0,-0.98 -0.473,-1.9 -1.27,-2.47zM3.034,1.6635c-0.755,0 -1.367,0.62 -1.367,1.37c0,0.44 0.213,0.86 0.572,1.11l4.428,3.17l4.427,-3.17c0.359,-0.25 0.573,-0.67 0.573,-1.11c0,-0.75 -0.613,-1.37 -1.368,-1.37zM6.667,9.3535l-4.428,3.17c-0.359,0.25 -0.572,0.67 -0.572,1.11c0,0.75 0.612,1.37 1.367,1.37h7.265c0.755,0 1.368,-0.62 1.368,-1.37c0,-0.44 -0.214,-0.86 -0.573,-1.11z" fill="currentColor"/></svg>