<svg viewBox="0 0 16 16" fill="none" xmlns="http://www.w3.org/2000/svg" xmlns:xlink="http://www.w3.org/1999/xlink" x="0" y="0"><g id="Monotone telephone_3">
<path id="Vector_107" d="M2.6668,4c0,1.23 0.241,2.44 0.71,3.57c0.469,1.13 1.157,2.16 2.024,3.03c0.866,0.87 1.895,1.55 3.027,2.02c1.133,0.47 2.347,0.71 3.572,0.71" stroke="#4B3425" stroke-width="1.33333" stroke-linejoin="round"/>
<path id="Vector_108" d="M2.6668,4c0,-1.1 0.895,-2 2,-2c1.104,0 2,0.9 2,2c0,1.1 -0.896,2 -2,2c-1.105,0 -2,-0.9 -2,-2z" stroke="#4B3425" stroke-width="1.33333" stroke-linejoin="round"/>
<path id="Vector_109" d="M9.9998,11.33c0,-1.1 0.896,-2 2,-2c1.105,0 2,0.9 2,2c0,1.11 -0.895,2 -2,2c-1.104,0 -2,-0.89 -2,-2z" stroke="#4B3425" stroke-width="1.33333" stroke-linejoin="round"/>
</g></svg>