<svg viewBox="0 0 53.75 64" fill="none" xmlns="http://www.w3.org/2000/svg" xmlns:xlink="http://www.w3.org/1999/xlink" x="0" y="0"><g id="Frame_201">
<circle id="Ellipse_15" cx="27" cy="32" r="28" stroke="#E7E5E4" stroke-width="4"/>
<path id="Ellipse_16" d="M27,4c6.16,0 12.16,2.03 17.05,5.79c4.89,3.75 8.4,9.01 10,14.96c1.59,5.96 1.18,12.27 -1.18,17.97c-2.36,5.69 -6.53,10.45 -11.87,13.53" stroke="#926247" stroke-width="4" stroke-linecap="round"/>
<g id="eye">
<g id="Vector_313">
<path fill-rule="evenodd" clip-rule="evenodd" d="M27,28c-2.21,0 -4,1.79 -4,4c0,2.21 1.79,4 4,4c2.21,0 4,-1.79 4,-4c0,-2.21 -1.79,-4 -4,-4zM25,32c0,-1.1 0.9,-2 2,-2c1.1,0 2,0.9 2,2c0,1.1 -0.9,2 -2,2c-1.1,0 -2,-0.9 -2,-2z" fill="#926247"/>
<path fill-rule="evenodd" clip-rule="evenodd" d="M24,25c-3.87,0 -7,3.13 -7,7c0,3.87 3.13,7 7,7h6c3.87,0 7,-3.13 7,-7c0,-3.87 -3.13,-7 -7,-7zM19,32c0,-2.76 2.24,-5 5,-5h6c2.76,0 5,2.24 5,5c0,2.76 -2.24,5 -5,5h-6c-2.76,0 -5,-2.24 -5,-5z" fill="#926247"/>
</g>
</g>
</g></svg>