<svg viewBox="0 0 40 68" fill="none" xmlns="http://www.w3.org/2000/svg" xmlns:xlink="http://www.w3.org/1999/xlink" x="0" y="0"><g id="Frame_18">
<rect id="Rectangle" x="18" y="44" width="4" height="20" rx="2" fill="currentColor"/>
<g id="Icon Container_3">
<path d="M0,20c0,-11.046 8.95,-20 20,-20c11.05,0 20,8.954 20,20c0,11.046 -8.95,20 -20,20c-11.05,0 -20,-8.954 -20,-20z" fill="currentColor"/>
<g id="house home">
<path id="Vector_16" fill-rule="evenodd" clip-rule="evenodd" d="M12.5,19.167c0,-4.143 3.36,-7.5 7.5,-7.5c4.14,0 7.5,3.357 7.5,7.5v8.333h-15zM20,13.333c-3.22,0 -5.83,2.612 -5.83,5.834v6.666h11.66v-6.666c0,-3.222 -2.61,-5.834 -5.83,-5.834z" fill="white"/>
</g>
</g>
</g></svg>