<svg viewBox="0 0 24 24" fill="none" xmlns="http://www.w3.org/2000/svg" xmlns:xlink="http://www.w3.org/1999/xlink" x="0" y="0"><g id="Monotone question round_2">
<rect id="Vector_116" x="2.9997999999999934" y="3.0020000000004075" width="18" height="18" rx="9" stroke="#E8DDD9" stroke-width="2" stroke-linejoin="round"/>
<path id="Vector_117" d="M8.9998,10.002c0,-0.6 0.176,-1.18 0.506,-1.67c0.329,-0.49 0.798,-0.88 1.346,-1.1c0.548,-0.23 1.152,-0.29 1.734,-0.17c0.581,0.11 1.116,0.4 1.536,0.82c0.419,0.42 0.705,0.95 0.821,1.53c0.115,0.58 0.056,1.19 -0.171,1.74c-0.227,0.54 -0.612,1.01 -1.105,1.34c-0.812,0.54 -1.667,1.3 -1.667,2.28v0.23" stroke="#E8DDD9" stroke-width="2" stroke-linejoin="round"/>
<rect id="Vector_118" x="10.999799999999993" y="16.002000000000407" width="2" height="2" rx="1" fill="#E8DDD9"/>
</g></svg>