<svg viewBox="0 0 24 24" fill="none" xmlns="http://www.w3.org/2000/svg" xmlns:xlink="http://www.w3.org/1999/xlink" x="0" y="0"><g id="Monotone question round">
<rect id="Vector_44" x="3" y="3" width="18" height="18" rx="9" stroke="#3D4A26" stroke-width="2" stroke-linejoin="round"/>
<path id="Vector_45" d="M9,10c0,-0.59 0.176,-1.17 0.506,-1.67c0.329,-0.49 0.798,-0.87 1.346,-1.1c0.548,-0.23 1.151,-0.29 1.733,-0.17c0.582,0.11 1.117,0.4 1.536,0.82c0.42,0.42 0.706,0.95 0.821,1.53c0.116,0.59 0.057,1.19 -0.17,1.74c-0.227,0.55 -0.612,1.01 -1.105,1.34c-0.812,0.55 -1.667,1.3 -1.667,2.28v0.23" stroke="#3D4A26" stroke-width="2" stroke-linejoin="round"/>
<rect id="Vector_46" x="11" y="16" width="2" height="2" rx="1" fill="#3D4A26"/>
</g></svg>