<svg viewBox="0 0 48 48" fill="none" xmlns="http://www.w3.org/2000/svg" xmlns:xlink="http://www.w3.org/1999/xlink" x="0" y="0"><g id="Monotone quote">
<path id="Vector_164" d="M34,26h-1c-3.866,0 -7,-3.13 -7,-7c0,-3.87 3.134,-7 7,-7c3.866,0 7,3.13 7,7v14c0,1.66 -1.343,3 -3,3c-1.657,0 -3,-1.34 -3,-3z" stroke="#926247" stroke-width="4" stroke-linejoin="round"/>
<path id="Vector_165" d="M14,26h-1c-3.866,0 -7,-3.13 -7,-7c0,-3.87 3.134,-7 7,-7c3.866,0 7,3.13 7,7v14c0,1.66 -1.343,3 -3,3c-1.657,0 -3,-1.34 -3,-3z" stroke="#926247" stroke-width="4" stroke-linejoin="round"/>
</g></svg>