<svg viewBox="0 0 108 20" fill="none" xmlns="http://www.w3.org/2000/svg" xmlns:xlink="http://www.w3.org/1999/xlink" x="0" y="0"><g id="Rating">
<g id="star full_7">
<path id="Vector_690" d="M12.24,2.66c-0.92,-1.86 -3.57,-1.86 -4.48,0l-1.31,2.64c-0.12,0.24 -0.35,0.41 -0.62,0.45l-2.91,0.43c-2.05,0.29 -2.87,2.81 -1.39,4.26l2.11,2.05c0.19,0.19 0.28,0.47 0.24,0.74l-0.5,2.9c-0.35,2.04 1.79,3.6 3.63,2.63l2.6,-1.36c0.24,-0.13 0.53,-0.13 0.78,0l2.6,1.36c1.83,0.97 3.98,-0.59 3.63,-2.63l-0.5,-2.9c-0.05,-0.27 0.04,-0.55 0.24,-0.74l2.1,-2.05c1.49,-1.45 0.67,-3.97 -1.38,-4.26l-2.91,-0.43c-0.27,-0.04 -0.51,-0.21 -0.63,-0.45z" fill="currentColor"/>
</g>
<g id="star full_8">
<path id="Vector_691" d="M34.24,2.66c-0.92,-1.86 -3.57,-1.86 -4.48,0l-1.31,2.64c-0.12,0.24 -0.35,0.41 -0.62,0.45l-2.91,0.43c-2.05,0.29 -2.87,2.81 -1.39,4.26l2.11,2.05c0.19,0.19 0.28,0.47 0.24,0.74l-0.5,2.9c-0.35,2.04 1.79,3.6 3.63,2.63l2.6,-1.36c0.24,-0.13 0.53,-0.13 0.78,0l2.6,1.36c1.83,0.97 3.98,-0.59 3.63,-2.63l-0.5,-2.9c-0.05,-0.27 0.04,-0.55 0.24,-0.74l2.1,-2.05c1.49,-1.45 0.67,-3.97 -1.38,-4.26l-2.91,-0.43c-0.27,-0.04 -0.51,-0.21 -0.63,-0.45z" fill="currentColor"/>
</g>
<g id="star full_9">
<path id="Vector_692" d="M56.24,2.66c-0.92,-1.86 -3.57,-1.86 -4.48,0l-1.31,2.64c-0.12,0.24 -0.35,0.41 -0.62,0.45l-2.91,0.43c-2.05,0.29 -2.87,2.81 -1.39,4.26l2.11,2.05c0.19,0.19 0.28,0.47 0.24,0.74l-0.5,2.9c-0.35,2.04 1.79,3.6 3.63,2.63l2.6,-1.36c0.24,-0.13 0.53,-0.13 0.78,0l2.6,1.36c1.83,0.97 3.98,-0.59 3.63,-2.63l-0.5,-2.9c-0.05,-0.27 0.04,-0.55 0.24,-0.74l2.1,-2.05c1.49,-1.45 0.67,-3.97 -1.38,-4.26l-2.91,-0.43c-0.27,-0.04 -0.51,-0.21 -0.63,-0.45z" fill="currentColor"/>
</g>
<g id="star full_10">
<path id="Vector_693" d="M78.24,2.66c-0.92,-1.86 -3.57,-1.86 -4.48,0l-1.31,2.64c-0.12,0.24 -0.35,0.41 -0.62,0.45l-2.91,0.43c-2.05,0.29 -2.87,2.81 -1.39,4.26l2.11,2.05c0.19,0.19 0.28,0.47 0.24,0.74l-0.5,2.9c-0.35,2.04 1.79,3.6 3.63,2.63l2.6,-1.36c0.24,-0.13 0.53,-0.13 0.78,0l2.6,1.36c1.83,0.97 3.98,-0.59 3.63,-2.63l-0.5,-2.9c-0.05,-0.27 0.04,-0.55 0.24,-0.74l2.1,-2.05c1.49,-1.45 0.67,-3.97 -1.38,-4.26l-2.91,-0.43c-0.27,-0.04 -0.51,-0.21 -0.63,-0.45z" fill="currentColor"/>
</g>
<g id="star full_11">
<path id="Vector_694" fill-rule="evenodd" clip-rule="evenodd" d="M95.76,2.66c0.91,-1.86 3.56,-1.86 4.48,0l1.3,2.64c0.12,0.24 0.36,0.41 0.63,0.45l2.91,0.43c2.05,0.29 2.87,2.81 1.38,4.26l-2.1,2.05c-0.2,0.19 -0.29,0.47 -0.24,0.74l0.5,2.9c0.35,2.04 -1.8,3.6 -3.63,2.63l-2.6,-1.36c-0.25,-0.13 -0.54,-0.13 -0.78,0l-2.6,1.36c-1.84,0.97 -3.98,-0.59 -3.63,-2.63l0.5,-2.9c0.04,-0.27 -0.05,-0.55 -0.24,-0.74l-2.11,-2.05c-1.48,-1.45 -0.66,-3.97 1.39,-4.26l2.91,-0.43c0.27,-0.04 0.5,-0.21 0.62,-0.45zM98.74,3.4c-0.3,-0.62 -1.18,-0.62 -1.49,0l-1.3,2.63c-0.37,0.74 -1.07,1.25 -1.88,1.37l-2.91,0.42c-0.69,0.1 -0.96,0.94 -0.47,1.43l2.11,2.05c0.59,0.57 0.86,1.4 0.72,2.21l-0.5,2.9c-0.11,0.68 0.6,1.2 1.21,0.88l2.6,-1.37c0.73,-0.38 1.6,-0.38 2.33,0l2.6,1.37c0.62,0.32 1.33,-0.2 1.21,-0.88l-0.49,-2.9c-0.14,-0.81 0.13,-1.64 0.72,-2.21l2.1,-2.05c0.5,-0.49 0.22,-1.33 -0.46,-1.43l-2.91,-0.42c-0.82,-0.12 -1.52,-0.63 -1.88,-1.37z" fill="currentColor"/>
</g>
</g></svg>