<svg viewBox="0 0 22 16" fill="none" xmlns="http://www.w3.org/2000/svg" xmlns:xlink="http://www.w3.org/1999/xlink" x="0" y="0"><g id="Vector_205">
<path d="M10,12h-6v-2h6z" fill="currentColor"/>
<path d="M11,12h2v-2h-2z" fill="currentColor"/>
<path fill-rule="evenodd" clip-rule="evenodd" d="M5,0c-2.761,0 -5,2.24 -5,5v6c0,2.76 2.239,5 5,5h12c2.761,0 5,-2.24 5,-5v-6c0,-2.76 -2.239,-5 -5,-5zM2.171,4c0.412,-1.17 1.523,-2 2.829,-2h12c1.306,0 2.417,0.83 2.829,2zM2,6v5c0,1.66 1.343,3 3,3h12c1.657,0 3,-1.34 3,-3v-5z" fill="currentColor"/>
</g></svg>