<svg viewBox="0 0 16.6667 11.6667" fill="none" xmlns="http://www.w3.org/2000/svg" xmlns:xlink="http://www.w3.org/1999/xlink" x="0" y="0"><g id="Vector_741">
<path fill-rule="evenodd" clip-rule="evenodd" d="M8.333,2.5035c-1.841,0 -3.333,1.49 -3.333,3.33c0,1.84 1.492,3.33 3.333,3.33c1.841,0 3.333,-1.49 3.333,-3.33c0,-1.84 -1.492,-3.33 -3.333,-3.33zM6.666,5.8335c0,-0.92 0.747,-1.67 1.667,-1.67c0.921,0 1.667,0.75 1.667,1.67c0,0.92 -0.746,1.67 -1.667,1.67c-0.92,0 -1.667,-0.75 -1.667,-1.67z" fill="currentColor"/>
<path fill-rule="evenodd" clip-rule="evenodd" d="M5.833,0.0035c-3.221,0 -5.833,2.61 -5.833,5.83c0,3.22 2.612,5.83 5.833,5.83h5c3.222,0 5.834,-2.61 5.834,-5.83c0,-3.22 -2.612,-5.83 -5.834,-5.83zM1.667,5.8335c0,-2.3 1.865,-4.17 4.166,-4.17h5c2.301,0 4.167,1.87 4.167,4.17c0,2.3 -1.866,4.17 -4.167,4.17h-5c-2.301,0 -4.166,-1.87 -4.166,-4.17z" fill="currentColor"/>
</g></svg>