<svg viewBox="0 0 31.7333 10.4255" fill="none" xmlns="http://www.w3.org/2000/svg" xmlns:xlink="http://www.w3.org/1999/xlink" x="0" y="0"><path id="visa-logo_2" fill-rule="evenodd" clip-rule="evenodd" d="M7.9316,10.3002h-2.74l-2.06,-8c-0.1,-0.4 -0.31,-0.7 -0.61,-0.9c-0.77,-0.4 -1.61,-0.7 -2.52,-0.9v-0.3h4.42c0.61,0 1.07,0.5 1.15,1l1.07,5.9l2.74,-6.9h2.67zM13.5816,10.3002h-2.6l2.14,-10.1h2.59zM19.0716,3.0002c0.08,-0.5 0.53,-0.8 1.07,-0.8c0.84,-0.1 1.75,0.1 2.51,0.4l0.46,-2.1c-0.76,-0.3 -1.6,-0.5 -2.36,-0.5c-2.52,0 -4.35,1.4 -4.35,3.3c0,1.5 1.3,2.3 2.21,2.8c0.99,0.4 1.37,0.7 1.3,1.2c0,0.7 -0.76,1 -1.53,1c-0.91,0 -1.83,-0.2 -2.67,-0.6l-0.45,2.2c0.91,0.4 1.9,0.5 2.82,0.5c2.82,0.1 4.57,-1.3 4.57,-3.4c0,-2.6 -3.58,-2.8 -3.58,-4zM31.7316,10.3002l-2.06,-10.1h-2.21c-0.46,0 -0.92,0.3 -1.07,0.8l-3.81,9.3h2.67l0.53,-1.4h3.28l0.31,1.4zM27.8416,3.0002l0.76,3.8h-2.13z" fill="currentColor"/></svg>