<svg viewBox="0 0 375 44" fill="none" xmlns="http://www.w3.org/2000/svg" xmlns:xlink="http://www.w3.org/1999/xlink" x="0" y="0"><g id="iPhone X (or newer)_25">
<rect id="Rectangle_98" x="308" y="18" width="3" height="10" rx="1" fill="white"/>
<rect id="Rectangle_99" x="303" y="20" width="3" height="8" rx="1" fill="white"/>
<rect id="Rectangle_100" x="298" y="22" width="3" height="6" rx="1" fill="white"/>
<rect id="Rectangle_101" x="293" y="24" width="3" height="4" rx="1" fill="white"/>
<g id="Battery_25">
<path id="Vector_1200" opacity="0.35" d="M340,17.834h14c1.9,0 3.5,1.567 3.5,3.5v3.333c0,1.933 -1.6,3.5 -3.5,3.5h-14c-1.9,0 -3.5,-1.567 -3.5,-3.5v-3.333c0,-1.933 1.6,-3.5 3.5,-3.5z" stroke="white"/>
<path id="Combined Shape_25" opacity="0.4" d="M359,21v4c0.8,-0.339 1.3,-1.127 1.3,-2c0,-0.873 -0.5,-1.661 -1.3,-2z" fill="white"/>
<path id="Vector_1201" d="M338,21.334c0,-1.105 0.9,-2 2,-2h14c1.1,0 2,0.895 2,2v3.333c0,1.105 -0.9,2 -2,2h-14c-1.1,0 -2,-0.895 -2,-2z" fill="white"/>
</g>
<path id="Vector_1202" d="M321.6,26.586c0.4,-0.375 0.9,-0.586 1.4,-0.586c0.5,0 1,0.211 1.4,0.586M318.8,23.757c0.5,-0.557 1.2,-0.999 1.9,-1.3c0.7,-0.302 1.5,-0.457 2.3,-0.457c0.8,0 1.6,0.155 2.3,0.457c0.7,0.301 1.4,0.743 1.9,1.3M315.9,20.929c1,-0.929 2.1,-1.665 3.3,-2.168c1.2,-0.502 2.5,-0.761 3.8,-0.761c1.3,0 2.6,0.259 3.8,0.761c1.2,0.503 2.3,1.239 3.3,2.168" stroke="white" stroke-width="2" stroke-linejoin="round"/>
<g id="9:41_25">
<path d="M36.2,28c-0.8,0 -1.5,-0.155 -2.1,-0.464c-0.5,-0.321 -1,-0.735 -1.3,-1.243c-0.3,-0.508 -0.5,-1.055 -0.6,-1.641h2.2c0.1,0.486 0.3,0.862 0.6,1.127c0.3,0.254 0.8,0.381 1.3,0.381c0.5,0 0.9,-0.138 1.3,-0.414c0.3,-0.287 0.6,-0.713 0.8,-1.276c0.2,-0.575 0.3,-1.288 0.4,-2.139c0,-0.022 0,-0.049 0,-0.082c0,-0.034 0,-0.061 0,-0.083c-0.2,0.298 -0.4,0.563 -0.8,0.795c-0.3,0.232 -0.6,0.415 -1,0.547c-0.4,0.133 -0.8,0.199 -1.2,0.199c-0.7,0 -1.3,-0.155 -1.9,-0.464c-0.5,-0.309 -1,-0.746 -1.4,-1.309c-0.3,-0.564 -0.5,-1.232 -0.5,-2.006c0,-0.707 0.2,-1.359 0.5,-1.956c0.4,-0.596 0.9,-1.071 1.5,-1.425c0.6,-0.365 1.4,-0.547 2.2,-0.547c0.9,0 1.7,0.16 2.3,0.481c0.6,0.32 1.1,0.751 1.5,1.292c0.3,0.542 0.6,1.15 0.8,1.824c0.1,0.663 0.2,1.337 0.2,2.022c0,1.293 -0.2,2.42 -0.5,3.381c-0.4,0.95 -1,1.691 -1.7,2.221c-0.7,0.519 -1.5,0.779 -2.6,0.779zM36.3,21.818c0.4,0 0.8,-0.083 1.1,-0.249c0.4,-0.177 0.6,-0.409 0.8,-0.696c0.2,-0.298 0.3,-0.63 0.3,-0.995c0,-0.386 -0.1,-0.729 -0.3,-1.027c-0.2,-0.299 -0.5,-0.525 -0.8,-0.68c-0.3,-0.165 -0.7,-0.248 -1.1,-0.248c-0.4,0 -0.7,0.083 -1.1,0.248c-0.3,0.166 -0.5,0.393 -0.7,0.68c-0.2,0.287 -0.3,0.624 -0.3,1.011c0,0.387 0.1,0.729 0.3,1.028c0.2,0.287 0.4,0.513 0.7,0.679c0.4,0.166 0.7,0.249 1.1,0.249z" fill="white"/>
<path d="M43.9,27.884c-0.4,0 -0.8,-0.122 -1,-0.365c-0.3,-0.254 -0.4,-0.563 -0.4,-0.928c0,-0.364 0.1,-0.668 0.4,-0.911c0.2,-0.255 0.6,-0.382 1,-0.382c0.4,0 0.8,0.127 1,0.382c0.3,0.243 0.4,0.547 0.4,0.911c0,0.365 -0.1,0.674 -0.4,0.928c-0.2,0.243 -0.6,0.365 -1,0.365zM43.9,21.834c-0.4,0 -0.8,-0.121 -1,-0.364c-0.3,-0.255 -0.4,-0.564 -0.4,-0.929c0,-0.364 0.1,-0.668 0.4,-0.911c0.2,-0.254 0.6,-0.381 1,-0.381c0.4,0 0.8,0.127 1,0.381c0.3,0.243 0.4,0.547 0.4,0.911c0,0.365 -0.1,0.674 -0.4,0.929c-0.2,0.243 -0.6,0.364 -1,0.364z" fill="white"/>
<path d="M52.6,27.801v-2.105h-5.9v-1.773l5.6,-7.724h2.6v7.558h1.6v1.939h-1.6v2.105zM49.2,23.757h3.6v-5.088z" fill="white"/>
<path d="M59.6,27.801v-9.033l-2.1,0.53v-1.773l3.1,-1.326h1.4v11.602z" fill="white"/>
</g>
</g></svg>