<svg viewBox="0 0 16.6667 16.6667" fill="none" xmlns="http://www.w3.org/2000/svg" xmlns:xlink="http://www.w3.org/1999/xlink" x="0" y="0"><path id="Vector_119" d="M5.3867,3.0333l-0.589,0.59v0zM3.0297,3.0333l-0.589,-0.59v0zM3.0297,5.3833l-0.589,0.59v0zM3.0297,11.2833l0.59,0.59v0zM13.6367,5.3833l-0.589,-0.59v0zM11.2797,3.0333l0.589,0.59v0zM6.6667,2.5033h0.834c0,-0.46 0.373,-0.84 0.833,-0.84v-0.83v-0.83c-1.381,0 -2.5,1.12 -2.5,2.5zM5.3867,3.0333l-0.589,0.59c0.997,0.99 2.703,0.29 2.703,-1.12h-0.834h-0.833c0,-0.01 0.004,-0.03 0.019,-0.05c0.012,-0.02 0.024,-0.03 0.033,-0.03c0.008,0 0.022,-0.01 0.043,0c0.025,0 0.043,0.01 0.048,0.02zM3.0297,3.0333l0.59,0.59c0.325,-0.33 0.853,-0.33 1.178,0l0.589,-0.59l0.59,-0.59c-0.977,-0.98 -2.56,-0.98 -3.536,0zM3.0297,5.3833l0.59,-0.59c-0.326,-0.32 -0.326,-0.85 0,-1.17l-0.59,-0.59l-0.589,-0.59c-0.976,0.97 -0.976,2.56 0,3.53zM2.4997,6.6633v0.84c1.411,0 2.117,-1.71 1.12,-2.71l-0.59,0.59l-0.589,0.59c-0.005,0 -0.017,-0.02 -0.021,-0.04c-0.004,-0.03 -0.001,-0.04 0.003,-0.05c0.003,-0.01 0.011,-0.02 0.028,-0.03c0.021,-0.02 0.042,-0.02 0.049,-0.02zM0.8337,8.3333h0.833c0,-0.46 0.373,-0.83 0.833,-0.83v-0.84v-0.83c-1.38,0 -2.5,1.12 -2.5,2.5zM2.4997,10.0033v-0.84c-0.46,0 -0.833,-0.37 -0.833,-0.83h-0.833h-0.834c0,1.38 1.12,2.5 2.5,2.5zM3.0297,11.2833l0.59,0.59c0.997,-1 0.29,-2.71 -1.12,-2.71v0.84v0.83c-0.007,0 -0.028,0 -0.049,-0.02c-0.017,-0.01 -0.025,-0.02 -0.028,-0.03c-0.003,-0.01 -0.007,-0.02 -0.003,-0.05c0.004,-0.02 0.016,-0.04 0.021,-0.04zM3.0297,13.6333l0.59,-0.59c-0.326,-0.32 -0.326,-0.85 0,-1.17l-0.59,-0.59l-0.589,-0.59c-0.976,0.97 -0.976,2.56 0,3.53zM5.3867,13.6333l-0.589,-0.59c-0.325,0.33 -0.853,0.33 -1.178,0l-0.59,0.59l-0.589,0.59c0.976,0.98 2.559,0.98 3.536,0zM6.6667,14.1633h0.834c0,-1.41 -1.706,-2.11 -2.703,-1.12l0.589,0.59l0.59,0.59c-0.005,0.01 -0.023,0.02 -0.048,0.02c-0.021,0.01 -0.035,0 -0.043,0c-0.009,0 -0.021,-0.01 -0.033,-0.03c-0.015,-0.02 -0.019,-0.04 -0.019,-0.05zM8.3337,15.8333v-0.83c-0.46,0 -0.833,-0.38 -0.833,-0.84h-0.834h-0.833c0,1.38 1.119,2.5 2.5,2.5zM10.0007,14.1633h-0.834c0,0.46 -0.373,0.84 -0.833,0.84v0.83v0.83c1.381,0 2.5,-1.12 2.5,-2.5zM11.2797,13.6333l0.589,-0.59c-0.997,-0.99 -2.702,-0.29 -2.702,1.12h0.834h0.833c0,0.01 -0.004,0.03 -0.019,0.05c-0.012,0.02 -0.024,0.03 -0.033,0.03c-0.008,0 -0.023,0.01 -0.043,0c-0.026,0 -0.043,-0.01 -0.048,-0.02zM13.6367,13.6333l-0.589,-0.59c-0.326,0.33 -0.853,0.33 -1.179,0l-0.589,0.59l-0.589,0.59c0.976,0.98 2.559,0.98 3.535,0zM13.6367,11.2833l-0.589,0.59c0.325,0.32 0.325,0.85 0,1.17l0.589,0.59l0.589,0.59c0.976,-0.97 0.976,-2.56 0,-3.53zM14.1667,10.0033v-0.84c-1.41,0 -2.117,1.71 -1.119,2.71l0.589,-0.59l0.589,-0.59c0.005,0 0.017,0.02 0.022,0.04c0.003,0.03 0,0.04 -0.004,0.05c-0.003,0.01 -0.011,0.02 -0.028,0.03c-0.021,0.02 -0.042,0.02 -0.049,0.02zM15.8337,8.3333h-0.834c0,0.46 -0.373,0.83 -0.833,0.83v0.84v0.83c1.381,0 2.5,-1.12 2.5,-2.5zM14.1667,6.6633v0.84c0.46,0 0.833,0.37 0.833,0.83h0.834h0.833c0,-1.38 -1.119,-2.5 -2.5,-2.5zM13.6367,5.3833l-0.589,-0.59c-0.997,1 -0.291,2.71 1.119,2.71v-0.84v-0.83c0.007,0 0.028,0 0.049,0.02c0.017,0.01 0.025,0.02 0.028,0.03c0.004,0.01 0.007,0.02 0.004,0.05c-0.005,0.02 -0.017,0.04 -0.022,0.04zM13.6367,3.0333l-0.589,0.59c0.325,0.32 0.325,0.85 0,1.17l0.589,0.59l0.589,0.59c0.977,-0.97 0.977,-2.56 0,-3.53zM11.2797,3.0333l0.589,0.59c0.326,-0.33 0.853,-0.33 1.179,0l0.589,-0.59l0.589,-0.59c-0.976,-0.98 -2.559,-0.98 -3.535,0zM10.0007,2.5033h-0.834c0,1.41 1.705,2.11 2.702,1.12l-0.589,-0.59l-0.589,-0.59c0.005,-0.01 0.022,-0.02 0.048,-0.02c0.02,-0.01 0.035,0 0.043,0c0.009,0 0.021,0.01 0.033,0.03c0.015,0.02 0.019,0.04 0.019,0.05zM8.3337,0.8333v0.83c0.46,0 0.833,0.38 0.833,0.84h0.834h0.833c0,-1.38 -1.119,-2.5 -2.5,-2.5zM10.8337,8.3333h-0.834c0,0.92 -0.746,1.67 -1.666,1.67v0.83v0.83c1.841,0 3.333,-1.49 3.333,-3.33zM8.3337,5.8333v0.83c0.92,0 1.666,0.75 1.666,1.67h0.834h0.833c0,-1.84 -1.492,-3.33 -3.333,-3.33zM5.8337,8.3333h0.833c0,-0.92 0.746,-1.67 1.667,-1.67v-0.83v-0.83c-1.841,0 -3.334,1.49 -3.334,3.33zM8.3337,10.8333v-0.83c-0.921,0 -1.667,-0.75 -1.667,-1.67h-0.833h-0.834c0,1.84 1.493,3.33 3.334,3.33z" fill="currentColor"/></svg>