<svg viewBox="0 0 16 20.5186" fill="none" xmlns="http://www.w3.org/2000/svg" xmlns:xlink="http://www.w3.org/1999/xlink" x="0" y="0"><path id="Vector_890" fill-rule="evenodd" clip-rule="evenodd" d="M8,-0.0014l5.777,6.6c1.433,1.64 2.223,3.74 2.223,5.92c0,1.05 -0.207,2.09 -0.609,3.06c-0.402,0.97 -0.991,1.85 -1.734,2.6c-0.743,0.74 -1.625,1.33 -2.596,1.73c-0.97,0.4 -2.01,0.61 -3.061,0.61c-1.051,0 -2.091,-0.21 -3.061,-0.61c-0.971,-0.4 -1.853,-0.99 -2.596,-1.73c-0.743,-0.75 -1.332,-1.63 -1.734,-2.6c-0.402,-0.97 -0.609,-2.01 -0.609,-3.06c0,-2.18 0.79,-4.28 2.223,-5.92zM8,3.0386l-4.272,4.88c-1.114,1.27 -1.728,2.91 -1.728,4.6c0,0.79 0.155,1.57 0.457,2.3c0.301,0.72 0.743,1.39 1.3,1.94c0.558,0.56 1.219,1 1.947,1.3c0.728,0.3 1.508,0.46 2.296,0.46c0.788,0 1.568,-0.16 2.296,-0.46c0.728,-0.3 1.389,-0.74 1.947,-1.3c0.557,-0.55 0.999,-1.22 1.3,-1.94c0.302,-0.73 0.457,-1.51 0.457,-2.3c0,-1.69 -0.614,-3.33 -1.728,-4.6z" fill="currentColor"/></svg>