<svg viewBox="0 0 16 30.0275" fill="none" xmlns="http://www.w3.org/2000/svg" xmlns:xlink="http://www.w3.org/1999/xlink" id="d691a262" x="0" y="0"><g id="Mobile App Components" data-node-id="10723:18403"><g id="Frame_44" data-node-id="20579:99141"><g id="Frame_45" data-node-id="20579:99143"><g id="Health Metrics" data-node-id="20365:29160"><g id="Type=4" data-node-id="20365:29373"><g id="Frame_123" data-node-id="20365:29381"><g id="Frame_127" data-node-id="20365:29388"><g id="Frame_128" data-node-id="20368:31839"><g id="check single_3" data-node-id="I20368:31839;20368:31879">
<path id="Vector_197" data-node-id="I20368:31839;20368:31879;22367:44327" d="M13.354,1.4175l-5.233,5.23c-0.419,0.42 -0.954,0.71 -1.536,0.82c-0.582,0.12 -1.185,0.06 -1.733,-0.17c-0.548,-0.23 -1.017,-0.61 -1.346,-1.1c-0.33,-0.5 -0.506,-1.08 -0.506,-1.67h1c0,0.4 0.117,0.78 0.337,1.11c0.22,0.33 0.532,0.59 0.898,0.74c0.365,0.15 0.767,0.19 1.155,0.11c0.388,-0.08 0.745,-0.27 1.024,-0.55l5.232,-5.23z" fill="#57534E"/>
</g><g id="Frame_129" data-node-id="I20368:31839;20368:31830">
<circle id="Ellipse" data-node-id="I20368:31839;20368:31834" cx="8" cy="22.027500000000146" r="7" stroke="#A8A29E" stroke-width="2"/>
</g></g></g></g></g></g></g></g></g><defs/></svg>