<svg viewBox="0 0 16 30.555" fill="none" xmlns="http://www.w3.org/2000/svg" xmlns:xlink="http://www.w3.org/1999/xlink" id="16d86c3b" x="0" y="0"><g id="Mobile App Components" data-node-id="10723:18403"><g id="Frame_44" data-node-id="20579:99141"><g id="Frame_45" data-node-id="20579:99143"><g id="Health Metrics" data-node-id="20365:29160"><g id="Type=4" data-node-id="20365:29373"><g id="Frame_123" data-node-id="20365:29381"><g id="Frame_127" data-node-id="20365:29388"><g id="Frame_130" data-node-id="20368:31849"><g id="close x_3" data-node-id="I20368:31849;20445:56080">
<path id="Vector_198" data-node-id="I20368:31849;20445:56080;22366:44097" d="M7.291,4.5548l-3.147,3.15l0.708,0.7l3.146,-3.14l3.146,3.14l0.708,-0.7l-3.147,-3.15l3.147,-3.15l-0.708,-0.7l-3.146,3.14l-3.146,-3.14l-0.708,0.7z" fill="#FB7185"/>
</g><g id="Frame_131" data-node-id="I20368:31849;20445:56081">
<circle id="Ellipse_2" data-node-id="I20368:31849;20445:56082" cx="8" cy="22.554799999999886" r="7" stroke="#E7E5E4" stroke-width="2"/>
<path id="Ellipse_3" data-node-id="I20368:31849;20445:56083" d="M8,15.5548c1.151,0 2.285,0.28 3.3,0.83c1.015,0.54 1.881,1.32 2.52,2.28c0.64,0.96 1.033,2.06 1.146,3.2c0.113,1.15 -0.058,2.31 -0.499,3.37c-0.44,1.06 -1.136,2 -2.026,2.73c-0.89,0.73 -1.946,1.23 -3.075,1.46c-1.129,0.22 -2.296,0.16 -3.398,-0.17c-1.102,-0.34 -2.104,-0.94 -2.918,-1.75" stroke="#A8A29E" stroke-width="2" stroke-linecap="round" stroke-linejoin="round"/>
</g></g></g></g></g></g></g></g></g><defs/></svg>