<svg viewBox="0 0 16.6667 15.4915" fill="none" xmlns="http://www.w3.org/2000/svg" xmlns:xlink="http://www.w3.org/1999/xlink" x="0" y="0"><path id="Vector_191" fill-rule="evenodd" clip-rule="evenodd" d="M0,7.5c0,-4.14 3.358,-7.5 7.5,-7.5h2.5c3.682,0 6.667,2.98 6.667,6.67c0,3.68 -2.985,6.66 -6.667,6.66h-4.453c-0.663,0 -1.299,0.27 -1.767,0.74l-0.935,0.93c-1.05,1.05 -2.845,0.31 -2.845,-1.18zM5,5.83c-0.46,0 -0.833,0.38 -0.833,0.84c0,0.46 0.373,0.83 0.833,0.83c0.46,0 0.833,-0.37 0.833,-0.83c0,-0.46 -0.373,-0.84 -0.833,-0.84zM7.5,6.67c0,-0.46 0.373,-0.84 0.833,-0.84c0.461,0 0.834,0.38 0.834,0.84c0,0.46 -0.373,0.83 -0.834,0.83c-0.46,0 -0.833,-0.37 -0.833,-0.83zM11.667,5.83c-0.461,0 -0.834,0.38 -0.834,0.84c0,0.46 0.373,0.83 0.834,0.83c0.46,0 0.833,-0.37 0.833,-0.83c0,-0.46 -0.373,-0.84 -0.833,-0.84z" fill="currentColor"/></svg>