<svg viewBox="0 0 304 64" fill="none" xmlns="http://www.w3.org/2000/svg" xmlns:xlink="http://www.w3.org/1999/xlink" x="0" y="0"><g id="Socials">
<g id="Button Icon_22">
<rect x="0" y="-0.002999999998792191" width="64" height="64" rx="32" fill="#FE814B"/>
<g id="icon instagram">
<path id="vector" fill-rule="evenodd" clip-rule="evenodd" d="M32,22.997c-2.444,0 -2.75,0.01 -3.71,0.06c-0.959,0.04 -1.613,0.19 -2.186,0.42c-0.6,0.22 -1.144,0.58 -1.594,1.03c-0.457,0.45 -0.812,1 -1.038,1.6c-0.221,0.57 -0.374,1.23 -0.418,2.18c-0.043,0.96 -0.054,1.27 -0.054,3.71c0,2.45 0.01,2.75 0.054,3.71c0.044,0.96 0.196,1.62 0.419,2.19c0.225,0.6 0.579,1.14 1.038,1.59c0.449,0.46 0.993,0.81 1.593,1.04c0.573,0.22 1.227,0.38 2.186,0.42c0.96,0.04 1.266,0.05 3.71,0.05c2.444,0 2.75,-0.01 3.71,-0.05c0.959,-0.04 1.613,-0.2 2.186,-0.42c0.6,-0.23 1.144,-0.58 1.594,-1.04c0.457,-0.45 0.812,-0.99 1.038,-1.59c0.222,-0.57 0.374,-1.23 0.418,-2.19c0.044,-0.96 0.054,-1.26 0.054,-3.71c0,-2.44 -0.01,-2.75 -0.054,-3.71c-0.044,-0.96 -0.196,-1.61 -0.419,-2.18c-0.226,-0.6 -0.58,-1.15 -1.038,-1.6c-0.449,-0.45 -0.993,-0.81 -1.593,-1.03c-0.573,-0.23 -1.228,-0.38 -2.186,-0.42c-0.96,-0.05 -1.265,-0.06 -3.71,-0.06zM32,24.617c2.403,0 2.688,0.01 3.637,0.06c0.877,0.04 1.354,0.18 1.671,0.31c0.42,0.16 0.72,0.36 1.035,0.67c0.315,0.31 0.51,0.61 0.673,1.03c0.123,0.32 0.27,0.8 0.31,1.68c0.043,0.95 0.052,1.23 0.052,3.63c0,2.41 -0.009,2.69 -0.052,3.64c-0.04,0.88 -0.186,1.35 -0.31,1.67c-0.144,0.39 -0.374,0.75 -0.673,1.04c-0.29,0.3 -0.644,0.52 -1.035,0.67c-0.317,0.12 -0.794,0.27 -1.671,0.31c-0.949,0.04 -1.233,0.05 -3.637,0.05c-2.404,0 -2.688,-0.01 -3.637,-0.05c-0.877,-0.04 -1.354,-0.19 -1.671,-0.31c-0.391,-0.15 -0.745,-0.38 -1.035,-0.67c-0.299,-0.29 -0.529,-0.65 -0.673,-1.04c-0.123,-0.32 -0.27,-0.79 -0.31,-1.67c-0.043,-0.95 -0.052,-1.23 -0.052,-3.64c0,-2.4 0.009,-2.68 0.052,-3.63c0.04,-0.88 0.186,-1.36 0.31,-1.68c0.163,-0.42 0.358,-0.72 0.673,-1.03c0.29,-0.3 0.644,-0.53 1.035,-0.67c0.317,-0.13 0.794,-0.27 1.671,-0.31c0.949,-0.05 1.234,-0.06 3.637,-0.06z" fill="white"/>
<path id="vector_2" fill-rule="evenodd" clip-rule="evenodd" d="M32,35.007c-0.394,0 -0.785,-0.08 -1.149,-0.23c-0.365,-0.15 -0.696,-0.37 -0.974,-0.65c-0.279,-0.28 -0.5,-0.61 -0.651,-0.98c-0.151,-0.36 -0.229,-0.75 -0.229,-1.15c0,-0.39 0.078,-0.78 0.229,-1.15c0.151,-0.36 0.372,-0.69 0.651,-0.97c0.278,-0.28 0.609,-0.5 0.974,-0.65c0.364,-0.15 0.755,-0.23 1.149,-0.23c0.796,0 1.56,0.32 2.123,0.88c0.564,0.56 0.88,1.33 0.88,2.12c0,0.8 -0.316,1.56 -0.88,2.13c-0.563,0.56 -1.327,0.88 -2.123,0.88zM32,27.377c-1.227,0 -2.404,0.48 -3.271,1.35c-0.868,0.87 -1.355,2.05 -1.355,3.27c0,1.23 0.487,2.41 1.355,3.27c0.867,0.87 2.044,1.36 3.271,1.36c1.227,0 2.404,-0.49 3.271,-1.36c0.868,-0.86 1.355,-2.04 1.355,-3.27c0,-1.22 -0.487,-2.4 -1.355,-3.27c-0.867,-0.87 -2.044,-1.35 -3.271,-1.35zM37.972,27.287c0,0.29 -0.115,0.57 -0.32,0.78c-0.206,0.2 -0.484,0.32 -0.774,0.32c-0.29,0 -0.568,-0.12 -0.773,-0.32c-0.205,-0.21 -0.32,-0.49 -0.32,-0.78c0,-0.29 0.115,-0.57 0.32,-0.77c0.205,-0.21 0.483,-0.32 0.773,-0.32c0.29,0 0.568,0.11 0.774,0.32c0.205,0.2 0.32,0.48 0.32,0.77z" fill="white"/>
</g>
</g>
<g id="Button Icon_23">
<rect x="80.5" y="0.4970000000012078" width="63" height="63" rx="31.5" stroke="#926247"/>
<g id="icon facebook">
<path id="Vector_182" d="M122,32.057c0,-5.55 -4.477,-10.06 -10,-10.06c-5.523,0 -10,4.51 -10,10.06c0,5.03 3.656,9.19 8.437,9.94v-7.03h-2.538v-2.91h2.538v-2.21c0,-2.52 1.493,-3.92 3.778,-3.92c1.093,0 2.238,0.2 2.238,0.2v2.48h-1.262c-1.242,0 -1.628,0.77 -1.628,1.57v1.88h2.773l-0.443,2.91h-2.33v7.03c4.781,-0.75 8.437,-4.91 8.437,-9.94z" fill="white"/>
</g>
</g>
<g id="Button Icon_24">
<rect x="160.5" y="0.4970000000012078" width="63" height="63" rx="31.5" stroke="#926247"/>
<g id="icon youtube">
<path id="vector_3" fill-rule="evenodd" clip-rule="evenodd" d="M199.792,25.417c0.86,0.23 1.54,0.91 1.772,1.77c0.423,1.57 0.436,4.81 0.436,4.81c0,0 0,3.26 -0.424,4.82c-0.231,0.86 -0.911,1.54 -1.771,1.77c-1.553,0.42 -7.805,0.42 -7.805,0.42c0,0 -6.252,0 -7.805,-0.42c-0.86,-0.23 -1.54,-0.91 -1.771,-1.77c-0.424,-1.57 -0.424,-4.82 -0.424,-4.82c0,0 0,-3.24 0.411,-4.8c0.231,-0.86 0.911,-1.54 1.771,-1.77c1.554,-0.42 7.805,-0.44 7.805,-0.44c0,0 6.252,0 7.805,0.43zM195.184,31.997l-5.187,3.01v-6.01z" fill="white"/>
</g>
</g>
<g id="Button Icon_25">
<rect x="240.5" y="0.4970000000012078" width="63" height="63" rx="31.5" stroke="#926247"/>
<g id="icon linkedin">
<path id="vector_4" d="M281,24.327v15.35c0,0.35 -0.139,0.69 -0.388,0.94c-0.248,0.24 -0.585,0.38 -0.936,0.38h-15.352c-0.351,0 -0.688,-0.14 -0.936,-0.38c-0.249,-0.25 -0.388,-0.59 -0.388,-0.94v-15.35c0,-0.35 0.139,-0.69 0.388,-0.94c0.248,-0.25 0.585,-0.39 0.936,-0.39h15.352c0.351,0 0.688,0.14 0.936,0.39c0.249,0.25 0.388,0.59 0.388,0.94zM268.294,29.887h-2.647v8.47h2.647zM268.532,26.967c0.002,-0.2 -0.036,-0.4 -0.112,-0.58c-0.075,-0.19 -0.186,-0.36 -0.327,-0.5c-0.14,-0.14 -0.308,-0.25 -0.492,-0.33c-0.185,-0.08 -0.383,-0.12 -0.583,-0.12h-0.047c-0.408,0 -0.798,0.16 -1.086,0.45c-0.288,0.29 -0.45,0.68 -0.45,1.08c0,0.41 0.162,0.8 0.45,1.09c0.288,0.29 0.678,0.45 1.086,0.45c0.2,0 0.399,-0.03 0.586,-0.1c0.187,-0.07 0.358,-0.18 0.503,-0.32c0.145,-0.14 0.261,-0.3 0.342,-0.49c0.081,-0.18 0.126,-0.38 0.13,-0.58zM278.353,33.207c0,-2.55 -1.62,-3.54 -3.229,-3.54c-0.527,-0.02 -1.052,0.09 -1.522,0.33c-0.47,0.24 -0.869,0.6 -1.157,1.04h-0.074v-1.15h-2.489v8.47h2.647v-4.51c-0.038,-0.46 0.107,-0.92 0.405,-1.27c0.297,-0.36 0.723,-0.58 1.184,-0.62h0.1c0.842,0 1.467,0.52 1.467,1.86v4.54h2.647z" fill="white"/>
</g>
</g>
</g></svg>