<svg viewBox="0 0 19.8042 21.4195" fill="none" xmlns="http://www.w3.org/2000/svg" xmlns:xlink="http://www.w3.org/1999/xlink" x="0" y="0"><g id="Vector_680">
<path d="M12.8842,0.4559l-0.18,0.42c-0.41,0.94 -1.16,1.7 -2.1,2.1l-0.42,0.18c-0.61,0.26 -0.61,1.12 0,1.38l0.42,0.18c0.94,0.4 1.69,1.16 2.1,2.1l0.18,0.42c0.26,0.61 1.12,0.61 1.38,0l0.18,-0.42c0.4,-0.94 1.16,-1.7 2.1,-2.1l0.42,-0.18c0.61,-0.26 0.61,-1.12 0,-1.38l-0.42,-0.18c-0.94,-0.4 -1.7,-1.16 -2.1,-2.1l-0.18,-0.42c-0.26,-0.61 -1.12,-0.61 -1.38,0z" fill="currentColor"/>
<path fill-rule="evenodd" clip-rule="evenodd" d="M5.9342,6.7659c0.73,-1.99 3.55,-1.99 4.28,0l0.26,0.73c0.59,1.6 1.85,2.86 3.45,3.45l0.73,0.26c1.99,0.73 1.99,3.55 0,4.28l-0.73,0.26c-1.6,0.59 -2.86,1.85 -3.45,3.45l-0.26,0.73c-0.73,1.99 -3.55,1.99 -4.28,0l-0.26,-0.73c-0.59,-1.6 -1.85,-2.86 -3.45,-3.45l-0.73,-0.26c-1.99,-0.73 -1.99,-3.55 0,-4.28l0.73,-0.26c1.6,-0.59 2.86,-1.85 3.45,-3.45zM8.3342,7.4559c-0.09,-0.24 -0.43,-0.24 -0.52,0l-0.27,0.73c-0.79,2.15 -2.48,3.84 -4.63,4.63l-0.73,0.27c-0.24,0.09 -0.24,0.43 0,0.52l0.73,0.27c2.15,0.79 3.84,2.48 4.63,4.63l0.27,0.73c0.09,0.24 0.43,0.24 0.52,0l0.27,-0.73c0.78,-2.15 2.48,-3.84 4.63,-4.63l0.73,-0.27c0.24,-0.09 0.24,-0.43 0,-0.52l-0.73,-0.27c-2.15,-0.79 -3.85,-2.48 -4.63,-4.63z" fill="currentColor"/>
<path d="M17.0642,7.0259l0.05,-0.11c0.17,-0.4 0.75,-0.4 0.92,0l0.05,0.11c0.25,0.59 0.72,1.06 1.31,1.31l0.11,0.05c0.4,0.17 0.4,0.75 0,0.92l-0.11,0.05c-0.59,0.25 -1.06,0.72 -1.31,1.31l-0.05,0.11c-0.17,0.4 -0.75,0.4 -0.92,0l-0.05,-0.11c-0.25,-0.59 -0.72,-1.06 -1.31,-1.31l-0.11,-0.05c-0.4,-0.17 -0.4,-0.75 0,-0.92l0.11,-0.05c0.59,-0.25 1.06,-0.72 1.31,-1.31z" fill="currentColor"/>
</g></svg>