<svg viewBox="0 0 375 812" fill="none" xmlns="http://www.w3.org/2000/svg" xmlns:xlink="http://www.w3.org/1999/xlink" x="0" y="0"><defs><linearGradient id="paint0_linear_22590_66191" x1="187" y1="367" x2="187" y2="445" gradientUnits="userSpaceOnUse">
<stop stop-color="white"/>
<stop offset="1" stop-color="white" stop-opacity="0"/>
</linearGradient><clipPath id="clip0_22590_66191">
<rect width="375" height="812" fill="white" transform="translate(0, 0)"/>
</clipPath></defs><g id="Splash Screen" clip-path="url(#clip0_22590_66191)">
<rect width="375" height="812" transform="translate(0, 0)" fill="#5F3D34"/>
<g id="Loader Base">
<g id="Frame">
<circle id="Ellipse" cx="187" cy="704" r="24.5" stroke="white" stroke-opacity="0.32" stroke-width="7" stroke-linecap="round" stroke-linejoin="round"/>
<path id="Ellipse_2" d="M169.676,686.68c3.426,-3.43 7.792,-5.76 12.544,-6.71c4.753,-0.94 9.679,-0.46 14.156,1.39c4.477,1.86 8.303,5 10.995,9.03c2.692,4.03 4.129,8.76 4.129,13.61" stroke="white" stroke-width="7" stroke-linecap="round" stroke-linejoin="round"/>
</g>
</g>
<g id="Logomark">
<path id="Union" d="M187,414.625c8.491,0 15.375,6.884 15.375,15.375c0,8.491 -6.884,15.375 -15.375,15.375c-8.491,0 -15.375,-6.884 -15.375,-15.375c0,-8.491 6.884,-15.375 15.375,-15.375zM163,390.625c8.491,0 15.375,6.884 15.375,15.375c0,8.491 -6.884,15.375 -15.375,15.375c-8.491,0 -15.375,-6.884 -15.375,-15.375c0,-8.491 6.884,-15.375 15.375,-15.375zM211,390.625c8.491,0 15.375,6.884 15.375,15.375c0,8.491 -6.884,15.375 -15.375,15.375c-8.491,0 -15.375,-6.884 -15.375,-15.375c0,-8.491 6.884,-15.375 15.375,-15.375zM187,366.625c8.491,0 15.375,6.884 15.375,15.375c0,8.491 -6.884,15.375 -15.375,15.375c-8.491,0 -15.375,-6.884 -15.375,-15.375c0,-8.491 6.884,-15.375 15.375,-15.375z" fill="white" stroke="url(#paint0_linear_22590_66191)" stroke-width="0.75"/>
</g>
<g id="iPhone X (or newer)">
<rect id="Rectangle" x="308" y="18" width="3" height="10" rx="1" fill="white"/>
<rect id="Rectangle_2" x="303" y="20" width="3" height="8" rx="1" fill="white"/>
<rect id="Rectangle_3" x="298" y="22" width="3" height="6" rx="1" fill="white"/>
<rect id="Rectangle_4" x="293" y="24" width="3" height="4" rx="1" fill="white"/>
<g id="Battery">
<path id="Vector" opacity="0.35" d="M340,17.833h14c1.933,0 3.5,1.567 3.5,3.5v3.334c0,1.933 -1.567,3.5 -3.5,3.5h-14c-1.933,0 -3.5,-1.567 -3.5,-3.5v-3.334c0,-1.933 1.567,-3.5 3.5,-3.5z" stroke="white"/>
<path id="Combined Shape" opacity="0.4" d="M359,21v4c0.805,-0.339 1.328,-1.127 1.328,-2c0,-0.873 -0.523,-1.661 -1.328,-2z" fill="white"/>
<path id="Vector_2" d="M338,21.333c0,-1.104 0.895,-2 2,-2h14c1.105,0 2,0.896 2,2v3.334c0,1.104 -0.895,2 -2,2h-14c-1.105,0 -2,-0.896 -2,-2z" fill="white"/>
</g>
<path id="Vector_3" d="M321.587,26.586c0.375,-0.375 0.883,-0.586 1.414,-0.586c0.53,0 1.039,0.211 1.414,0.586M318.758,23.757c0.557,-0.557 1.219,-0.999 1.947,-1.3c0.728,-0.302 1.508,-0.457 2.296,-0.457c0.788,0 1.568,0.155 2.296,0.457c0.728,0.301 1.389,0.743 1.946,1.3M315.93,20.929c0.928,-0.929 2.031,-1.665 3.244,-2.168c1.213,-0.502 2.514,-0.761 3.827,-0.761c1.313,0 2.613,0.259 3.827,0.761c1.213,0.503 2.315,1.239 3.244,2.168" stroke="white" stroke-width="2" stroke-linejoin="round"/>
<g id="9:41">
<path d="M36.249,28c-0.834,0 -1.542,-0.155 -2.125,-0.464c-0.571,-0.321 -1.016,-0.735 -1.336,-1.243c-0.32,-0.508 -0.514,-1.055 -0.582,-1.641h2.158c0.103,0.486 0.314,0.862 0.634,1.127c0.331,0.254 0.76,0.381 1.285,0.381c0.491,0 0.914,-0.138 1.268,-0.414c0.365,-0.287 0.651,-0.713 0.856,-1.276c0.206,-0.575 0.326,-1.288 0.36,-2.139c0,-0.022 0,-0.049 0,-0.082c0,-0.034 0,-0.061 0,-0.083c-0.171,0.298 -0.411,0.563 -0.719,0.795c-0.309,0.232 -0.657,0.415 -1.045,0.547c-0.377,0.133 -0.783,0.199 -1.217,0.199c-0.651,0 -1.268,-0.155 -1.85,-0.464c-0.583,-0.309 -1.051,-0.746 -1.405,-1.309c-0.354,-0.564 -0.531,-1.232 -0.531,-2.006c0,-0.707 0.177,-1.359 0.531,-1.956c0.354,-0.596 0.845,-1.071 1.473,-1.425c0.629,-0.365 1.354,-0.547 2.176,-0.547c0.914,0 1.679,0.16 2.296,0.481c0.617,0.32 1.113,0.751 1.49,1.292c0.377,0.542 0.646,1.15 0.806,1.824c0.171,0.663 0.257,1.337 0.257,2.022c0,1.293 -0.189,2.42 -0.566,3.381c-0.377,0.95 -0.919,1.691 -1.627,2.221c-0.708,0.519 -1.571,0.779 -2.587,0.779zM36.334,21.818c0.412,0 0.777,-0.083 1.097,-0.249c0.32,-0.177 0.571,-0.409 0.754,-0.696c0.194,-0.298 0.291,-0.63 0.291,-0.995c0,-0.386 -0.097,-0.729 -0.291,-1.027c-0.183,-0.299 -0.44,-0.525 -0.771,-0.68c-0.32,-0.165 -0.686,-0.248 -1.097,-0.248c-0.399,0 -0.759,0.083 -1.079,0.248c-0.32,0.166 -0.571,0.393 -0.754,0.68c-0.183,0.287 -0.274,0.624 -0.274,1.011c0,0.387 0.091,0.729 0.274,1.028c0.183,0.287 0.434,0.513 0.754,0.679c0.32,0.166 0.685,0.249 1.096,0.249z" fill="white"/>
<path d="M43.903,27.884c-0.422,0 -0.771,-0.122 -1.045,-0.365c-0.263,-0.254 -0.394,-0.563 -0.394,-0.928c0,-0.364 0.131,-0.668 0.394,-0.911c0.274,-0.255 0.623,-0.382 1.045,-0.382c0.423,0 0.765,0.127 1.028,0.382c0.263,0.243 0.394,0.547 0.394,0.911c0,0.365 -0.131,0.674 -0.394,0.928c-0.263,0.243 -0.605,0.365 -1.028,0.365zM43.903,21.834c-0.422,0 -0.771,-0.121 -1.045,-0.364c-0.263,-0.255 -0.394,-0.564 -0.394,-0.929c0,-0.364 0.131,-0.668 0.394,-0.911c0.274,-0.254 0.623,-0.381 1.045,-0.381c0.423,0 0.765,0.127 1.028,0.381c0.263,0.243 0.394,0.547 0.394,0.911c0,0.365 -0.131,0.674 -0.394,0.929c-0.263,0.243 -0.605,0.364 -1.028,0.364z" fill="white"/>
<path d="M52.622,27.801v-2.105h-5.893v-1.773l5.585,-7.724h2.604v7.558h1.576v1.939h-1.576v2.105zM49.196,23.757h3.58v-5.088z" fill="white"/>
<path d="M59.602,27.801v-9.033l-2.108,0.53v-1.773l3.101,-1.326h1.405v11.602z" fill="white"/>
</g>
</g>
<g id="Home Indicator">
<rect id="Vector_4" x="120.5" y="799" width="134" height="5" rx="2.5" fill="white"/>
</g>
</g></svg>