<svg viewBox="0 0 96 86" fill="none" xmlns="http://www.w3.org/2000/svg" xmlns:xlink="http://www.w3.org/1999/xlink" x="0" y="0"><g id="Frame_432">
<g id="Group_265">
<path id="Vector_766" d="M37.58,8.09c0.15,-0.01 0.3,-0.03 0.46,0.01c0.21,0.04 0.41,0.18 0.52,0.37c0.1,0.16 0.14,0.35 0.09,0.54c-0.07,0.29 -0.25,0.43 -0.49,0.58c-0.15,0.01 -0.3,0.03 -0.45,0c-0.21,-0.04 -0.41,-0.18 -0.53,-0.36c-0.01,-0.02 -0.02,-0.04 -0.04,-0.07c-0.01,-0.02 -0.02,-0.04 -0.03,-0.06c-0.01,-0.03 -0.01,-0.05 -0.02,-0.07c-0.01,-0.02 -0.01,-0.05 -0.02,-0.07c0,-0.03 -0.01,-0.05 -0.01,-0.07c0,-0.03 0,-0.05 0,-0.08c0,-0.02 0.01,-0.04 0.01,-0.07c0,-0.02 0.01,-0.05 0.01,-0.07c0.07,-0.28 0.25,-0.43 0.5,-0.58z" fill="#A855F7"/>
<path id="Vector_767" d="M70.95,43.56c0.09,0 0.18,0 0.28,0.02c0.21,0.04 0.41,0.16 0.53,0.35c0.12,0.19 0.14,0.42 0.08,0.63c-0.1,0.33 -0.31,0.48 -0.6,0.63c-0.13,-0.01 -0.28,-0.01 -0.41,-0.05c-0.21,-0.06 -0.4,-0.26 -0.49,-0.45c-0.01,-0.03 -0.02,-0.05 -0.03,-0.07c0,-0.03 -0.01,-0.06 -0.02,-0.08c0,-0.02 -0.01,-0.05 -0.01,-0.08c0,-0.02 0,-0.05 0,-0.08c0,-0.02 0,-0.05 0,-0.08c0.01,-0.02 0.01,-0.05 0.01,-0.08c0.01,-0.02 0.02,-0.05 0.02,-0.07c0.01,-0.03 0.02,-0.05 0.03,-0.08c0.11,-0.27 0.34,-0.41 0.61,-0.51z" fill="#A855F7"/>
<path id="Vector_768" d="M9.94,36.91c0.15,-0.01 0.3,-0.01 0.44,0.03c0.22,0.07 0.42,0.23 0.52,0.43c0.01,0.03 0.03,0.05 0.03,0.07c0.01,0.03 0.02,0.05 0.03,0.08c0.01,0.02 0.01,0.05 0.01,0.07c0.01,0.03 0.01,0.05 0.01,0.08c0,0.02 0.01,0.05 0,0.07c0,0.03 0,0.06 -0.01,0.08c0,0.02 0,0.05 -0.01,0.08c-0.01,0.02 -0.01,0.04 -0.03,0.07c-0.1,0.28 -0.29,0.4 -0.55,0.52c-0.12,0.01 -0.24,0.02 -0.35,0c-0.23,-0.04 -0.44,-0.15 -0.56,-0.34c-0.13,-0.17 -0.15,-0.39 -0.1,-0.59c0.08,-0.32 0.3,-0.49 0.57,-0.65z" fill="#A855F7"/>
<path id="Vector_769" d="M13.17,52.05c0.13,0 0.28,0 0.41,0.04c0.24,0.08 0.45,0.26 0.55,0.49c0.01,0.03 0.02,0.05 0.02,0.08c0.01,0.03 0.02,0.05 0.02,0.08c0.01,0.03 0.01,0.05 0.02,0.08c0,0.03 0,0.05 0,0.08c0,0.03 0,0.05 0,0.08c-0.01,0.03 -0.01,0.05 -0.02,0.08c0,0.03 -0.01,0.05 -0.02,0.08c0,0.02 -0.02,0.05 -0.02,0.07c-0.13,0.28 -0.32,0.38 -0.59,0.49c-0.12,0.01 -0.25,0.01 -0.37,-0.01c-0.21,-0.05 -0.4,-0.18 -0.52,-0.36c-0.12,-0.2 -0.13,-0.43 -0.07,-0.65c0.09,-0.32 0.3,-0.47 0.59,-0.63z" fill="#A855F7"/>
<path id="Vector_770" d="M73.23,25.53c0.16,-0.02 0.32,-0.03 0.47,0c0.24,0.05 0.46,0.22 0.58,0.43c0.11,0.2 0.13,0.44 0.07,0.65c-0.09,0.3 -0.29,0.49 -0.56,0.64c-0.13,0.02 -0.24,0.03 -0.37,0.02c-0.03,0 -0.06,-0.01 -0.09,-0.01c-0.03,-0.01 -0.06,-0.02 -0.09,-0.03c-0.03,-0.01 -0.06,-0.03 -0.09,-0.04c-0.03,-0.01 -0.05,-0.03 -0.08,-0.04c-0.03,-0.02 -0.05,-0.03 -0.08,-0.05c-0.03,-0.02 -0.05,-0.04 -0.07,-0.06c-0.03,-0.02 -0.05,-0.05 -0.07,-0.07c-0.02,-0.03 -0.04,-0.05 -0.06,-0.08c-0.01,-0.02 -0.03,-0.05 -0.05,-0.08c-0.01,-0.03 -0.02,-0.05 -0.04,-0.08c-0.01,-0.03 -0.02,-0.06 -0.03,-0.09c-0.01,-0.03 -0.01,-0.06 -0.02,-0.09c0,-0.03 -0.01,-0.07 -0.01,-0.09c0,-0.04 0,-0.07 0,-0.1c0,-0.03 0,-0.06 0.01,-0.1c0,-0.03 0.01,-0.06 0.02,-0.09c0.07,-0.32 0.29,-0.49 0.56,-0.64z" fill="#A855F7"/>
<path id="Vector_771" d="M55.47,24.94c0.15,0 0.3,-0.02 0.46,0.03c0.23,0.07 0.44,0.25 0.55,0.47c0.02,0.02 0.03,0.05 0.04,0.08c0.01,0.03 0.02,0.06 0.03,0.1c0.01,0.03 0.02,0.06 0.02,0.09c0,0.03 0.01,0.06 0.01,0.09c0,0.04 0,0.07 0,0.1c0,0.03 -0.01,0.06 -0.01,0.1c-0.01,0.03 -0.02,0.06 -0.02,0.09c-0.01,0.03 -0.02,0.06 -0.03,0.09c-0.12,0.3 -0.33,0.43 -0.61,0.55c-0.17,0.01 -0.33,0.01 -0.5,-0.04c-0.22,-0.06 -0.4,-0.22 -0.51,-0.42c-0.12,-0.23 -0.13,-0.49 -0.05,-0.73c0.12,-0.31 0.33,-0.46 0.62,-0.6z" fill="#926247"/>
<path id="Vector_772" d="M19.12,9.13c0.17,-0.03 0.34,-0.05 0.51,0c0.25,0.06 0.47,0.23 0.59,0.45c0.1,0.21 0.12,0.45 0.04,0.67c-0.1,0.32 -0.32,0.47 -0.6,0.62c-0.16,0.01 -0.32,0.03 -0.47,0c-0.24,-0.05 -0.47,-0.23 -0.59,-0.44c-0.01,-0.03 -0.02,-0.06 -0.03,-0.08c-0.01,-0.03 -0.02,-0.05 -0.03,-0.08c-0.01,-0.03 -0.02,-0.06 -0.02,-0.08c0,-0.03 -0.01,-0.06 -0.01,-0.09c-0.01,-0.03 -0.01,-0.05 -0.01,-0.08c0,-0.03 0,-0.06 0.01,-0.09c0,-0.02 0.01,-0.05 0.01,-0.08c0,-0.03 0.01,-0.06 0.02,-0.08c0.08,-0.34 0.29,-0.49 0.58,-0.64z" fill="#F43F5E"/>
<path id="Vector_773" d="M43.5,23.09c0.15,-0.01 0.28,-0.01 0.42,0.03c0.03,0.01 0.06,0.02 0.09,0.03c0.03,0.01 0.06,0.02 0.09,0.04c0.03,0.02 0.05,0.03 0.08,0.05c0.03,0.01 0.05,0.03 0.08,0.05c0.02,0.02 0.05,0.04 0.07,0.07c0.02,0.02 0.04,0.05 0.06,0.07c0.02,0.02 0.04,0.05 0.06,0.08c0.02,0.02 0.03,0.05 0.05,0.08c0.01,0.03 0.03,0.06 0.03,0.08c0.02,0.03 0.02,0.06 0.03,0.09c0.01,0.03 0.01,0.06 0.02,0.1c0.01,0.03 0.01,0.06 0.01,0.09c0,0.03 0,0.06 0,0.09c0,0.03 0,0.06 -0.01,0.09c-0.01,0.03 -0.01,0.06 -0.02,0.09c-0.01,0.04 -0.02,0.06 -0.03,0.09c-0.12,0.31 -0.33,0.46 -0.62,0.59c-0.16,0 -0.32,0.01 -0.46,-0.03c-0.25,-0.07 -0.48,-0.25 -0.59,-0.49c-0.01,-0.02 -0.03,-0.05 -0.03,-0.08c-0.01,-0.02 -0.02,-0.05 -0.03,-0.08c-0.01,-0.02 -0.01,-0.05 -0.01,-0.08c-0.01,-0.03 -0.01,-0.06 -0.01,-0.08c0,-0.03 0,-0.06 0,-0.09c0,-0.03 0,-0.05 0.01,-0.08c0,-0.03 0,-0.06 0.01,-0.09c0.01,-0.03 0.02,-0.05 0.03,-0.08c0.1,-0.34 0.36,-0.49 0.67,-0.63z" fill="#926247"/>
<path id="Vector_774" d="M81.84,44.09c0.15,-0.01 0.3,-0.03 0.46,0.02c0.24,0.07 0.46,0.23 0.57,0.45c0.12,0.24 0.13,0.5 0.04,0.75c-0.11,0.32 -0.33,0.46 -0.63,0.6c-0.14,0.01 -0.27,0.03 -0.4,-0.01c-0.26,-0.05 -0.48,-0.23 -0.6,-0.46c-0.02,-0.02 -0.03,-0.06 -0.04,-0.08c-0.02,-0.04 -0.03,-0.06 -0.04,-0.1c0,-0.03 -0.01,-0.06 -0.02,-0.09c-0.01,-0.03 -0.01,-0.07 -0.01,-0.1c-0.01,-0.03 -0.01,-0.06 -0.01,-0.1c0,-0.03 0.01,-0.06 0.01,-0.1c0.01,-0.03 0.01,-0.06 0.02,-0.09c0.01,-0.04 0.01,-0.07 0.03,-0.1c0.1,-0.31 0.33,-0.46 0.62,-0.59z" fill="#A855F7"/>
<path id="Vector_775" d="M42.75,84.98c0.18,-0.01 0.36,-0.03 0.54,0.02c0.24,0.08 0.45,0.25 0.57,0.48c0.01,0.02 0.03,0.05 0.03,0.08c0.02,0.03 0.02,0.06 0.03,0.09c0.01,0.03 0.02,0.06 0.02,0.09c0.01,0.03 0.01,0.06 0.01,0.09c0,0.03 0,0.07 0,0.09c0,0.04 0,0.07 -0.01,0.1c0,0.03 -0.01,0.06 -0.02,0.09c-0.01,0.03 -0.01,0.06 -0.03,0.09c-0.12,0.32 -0.34,0.46 -0.65,0.6c-0.16,0.02 -0.34,0.02 -0.5,-0.03c-0.35,-0.11 -0.51,-0.43 -0.67,-0.74c0.03,-0.21 0.07,-0.41 0.13,-0.61c0.18,-0.17 0.34,-0.31 0.55,-0.44z" fill="#926247"/>
<path id="Vector_776" d="M33.87,67.15c0.17,-0.02 0.34,-0.03 0.51,0.01c0.25,0.06 0.48,0.22 0.61,0.45c0.02,0.03 0.03,0.05 0.05,0.08c0.01,0.03 0.02,0.06 0.03,0.09c0.01,0.03 0.02,0.06 0.02,0.09c0.01,0.03 0.01,0.06 0.02,0.09c0,0.03 0,0.06 0,0.09c0,0.03 0,0.07 0,0.09c-0.01,0.04 -0.01,0.06 -0.01,0.1c-0.01,0.03 -0.02,0.06 -0.03,0.09c-0.1,0.33 -0.31,0.49 -0.61,0.64c-0.14,0.02 -0.28,0.04 -0.42,0.01c-0.28,-0.05 -0.55,-0.22 -0.7,-0.46c-0.02,-0.03 -0.03,-0.06 -0.04,-0.09c-0.02,-0.03 -0.03,-0.05 -0.04,-0.09c-0.01,-0.02 -0.02,-0.06 -0.03,-0.08c-0.01,-0.04 -0.01,-0.06 -0.01,-0.1c-0.01,-0.03 -0.01,-0.06 -0.01,-0.09c0,-0.03 0,-0.06 0,-0.09c0.01,-0.03 0.01,-0.06 0.01,-0.09c0.01,-0.03 0.02,-0.06 0.03,-0.09c0.1,-0.33 0.33,-0.5 0.62,-0.65z" fill="#926247"/>
<path id="Vector_777" d="M80.97,71.74c0.15,0 0.31,-0.01 0.45,0.05c0.04,0.01 0.06,0.02 0.1,0.03c0.02,0.01 0.06,0.03 0.08,0.05c0.03,0.01 0.06,0.03 0.08,0.05c0.03,0.02 0.06,0.04 0.08,0.07c0.02,0.02 0.05,0.04 0.07,0.06c0.02,0.03 0.04,0.05 0.06,0.08c0.02,0.03 0.03,0.05 0.05,0.08c0.02,0.03 0.03,0.06 0.04,0.09c0.12,0.26 0.11,0.55 0,0.8c-0.14,0.31 -0.38,0.44 -0.68,0.55c-0.19,0 -0.36,0 -0.53,-0.08c-0.24,-0.1 -0.44,-0.3 -0.53,-0.55c-0.01,-0.03 -0.02,-0.06 -0.03,-0.09c-0.01,-0.03 -0.01,-0.06 -0.02,-0.09c0,-0.03 -0.01,-0.07 -0.01,-0.1c0,-0.03 0,-0.06 0,-0.09c0,-0.04 0.01,-0.07 0.01,-0.1c0.01,-0.03 0.01,-0.06 0.02,-0.09c0.01,-0.03 0.02,-0.06 0.03,-0.09c0.01,-0.03 0.02,-0.06 0.04,-0.09c0.14,-0.31 0.38,-0.43 0.69,-0.54z" fill="#A855F7"/>
<path id="Vector_778" d="M38.64,60.41c0.15,-0.01 0.28,0 0.42,0.05c0.26,0.09 0.47,0.28 0.58,0.53c0.01,0.03 0.02,0.06 0.03,0.09c0.02,0.03 0.02,0.06 0.03,0.09c0.01,0.04 0.01,0.07 0.01,0.1c0.01,0.04 0.01,0.07 0.01,0.1c0,0.04 -0.01,0.07 -0.01,0.1c0,0.04 0,0.07 -0.01,0.1c-0.01,0.04 -0.02,0.07 -0.03,0.1c-0.01,0.03 -0.02,0.06 -0.04,0.09c-0.13,0.31 -0.37,0.45 -0.67,0.56c-0.21,0.02 -0.4,0.01 -0.59,-0.08c-0.03,-0.01 -0.06,-0.03 -0.09,-0.04c-0.02,-0.02 -0.05,-0.03 -0.08,-0.05c-0.02,-0.02 -0.04,-0.04 -0.07,-0.06c-0.02,-0.02 -0.04,-0.05 -0.07,-0.07c-0.02,-0.03 -0.04,-0.05 -0.06,-0.07c-0.02,-0.03 -0.03,-0.06 -0.05,-0.08c-0.01,-0.03 -0.03,-0.06 -0.04,-0.09c-0.01,-0.03 -0.03,-0.05 -0.04,-0.09c-0.01,-0.03 -0.02,-0.06 -0.03,-0.1c0,-0.03 -0.01,-0.06 -0.02,-0.1c0,-0.04 0,-0.07 0,-0.1c0,-0.04 0,-0.08 0,-0.11c0,-0.04 0.01,-0.07 0.02,-0.11c0,-0.03 0.01,-0.06 0.02,-0.1c0.01,-0.03 0.02,-0.07 0.04,-0.1c0.01,-0.03 0.02,-0.06 0.04,-0.1c0.16,-0.28 0.4,-0.37 0.7,-0.46z" fill="#926247"/>
<path id="Vector_779" d="M79.93,21.67c0.17,-0.02 0.33,-0.03 0.49,0.01c0.28,0.06 0.54,0.25 0.69,0.49c0.14,0.24 0.19,0.52 0.11,0.78c-0.1,0.32 -0.34,0.51 -0.63,0.66c-0.14,0.03 -0.29,0.05 -0.43,0.03c-0.29,-0.05 -0.56,-0.22 -0.72,-0.47c-0.02,-0.03 -0.04,-0.06 -0.05,-0.09c-0.02,-0.03 -0.03,-0.06 -0.04,-0.09c-0.01,-0.03 -0.02,-0.06 -0.03,-0.1c-0.01,-0.03 -0.02,-0.06 -0.02,-0.09c-0.01,-0.03 -0.01,-0.07 -0.02,-0.1c0,-0.03 0,-0.07 0,-0.1c0,-0.03 0.01,-0.07 0.01,-0.1c0.01,-0.03 0.01,-0.07 0.02,-0.1c0.08,-0.36 0.31,-0.54 0.62,-0.73z" fill="#F43F5E"/>
<path id="Vector_780" d="M26.61,26.46c0.17,-0.02 0.34,-0.02 0.51,0.02c0.04,0.01 0.07,0.02 0.1,0.03c0.04,0.01 0.07,0.03 0.1,0.05c0.04,0.01 0.07,0.03 0.1,0.05c0.03,0.02 0.06,0.04 0.09,0.07c0.03,0.02 0.05,0.04 0.08,0.07c0.02,0.02 0.05,0.05 0.07,0.08c0.02,0.03 0.04,0.05 0.06,0.09c0.02,0.03 0.04,0.06 0.06,0.09c0.02,0.03 0.03,0.06 0.04,0.09c0.02,0.04 0.03,0.07 0.04,0.1c0,0.04 0.01,0.07 0.02,0.11c0,0.03 0.01,0.07 0.01,0.11c0,0.03 0,0.07 0,0.1c0,0.04 0,0.08 -0.01,0.11c0,0.04 -0.01,0.07 -0.02,0.11c-0.01,0.03 -0.02,0.06 -0.04,0.1c-0.12,0.32 -0.32,0.45 -0.63,0.59c-0.06,0.01 -0.12,0.01 -0.17,0.01c-0.44,0 -0.66,-0.12 -0.97,-0.43c-0.11,-0.27 -0.18,-0.62 -0.08,-0.91c0.1,-0.33 0.35,-0.48 0.64,-0.64z" fill="#926247"/>
<path id="Vector_781" d="M60.82,58.11c0.19,0.01 0.37,0.03 0.54,0.12c0.03,0.02 0.07,0.03 0.1,0.05c0.03,0.02 0.06,0.04 0.09,0.06c0.02,0.03 0.05,0.05 0.08,0.08c0.02,0.02 0.05,0.05 0.07,0.08c0.02,0.02 0.04,0.05 0.06,0.08c0.02,0.03 0.04,0.07 0.06,0.1c0.01,0.03 0.03,0.06 0.04,0.09c0.01,0.04 0.03,0.07 0.04,0.11c0.01,0.03 0.02,0.07 0.02,0.1c0.01,0.04 0.01,0.07 0.01,0.11c0.01,0.04 0.01,0.07 0.01,0.11c0,0.03 -0.01,0.07 -0.01,0.11c0,0.03 -0.01,0.07 -0.02,0.1c-0.01,0.04 -0.02,0.07 -0.03,0.1c-0.01,0.04 -0.03,0.07 -0.05,0.1c-0.01,0.04 -0.03,0.07 -0.05,0.1c-0.17,0.28 -0.41,0.38 -0.73,0.45c-0.18,0 -0.38,-0.02 -0.54,-0.1c-0.26,-0.11 -0.46,-0.34 -0.54,-0.61c-0.02,-0.03 -0.02,-0.06 -0.03,-0.09c-0.01,-0.03 -0.01,-0.07 -0.01,-0.1c-0.01,-0.03 -0.01,-0.07 -0.01,-0.1c0,-0.03 0,-0.07 0,-0.1c0.01,-0.03 0.01,-0.07 0.01,-0.1c0.01,-0.03 0.02,-0.07 0.03,-0.1c0.01,-0.03 0.02,-0.06 0.03,-0.09c0.01,-0.04 0.03,-0.06 0.04,-0.1c0.18,-0.33 0.44,-0.45 0.79,-0.56z" fill="#F43F5E"/>
<path id="Vector_782" d="M45.14,51.76c0.22,0.01 0.4,0.04 0.59,0.15c0.03,0.02 0.06,0.04 0.09,0.06c0.03,0.02 0.05,0.04 0.07,0.06c0.03,0.02 0.05,0.04 0.08,0.07c0.02,0.03 0.04,0.05 0.06,0.08c0.02,0.03 0.04,0.05 0.06,0.08c0.01,0.03 0.03,0.06 0.04,0.09c0.01,0.03 0.03,0.06 0.04,0.09c0.01,0.03 0.02,0.07 0.03,0.1c0,0.03 0.01,0.07 0.02,0.11c0,0.03 0,0.07 0,0.1c0,0.04 0,0.08 0,0.11c0,0.04 -0.01,0.07 -0.02,0.11c0,0.04 -0.01,0.07 -0.02,0.1c-0.02,0.04 -0.03,0.07 -0.04,0.11c-0.02,0.03 -0.03,0.07 -0.05,0.1c-0.02,0.03 -0.04,0.06 -0.06,0.09c-0.19,0.28 -0.44,0.37 -0.76,0.44c-0.2,-0.02 -0.39,-0.04 -0.56,-0.14c-0.03,-0.02 -0.06,-0.03 -0.08,-0.05c-0.03,-0.02 -0.06,-0.04 -0.08,-0.06c-0.02,-0.02 -0.05,-0.05 -0.07,-0.07c-0.03,-0.02 -0.05,-0.04 -0.07,-0.07c-0.02,-0.02 -0.04,-0.05 -0.05,-0.08c-0.02,-0.03 -0.04,-0.05 -0.05,-0.08c-0.02,-0.03 -0.03,-0.06 -0.04,-0.09c-0.01,-0.03 -0.02,-0.06 -0.03,-0.09c-0.01,-0.04 -0.02,-0.07 -0.03,-0.11c0,-0.03 -0.01,-0.07 -0.01,-0.1c0,-0.04 0,-0.07 0,-0.11c0,-0.03 0.01,-0.07 0.01,-0.11c0,-0.03 0.01,-0.07 0.02,-0.1c0.01,-0.04 0.02,-0.07 0.03,-0.1c0.01,-0.03 0.03,-0.07 0.05,-0.1c0.01,-0.03 0.03,-0.06 0.05,-0.09c0.18,-0.31 0.45,-0.42 0.78,-0.5z" fill="#926247"/>
<path id="Vector_783" d="M60.05,69.79c0.19,-0.01 0.37,-0.02 0.55,0.03c0.28,0.08 0.53,0.28 0.67,0.54c0.02,0.03 0.04,0.06 0.05,0.09c0.01,0.04 0.02,0.07 0.03,0.1c0.01,0.03 0.02,0.06 0.02,0.1c0.01,0.03 0.02,0.07 0.02,0.1c0,0.03 0,0.07 0,0.1c0,0.03 0,0.07 -0.01,0.1c0,0.03 -0.01,0.07 -0.01,0.1c-0.01,0.03 -0.02,0.06 -0.03,0.1c-0.12,0.35 -0.38,0.52 -0.7,0.68c-0.18,0.01 -0.37,0.02 -0.55,-0.03c-0.28,-0.08 -0.53,-0.29 -0.66,-0.55c-0.01,-0.03 -0.03,-0.06 -0.04,-0.09c-0.01,-0.03 -0.02,-0.07 -0.03,-0.1c-0.01,-0.03 -0.02,-0.06 -0.02,-0.09c0,-0.04 -0.01,-0.07 -0.01,-0.1c-0.01,-0.04 -0.01,-0.07 -0.01,-0.1c0,-0.04 0.01,-0.07 0.01,-0.1c0.01,-0.04 0.01,-0.07 0.02,-0.1c0.01,-0.04 0.01,-0.07 0.03,-0.1c0.11,-0.34 0.36,-0.53 0.67,-0.68z" fill="#F43F5E"/>
<path id="Vector_784" d="M15.79,35.6c0.3,-0.04 0.6,-0.04 0.86,0.13c0.33,0.21 0.44,0.57 0.53,0.92c-0.02,0.11 -0.05,0.23 -0.08,0.33c-0.13,0.38 -0.32,0.54 -0.67,0.7c-0.19,0.02 -0.37,0.05 -0.55,0c-0.03,0 -0.07,-0.02 -0.11,-0.03c-0.03,-0.01 -0.07,-0.03 -0.11,-0.04c-0.03,-0.02 -0.06,-0.04 -0.1,-0.06c-0.03,-0.02 -0.06,-0.04 -0.1,-0.07c-0.03,-0.02 -0.06,-0.04 -0.08,-0.07c-0.03,-0.03 -0.06,-0.06 -0.08,-0.09c-0.03,-0.02 -0.05,-0.06 -0.08,-0.09c-0.02,-0.03 -0.04,-0.06 -0.06,-0.1c-0.01,-0.03 -0.03,-0.06 -0.04,-0.1c-0.01,-0.03 -0.03,-0.07 -0.04,-0.1c-0.01,-0.04 -0.02,-0.07 -0.02,-0.11c-0.01,-0.04 -0.01,-0.07 -0.01,-0.11c-0.01,-0.03 -0.01,-0.07 -0.01,-0.11c0,-0.03 0.01,-0.07 0.01,-0.1c0,-0.04 0.01,-0.08 0.02,-0.11c0.01,-0.04 0.02,-0.07 0.03,-0.11c0.13,-0.36 0.37,-0.53 0.69,-0.68z" fill="#A855F7"/>
<path id="Vector_785" d="M21.91,48.24c0.17,-0.01 0.35,-0.02 0.52,0.02c0.32,0.09 0.6,0.31 0.75,0.6c0.01,0.03 0.03,0.06 0.04,0.1c0.01,0.03 0.03,0.07 0.04,0.1c0.01,0.04 0.01,0.07 0.02,0.11c0.01,0.04 0.01,0.07 0.01,0.11c0.01,0.03 0.01,0.07 0,0.11c0,0.03 0,0.07 0,0.1c-0.01,0.04 -0.02,0.08 -0.02,0.11c-0.01,0.04 -0.02,0.07 -0.04,0.11c-0.12,0.35 -0.37,0.54 -0.7,0.7c-0.2,0.03 -0.42,0.03 -0.62,-0.03c-0.03,-0.01 -0.06,-0.02 -0.1,-0.03c-0.03,-0.02 -0.07,-0.04 -0.1,-0.05c-0.03,-0.02 -0.06,-0.04 -0.09,-0.06c-0.03,-0.02 -0.06,-0.04 -0.09,-0.06c-0.03,-0.03 -0.06,-0.05 -0.08,-0.07c-0.02,-0.03 -0.05,-0.06 -0.07,-0.08c-0.03,-0.03 -0.05,-0.06 -0.07,-0.09c-0.02,-0.03 -0.04,-0.06 -0.05,-0.1c-0.02,-0.03 -0.03,-0.07 -0.05,-0.1c-0.02,-0.03 -0.03,-0.07 -0.04,-0.11c-0.01,-0.03 -0.02,-0.07 -0.02,-0.1c-0.01,-0.04 -0.02,-0.08 -0.02,-0.12c0,-0.03 -0.01,-0.07 -0.01,-0.11c0,-0.03 0.01,-0.07 0.01,-0.11c0.01,-0.04 0.02,-0.08 0.02,-0.11c0.01,-0.04 0.02,-0.07 0.04,-0.11c0.11,-0.38 0.38,-0.57 0.72,-0.73z" fill="#F43F5E"/>
<path id="Vector_786" d="M58.32,10.29c0.16,0 0.33,0.01 0.48,0.06c0.04,0.02 0.08,0.03 0.11,0.05c0.04,0.01 0.08,0.03 0.11,0.05c0.04,0.02 0.07,0.05 0.1,0.07c0.03,0.02 0.07,0.05 0.09,0.07c0.03,0.03 0.06,0.06 0.09,0.09c0.03,0.03 0.05,0.06 0.07,0.09c0.03,0.04 0.05,0.07 0.07,0.1c0.02,0.04 0.03,0.08 0.05,0.11c0.02,0.04 0.03,0.08 0.04,0.11c0.01,0.04 0.02,0.08 0.03,0.12c0.01,0.04 0.01,0.08 0.01,0.12c0.01,0.04 0.01,0.08 0.01,0.12c0,0.04 -0.01,0.08 -0.01,0.12c0,0.04 -0.01,0.08 -0.02,0.12c-0.01,0.04 -0.02,0.07 -0.03,0.11c-0.01,0.04 -0.03,0.08 -0.05,0.11c-0.17,0.38 -0.46,0.55 -0.84,0.68c-0.24,0 -0.49,-0.02 -0.71,-0.14c-0.04,-0.02 -0.07,-0.04 -0.1,-0.06c-0.04,-0.02 -0.07,-0.04 -0.1,-0.07c-0.02,-0.02 -0.06,-0.05 -0.08,-0.07c-0.03,-0.03 -0.05,-0.06 -0.08,-0.09c-0.02,-0.03 -0.04,-0.06 -0.06,-0.09c-0.02,-0.03 -0.04,-0.06 -0.06,-0.1c-0.02,-0.03 -0.04,-0.07 -0.05,-0.1c-0.02,-0.04 -0.03,-0.08 -0.04,-0.11c-0.01,-0.04 -0.02,-0.07 -0.02,-0.11c-0.01,-0.04 -0.01,-0.07 -0.02,-0.11c0,-0.04 0,-0.08 0,-0.11c0,-0.04 0,-0.08 0.01,-0.12c0,-0.03 0.01,-0.07 0.02,-0.11c0,-0.03 0.01,-0.07 0.02,-0.11c0.02,-0.03 0.03,-0.07 0.04,-0.1c0.02,-0.04 0.04,-0.07 0.05,-0.1c0.2,-0.35 0.49,-0.5 0.87,-0.6z" fill="#A855F7"/>
<path id="Vector_787" d="M38.86,41.21c0.23,-0.01 0.45,0 0.66,0.08c0.03,0.02 0.07,0.04 0.11,0.06c0.04,0.02 0.07,0.04 0.1,0.06c0.04,0.02 0.07,0.05 0.1,0.07c0.04,0.03 0.06,0.06 0.1,0.09c0.02,0.02 0.05,0.06 0.08,0.09c0.02,0.03 0.04,0.06 0.07,0.1c0.02,0.03 0.04,0.07 0.06,0.11c0.02,0.03 0.03,0.07 0.05,0.11c0.11,0.3 0.1,0.65 -0.05,0.94c-0.17,0.32 -0.43,0.47 -0.76,0.58c-0.23,0.01 -0.46,0 -0.68,-0.08c-0.28,-0.11 -0.52,-0.34 -0.64,-0.62c-0.02,-0.03 -0.03,-0.07 -0.04,-0.1c-0.01,-0.04 -0.02,-0.07 -0.02,-0.11c-0.01,-0.04 -0.02,-0.07 -0.02,-0.11c0,-0.04 0,-0.08 0,-0.11c0,-0.04 0,-0.08 0,-0.12c0,-0.03 0.01,-0.07 0.02,-0.11c0,-0.03 0.01,-0.07 0.02,-0.11c0.02,-0.03 0.03,-0.07 0.04,-0.1c0.15,-0.38 0.44,-0.57 0.8,-0.72z" fill="#EC4899"/>
<path id="Vector_788" d="M51.16,4.66c0.03,0 0.06,0 0.09,0c0.22,0.04 0.57,0.85 0.68,1.06c-0.68,0.56 -1.73,1.12 -2.5,1.61c-0.3,-0.14 -0.62,-0.77 -0.8,-1.05c0.69,-0.56 1.75,-1.21 2.53,-1.62z" fill="#926247"/>
<path id="Vector_789" d="M41.36,13.13c0.27,-0.02 0.51,0.02 0.74,0.14c0.34,0.18 0.6,0.49 0.71,0.85c0.1,0.33 0.07,0.69 -0.1,0.99c-0.2,0.35 -0.48,0.47 -0.85,0.58c-0.26,0.02 -0.56,-0.03 -0.79,-0.15c-0.04,-0.02 -0.08,-0.04 -0.11,-0.06c-0.04,-0.02 -0.08,-0.05 -0.11,-0.07c-0.03,-0.03 -0.07,-0.06 -0.09,-0.09c-0.04,-0.02 -0.06,-0.06 -0.09,-0.09c-0.03,-0.03 -0.06,-0.07 -0.08,-0.1c-0.03,-0.04 -0.05,-0.07 -0.07,-0.11c-0.02,-0.04 -0.04,-0.08 -0.06,-0.12c-0.01,-0.04 -0.03,-0.08 -0.04,-0.12c-0.1,-0.33 -0.07,-0.7 0.09,-1.01c0.19,-0.35 0.48,-0.52 0.85,-0.64z" fill="#FECDD3"/>
<path id="Vector_790" d="M20.84,23.98c0.23,0.02 0.5,0.05 0.65,0.26c0.11,0.14 0.13,0.32 0.1,0.5c-0.06,0.34 -2.07,2.99 -2.4,3.21c-0.11,-0.02 -0.23,-0.03 -0.33,-0.06c-0.17,-0.06 -0.34,-0.21 -0.41,-0.37c-0.06,-0.16 -0.06,-0.36 0,-0.52c0.15,-0.32 1.83,-2.57 2.11,-2.85c0.09,-0.09 0.17,-0.13 0.28,-0.17z" fill="#7F974B"/>
<path id="Vector_791" d="M78.22,48.59c0.09,0 0.19,-0.01 0.29,0c0.17,0.02 0.36,0.08 0.47,0.23c0.24,0.33 0.69,3.02 0.59,3.42c-0.05,0.23 -0.3,0.37 -0.48,0.48c-0.1,0.01 -0.2,0.02 -0.3,0c-0.18,-0.02 -0.36,-0.09 -0.46,-0.24c-0.25,-0.37 -0.67,-2.99 -0.57,-3.41c0.07,-0.24 0.26,-0.36 0.46,-0.48z" fill="#926247"/>
<path id="Vector_792" d="M54.64,81.55c0.17,0.08 2.44,2.78 2.78,3.15l-1.04,0.82c-0.31,-0.2 -2.53,-2.8 -2.79,-3.21c0.35,-0.26 0.7,-0.51 1.05,-0.76z" fill="#EC4899"/>
<path id="Vector_793" d="M56.33,32.81c0.42,0.18 0.84,0.42 1.24,0.63c-0.51,1.23 -1.24,2.41 -1.85,3.6c-0.44,-0.19 -0.86,-0.42 -1.28,-0.66c0.55,-1.2 1.22,-2.44 1.89,-3.57z" fill="#A855F7"/>
<path id="Vector_794" d="M89.76,35.94c0.29,-0.04 0.81,-0.03 1.04,0.18c0.1,0.1 0.15,0.23 0.15,0.36c0,0.2 -0.07,0.41 -0.17,0.58c-0.39,0.63 -1.56,1.71 -2.14,2.31c-0.11,0.08 -0.23,0.15 -0.37,0.14c-0.18,-0.01 -0.41,-0.13 -0.52,-0.27c-0.12,-0.15 -0.14,-0.35 -0.1,-0.54c0.11,-0.62 1.57,-2.42 2.11,-2.76z" fill="#7F974B"/>
<path id="Vector_795" d="M36.6,32.22c0.11,0 0.24,0 0.34,0.03c0.25,0.09 0.57,0.66 0.71,0.88c0.38,0.52 0.77,1.09 1.25,1.53c0.27,0.26 0.76,0.54 0.92,0.87c0.06,0.13 0.08,0.27 0.03,0.4c-0.07,0.23 -0.33,0.36 -0.52,0.48c-0.06,0.01 -0.14,0.02 -0.21,0.01c-0.57,-0.1 -2.31,-2.24 -2.68,-2.76c-0.17,-0.24 -0.4,-0.57 -0.34,-0.88c0.06,-0.27 0.3,-0.42 0.5,-0.56z" fill="#7F974B"/>
<path id="Vector_796" d="M53.05,54.09c0.34,0.25 0.74,0.45 1.11,0.66c-0.82,1.34 -1.62,2.69 -2.41,4.05c-0.37,-0.12 -0.78,-0.45 -1.09,-0.69c0.27,-0.57 0.63,-1.13 0.96,-1.67c0.46,-0.79 0.94,-1.57 1.43,-2.35z" fill="#7F974B"/>
<path id="Vector_797" d="M49.78,72.85c0.42,0.05 0.84,0.11 1.26,0.18c-0.23,1.57 -0.49,3.12 -0.78,4.67c-0.42,-0.04 -0.84,-0.11 -1.26,-0.18c0.28,-1.55 0.51,-3.12 0.78,-4.67z" fill="#7F974B"/>
<path id="Vector_798" d="M5.44,27.77c0.08,0 0.17,0 0.25,0.01c0.52,0.11 2.58,1.09 3.09,1.41c0.17,0.1 0.34,0.24 0.45,0.4c0.1,0.16 0.15,0.33 0.11,0.51c-0.06,0.27 -0.31,0.43 -0.52,0.56c-0.68,-0.13 -3.36,-1.33 -3.75,-1.82c-0.12,-0.15 -0.19,-0.34 -0.15,-0.54c0.07,-0.26 0.3,-0.4 0.52,-0.53z" fill="#926247"/>
<path id="Vector_799" d="M40.78,-1.25l0.12,0.01c0.33,0.25 2.1,3.35 2.45,3.93l-0.96,0.77l-0.09,0.03c-0.21,-0.1 -2.18,-3.49 -2.44,-3.93c0.28,-0.32 0.57,-0.57 0.92,-0.81z" fill="#A855F7"/>
<path id="Vector_800" d="M16.3,70.32c0.1,0.01 0.22,0.02 0.32,0.05c0.18,0.05 0.36,0.18 0.45,0.34c0.19,0.36 -0.4,3.33 -0.57,3.85c-0.09,0.29 -0.26,0.38 -0.52,0.51c-0.14,0 -0.27,-0.01 -0.4,-0.06c-0.19,-0.07 -0.33,-0.19 -0.42,-0.37c-0.16,-0.38 0.39,-3.37 0.57,-3.85c0.1,-0.27 0.31,-0.36 0.57,-0.47z" fill="#926247"/>
<path id="Vector_801" d="M87.56,24.89c0.1,0 0.2,-0.01 0.28,0.01c0.17,0.03 0.37,0.16 0.46,0.3c0.11,0.19 0.07,0.36 0,0.56c-0.19,0.59 -1.47,3.15 -1.82,3.63c-0.09,0.12 -0.21,0.18 -0.35,0.25c-0.1,0.01 -0.21,0.01 -0.31,-0.01c-0.17,-0.04 -0.34,-0.13 -0.43,-0.28c-0.1,-0.18 -0.08,-0.36 -0.03,-0.55c0.17,-0.64 1.41,-3.08 1.8,-3.59c0.11,-0.14 0.25,-0.23 0.4,-0.32z" fill="#926247"/>
<path id="Vector_802" d="M10.66,60.8c0.15,0.01 0.3,0.02 0.43,0.09c0.17,0.09 0.32,0.23 0.37,0.42c0.08,0.28 -0.04,0.52 -0.17,0.76c-0.29,0.53 -1.45,2.65 -1.79,2.98c-0.11,0.11 -0.27,0.15 -0.41,0.19c-0.12,-0.02 -0.25,-0.05 -0.36,-0.1c-0.18,-0.07 -0.33,-0.21 -0.4,-0.39c-0.09,-0.25 -0.02,-0.45 0.09,-0.69c0.26,-0.56 1.47,-2.58 1.84,-3.01c0.12,-0.13 0.24,-0.19 0.4,-0.25z" fill="#A855F7"/>
<path id="Vector_803" d="M67.29,20.13c0.36,0.12 0.84,0.66 1.13,0.91c-0.95,1.25 -1.85,2.56 -2.77,3.83l-0.04,0.04c-0.35,-0.15 -0.74,-0.63 -1.02,-0.89c0.82,-1.33 1.79,-2.61 2.7,-3.89z" fill="#EC4899"/>
<path id="Vector_804" d="M32.83,18.95c0.17,0.17 0.29,0.46 0.4,0.66c0.86,1.57 -0.41,2.47 -1.03,3.81c-0.15,0.33 -0.26,0.61 -0.19,0.98c0.02,0.1 0.04,0.17 0.03,0.27l-0.1,-0.04c-0.26,-0.18 -0.5,-0.39 -0.68,-0.65c-1.22,-1.8 1.25,-3.33 1.56,-4.97c0,-0.01 0.01,-0.03 0.01,-0.06z" fill="#EC4899"/>
<path id="Vector_805" d="M91.12,48.44c0.11,0 0.21,0.01 0.33,0.04c0.2,0.07 0.4,0.17 0.49,0.37c0.11,0.23 0.05,0.51 -0.05,0.73c-0.19,0.43 -2.22,2.85 -2.62,3.22c-0.1,0.09 -0.19,0.13 -0.32,0.17c-0.31,-0.05 -0.63,-0.13 -0.83,-0.4c-0.13,-0.17 -0.15,-0.38 -0.11,-0.58c0.06,-0.32 2.37,-2.93 2.74,-3.3c0.1,-0.1 0.23,-0.17 0.37,-0.25z" fill="#EC4899"/>
<path id="Vector_806" d="M37.71,23.32c0.29,0.18 0.77,1.03 1.09,1.36c-0.77,0.66 -1.68,1.26 -2.66,1.57c-0.89,0.28 -2.02,0.38 -2.86,-0.06c-0.5,-0.39 -0.92,-0.97 -1.24,-1.51c0.32,0.11 0.64,0.2 0.98,0.25c1.8,0.25 3.3,-0.56 4.69,-1.61z" fill="#EC4899"/>
<path id="Vector_807" d="M29.55,16.07c0.86,-0.02 2.05,0.09 2.71,0.71c0.57,0.55 0.52,1.36 0.54,2.09c-0.07,-0.08 -0.14,-0.17 -0.22,-0.24c-0.82,-0.78 -2.02,-0.81 -3.07,-0.77c-1.03,0.14 -1.98,0.52 -2.93,0.93c-0.11,-0.62 -0.29,-1.24 -0.44,-1.85c1.11,-0.43 2.2,-0.8 3.41,-0.87z" fill="#EC4899"/>
<path id="Vector_808" d="M66.38,29.25c1.17,0.42 2.59,1.2 3.29,2.28c0.42,0.68 0.48,1.39 0.31,2.15c-0.29,1.23 -0.86,2.4 -1.97,3.08c-1.6,0.97 -3.56,0.9 -5.31,0.47l0.66,-1.54c0.26,0.05 0.51,0.1 0.77,0.13c0.26,0.04 0.52,0.06 0.78,0.06c0.26,0.01 0.53,0.01 0.79,-0.01c0.26,-0.02 0.52,-0.05 0.77,-0.09c1.21,-0.2 2.38,-0.69 3.11,-1.71c-0.03,-0.13 -0.07,-0.25 -0.12,-0.38c-0.65,-1.55 -2.31,-2.34 -3.76,-2.95c0.25,-0.48 0.44,-1 0.68,-1.49z" fill="#EC4899"/>
<path id="Vector_809" d="M26.74,2.33c0.57,-0.04 1.09,-0.01 1.61,0.25c0.03,0.02 0.07,0.04 0.1,0.06c0.04,0.02 0.08,0.05 0.11,0.07c0.04,0.02 0.07,0.04 0.11,0.07c0.03,0.02 0.06,0.05 0.1,0.07c0.03,0.03 0.06,0.06 0.09,0.08c0.03,0.03 0.06,0.06 0.09,0.09c0.03,0.03 0.06,0.06 0.09,0.09c0.03,0.03 0.06,0.06 0.08,0.09c0.03,0.03 0.05,0.06 0.08,0.09c0.02,0.04 0.05,0.07 0.07,0.1c0.02,0.04 0.04,0.07 0.07,0.11c0.02,0.03 0.04,0.07 0.06,0.11c0.02,0.03 0.03,0.07 0.05,0.11c0.02,0.03 0.04,0.07 0.05,0.11c0.02,0.04 0.03,0.08 0.05,0.12c0.01,0.04 0.02,0.08 0.03,0.12c0.01,0.04 0.03,0.08 0.03,0.12c0.01,0.04 0.02,0.09 0.03,0.13c0.01,0.04 0.02,0.08 0.02,0.12c0.01,0.05 0.01,0.09 0.01,0.13c0.01,0.05 0.01,0.09 0.01,0.13c0,0.04 0.01,0.08 0,0.13c0,0.04 0,0.08 0,0.13c-0.01,0.04 -0.01,0.08 -0.01,0.12c-0.01,0.05 -0.02,0.09 -0.02,0.13c-0.01,0.05 -0.02,0.09 -0.02,0.13c-0.01,0.04 -0.02,0.08 -0.03,0.12c-0.01,0.04 -0.03,0.08 -0.04,0.12c-0.01,0.04 -0.03,0.08 -0.04,0.12c-0.01,0.04 -0.03,0.08 -0.05,0.12c-0.01,0.04 -0.03,0.08 -0.05,0.12c-0.02,0.04 -0.04,0.08 -0.06,0.11c-0.37,0.68 -0.96,1.05 -1.69,1.25c-0.59,0.08 -1.18,0.02 -1.72,-0.26c-0.03,-0.02 -0.07,-0.04 -0.1,-0.06c-0.04,-0.02 -0.08,-0.05 -0.11,-0.07c-0.04,-0.03 -0.07,-0.05 -0.11,-0.07c-0.03,-0.03 -0.06,-0.06 -0.1,-0.08c-0.03,-0.03 -0.06,-0.06 -0.09,-0.09c-0.03,-0.03 -0.06,-0.05 -0.09,-0.09c-0.03,-0.03 -0.06,-0.06 -0.09,-0.09c-0.03,-0.03 -0.05,-0.06 -0.08,-0.09c-0.03,-0.04 -0.05,-0.07 -0.07,-0.1c-0.03,-0.04 -0.05,-0.07 -0.08,-0.11c-0.02,-0.03 -0.04,-0.07 -0.06,-0.11c-0.02,-0.03 -0.04,-0.07 -0.06,-0.11c-0.02,-0.03 -0.04,-0.07 -0.06,-0.11c-0.01,-0.04 -0.03,-0.08 -0.05,-0.12c-0.01,-0.04 -0.02,-0.08 -0.04,-0.12c-0.01,-0.04 -0.02,-0.08 -0.04,-0.12c-0.01,-0.04 -0.02,-0.08 -0.03,-0.12c-0.01,-0.04 -0.01,-0.08 -0.02,-0.12c-0.01,-0.04 -0.01,-0.09 -0.02,-0.13c-0.01,-0.05 -0.01,-0.09 -0.01,-0.13c-0.01,-0.04 -0.01,-0.08 -0.01,-0.13c0,-0.04 0,-0.08 0,-0.13c0,-0.04 0.01,-0.08 0.01,-0.12c0,-0.05 0.01,-0.09 0.01,-0.13c0.01,-0.05 0.01,-0.09 0.02,-0.13c0.01,-0.04 0.02,-0.08 0.03,-0.12c0,-0.04 0.02,-0.08 0.03,-0.12c0.01,-0.04 0.02,-0.08 0.04,-0.12c0.01,-0.04 0.03,-0.08 0.04,-0.12c0.02,-0.05 0.03,-0.09 0.05,-0.12c0.02,-0.04 0.04,-0.08 0.06,-0.12c0.02,-0.03 0.04,-0.07 0.06,-0.11c0.41,-0.67 1.02,-1 1.76,-1.2z" fill="#FECDD3"/>
<path id="Vector_810" d="M77.55,33.5c0.53,-0.04 1.05,0.04 1.52,0.29c0.62,0.33 1.09,0.95 1.27,1.63c0.18,0.68 0.09,1.44 -0.28,2.04c-0.44,0.71 -1.09,1.07 -1.9,1.26c-0.66,0.09 -1.36,-0.06 -1.91,-0.45c-0.04,-0.02 -0.07,-0.05 -0.1,-0.08c-0.03,-0.02 -0.07,-0.05 -0.1,-0.08c-0.03,-0.02 -0.06,-0.05 -0.09,-0.08c-0.03,-0.03 -0.06,-0.06 -0.09,-0.1c-0.03,-0.03 -0.05,-0.06 -0.08,-0.09c-0.03,-0.04 -0.05,-0.07 -0.08,-0.1c-0.03,-0.04 -0.05,-0.07 -0.08,-0.11c-0.02,-0.03 -0.05,-0.07 -0.07,-0.11c-0.02,-0.03 -0.04,-0.07 -0.06,-0.1c-0.02,-0.04 -0.04,-0.08 -0.06,-0.12c-0.02,-0.04 -0.04,-0.07 -0.05,-0.11c-0.02,-0.04 -0.03,-0.08 -0.05,-0.12c-0.02,-0.04 -0.03,-0.08 -0.04,-0.12c-0.01,-0.04 -0.02,-0.08 -0.04,-0.12c-0.01,-0.04 -0.02,-0.08 -0.02,-0.12c-0.01,-0.04 -0.02,-0.09 -0.03,-0.13c-0.01,-0.04 -0.01,-0.08 -0.02,-0.13c0,-0.04 -0.01,-0.09 -0.01,-0.13c0,-0.04 0,-0.09 0,-0.13c0,-0.05 0,-0.09 0,-0.14c0,-0.04 0,-0.09 0,-0.13c0.01,-0.04 0.01,-0.09 0.02,-0.13c0,-0.05 0.01,-0.09 0.02,-0.13c0.01,-0.05 0.02,-0.09 0.03,-0.14c0.01,-0.04 0.02,-0.08 0.03,-0.12c0.02,-0.05 0.03,-0.09 0.04,-0.13c0.02,-0.05 0.04,-0.09 0.05,-0.13c0.02,-0.04 0.04,-0.08 0.05,-0.12c0.02,-0.04 0.04,-0.08 0.06,-0.12c0.02,-0.04 0.05,-0.08 0.07,-0.12c0.02,-0.04 0.05,-0.07 0.07,-0.11c0.02,-0.03 0.05,-0.07 0.08,-0.11c0.46,-0.64 1.1,-0.93 1.85,-1.06z" fill="#FECDD3"/>
<path id="Vector_811" d="M58.49,-1.6c0.48,0.18 1.03,0.27 1.53,0.39l2.93,0.69c-0.06,0.34 -0.13,0.69 -0.2,1.03c-0.09,0.4 -0.72,3.41 -0.87,3.51c-1.54,-0.32 -3.07,-0.76 -4.59,-1.13c0.43,-1.48 0.78,-3 1.2,-4.49z" fill="#F43F5E"/>
<path id="Vector_812" d="M14.06,15.28c0.23,0.34 0.37,0.86 0.53,1.24c0.42,1.04 0.86,2.08 1.25,3.13l-4.42,1.73c-0.35,-0.56 -0.57,-1.25 -0.82,-1.87c-0.31,-0.79 -0.63,-1.58 -0.96,-2.36c1.44,-0.67 2.93,-1.31 4.42,-1.87z" fill="#926247"/>
<path id="Vector_813" d="M27.99,75.4c1.09,1.21 2.34,2.31 3.5,3.47c-1.04,1.11 -2.17,2.14 -3.2,3.25l-0.05,0.01c-0.35,-0.22 -3,-2.96 -3.43,-3.44c1.05,-1.11 2.1,-2.23 3.18,-3.29z" fill="#926247"/>
<path id="Vector_814" d="M83.07,10.77l0.01,0.04l0.03,-0.04c0.23,0.29 1.26,3.92 1.45,4.6c-0.57,0.21 -1.18,0.35 -1.77,0.53c-0.92,0.27 -1.83,0.54 -2.75,0.83c-0.09,0.03 -0.04,0.03 -0.13,-0.01c-0.14,-0.46 -0.3,-0.92 -0.44,-1.38c-0.3,-1.05 -0.58,-2.11 -0.9,-3.17z" fill="#926247"/>
<path id="Vector_815" d="M62.05,48.23c2.15,0.13 4.41,0.58 6.09,2.02c1.32,1.15 1.88,2.49 2.01,4.21c-0.5,-0.19 -0.96,-0.56 -1.46,-0.76c-1.14,-0.45 -2.33,-0.67 -3.41,-1.28c-1.67,-0.95 -2.73,-2.34 -3.23,-4.19z" fill="#926247"/>
<path id="Vector_816" d="M7.96,44.14l0.1,0.02c0.2,0.52 0.33,1.1 0.49,1.63c0.28,0.98 0.56,1.96 0.84,2.95c-1.5,0.45 -3.02,0.83 -4.52,1.28c-0.05,0.02 -0.1,0.01 -0.16,0.01c-0.16,-0.18 -1.17,-4.09 -1.28,-4.64c1.52,-0.31 3.04,-0.8 4.53,-1.25z" fill="#F43F5E"/>
<path id="Vector_817" d="M82.66,56.73c1.53,0.42 3.09,0.89 4.59,1.41c-0.26,0.93 -0.55,1.85 -0.82,2.77c-0.2,0.68 -0.37,1.37 -0.62,2.02c-1.55,-0.45 -3.07,-0.96 -4.62,-1.39c0.29,-1.5 1.01,-3.3 1.47,-4.81z" fill="#926247"/>
<path id="Vector_818" d="M35.12,49.67c0.72,-0.05 1.57,0.3 2.12,0.77c0.65,0.55 1.03,1.39 1.09,2.23c0.06,0.85 -0.21,1.65 -0.77,2.29c-0.54,0.61 -1.25,0.96 -2.07,1.01c-0.79,0.01 -1.48,-0.1 -2.13,-0.59c-0.67,-0.52 -1.12,-1.32 -1.21,-2.15c-0.01,-0.05 -0.01,-0.11 -0.01,-0.16c-0.01,-0.05 -0.01,-0.11 -0.01,-0.16c0,-0.05 0,-0.11 0,-0.16c0,-0.05 0.01,-0.11 0.01,-0.16c0,-0.06 0.01,-0.11 0.02,-0.16c0,-0.06 0.01,-0.11 0.02,-0.16c0.01,-0.05 0.02,-0.1 0.03,-0.16c0.01,-0.05 0.03,-0.1 0.04,-0.15c0.02,-0.05 0.03,-0.1 0.05,-0.15c0.02,-0.06 0.04,-0.1 0.06,-0.15c0.02,-0.05 0.04,-0.1 0.06,-0.15c0.02,-0.05 0.04,-0.1 0.06,-0.14c0.03,-0.05 0.05,-0.1 0.08,-0.14c0.03,-0.05 0.05,-0.1 0.09,-0.14c0.02,-0.04 0.06,-0.09 0.08,-0.13c0.04,-0.05 0.07,-0.09 0.1,-0.13c0.59,-0.74 1.36,-1.05 2.29,-1.16z" fill="#926247"/>
<path id="Vector_819" d="M71.34,59.49c0.82,-0.05 1.54,0.03 2.25,0.46c0.05,0.03 0.09,0.06 0.14,0.09c0.04,0.03 0.09,0.06 0.13,0.1c0.04,0.03 0.08,0.07 0.13,0.1c0.04,0.03 0.08,0.07 0.12,0.11c0.04,0.03 0.08,0.07 0.11,0.11c0.04,0.04 0.08,0.07 0.12,0.12c0.03,0.04 0.07,0.08 0.1,0.12c0.03,0.05 0.07,0.09 0.1,0.13c0.03,0.04 0.06,0.09 0.09,0.13c0.03,0.05 0.06,0.09 0.09,0.14c0.02,0.05 0.05,0.09 0.08,0.14c0.02,0.05 0.04,0.09 0.07,0.14c0.02,0.05 0.04,0.1 0.06,0.15c0.02,0.05 0.04,0.1 0.06,0.15c0.02,0.05 0.03,0.11 0.05,0.16c0.01,0.05 0.03,0.1 0.04,0.15c0.2,0.87 0.07,1.83 -0.4,2.58c-0.54,0.85 -1.32,1.3 -2.29,1.53c-0.77,0.08 -1.53,-0.05 -2.2,-0.45c-0.77,-0.47 -1.34,-1.29 -1.54,-2.16c-0.2,-0.83 -0.02,-1.75 0.42,-2.47c0.52,-0.84 1.32,-1.3 2.27,-1.53z" fill="#F43F5E"/>
<path id="Vector_820" d="M49.73,15.68c0.72,-0.05 1.43,0.09 2.04,0.49c0.74,0.49 1.21,1.31 1.38,2.16c0.18,0.89 -0.04,1.87 -0.55,2.62c-0.55,0.81 -1.36,1.22 -2.3,1.4c-0.88,0.02 -1.61,-0.11 -2.33,-0.64c-0.05,-0.03 -0.09,-0.06 -0.13,-0.1c-0.04,-0.03 -0.08,-0.06 -0.12,-0.1c-0.04,-0.04 -0.08,-0.07 -0.12,-0.11c-0.04,-0.04 -0.08,-0.08 -0.11,-0.12c-0.04,-0.04 -0.07,-0.08 -0.11,-0.12c-0.04,-0.04 -0.07,-0.08 -0.1,-0.13c-0.03,-0.04 -0.06,-0.08 -0.09,-0.13c-0.03,-0.04 -0.06,-0.09 -0.09,-0.13c-0.03,-0.05 -0.06,-0.1 -0.08,-0.14c-0.02,-0.05 -0.05,-0.1 -0.07,-0.15c-0.03,-0.05 -0.05,-0.09 -0.07,-0.15c-0.02,-0.04 -0.04,-0.1 -0.06,-0.15c-0.02,-0.05 -0.04,-0.1 -0.05,-0.15c-0.02,-0.05 -0.04,-0.1 -0.05,-0.16c-0.01,-0.05 -0.02,-0.1 -0.03,-0.15c-0.02,-0.05 -0.02,-0.11 -0.03,-0.16c-0.14,-0.92 0.07,-1.85 0.64,-2.59c0.6,-0.8 1.46,-1.16 2.43,-1.29z" fill="#926247"/>
<path id="Vector_821" d="M25.58,36.58c0.1,-0.02 0.19,-0.03 0.29,-0.04c0.09,0 0.19,0 0.28,0c0.1,0 0.2,0 0.29,0.01c0.1,0.01 0.19,0.03 0.29,0.04c0.09,0.02 0.18,0.04 0.28,0.07c0.09,0.02 0.18,0.05 0.27,0.08c0.09,0.04 0.18,0.08 0.26,0.12c0.09,0.04 0.18,0.08 0.26,0.13c0.05,0.03 0.09,0.05 0.14,0.08c0.04,0.03 0.08,0.06 0.13,0.09c0.04,0.04 0.08,0.07 0.13,0.1c0.04,0.04 0.08,0.07 0.12,0.11c0.04,0.03 0.08,0.07 0.12,0.11c0.04,0.04 0.07,0.08 0.11,0.12c0.03,0.04 0.07,0.08 0.1,0.12c0.04,0.04 0.07,0.08 0.1,0.12c0.03,0.05 0.07,0.09 0.09,0.14c0.03,0.04 0.06,0.08 0.09,0.13c0.03,0.05 0.06,0.09 0.08,0.14c0.03,0.05 0.05,0.1 0.07,0.15c0.03,0.04 0.05,0.09 0.07,0.14c0.02,0.05 0.04,0.1 0.05,0.16c0.02,0.05 0.04,0.1 0.06,0.15c0.01,0.05 0.02,0.1 0.04,0.16c0.23,0.9 0.1,1.92 -0.38,2.72c-0.52,0.87 -1.34,1.35 -2.31,1.58c-0.06,0.01 -0.1,0.02 -0.16,0.02c-0.05,0.01 -0.1,0.01 -0.15,0.02c-0.05,0 -0.1,0 -0.15,0c-0.05,0 -0.1,0 -0.15,0c-0.05,0 -0.1,0 -0.15,-0.01c-0.06,0 -0.1,-0.01 -0.16,-0.01c-0.05,-0.01 -0.1,-0.02 -0.15,-0.02c-0.05,-0.01 -0.1,-0.02 -0.15,-0.03c-0.05,-0.01 -0.1,-0.03 -0.15,-0.04c-0.05,-0.01 -0.1,-0.03 -0.15,-0.04c-0.04,-0.01 -0.09,-0.03 -0.14,-0.05c-0.05,-0.01 -0.1,-0.03 -0.14,-0.05c-0.05,-0.02 -0.1,-0.04 -0.14,-0.06c-0.05,-0.02 -0.1,-0.05 -0.14,-0.07c-0.04,-0.02 -0.09,-0.05 -0.14,-0.07c-0.04,-0.03 -0.08,-0.05 -0.13,-0.08c-0.05,-0.03 -0.09,-0.06 -0.13,-0.09c-0.05,-0.04 -0.09,-0.07 -0.14,-0.1c-0.04,-0.04 -0.08,-0.08 -0.12,-0.11c-0.04,-0.04 -0.09,-0.08 -0.12,-0.11c-0.04,-0.04 -0.08,-0.08 -0.12,-0.12c-0.04,-0.04 -0.08,-0.09 -0.11,-0.13c-0.03,-0.04 -0.07,-0.08 -0.1,-0.13c-0.03,-0.04 -0.07,-0.08 -0.1,-0.13c-0.03,-0.05 -0.06,-0.09 -0.09,-0.14c-0.03,-0.05 -0.06,-0.1 -0.08,-0.15c-0.03,-0.04 -0.06,-0.09 -0.08,-0.14c-0.02,-0.05 -0.05,-0.1 -0.07,-0.16c-0.02,-0.05 -0.04,-0.1 -0.06,-0.15c-0.02,-0.05 -0.03,-0.11 -0.05,-0.16c-0.02,-0.05 -0.03,-0.1 -0.04,-0.16c-0.02,-0.05 -0.03,-0.11 -0.04,-0.16c-0.19,-0.89 -0.02,-1.91 0.49,-2.68c0.53,-0.83 1.34,-1.23 2.28,-1.42z" fill="#F43F5E"/>
<path id="Vector_822" d="M70.44,74.22l0.1,0.01c0.18,0.17 2.13,4.65 2.4,5.28c-1.82,0.84 -3.7,1.54 -5.53,2.34c-0.06,0.02 -0.11,0.03 -0.18,0.03c-0.19,-0.16 -2.06,-4.77 -2.28,-5.4c0.64,-0.22 1.26,-0.52 1.88,-0.78z" fill="#926247"/>
<path id="Vector_823" d="M28.9,54.98l0.04,0.01c0.01,0.18 -0.71,0.99 -0.86,1.21c-0.66,0.92 -1.31,1.88 -1.88,2.86c-1.51,2.54 -2.74,5.5 -2.71,8.48c-1.21,-0.41 -2.34,-1.06 -3.36,-1.82c-0.71,-0.55 -1.35,-1.16 -1.96,-1.82c0.56,-0.81 1.11,-1.64 1.74,-2.4c2.41,-2.92 5.58,-4.95 8.99,-6.52z" fill="#926247"/>
<path id="Vector_824" d="M45.72,38.14c-0.81,-1.34 -0.83,-3.66 -0.46,-5.14c0.44,-1.78 1.56,-3.35 2.58,-4.85c0.7,1.84 1.22,3.76 0.38,5.65c-0.71,1.57 -1.65,2.78 -2.07,4.53c-0.01,0.08 -0.02,0.16 -0.01,0.24c0.1,0.6 2.59,1.16 3.17,1.36c0.51,0.18 1.01,0.41 1.46,0.71c1.33,0.89 1.94,2.18 1.97,3.76c0.01,0.5 -0.06,1.1 0.05,1.58c0.05,0.23 0.18,0.42 0.38,0.54c0.84,0.46 3.22,-0.18 4.18,-0.42c0.19,0.67 0.43,1.2 0.83,1.77c-1.43,0.45 -3.6,0.88 -5.03,0.32c-1.7,-0.66 -1.97,-2.6 -2.18,-4.17c-0.07,-0.52 -0.11,-1.1 -0.33,-1.57c-0.43,-0.91 -1.64,-0.85 -2.47,-1.16c-1.5,-0.57 -1.86,-1.81 -2.45,-3.15z" fill="#926247"/>
<path id="Vector_825" d="M73.66,4.91c0.39,0.36 1.12,1.7 1.46,2.23c0.59,0.95 1.23,1.89 1.79,2.87c-3.74,0.59 -8.01,2.6 -11.26,4.5c-0.73,0.42 -1.45,0.87 -2.16,1.33c2.23,-4.57 5.63,-8.54 10.17,-10.93z" fill="#926247"/>
<path id="Vector_826" d="M49.28,64.31c0.06,0 0.02,-0.01 0.1,0.04c-0.11,1.12 -0.4,2.12 -0.97,3.09c-1.25,2.11 -2.95,2.63 -5,3.67c-1.39,0.71 -2.7,1.57 -3.72,2.77c-2.04,2.4 -2.54,4.99 -2.29,8.06h0.04l-0.04,0.13l-0.12,-0.26c-0.96,-3.01 -0.61,-6.08 0.66,-8.95c1.29,-2.93 3.81,-5.37 6.69,-6.75c1.49,-0.71 3.11,-1.21 4.65,-1.8z" fill="#FECDD3"/>
</g>
<g id="Icon Container_15">
<path d="M20,43c0,-15.46 12.54,-28 28,-28c15.46,0 28,12.54 28,28c0,15.46 -12.54,28 -28,28c-15.46,0 -28,-12.54 -28,-28z" fill="#F7F3EF"/>
<g id="book open">
<path id="Vector_827" fill-rule="evenodd" clip-rule="evenodd" d="M38.65,33.21c1.14,-0.47 2.35,-0.71 3.58,-0.71c1.22,0 2.44,0.24 3.57,0.71c0.79,0.33 1.53,0.76 2.2,1.29c0.67,-0.53 1.41,-0.96 2.2,-1.29c1.14,-0.47 2.35,-0.71 3.58,-0.71c1.22,0 2.44,0.24 3.57,0.71c1.13,0.47 2.16,1.16 3.03,2.02c0.21,0.22 0.34,0.52 0.34,0.83v15.11c0,0.47 -0.29,0.89 -0.72,1.07c-0.44,0.19 -0.94,0.09 -1.27,-0.25c-0.65,-0.65 -1.43,-1.16 -2.28,-1.52c-0.84,-0.35 -1.75,-0.53 -2.67,-0.53c-0.92,0 -1.83,0.18 -2.68,0.53c-0.85,0.36 -1.62,0.87 -2.27,1.52c-0.22,0.22 -0.52,0.34 -0.83,0.34c-0.31,0 -0.6,-0.12 -0.82,-0.34c-0.65,-0.65 -1.43,-1.16 -2.27,-1.52c-0.85,-0.35 -1.76,-0.53 -2.68,-0.53c-0.92,0 -1.83,0.18 -2.68,0.53c-0.85,0.36 -1.62,0.87 -2.27,1.52c-0.34,0.34 -0.84,0.44 -1.27,0.25c-0.44,-0.18 -0.72,-0.6 -0.72,-1.07v-15.11c0,-0.31 0.12,-0.61 0.34,-0.83c0.86,-0.86 1.89,-1.55 3.02,-2.02zM46.83,36.56c-0.57,-0.5 -1.22,-0.9 -1.92,-1.19c-0.85,-0.36 -1.76,-0.54 -2.68,-0.54c-0.92,0 -1.83,0.18 -2.68,0.54c-0.71,0.29 -1.36,0.69 -1.93,1.19v12.26c0.33,-0.18 0.68,-0.35 1.03,-0.5c1.14,-0.47 2.35,-0.71 3.58,-0.71c1.22,0 2.44,0.24 3.57,0.71c0.35,0.15 0.7,0.32 1.03,0.51zM49.17,48.82c0.33,-0.18 0.68,-0.35 1.03,-0.5c1.14,-0.47 2.35,-0.71 3.58,-0.71c1.22,0 2.44,0.24 3.57,0.71c0.35,0.15 0.7,0.32 1.03,0.5v-12.26c-0.57,-0.5 -1.22,-0.9 -1.93,-1.19c-0.84,-0.36 -1.75,-0.54 -2.67,-0.54c-0.92,0 -1.83,0.18 -2.68,0.54c-0.71,0.29 -1.36,0.69 -1.93,1.19z" fill="#926247"/>
</g>
</g>
</g></svg>