<svg viewBox="0 0 14.7588 14.2325" fill="none" xmlns="http://www.w3.org/2000/svg" xmlns:xlink="http://www.w3.org/1999/xlink" x="0" y="0"><path id="Vector_681" d="M9.1729,1.1173c-0.734,-1.49 -2.853,-1.49 -3.587,0l-1.041,2.11c-0.097,0.19 -0.285,0.33 -0.502,0.36l-2.328,0.34c-1.641,0.24 -2.296,2.25 -1.109,3.41l1.685,1.64c0.157,0.16 0.229,0.38 0.192,0.59l-0.398,2.32c-0.28,1.64 1.435,2.88 2.902,2.11l2.082,-1.09c0.194,-0.11 0.426,-0.11 0.621,0l2.082,1.09c1.467,0.77 3.182,-0.47 2.902,-2.11l-0.398,-2.32c-0.037,-0.21 0.035,-0.43 0.192,-0.59l1.685,-1.64c1.187,-1.16 0.532,-3.17 -1.109,-3.41l-2.328,-0.34c-0.217,-0.03 -0.405,-0.17 -0.502,-0.36z" fill="currentColor"/></svg>