<svg viewBox="0 0 267.1935 186" fill="none" xmlns="http://www.w3.org/2000/svg" xmlns:xlink="http://www.w3.org/1999/xlink" x="0" y="0"><g id="Group_742">
<path id="Vector_1319" d="M106.9,10.127c-6.8,3.691 -13.4,7.849 -20.8,10.106c-10.2,3.091 -20.8,0.889 -31.1,3.035c-17.9,3.747 -27,16.544 -28.1,34.189c-1,16.688 0.7,22.625 -5.8,31.353c-10.5,14.12 -17.5,25.427 -13.4,47.196c0.9,4.892 2.1,9.695 5,13.842c8.4,12.319 21.7,21.102 36.3,25.761c14.6,4.658 30.4,5.392 45.7,3.769c12.8,-1.357 26.1,-5.27 38.9,-1.768c7.9,2.19 14.4,7.116 22.8,8.339c8.8,1.278 17.9,0.055 26.3,-2.702c11.6,-3.836 21.5,-11.452 32.2,-17.155c14.7,-7.783 34.1,-7.538 44.2,-22.615c7.4,-11.273 5.7,-23.414 1.4,-35.311c-3.7,-9.917 -12.5,-14.62 -16,-24.715c-4.6,-13.609 0.8,-27.318 0.7,-40.759c0,-12.186 -3,-22.426 -13.1,-29.619c-15.7,-11.229 -36.3,-9.551 -53.8,-4.87c-11.3,3.024 -20.7,-1.712 -31.6,-3.913c-12.5,-2.524 -23.3,-2.302 -34.9,3.302c-1.7,0.811 -3.3,1.656 -4.9,2.535z" fill="#533630"/>
<path id="Vector_1320" d="M68.2,127.478c-3.5,0.489 -5.4,0.445 -3.6,-2.357c1.2,0.801 2.4,1.59 3.6,2.357z" fill="#C084FC"/>
<path id="Vector_1321" d="M90.2,138.985c-2.7,-1.189 -5.4,-2.412 -8.2,-3.68c-4.8,-2.312 -9.4,-4.981 -13.8,-7.838c7.5,-1.034 22.1,-4.536 22,11.518z" fill="#C084FC"/>
<path id="Vector_1322" d="M109.5,110.345c2,8.895 8.6,16.644 17.8,18.078c10.6,1.724 23.5,-3.157 26.1,-14.631c0.6,-2.435 0.8,-4.836 0.9,-7.194c0,-0.544 -0.5,-0.945 -1,-0.789c-1,0.3 -2,0.634 -3,0.978c-2.3,0.834 -4.6,1.813 -6.9,2.969c-6.3,3.302 -14,2.235 -19.2,-2.668c-3.9,-3.68 -8.7,-6.382 -13.9,-7.739v0c-0.5,-0.111 -0.9,0.156 -1,0.59c-0.8,3.369 -0.5,6.982 0.2,10.406z" fill="#FDA4AF"/>
<path id="Vector_1323" d="M246.3,119.927c-1.7,-3.735 -39.1,2.513 -41.5,-0.767c-0.6,-0.778 -1.2,-1.545 -1.8,-2.279c-6.2,-7.182 -15.2,-11.674 -24.6,-13.175c-8,-1.278 -16.3,-0.467 -24.1,1.79c0,2.713 -0.3,5.481 -0.9,8.294c-2.6,11.474 -15.5,16.355 -26.1,14.632c-9.2,-1.435 -15.8,-9.184 -17.8,-18.078c-0.7,-3.692 -1,-7.605 0,-11.174c-3.2,-0.734 -6.4,-0.967 -9.7,-0.6c-6.2,0.689 -11.8,3.213 -16.9,6.782c-0.1,-0.734 -0.3,-1.479 -0.4,-2.213l-52.9,21.258c2.1,10.284 9.2,19.168 16.9,25.972c10.5,9.272 26,12.219 37.3,13.608c-2,4.77 -4.4,10.129 -7.3,16.144c6,0.189 12.1,-0.089 18.2,-0.723c12.8,-1.356 26.1,-5.27 38.9,-1.767c7.9,2.19 14.4,7.115 22.8,8.338c7.2,1.045 14.6,0.423 21.6,-1.345c-2.9,-8.283 -5,-14.343 -6.5,-19.668c46.6,-8.194 79.8,-33.577 74.8,-45.029z" fill="#C084FC"/>
<path id="Vector_1324" d="M69.7,123.538c13.2,-11.795 18,-28.031 10.6,-36.264c-7.3,-8.233 -24,-5.345 -37.2,6.451c-13.2,11.795 -17.9,28.031 -10.6,36.264c7.4,8.233 24,5.345 37.2,-6.451z" fill="#2F1C19"/>
<path id="Vector_1325" d="M188.9,93.791c-5.1,9.795 3.4,24.359 19.1,32.553c15.7,8.183 32.6,6.883 37.7,-2.912c5.1,-9.796 -3.5,-24.36 -19.2,-32.554c-15.7,-8.183 -32.5,-6.882 -37.6,2.913z" fill="#2F1C19"/>
<path id="XMLID_6__4" d="M174.4,12.05l-77.5,12.679l5.8,35.166l77.4,-12.678z" fill="white"/>
<g id="Group_743">
<path id="Vector_1326" d="M123.2,56.52l-5,0.823c-1.2,-7.36 -2.4,-14.721 -3.6,-22.092c-0.2,-1.668 -0.5,-3.335 -0.8,-4.992c-0.4,-2.69 -0.9,-5.381 -1.3,-8.083l5,-0.822c0.4,2.69 0.9,5.381 1.3,8.082c0.3,1.668 0.5,3.336 0.8,4.992c1.2,7.372 2.4,14.732 3.6,22.092z" fill="#FB7185"/>
</g>
<g id="Group_744">
<path id="Vector_1327" d="M176.5,25.124c-1.4,0.234 -2.8,0.467 -4.3,0.701c-17.5,2.868 -35,5.737 -52.6,8.605c-1.6,0.267 -3.3,0.545 -5,0.823c-5.2,0.845 -10.4,1.701 -15.5,2.546l-0.9,-4.992c5.2,-0.845 10.4,-1.701 15.6,-2.546c1.7,-0.267 3.3,-0.545 5,-0.823c6.5,-1.056 12.9,-2.112 19.3,-3.169c12.6,-2.045 25.1,-4.102 37.6,-6.148z" fill="#FB7185"/>
</g>
<g id="Group_745">
<path id="Vector_1328" d="M124,27.555c-2,-0.033 -4,1.301 -4.7,3.169c0.3,-0.878 0.6,-1.757 0.9,-2.624c0.3,-0.911 0.6,-1.879 0.4,-2.857c-0.1,-0.967 -1,-1.901 -1.9,-1.779c-2.2,1.534 -3.3,4.481 -2.7,7.16c-0.4,-0.7 -0.9,-1.334 -1.4,-1.923c-0.7,-0.812 -1.5,-1.635 -2.4,-2.102c-1,-0.467 -2.2,-0.511 -3,0.178c-1,0.901 -0.9,2.68 0,3.825c0.4,0.645 3,1.59 3.7,2.001c-0.7,0.078 -3.4,-0.211 -4,0.122c-1.1,0.578 -1.9,1.79 -1.7,3.024c0.3,1.368 1.7,2.246 3.1,2.246c0.7,0 2.6,-2.09 3.3,-2.412c-0.5,0.355 -2.2,2.657 -2.5,3.202c-0.7,1.056 -0.6,2.713 0.4,3.402c1.2,0.778 2.8,-0.078 3.7,-1.123c0.8,-0.945 1,-3.158 1.4,-4.358c-0.1,0.689 0.5,2.49 0.6,3.179c0.1,0.756 0.4,1.524 0.9,2.091c0.5,0.567 1.4,0.867 2.1,0.589c1.1,-0.489 1.2,-2.146 0.9,-3.413c-0.3,-1.39 -0.7,-2.747 -1.3,-4.058c0.6,1.178 1.1,2.423 2.2,3.157c1.1,0.734 2.7,0.712 3.4,-0.389c0.7,-1.212 -0.3,-2.791 -1.4,-3.636c-1.1,-0.811 -2.4,-1.323 -3.7,-1.445c1.9,0.245 3.9,-0.423 5.2,-1.779c0.5,-0.523 1,-1.234 0.8,-1.968c-0.2,-0.978 -1.3,-1.456 -2.3,-1.479z" fill="#FB7185"/>
<g id="Group_746">
<path id="Vector_1329" d="M124,27.043c-2.3,0.078 -4.2,1.357 -5.2,3.425c0.3,0.133 0.6,0.256 1,0.389c0.6,-1.723 1.7,-3.88 1.3,-5.748c-0.2,-1.045 -1.3,-2.446 -2.5,-2.146c-1.2,0.289 -2.2,2.157 -2.7,3.169c-0.6,1.479 -0.7,3.046 -0.4,4.614c0.3,-0.134 0.6,-0.267 0.9,-0.389c-1.2,-2.102 -5.9,-7.316 -8.1,-3.213c-0.6,1.122 -0.3,2.857 0.5,3.802c1,1.067 2.6,1.412 3.8,2.079c0.1,-0.311 0.2,-0.634 0.3,-0.945c-1.4,0.078 -3,-0.367 -4.3,0.2c-1.4,0.634 -2.3,2.557 -1.8,4.036c0.5,1.301 2.2,2.39 3.6,2.157c1.4,-0.222 2.3,-1.801 3.5,-2.457c-0.2,-0.267 -0.4,-0.534 -0.6,-0.801c-1.8,1.423 -4.7,5.415 -2.1,7.327c1.3,0.945 3,0.223 4,-0.778c1.4,-1.29 1.4,-3.247 1.9,-4.925c-0.4,-0.045 -0.7,-0.089 -1,-0.134c0,2.046 0.8,6.804 3.7,6.46c3.7,-0.445 1.2,-6.56 0.4,-8.328c-0.3,0.167 -0.6,0.345 -0.8,0.512c0.6,1.389 1.4,2.935 2.8,3.613c1.1,0.489 2.5,0.423 3.3,-0.511c2.7,-3.013 -2.9,-5.848 -5.1,-6.16c0,0.334 -0.1,0.667 -0.1,1.001c2.2,0.189 5.2,-0.689 6.3,-2.924c0.9,-1.946 -0.9,-3.18 -2.6,-3.325c-0.7,-0.055 -0.7,0.968 0,1.012c1.2,0.1 2,1.668 0.9,2.769c-0.3,0.389 -0.9,0.711 -1.3,0.934c-1.1,0.5 -2.2,0.611 -3.3,0.511c-0.6,-0.044 -0.7,0.923 -0.1,1.001c1,0.144 1.9,0.4 2.8,0.922c0.8,0.434 2.8,2.013 2.1,3.125c-0.4,0.6 -1.5,1.056 -2.2,0.822c-0.4,-0.155 -0.9,-0.533 -1.2,-0.878c-0.7,-0.667 -1.1,-1.59 -1.4,-2.413c-0.3,-0.6 -1.2,-0.077 -0.9,0.512c0.4,1.078 0.8,2.19 1.1,3.335c0.1,0.59 0.3,1.19 0.3,1.801c-0.1,1.346 -1.9,1.757 -2.6,0.645c-0.7,-1.045 -1.1,-3.18 -1.1,-4.425c0,-0.578 -0.8,-0.689 -1,-0.133c-0.3,0.967 -0.4,1.979 -0.7,2.935c-0.2,0.767 -0.5,1.301 -1.2,1.79c-1.1,0.812 -2.9,0.867 -3,-0.889c-0.1,-1.468 1.7,-3.614 2.8,-4.47c0.4,-0.378 -0.1,-1.078 -0.6,-0.8c-1.6,0.934 -3.2,3.758 -5.2,1.434c-1.6,-1.89 0.6,-3.513 2.3,-3.513c0.8,0 1.6,0.088 2.4,0.044c0.5,-0.033 0.7,-0.689 0.3,-0.945c-1.4,-0.778 -3.6,-1.123 -4.1,-2.857c-0.5,-2.135 1.6,-3.069 3.3,-2.002c1.3,0.801 2.4,2.313 3.1,3.58c0.3,0.534 1.1,0.145 1,-0.389c-0.3,-1.745 0,-4.525 1.5,-5.726c0.1,-0.111 0.2,-0.222 0.3,-0.333c0.6,0.467 1.3,0.934 1.9,1.401c0.1,0.4 -0.3,1.39 -0.4,1.856c-0.3,0.979 -0.7,1.935 -1,2.902c-0.2,0.534 0.7,0.912 0.9,0.389c0.8,-1.745 2.4,-2.846 4.3,-2.924c0.6,-0.022 0.6,-1.045 0,-1.023z" fill="white"/>
</g>
</g>
<g id="Group_747">
<path id="Vector_1330" d="M130.8,30.447c6.4,-1.045 12.8,-2.091 19.2,-3.136c0.6,-0.1 0.3,-1.089 -0.3,-0.978c-6.4,1.045 -12.8,2.09 -19.1,3.135c-0.7,0.1 -0.4,1.079 0.2,0.979z" fill="white"/>
</g>
<g id="Group_748">
<path id="Vector_1331" d="M120.5,53.767c-0.4,-2.658 -0.8,-5.315 -1.3,-7.972c-0.1,-0.645 -1,-0.367 -0.9,0.267c0.4,2.657 0.8,5.314 1.3,7.971c0.1,0.645 1,0.378 0.9,-0.266z" fill="white"/>
</g>
<g id="Group_749">
<path id="Vector_1332" d="M101.1,35.334c1,-0.178 2.1,-0.345 3.2,-0.523c0.6,-0.111 0.3,-1.089 -0.3,-0.978c-1.1,0.178 -2.1,0.345 -3.2,0.523c-0.6,0.1 -0.4,1.078 0.3,0.978z" fill="white"/>
</g>
<g id="Group_750">
<path id="Vector_1333" d="M117,33.24c0,-0.055 0,-0.122 0,-0.177c-0.1,-0.267 -0.4,-0.423 -0.6,-0.356c-0.3,0.078 -0.4,0.356 -0.4,0.622c0,0.056 0,0.123 0,0.178c0.1,0.267 0.4,0.423 0.7,0.356c0.2,-0.078 0.4,-0.345 0.3,-0.623z" fill="white"/>
</g>
<g id="Group_751">
<path id="Vector_1334" d="M130.4,38.01c0,0.656 -0.1,1.201 -0.4,1.635c-0.2,0.433 -0.6,0.689 -1,0.756c-0.4,0.066 -0.7,-0.034 -1,-0.278c-0.2,-0.256 -0.4,-0.667 -0.5,-1.234c0,-0.534 0,-1.112 0.1,-1.713c0.1,-0.6 0.2,-1.1 0.5,-1.501c0.2,-0.266 0.4,-0.422 0.6,-0.455c0.1,-0.023 0.3,0.011 0.6,0.089c0.3,0.1 0.5,0.244 0.5,0.422c0,0.089 0,0.167 0,0.245c-0.1,0.078 -0.1,0.122 -0.2,0.122c0,0.011 -0.1,-0.011 -0.2,-0.056c-0.2,-0.155 -0.5,-0.211 -0.6,-0.189c-0.1,0.023 -0.3,0.123 -0.4,0.301c0,0.089 -0.1,0.255 -0.2,0.489c-0.2,0.7 -0.3,1.412 -0.2,2.157c0.1,0.389 0.2,0.656 0.3,0.8c0.1,0.156 0.3,0.211 0.6,0.167c0.3,-0.045 0.5,-0.2 0.7,-0.478c0.2,-0.289 0.3,-0.667 0.3,-1.145c-0.5,0.1 -0.8,0.278 -1.1,0.522c0,0.034 -0.1,0.045 -0.1,0.056c-0.1,0.011 -0.1,-0.011 -0.2,-0.078c-0.1,-0.056 -0.1,-0.133 -0.1,-0.211c0,-0.111 0,-0.211 0.1,-0.3c0.3,-0.334 0.9,-0.567 1.7,-0.701c0.1,-0.011 0.1,0.011 0.2,0.067c0.1,0.055 0.1,0.122 0.1,0.211c0,0.122 0,0.234 -0.1,0.3z" fill="#2F1C19"/>
<path id="Vector_1335" d="M132.6,35.601c-0.1,0.022 -0.2,0.022 -0.4,0.022h-0.4c0.1,0.611 0.2,1.19 0.3,1.746c0,0.144 0,0.322 0.1,0.533c0,0.211 0,0.389 0.1,0.534c0,0.2 0,0.378 0,0.534l0.8,-0.134c0,-0.011 0.1,0.011 0.2,0.067c0,0.055 0.1,0.122 0.1,0.211c0,0.089 0,0.167 -0.1,0.245c0,0.066 -0.1,0.111 -0.1,0.122c-0.1,0.011 -0.2,0.044 -0.4,0.078c-0.2,0.033 -0.3,0.055 -0.4,0.078c-0.1,0.022 -0.3,0.066 -0.5,0.133c-0.2,0.078 -0.3,0.122 -0.5,0.133c0,0.012 -0.1,-0.011 -0.1,-0.066c-0.1,-0.056 -0.1,-0.123 -0.1,-0.211c-0.1,-0.089 0,-0.167 0,-0.234c0,-0.067 0.1,-0.111 0.1,-0.122c0.1,-0.023 0.3,-0.067 0.5,-0.145c0,-0.167 0,-0.367 0,-0.578c0,-0.144 -0.1,-0.322 -0.1,-0.522c-0.1,-0.201 -0.1,-0.379 -0.1,-0.523c-0.1,-0.478 -0.2,-1.079 -0.2,-1.812l-0.4,0.066l-0.3,0.056c0,0.011 -0.1,-0.011 -0.2,-0.067c0,-0.055 0,-0.122 -0.1,-0.222c0,-0.189 0.1,-0.311 0.2,-0.356c0.1,-0.033 0.4,-0.089 0.7,-0.144c0.4,-0.056 0.8,-0.078 1.3,-0.067c0.1,0 0.2,0.1 0.2,0.3c0,0.1 0,0.178 0,0.245c-0.1,0.066 -0.1,0.1 -0.2,0.1z" fill="#2F1C19"/>
<path id="Vector_1336" d="M135.6,34.897c0,0 0,0 -0.1,-0.011c-0.2,-0.067 -0.5,-0.067 -0.8,-0.011c-0.1,0.022 -0.2,0.044 -0.4,0.089c-0.1,0.044 -0.3,0.1 -0.4,0.167l0.2,1.345c0.3,-0.156 0.5,-0.245 0.7,-0.278c0.2,-0.044 0.5,-0.067 0.7,-0.067c0.2,0 0.3,0.089 0.3,0.278c0,0.089 0,0.178 0,0.245c-0.1,0.067 -0.1,0.111 -0.2,0.122c-0.1,0.011 -0.2,0.022 -0.4,0.033c-0.1,0.012 -0.3,0.023 -0.3,0.034c-0.1,0.022 -0.4,0.111 -0.7,0.3l0.3,2.146c0,0.089 0,0.167 0,0.233c0,0.067 -0.1,0.112 -0.2,0.123c0,0.011 -0.1,-0.011 -0.2,-0.067c0,-0.056 0,-0.122 -0.1,-0.211c0,-0.412 -0.1,-1.023 -0.2,-1.846c-0.2,-0.823 -0.2,-1.434 -0.3,-1.846c0,-0.088 -0.1,-0.233 -0.1,-0.411c0,-0.178 0,-0.322 -0.1,-0.411c0,-0.089 0,-0.167 0.1,-0.245c0,-0.067 0.1,-0.111 0.1,-0.122c0.1,-0.011 0.1,0 0.2,0.033c0.2,-0.078 0.4,-0.144 0.5,-0.189c0.2,-0.044 0.3,-0.078 0.4,-0.1c0.2,-0.033 0.4,-0.033 0.7,0c0.3,0.045 0.5,0.145 0.5,0.3c0,0.078 0,0.156 0,0.234c-0.1,0.078 -0.1,0.122 -0.2,0.133z" fill="#2F1C19"/>
<path id="Vector_1337" d="M139.2,34.465c-0.1,0.022 -0.3,0.033 -0.5,0.055c-0.3,0.011 -0.4,0.034 -0.6,0.056l-0.1,0.033c0,0.289 0.1,0.745 0.2,1.39c0.2,0.589 0.3,1.056 0.3,1.39c0,0.078 0.1,0.178 0.1,0.322c0,0.145 0,0.256 0.1,0.334c0,0.144 0,0.267 0,0.378c-0.1,0.144 -0.1,0.222 -0.2,0.244c-0.1,0.011 -0.1,-0.011 -0.2,-0.055c-0.1,-0.045 -0.1,-0.123 -0.1,-0.212c0,-0.033 0,-0.077 0,-0.144c0,-0.067 0,-0.111 0,-0.145c0,-0.1 -0.1,-0.255 -0.1,-0.455c-0.1,-0.201 -0.1,-0.356 -0.1,-0.456c-0.1,-0.3 -0.1,-0.712 -0.3,-1.246c-0.1,-0.578 -0.2,-0.989 -0.2,-1.245l-0.3,0.034c-0.3,0.055 -0.6,0.066 -0.8,0.033c-0.1,-0.022 -0.2,-0.111 -0.2,-0.278c-0.1,-0.089 0,-0.167 0,-0.233c0,-0.078 0.1,-0.123 0.1,-0.134c0.1,0 0.2,-0.011 0.4,-0.011c0.2,0 0.3,-0.011 0.4,-0.022c0.1,-0.011 0.3,-0.045 0.5,-0.078c0.2,-0.033 0.3,-0.067 0.4,-0.078c0.1,-0.022 0.3,-0.033 0.6,-0.056c0.2,-0.022 0.4,-0.033 0.5,-0.055c0.1,-0.011 0.1,0.011 0.2,0.067c0.1,0.055 0.1,0.122 0.1,0.222c0,0.089 0,0.167 0,0.233c0,0.056 -0.1,0.101 -0.2,0.112z" fill="#2F1C19"/>
<path id="Vector_1338" d="M143.8,33.365c0,0.211 -0.1,0.423 -0.1,0.645l-0.1,0.711l-0.2,2.369c-0.1,0.278 -0.1,0.556 -0.2,0.822c0,0.134 -0.1,0.212 -0.2,0.223c-0.1,0.022 -0.2,-0.045 -0.3,-0.2c-0.3,-0.601 -0.6,-1.468 -1.1,-2.624l-0.3,-0.823c-0.2,-0.411 -0.2,-0.689 -0.3,-0.823c0,-0.089 0,-0.178 0.1,-0.244c0,-0.067 0.1,-0.1 0.1,-0.112c0.2,-0.022 0.2,0.056 0.3,0.223l0.2,0.522l0.4,1.023c0.3,0.745 0.5,1.39 0.8,1.924v-0.056l0.2,-2.368l0.1,-0.801c0.1,-0.322 0.1,-0.567 0.2,-0.745c0,-0.088 0.1,-0.144 0.2,-0.155c0,-0.011 0.1,0.011 0.2,0.067c0,0.055 0.1,0.122 0.1,0.211c0,0.078 0,0.144 -0.1,0.211z" fill="#2F1C19"/>
<path id="Vector_1339" d="M146.6,37.499c-0.5,0.078 -0.9,-0.044 -1.3,-0.333c-0.4,-0.323 -0.6,-0.779 -0.7,-1.368c-0.1,-0.723 -0.1,-1.401 0.2,-2.035c0.2,-0.711 0.6,-1.111 1.2,-1.2c0.5,-0.089 0.9,0 1.2,0.266c0.3,0.278 0.5,0.757 0.7,1.446c0.1,0.723 0,1.39 -0.2,2.012c-0.2,0.723 -0.6,1.123 -1.1,1.212zM146.1,33.196c-0.4,0.067 -0.7,0.367 -0.9,0.923c-0.2,0.512 -0.2,1.034 -0.1,1.601c0.1,0.4 0.2,0.712 0.5,0.923c0.2,0.2 0.5,0.278 0.9,0.222c0.3,-0.066 0.6,-0.367 0.8,-0.922c0.1,-0.49 0.2,-1.023 0.1,-1.59c-0.1,-0.501 -0.2,-0.834 -0.4,-1.001c-0.2,-0.167 -0.5,-0.222 -0.9,-0.156z" fill="#2F1C19"/>
<path id="Vector_1340" d="M150.4,36.799c-0.5,0.078 -0.9,-0.045 -1.2,-0.378c-0.2,-0.267 -0.4,-0.69 -0.5,-1.268c-0.1,-0.256 -0.2,-0.789 -0.3,-1.567c-0.1,-0.29 -0.1,-0.523 -0.1,-0.712c-0.1,-0.189 -0.1,-0.322 -0.1,-0.4c0.1,-0.156 0.1,-0.245 0.2,-0.267c0.2,-0.022 0.3,0.144 0.3,0.489l0.3,1.823c0.2,1.257 0.7,1.835 1.4,1.724c0.6,-0.1 0.7,-1.212 0.4,-3.336c0,-0.077 0,-0.178 -0.1,-0.3c0,-0.122 0,-0.211 0,-0.244c0,-0.134 0,-0.245 0,-0.345c0,-0.134 0.1,-0.2 0.2,-0.222c0.1,-0.023 0.2,0.1 0.3,0.389c0,0.089 0,0.211 0,0.389c0.1,0.178 0.1,0.3 0.1,0.389c0.4,2.401 0.1,3.68 -0.9,3.836z" fill="#2F1C19"/>
<path id="Vector_1341" d="M154.2,32.463c-0.1,0.023 -0.2,-0.044 -0.2,-0.2c-0.1,-0.122 -0.2,-0.2 -0.2,-0.222c0,-0.022 -0.1,-0.011 -0.3,0.011c-0.2,0.033 -0.4,0.311 -0.6,0.823c-0.3,0.678 -0.4,1.301 -0.3,1.857c0,0.266 0.1,0.489 0.3,0.655c0.2,0.178 0.3,0.245 0.5,0.223c0.2,-0.022 0.4,-0.111 0.5,-0.245c0.1,-0.078 0.2,-0.222 0.4,-0.433c0.1,-0.1 0.1,-0.156 0.2,-0.167c0,-0.011 0.1,0.011 0.2,0.078c0,0.055 0,0.133 0.1,0.211c0,0.089 0,0.178 -0.1,0.256c-0.3,0.556 -0.7,0.867 -1.1,0.934c-0.4,0.055 -0.7,-0.067 -1,-0.356c-0.2,-0.289 -0.4,-0.645 -0.5,-1.079c-0.1,-0.7 0,-1.467 0.3,-2.279c0.3,-0.678 0.7,-1.045 1,-1.112c0.1,-0.011 0.2,-0.022 0.2,-0.022c0.1,0 0.2,0 0.2,0.022c0.1,-0.111 0.1,-0.178 0.2,-0.2c0.1,-0.022 0.2,0.067 0.3,0.245c0,0.167 0.1,0.367 0.1,0.611c0,0.089 0,0.167 0,0.234c0,0.089 -0.1,0.144 -0.2,0.155z" fill="#2F1C19"/>
<path id="Vector_1342" d="M157.9,30.953c0,0.089 0,0.223 0,0.389c0,0.067 0,0.156 0.1,0.278c0,0.123 0,0.212 0,0.278c0,0.212 0.1,0.523 0.1,0.934c0.1,0.412 0.1,0.723 0.1,0.934c0,0.156 0.1,0.389 0.2,0.701c0,0.311 0.1,0.544 0.1,0.711c0,0.089 0,0.156 0,0.223c-0.1,0.066 -0.1,0.1 -0.2,0.111c0,0.011 -0.1,-0.011 -0.1,-0.056c-0.1,-0.055 -0.1,-0.122 -0.1,-0.2c-0.1,-0.156 -0.1,-0.4 -0.2,-0.712c-0.1,-0.311 -0.1,-0.544 -0.1,-0.7c-0.1,-0.156 -0.1,-0.311 -0.1,-0.467c-0.3,0.056 -0.6,0.156 -1,0.322l-1,0.423c0.1,0.189 0.1,0.456 0.1,0.8c0.1,0.345 0.1,0.612 0.1,0.801c0,0.089 0,0.156 0,0.222c0,0.067 -0.1,0.1 -0.2,0.111c0,0.012 -0.1,-0.011 -0.1,-0.066c-0.1,-0.056 -0.1,-0.123 -0.1,-0.2c-0.1,-0.223 -0.1,-0.556 -0.2,-0.99c0,-0.445 0,-0.767 -0.1,-0.989c0,-0.112 0,-0.289 -0.1,-0.512c0,-0.233 0,-0.4 -0.1,-0.522c0,-0.167 0,-0.412 -0.1,-0.745c0,-0.334 0,-0.578 -0.1,-0.745c0,-0.089 0,-0.167 0.1,-0.234c0,-0.066 0.1,-0.1 0.1,-0.111c0.1,-0.011 0.1,0.011 0.2,0.056c0,0.055 0.1,0.122 0.1,0.211c0,0.167 0,0.411 0.1,0.745c0,0.333 0.1,0.589 0.1,0.745l0.1,0.789l1,-0.422c0.4,-0.167 0.8,-0.278 1,-0.323c0,-0.3 -0.1,-0.745 -0.2,-1.345c0,-0.156 0,-0.322 0,-0.489c0,-0.234 0.1,-0.356 0.2,-0.367c0,-0.011 0.1,0.011 0.2,0.055c0,0.045 0.1,0.123 0.1,0.201c0,0.055 0,0.1 0,0.155z" fill="#2F1C19"/>
<path id="Vector_1343" d="M160.9,30.662c-0.1,0 -0.1,0 -0.1,0c-0.3,-0.056 -0.6,-0.067 -0.8,-0.022c-0.2,0.022 -0.3,0.055 -0.5,0.122c-0.1,0.055 -0.3,0.133 -0.4,0.222c0,0.134 0,0.245 0,0.323c0.1,0.289 0.1,0.689 0.2,1.2l1,-0.3c0.3,-0.089 0.5,-0.144 0.6,-0.155c0.1,-0.012 0.1,0.011 0.2,0.055c0,0.056 0.1,0.122 0.1,0.222c0,0.189 0,0.312 -0.2,0.356l-0.5,0.156l-1.1,0.311c0,0.145 0,0.289 0,0.423c0.1,0.133 0.1,0.255 0.1,0.367c0.1,0.455 0.1,0.722 0.2,0.8c0,0.056 0.2,0.056 0.4,0.022c0.1,-0.011 0.2,-0.044 0.4,-0.089c0.2,-0.044 0.4,-0.066 0.5,-0.089c0,0 0.1,-0.022 0.1,-0.044c0.1,-0.022 0.1,-0.033 0.1,-0.045c0.2,-0.022 0.3,0.067 0.4,0.278c0,0.178 -0.1,0.29 -0.2,0.345c-0.1,0.067 -0.5,0.134 -1,0.222c-0.5,0.078 -0.8,0.045 -1,-0.1c-0.1,-0.155 -0.3,-0.578 -0.4,-1.234c0,-0.133 0,-0.278 -0.1,-0.433c0,-0.156 0,-0.334 0,-0.512c-0.1,-0.044 -0.1,-0.089 -0.1,-0.144c0,-0.067 0,-0.134 0,-0.2c0,-0.601 -0.1,-1.057 -0.1,-1.335c-0.1,-0.077 -0.1,-0.189 -0.1,-0.333c-0.1,-0.145 -0.1,-0.256 -0.1,-0.334c0,-0.244 0,-0.389 0.2,-0.411c0,-0.011 0.1,0.011 0.2,0.067c0.1,-0.1 0.3,-0.178 0.5,-0.234c0.2,-0.055 0.3,-0.1 0.5,-0.133c0.4,-0.067 0.7,-0.056 0.9,0.033c0.1,0.033 0.2,0.134 0.2,0.278c0,0.078 0,0.156 0,0.234c0,0.055 -0.1,0.1 -0.1,0.111z" fill="#2F1C19"/>
<path id="Vector_1344" d="M164.6,34.376c0,0.011 -0.1,-0.011 -0.2,-0.067c-0.6,-0.589 -1.3,-0.956 -1.9,-1.078l0.1,0.611l0.1,0.612c0,0.089 0,0.166 0,0.244c-0.1,0.067 -0.1,0.111 -0.2,0.123c-0.1,0.011 -0.1,-0.012 -0.2,-0.067c0,-0.056 -0.1,-0.122 -0.1,-0.222c0,-0.167 -0.1,-0.412 -0.1,-0.734c-0.1,-0.323 -0.1,-0.567 -0.2,-0.734c0,-0.189 0,-0.478 -0.1,-0.856c0,-0.378 0,-0.667 0,-0.856c-0.1,-0.111 -0.1,-0.267 -0.1,-0.467c-0.1,-0.2 -0.1,-0.356 -0.1,-0.467c-0.1,-0.122 -0.1,-0.223 0,-0.323c0,-0.122 0.1,-0.189 0.2,-0.189l0.6,-0.033c0.2,0 0.4,0.033 0.6,0.122c0.7,0.345 1.1,0.834 1.2,1.479c0.1,0.311 0,0.612 -0.2,0.89c-0.1,0.222 -0.3,0.411 -0.6,0.555c0.6,0.267 1,0.567 1.3,0.912c0.1,0.056 0.1,0.122 0.1,0.2c0,0.089 0,0.167 0,0.245c0,0.055 -0.1,0.089 -0.2,0.1zM162.4,30.518l-0.3,0.022l0.1,0.378c0,0.156 0,0.278 0.1,0.378c0,0.167 0,0.378 0,0.623l0.1,0.634c0,0 0,-0.012 0.1,-0.012c0,-0.011 0.1,-0.011 0.1,-0.011c0.4,-0.066 0.7,-0.189 0.9,-0.367c0,-0.077 0.1,-0.178 0.2,-0.289c0,-0.133 0.1,-0.233 0.1,-0.311c-0.1,-0.289 -0.3,-0.534 -0.6,-0.745c-0.2,-0.222 -0.5,-0.311 -0.8,-0.3z" fill="#2F1C19"/>
</g>
<path id="XMLID_5__3" d="M36.5,99.448c18.5,-12.019 31.4,-44.639 42.9,-53.701c1.8,-1.378 4.3,-3.024 6.8,-3.913c1.9,-0.656 3.4,1.467 2,2.757c-1.8,1.623 -3.7,3.647 -5.1,5.604c-1,1.345 0.7,2.99 2.2,2.212c4.7,-2.301 9.6,-4.158 14.1,-4.77c3.1,-0.433 7.2,-1.378 10.8,-1.3c2.3,0.055 2.8,2.957 0.7,3.68c-4.4,1.467 -10.5,3.035 -14.2,4.414c-1.2,0.422 -0.7,1.968 0.5,1.801c5.1,-0.712 15.5,-2.502 20.2,-3.035c1.3,-0.145 2.1,1.256 1.2,2.156c-1.8,1.924 -9.6,3.669 -12.5,4.092c-2.3,0.333 -5.9,0.878 -9,1.757c-1.9,0.533 -1.4,3.046 0.6,2.957c1.4,-0.056 2.7,-0.245 3.5,-0.378c4.9,-0.889 9.9,-1.779 14.8,-2.668c0.9,0.922 0.6,2.468 -0.3,3.391c-1,0.911 -2.3,1.356 -3.6,1.767c-3.6,1.134 -8.5,2.413 -12.6,3.603c-1.4,0.378 -1.2,2.145 0.2,2.246c1.7,0.133 3.6,-0.012 4.5,-0.301c1,-0.333 3.7,-0.711 6.1,-0.778c1.9,-0.055 2.6,2.29 0.9,3.113c-2.8,1.368 -7,2.324 -8.9,3.124c-3,1.246 -8.9,10.084 -10.2,12.297c-3.1,5.226 -6.2,10.496 -9.4,15.688c-28,45.484 -68.2,17.444 -46.2,-5.815z" fill="#FDA4AF"/>
<g id="Group_752">
<path id="Vector_1345" d="M110.7,46.737c-0.1,0.733 -1,0.878 -1.6,0.711c-0.7,-0.189 -1.3,-0.656 -1.8,-1.089c-0.5,-0.423 -1.2,0.3 -0.7,0.722c0.9,0.723 1.8,1.501 3,1.457c1,-0.034 1.9,-0.567 2.1,-1.523c0.2,-0.645 -0.8,-0.923 -1,-0.278z" fill="#2F1C19"/>
</g>
<g id="Group_753">
<path id="Vector_1346" d="M117.5,53.764c0.2,0.522 -0.7,0.633 -1,0.555c-0.5,-0.122 -0.9,-0.467 -1.2,-0.789c-0.5,-0.445 -1.2,0.278 -0.8,0.723c0.8,0.656 1.7,1.334 2.7,1.089c0.9,-0.2 1.6,-0.945 1.3,-1.834c-0.2,-0.645 -1.1,-0.378 -1,0.256z" fill="#2F1C19"/>
</g>
<g id="Group_754">
<path id="Vector_1347" d="M116.4,62.002c-0.7,0.345 -1.6,0.145 -2.2,-0.478c-0.4,-0.489 -1.1,0.234 -0.7,0.723c0.9,0.978 2.3,1.167 3.4,0.634c0.6,-0.267 0.1,-1.146 -0.5,-0.879z" fill="#2F1C19"/>
</g>
<g id="Group_755">
<path id="Vector_1348" d="M111.5,71.91c-0.2,0.4 -0.8,0.311 -1.1,0.178c-0.4,-0.178 -0.7,-0.512 -1,-0.812c-0.5,-0.467 -1.2,0.256 -0.8,0.723c0.6,0.578 1.3,1.178 2.1,1.223c0.8,0.033 1.5,-0.323 1.7,-1.034c0.3,-0.612 -0.7,-0.879 -0.9,-0.278z" fill="#2F1C19"/>
</g>
<g id="Group_756">
<path id="Vector_1349" d="M86.4,42.392c0,0.768 -0.9,1.057 -1.5,1.057c-0.6,0 -1.3,-0.234 -1.9,-0.445c-0.6,-0.211 -0.9,0.767 -0.3,0.978c1.1,0.356 2.2,0.701 3.3,0.3c0.8,-0.311 1.4,-0.989 1.4,-1.89c0,-0.656 -1,-0.656 -1,0z" fill="#2F1C19"/>
</g>
<g id="Group_757">
<path id="Vector_1350" d="M72.9,55.501c0.5,0.478 0.9,1.011 1.2,1.623c0.3,0.589 1.2,0.067 0.9,-0.512c-0.4,-0.689 -0.8,-1.3 -1.4,-1.834c-0.4,-0.456 -1.2,0.267 -0.7,0.723z" fill="white"/>
</g>
<g id="Group_758">
<path id="Vector_1351" d="M79.2,61.573c0.3,0.578 0.6,1.167 1,1.745c0.3,0.567 1.2,0.056 0.8,-0.511c-0.3,-0.578 -0.6,-1.168 -0.9,-1.746c-0.3,-0.567 -1.2,-0.055 -0.9,0.512z" fill="white"/>
</g>
<g id="Group_759">
<path id="Vector_1352" d="M82.9,67.016c0.5,0.756 1,1.501 1.5,2.257c0.3,0.544 1.2,0.033 0.9,-0.512c-0.5,-0.756 -1.1,-1.501 -1.6,-2.257c-0.3,-0.545 -1.2,-0.033 -0.8,0.512z" fill="white"/>
</g>
<g id="Group_760">
<path id="Vector_1353" d="M87.4,73.243c0.6,0.7 1.1,1.401 1.6,2.112c0.4,0.512 1.3,0.011 0.9,-0.511c-0.5,-0.701 -1.1,-1.401 -1.6,-2.113c-0.4,-0.511 -1.3,0 -0.9,0.512z" fill="white"/>
</g>
<g id="Group_761">
<path id="Vector_1354" d="M92.2,77.915c0.3,0.945 0.8,1.701 1.6,2.29c0.2,0.167 0.6,0.034 0.7,-0.178c0.2,-0.255 0,-0.533 -0.2,-0.7c-0.5,-0.423 -0.9,-1.012 -1.1,-1.69c-0.2,-0.623 -1.2,-0.356 -1,0.278z" fill="white"/>
</g>
<g id="XMLID_4__2">
<path id="Vector_1355" d="M71.5,55.711c2.5,-3.536 5.1,-7.172 8.6,-9.829c1.5,-1.134 3.1,-2.157 4.8,-2.946c0.6,-0.289 1.7,-0.878 2.4,-0.667c1.5,0.433 0.7,1.612 0.1,2.346c-0.7,0.9 -1.7,1.656 -2.5,2.512c-1.2,1.324 -4.4,4.459 -1.3,5.782c1.4,0.645 3,-0.6 4.3,-1.19c2.3,-1.023 4.6,-1.923 7,-2.613c4,-1.167 8.5,-1.834 12.7,-2.179c0.9,-0.077 2.5,-0.4 3.4,0.1c1,0.567 0.9,1.824 0,2.391c-0.8,0.445 -1.9,0.645 -2.8,0.889c-1,0.334 -2.1,0.645 -3.2,0.968c-1.9,0.567 -3.9,1.134 -5.8,1.745c-1,0.311 -2.9,0.556 -3.5,1.568c-0.3,0.589 -0.2,1.345 0.3,1.779c0.9,0.745 2.4,0.2 3.4,0.055c3.3,-0.5 6.6,-1.045 9.9,-1.556c1.6,-0.245 3.2,-0.49 4.8,-0.723c0.8,-0.111 1.5,-0.222 2.3,-0.322c0.2,-0.023 0.5,-0.112 0.7,-0.078c1,0.211 1.3,1.234 0.4,1.801c-2.4,1.523 -5.5,2.157 -8.2,2.768c-3.2,0.701 -6.4,1.034 -9.5,1.701c-1.6,0.334 -5.9,1.157 -4,3.781c0.6,0.833 1.5,0.878 2.5,0.822c1.9,-0.089 3.8,-0.5 5.6,-0.834c2.4,-0.422 4.8,-0.856 7.1,-1.278c1.1,-0.189 2.2,-0.389 3.2,-0.578c1,-0.167 1.2,-0.567 1.5,0.478c0.4,1.234 -0.4,1.923 -1.5,2.49c-1.6,0.879 -3.5,1.268 -5.3,1.768c-2.1,0.623 -4.3,1.223 -6.5,1.823c-1.2,0.334 -3.6,0.467 -4.2,1.857c-0.4,0.912 0.2,1.823 1,2.157c1.5,0.567 3.6,0.133 5.1,-0.222c1.9,-0.445 4.1,-0.968 6,-0.767c0.8,0.088 1.7,0.678 1.2,1.645c-0.3,0.545 -1.3,0.867 -1.8,1.056c-1,0.389 -1.9,0.712 -2.9,1.034c-1.6,0.501 -3.3,0.856 -4.8,1.557c-3.2,1.545 -5.6,5.57 -7.7,8.427c-0.3,0.534 0.5,1.045 0.9,0.512c1.5,-2.057 3,-4.103 4.7,-5.926c1.4,-1.512 2.8,-2.246 4.8,-2.858c2,-0.622 4,-1.189 5.9,-2.012c1.1,-0.489 2.2,-1.156 2,-2.568c-0.1,-1.112 -1.1,-1.801 -2.1,-1.89c-1.9,-0.156 -4.1,0.222 -6,0.667c-1,0.244 -2,0.422 -3,0.444c-0.2,0 -0.7,0.078 -0.9,0c-0.1,0 -0.2,0 -0.3,-0.011c0,-0.478 -0.1,-0.956 -0.1,-1.434c0.1,-0.267 1.6,-0.467 1.9,-0.556c2.5,-0.689 4.9,-1.356 7.4,-2.057c2.5,-0.745 10.1,-2.668 6.9,-6.837c-0.1,-0.145 -0.3,-0.156 -0.5,-0.134c-3.4,0.623 -6.9,1.234 -10.3,1.857c-1.6,0.289 -3.2,0.612 -4.9,0.878c-0.9,0.145 -4.7,0.945 -4.2,-0.989c0.3,-1.134 3.8,-1.401 4.7,-1.59c1.5,-0.289 2.9,-0.523 4.4,-0.745c2,-0.289 3.9,-0.689 5.8,-1.178c1.7,-0.445 9.2,-1.924 8,-5.015c-0.7,-1.679 -2.8,-1.056 -4.2,-0.867c-2.4,0.322 -4.7,0.7 -7.1,1.067c-2.5,0.401 -5,0.801 -7.6,1.19c-0.7,0.111 -2.2,0.656 -2.9,0.445c-1.5,-0.478 0.4,-1.157 0.7,-1.279c0.7,-0.244 1.5,-0.467 2.2,-0.7c2.8,-0.879 5.7,-1.668 8.5,-2.557c1.5,-0.467 3.6,-0.845 3.8,-2.78c0,-1.49 -1.2,-2.435 -2.6,-2.535c-2.9,-0.233 -6,0.523 -8.8,0.99c-3.3,0.533 -6.3,1.089 -9.4,2.19c-1.4,0.478 -2.7,1.012 -4,1.59c-0.8,0.344 -1.5,0.756 -2.3,1.089c-0.2,0.067 -0.4,0.145 -0.6,0.212c-0.9,0.533 -1.4,0.055 -1.6,-1.435c0.1,-0.467 0.9,-1.111 1.2,-1.478c1.2,-1.357 2.4,-2.58 3.7,-3.825c0.6,-0.612 1,-1.256 0.8,-2.179c-0.5,-2.335 -3,-1.735 -4.5,-1.034c-6.2,2.735 -10.3,7.916 -14.1,13.264c-0.4,0.578 0.5,1.089 0.9,0.556z" fill="#2F1C19"/>
</g>
<g id="Group_762">
<path id="Vector_1356" d="M238.4,98.748c-30.3,-25.416 -30.2,-44.272 -41.1,-53.489c-1.7,-1.401 -4.1,-3.113 -6.5,-4.092c-1.8,-0.734 -3.4,1.168 -2.1,2.468c1.7,1.635 3.4,3.647 4.7,5.571c0.9,1.323 -0.8,2.768 -2.3,1.934c-4.4,-2.446 -9.2,-4.492 -13.6,-5.348c-3.1,-0.6 -7.1,-1.745 -10.6,-1.89c-2.3,-0.089 -3,2.613 -0.9,3.425c4.2,1.645 10.2,3.491 13.8,5.014c1.1,0.467 0.5,1.89 -0.7,1.657c-5,-0.99 -15.1,-3.303 -19.7,-4.081c-1.3,-0.222 -2.2,1.045 -1.4,1.946c1.8,1.923 9.3,4.036 12.2,4.614c2.2,0.456 5.8,1.19 8.7,2.201c1.8,0.623 1.2,2.935 -0.7,2.735c-1.4,-0.144 -2.7,-0.389 -3.5,-0.578c-4.8,-1.134 -9.6,-2.279 -14.4,-3.413c-1,0.812 -0.8,2.279 0.1,3.202c0.9,0.923 2.2,1.412 3.4,1.879c3.5,1.279 8.2,2.779 12.3,4.158c1.3,0.434 1,2.079 -0.4,2.09c-1.7,0.011 -3.5,-0.233 -4.4,-0.556c-1,-0.378 -3.6,-0.9 -6,-1.111c-1.9,-0.167 -2.7,1.99 -1,2.868c2.7,1.457 6.7,2.613 8.6,3.48c2.9,1.356 8.1,10.006 9.3,12.174c2.8,5.104 5.1,10.485 8.4,15.31c29.5,43.439 69.9,15.176 47.8,-2.168z" fill="#FDA4AF"/>
<g id="Group_763">
<path id="Vector_1357" d="M204.4,51.818c-2.2,-3.88 -6.2,-6.815 -9.9,-9.183c-1.2,-0.767 -2.7,-1.901 -4.1,-2.102c-1.5,-0.2 -3.1,1.012 -2.6,2.558c0.3,1.056 1.5,1.879 2.2,2.657c0.6,0.611 1.1,1.245 1.6,1.89c0.5,0.556 1.8,1.834 1.5,2.702c-0.7,1.523 -4.8,-1.223 -5.7,-1.646c-1.4,-0.678 -2.9,-1.301 -4.4,-1.846c-2.9,-1.045 -5.8,-1.612 -8.8,-2.268c-1.4,-0.322 -2.9,-0.622 -4.3,-0.845c-1.2,-0.177 -2.6,-0.511 -3.7,-0.244c-1.4,0.3 -2.3,1.623 -1.8,2.968c0.7,1.757 3.6,2.202 5.2,2.747c2.7,0.967 5.4,1.878 8.1,2.901c0.6,0.212 1.6,0.345 1.4,0.99c-0.3,0.6 -0.7,0.289 -1.3,0.167c-1.2,-0.245 -2.4,-0.501 -3.6,-0.756c-4.7,-1.012 -9.4,-2.235 -14.2,-2.958c-1.3,-0.2 -3.1,0.223 -2.7,1.957c0.3,1.412 2.4,2.19 3.6,2.679c4.8,2.068 9.9,2.802 14.9,4.136c0.8,0.223 1.6,0.445 2.5,0.723c0.3,0.133 1.3,0.567 1.2,1.223c-0.2,0.778 -1.3,0.667 -1.8,0.623c-1.8,-0.145 -3.5,-0.645 -5.1,-1.034c-4.1,-0.956 -8.1,-1.913 -12.2,-2.869c-0.2,-0.044 -0.4,0 -0.5,0.134c-3.5,3.835 4.4,6.181 6.7,6.971c1.3,0.433 2.6,0.856 3.9,1.278c1.4,0.467 3.1,0.767 4.4,1.479c0.6,0.322 0.5,-0.1 0.7,0.823c0.1,0.934 0,0.656 -0.8,0.622c-0.7,-0.033 -1.5,-0.089 -2.2,-0.233c-1,-0.189 -1.9,-0.545 -2.9,-0.756c-1.6,-0.356 -4.6,-1.357 -6.1,-0.156c-0.9,0.812 -0.9,2.224 0,3.047c1.6,1.4 4.4,2.012 6.4,2.723c1.9,0.69 3.4,1.29 4.7,2.78c2.8,3.002 5.1,6.66 7.1,10.24c0.3,0.578 1.2,0.055 0.8,-0.512c-1.2,-2.268 -2.6,-4.458 -4.1,-6.57c-1.4,-1.946 -2.9,-4.303 -5,-5.571c-1.1,-0.7 -2.5,-1.067 -3.7,-1.523c-1,-0.367 -2,-0.734 -3,-1.145c-0.9,-0.356 -4.5,-1.834 -2.1,-2.902c0.8,-0.378 2.6,0.167 3.5,0.312c0.9,0.155 1.8,0.355 2.7,0.622c1.6,0.456 3.4,0.901 5,0.645c0.8,-0.111 1.4,-0.556 1.5,-1.368c0.2,-1.367 -1.2,-1.723 -2.2,-2.056c-4,-1.335 -8,-2.513 -11.9,-4.07c-1,-0.4 -3,-1.156 -3.1,-2.457c-0.1,-1.99 2.2,-0.834 3.2,-0.6c2.6,0.622 5.3,1.245 7.9,1.868c2.1,0.478 4.1,1.011 6.2,1.278c1,0.134 2.1,0.145 2.7,-0.845c1.7,-2.768 -3.5,-3.535 -5,-3.913c-3.1,-0.779 -6.2,-1.312 -9.3,-2.224c-1.4,-0.445 -2.9,-0.923 -4.3,-1.512c-0.8,-0.311 -1.6,-0.656 -2.3,-1.09c-0.2,-0.133 -0.5,-0.289 -0.7,-0.5c-0.7,-1.312 1,-1.223 1.6,-1.167c3.4,0.333 6.9,1.39 10.2,2.112c1.6,0.334 3.1,0.667 4.7,1.001c1.3,0.278 3,0.989 4.4,0.845c0.7,-0.089 1.4,-0.678 1.3,-1.501c0,-1.201 -1.7,-1.512 -2.6,-1.857c-3.7,-1.412 -7.5,-2.568 -11.1,-3.991c-1.1,-0.412 -2.8,-1.501 -1.2,-2.524c0.9,-0.589 2.7,-0.133 3.7,0.022c2.3,0.345 4.5,0.912 6.7,1.39c2.3,0.478 4.5,1.023 6.7,1.834c2.7,1.012 5.1,2.58 7.8,3.658c1.1,0.434 2.3,0.445 3,-0.6c0.9,-1.312 -0.3,-2.568 -1.1,-3.591c-0.7,-0.979 -1.6,-1.924 -2.4,-2.824c-0.3,-0.3 -1.1,-0.912 -1.3,-1.29c-0.8,-2.313 1.3,-1.757 2.1,-1.412c1.3,0.511 2.4,1.345 3.6,2.09c3.3,2.202 6.8,4.87 8.8,8.372c0.4,0.523 1.2,0.011 0.9,-0.556z" fill="#2F1C19"/>
</g>
<g id="Group_764">
<path id="Vector_1358" d="M165.3,44.495c0.2,0.9 1.1,1.412 1.9,1.534c1.2,0.167 2.2,-0.478 3.1,-1.112c0.6,-0.367 0.1,-1.256 -0.5,-0.878c-0.5,0.4 -1.2,0.845 -1.9,0.967c-0.6,0.111 -1.5,-0.056 -1.6,-0.778c-0.1,-0.645 -1.1,-0.378 -1,0.267z" fill="#2F1C19"/>
</g>
<g id="Group_765">
<path id="Vector_1359" d="M158.2,50.153c-0.3,0.845 0.5,1.601 1.2,1.812c1,0.278 2,-0.3 2.7,-0.889c0.5,-0.4 -0.2,-1.112 -0.7,-0.723c-0.4,0.289 -0.8,0.612 -1.3,0.656c-0.3,0.033 -1,-0.144 -0.9,-0.589c0.2,-0.612 -0.7,-0.878 -1,-0.267z" fill="#2F1C19"/>
</g>
<g id="Group_766">
<path id="Vector_1360" d="M159.3,59.092c1.1,0.578 2.5,0.456 3.4,-0.434c0.5,-0.456 -0.2,-1.167 -0.7,-0.722c-0.6,0.556 -1.5,0.633 -2.2,0.266c-0.6,-0.289 -1.1,0.59 -0.5,0.89z" fill="#2F1C19"/>
</g>
<g id="Group_767">
<path id="Vector_1361" d="M163.1,68.094c0.3,0.678 0.9,1.034 1.6,1.067c0.9,0.034 1.6,-0.5 2.2,-1.045c0.5,-0.422 -0.2,-1.145 -0.7,-0.722c-0.3,0.289 -0.7,0.611 -1.2,0.711c-0.2,0.067 -0.8,0.056 -0.9,-0.289c-0.2,-0.611 -1.2,-0.344 -1,0.278z" fill="#2F1C19"/>
</g>
<g id="Group_768">
<path id="Vector_1362" d="M189.6,41.645c-0.1,0.867 0.6,1.545 1.3,1.879c1.1,0.444 2.2,0.166 3.3,-0.1c0.6,-0.167 0.3,-1.146 -0.3,-0.979c-0.8,0.211 -3.4,0.767 -3.3,-0.789c0.1,-0.667 -0.9,-0.656 -1,-0.011z" fill="#2F1C19"/>
</g>
<g id="Group_769">
<path id="Vector_1363" d="M202.5,54.097c-0.6,0.467 -1.1,1.023 -1.5,1.646c-0.3,0.567 0.6,1.078 0.9,0.511c0.3,-0.556 0.8,-1.034 1.3,-1.445c0.2,-0.178 0.1,-0.534 0,-0.723c-0.2,-0.2 -0.5,-0.167 -0.7,0.011z" fill="white"/>
</g>
<g id="Group_770">
<path id="Vector_1364" d="M195.7,59.612c-0.3,0.522 -0.7,1.056 -1,1.578c-0.4,0.545 0.5,1.057 0.9,0.512c0.3,-0.523 0.7,-1.056 1,-1.579c0.4,-0.545 -0.5,-1.056 -0.9,-0.511z" fill="white"/>
</g>
<g id="Group_771">
<path id="Vector_1365" d="M191.9,64.392c-0.6,0.678 -1.1,1.345 -1.7,2.023c-0.4,0.501 0.3,1.234 0.8,0.723c0.5,-0.678 1,-1.345 1.6,-2.024c0.4,-0.511 -0.3,-1.234 -0.7,-0.722z" fill="white"/>
</g>
<g id="Group_772">
<path id="Vector_1366" d="M187,69.966c-0.6,0.622 -1.1,1.256 -1.7,1.879c-0.5,0.478 0.3,1.2 0.7,0.722c0.6,-0.622 1.1,-1.256 1.7,-1.879c0.5,-0.489 -0.3,-1.212 -0.7,-0.722z" fill="white"/>
</g>
<g id="Group_773">
<path id="Vector_1367" d="M181.8,74.387c-0.2,0.623 -0.7,1.123 -1.2,1.479c-0.6,0.345 -0.1,1.234 0.5,0.878c0.8,-0.5 1.4,-1.2 1.7,-2.09c0.2,-0.611 -0.7,-0.878 -1,-0.267z" fill="white"/>
</g>
</g>
<path id="Vector_1368" d="M13.5,87.163c4.6,-6.527 5.2,-14.943 5.4,-22.892c0.1,-1.357 0.1,-2.758 -0.4,-4.025c-0.4,-1.279 -1.5,-2.435 -2.8,-2.58c-2.3,-0.244 -3.8,2.057 -4.8,4.047c-2.3,4.514 -4.6,9.039 -6.8,13.553c-1.6,3.002 -3.1,6.038 -3.8,9.317c-0.5,2.369 -0.5,5.17 1.3,6.849c1.6,1.546 4.2,1.579 6.3,0.678c2,-0.9 3.7,-2.557 5.2,-4.18z" fill="#533630"/>
<path id="Vector_1369" d="M249.7,66.45c-1.2,4.626 0.6,9.306 2.2,13.453c1,2.558 2.3,5.07 4.3,7.016c2,1.946 4.9,3.291 8.1,3.124c5.9,-0.322 1.2,-9.984 0.3,-12.474c-1,-2.747 -2.2,-5.437 -3.2,-8.206c-0.8,-2.368 -0.7,-6.859 -2.2,-8.761c-2.6,-3.335 -7.2,0.623 -8.6,3.558c-0.4,0.756 -0.7,1.523 -0.9,2.29z" fill="#533630"/>
<path id="XMLID_1__15" d="M120.2,86.441c-5.1,-6.126 -1.8,-12.775 2.1,-14.987c3.9,-2.213 9.1,-1.179 12.6,1.612c2.1,1.579 3.8,3.747 6.3,4.314c1.6,0.367 3.2,0.011 4.8,-0.378c5.3,-1.312 10.5,-3.08 15.9,-3.513c5.4,-0.434 11.3,0.678 15.3,4.425c3.4,3.213 5.1,8.071 9.1,10.617c6.9,4.492 16.6,-0.444 24.1,3.002c2.7,1.234 4.9,3.547 6,6.304c2.4,5.96 -0.2,13.342 3.2,18.823c2.7,4.414 8.7,6.482 10.1,11.441c1,3.068 -0.3,6.493 -2.5,8.75c-2.3,2.257 -5.4,3.469 -8.5,4.047c-7.5,1.367 -15.6,-0.856 -21.4,-5.893c-2.8,-2.379 -5,-5.303 -7.7,-7.694c-2.7,-2.39 -6.2,-4.28 -9.8,-3.902c-1.4,0.144 -2.7,0.623 -4.1,0.934c-5.7,1.267 -12,-0.645 -16,-4.881c-4.1,-4.325 -6.2,-10.974 -11.7,-13.131c-4.2,-1.634 -9.6,-0.756 -13.2,-3.368c-3.9,-2.758 -3.9,-8.005 -7.1,-11.519c-1.5,-1.723 -3.8,-2.768 -6.1,-2.846z" fill="#2F1C19"/>
<g id="Group_774">
<g id="Group_775">
<g id="Group_776">
<path id="Vector_1370" d="M143.1,113.737l-6.2,-15.844l8.6,0.801c-0.8,-15.799 -20.2,-23.782 -20.2,-23.782l-1.3,39.892c6,2.679 11.9,5.426 17.8,8.261c1.9,-2.557 2.5,-6.037 1.3,-9.328z" fill="#FDA4AF"/>
<path id="Vector_1371" d="M118.6,92.846c1.8,1.579 4.6,1.334 6.2,-0.533c1.6,-1.868 1.3,-4.659 -0.5,-6.238c-1.9,-1.578 -4.7,-1.334 -6.3,0.534c-1.5,1.868 -1.3,4.67 0.6,6.237z" fill="#FDA4AF"/>
<g id="Group_777">
<path id="Vector_1372" d="M123.5,89.633c-1.5,-0.578 -3,-1.167 -4.5,-1.723c-0.7,-0.223 -0.9,0.756 -0.3,0.978c1.5,0.556 3,1.134 4.6,1.723c0.6,0.245 0.8,-0.745 0.2,-0.978z" fill="#2F1C19"/>
</g>
<path id="Vector_1373" d="M136.9,97.894l5.8,14.954l-12,-15.977z" fill="#2F1C19"/>
<g id="Group_778">
<path id="Vector_1374" d="M134.1,81.074c2.4,1.39 4.9,3.024 7,4.859c0.1,-0.278 0.1,-0.567 0.2,-0.845c-1.1,0.3 -2.2,0.589 -3.3,0.889c-0.6,0.167 -0.3,1.157 0.3,0.979c1.1,-0.3 2.2,-0.589 3.3,-0.89c0.3,-0.1 0.5,-0.589 0.2,-0.845c-2.2,-1.89 -4.7,-3.58 -7.2,-5.014c-0.5,-0.333 -1.1,0.545 -0.5,0.867z" fill="#2F1C19"/>
</g>
</g>
</g>
</g>
<g id="Group_779">
<path id="Vector_1375" d="M152.9,106.265c2.4,2.913 3.1,6.626 4.2,10.106c0.9,2.846 2.2,5.493 4.4,7.605c2.1,2.035 4.7,3.502 7.6,4.158c3.7,0.867 7.5,-0.622 11.1,0.223c3.9,0.911 6.2,4.369 6.4,8.182c0.1,3.236 0.4,5.949 2.8,8.361c4.5,4.47 12.9,4.803 18.2,1.635c6.2,-3.736 7,-12.186 2.3,-17.389c-0.5,-0.489 -1.2,0.233 -0.8,0.723c5.2,5.659 2.7,14.642 -4.6,16.921c-6.3,1.979 -16.1,0.078 -16.8,-7.905c-0.3,-2.846 -0.1,-5.403 -1.8,-7.849c-1.4,-1.923 -3.5,-3.347 -5.9,-3.758c-3.3,-0.589 -6.6,0.612 -9.9,0.022c-3.1,-0.533 -5.9,-2.034 -8.1,-4.225c-4.8,-4.836 -4.1,-12.341 -8.4,-17.533c-0.4,-0.511 -1.1,0.211 -0.7,0.723z" fill="#2F1C19"/>
</g>
<g id="Group_780">
<path id="Vector_1376" d="M120.3,77.52c-3.5,0.3 -6.5,2.624 -8,5.87c-1.5,3.591 -0.8,7.783 1.2,11.04c1.2,1.913 3.7,3.503 3.7,5.882c0.1,2.335 -1,4.725 -1.6,6.949c-1,3.702 -0.8,7.093 2,9.917c2.4,2.413 6.2,4.158 7.2,7.627c1.1,3.747 -1.8,7.36 -2.7,10.829c-0.4,1.434 -0.5,2.958 0,4.381c0.8,2.012 2.6,3.313 3.8,5.058c1.2,1.779 2.1,3.936 2,6.115c-0.1,2.502 -1.6,3.914 -3.4,5.404c-1.4,1.145 -2.7,2.457 -2.7,4.38c0,1.535 0.8,3.091 2,4.003c1.2,0.867 3,1.212 4.2,0.278c1.1,-0.823 1.2,-2.446 0.2,-3.313c-0.5,-0.412 -1.3,0.311 -0.8,0.722c1.6,1.279 -0.7,2.291 -1.7,2.068c-0.4,-0.078 -0.8,-0.222 -1.1,-0.4c-0.8,-0.5 -1.4,-1.356 -1.6,-2.279c-0.7,-2.302 1,-3.736 2.6,-5.048c2.3,-1.89 3.6,-4.147 3.2,-7.215c-0.4,-3.303 -2.3,-5.66 -4.4,-8.083c-2.7,-3.158 -1.2,-6.471 0.2,-9.829c1.1,-2.546 2.1,-5.37 1,-8.072c-1.1,-2.412 -3.3,-3.969 -5.3,-5.559c-3,-2.423 -4.9,-5.003 -4.1,-9.061c0.5,-3.191 2.9,-6.982 1.9,-10.262c-0.6,-1.812 -2.4,-3.002 -3.4,-4.536c-1.3,-1.923 -2.1,-4.203 -2.2,-6.538c-0.1,-4.525 3.1,-8.916 7.8,-9.305c0.7,-0.056 0.7,-1.079 0,-1.023z" fill="#2F1C19"/>
</g>
<g id="Group_781">
<path id="Vector_1377" d="M79.9,115.392c-0.5,6.059 -3.7,11.307 -6.9,16.321c-1.4,2.068 -3.4,4.381 -3.8,6.882c-0.2,1.59 0.5,3.491 2.1,4.047c2,0.689 3.7,-1.234 4.8,-2.657c1.5,-1.946 2.7,-4.092 3.6,-6.36c2.1,-5.003 2.9,-10.417 3.5,-15.765c-0.4,0 -0.7,0 -1,0c0.4,4.258 -0.1,8.483 -0.7,12.697c-0.1,0.834 -0.7,2.601 0,3.402c0.5,0.623 1.3,0.422 1.8,-0.1c0.8,-0.878 1.3,-2.657 1.7,-3.803c0.5,-1.578 0.9,-3.213 1,-4.869c0.4,-3.569 0,-7.16 -1.1,-10.551c-0.2,-0.623 -1.2,-0.356 -1,0.266c1.8,5.348 1.7,11.196 -0.5,16.433c0,0.189 -0.7,2.124 -1.2,1.657c-0.1,-0.123 0.3,-1.913 0.3,-2.146c0.2,-1.323 0.4,-2.646 0.5,-3.98c0.4,-2.991 0.5,-5.982 0.2,-8.984c-0.1,-0.656 -1,-0.656 -1,0c-0.6,4.547 -1.2,9.106 -2.7,13.442c-0.8,2.112 -1.7,4.147 -2.9,6.048c-0.6,1.045 -1.3,2.068 -2.1,2.98c-1.2,1.323 -3.4,2.057 -4.2,-0.089c-0.8,-2.379 1.7,-5.137 2.9,-7.027c1.2,-1.934 2.5,-3.88 3.6,-5.892c2.1,-3.714 3.7,-7.639 4.1,-11.919c0.1,-0.678 -1,-0.678 -1,-0.033z" fill="#2F1C19"/>
</g>
<g id="Group_782">
<path id="Vector_1378" d="M84.3,164.1c3.3,-8.916 7.2,-17.622 11.6,-26.049c0.3,-0.579 -0.6,-1.09 -0.9,-0.512c-4.4,8.506 -8.3,17.3 -11.7,26.295c-0.3,0.611 0.7,0.878 1,0.266z" fill="#2F1C19"/>
</g>
<g id="Group_783">
<path id="Vector_1379" d="M172.8,166.49c-3.7,-10.618 -7.8,-21.114 -12.2,-31.476c-0.3,-0.6 -1.1,-0.078 -0.9,0.512c4.4,10.284 8.4,20.702 12.1,31.23c0.2,0.612 1.2,0.345 1,-0.266z" fill="#2F1C19"/>
</g>
<path id="Vector_1380" d="M90.2,13.183l-3.1,1.69c-1.8,1.401 -1.6,1.857 -2,4.17l-1.1,6.859c-0.1,0.234 -0.4,0.234 -0.4,0l-1.1,-6.826c-0.4,-2.29 -0.4,-2.802 -2.2,-4.203l-3,-1.679c-0.1,-0.089 -0.1,-0.255 0,-0.333l3.4,-1.579c1.8,-1.412 1.7,-2.346 2.1,-4.625l0.8,-6.482c0,-0.233 0.4,-0.233 0.4,0l0.9,6.715c0.4,2.28 0.6,3.225 2.5,4.626l2.8,1.345c0.1,0.078 0.1,0.244 0,0.322z" fill="#FBBF24"/>
<path id="Vector_1381" d="M72.8,35.909l-2.3,1.245c-1.4,1.034 -1.2,1.379 -1.6,3.08l-0.8,5.07c0,0.167 -0.2,0.167 -0.3,0l-0.8,-5.048c-0.3,-1.701 -0.2,-2.068 -1.6,-3.113l-2.2,-1.245c-0.1,-0.067 -0.1,-0.189 0,-0.245l2.5,-1.167c1.3,-1.045 1.3,-1.735 1.6,-3.424l0.5,-4.792c0.1,-0.167 0.3,-0.167 0.3,0l0.7,4.969c0.3,1.679 0.5,2.38 1.8,3.425l2.2,0.989c0,0.078 0,0.2 0,0.256z" fill="#FBBF24"/>
<path id="Vector_1382" d="M209.6,30.993l-3.1,1.69c-1.9,1.401 -1.6,1.857 -2,4.17l-1.1,6.859c-0.1,0.234 -0.4,0.234 -0.4,0l-1.1,-6.826c-0.4,-2.29 -0.4,-2.802 -2.2,-4.203l-3,-1.69c-0.1,-0.089 -0.1,-0.255 0,-0.333l3.4,-1.579c1.8,-1.412 1.7,-2.346 2.1,-4.625l0.8,-6.482c0,-0.234 0.4,-0.234 0.4,0l0.9,6.715c0.4,2.279 0.6,3.225 2.5,4.625l2.8,1.346c0.1,0.089 0.1,0.255 0,0.333z" fill="#FBBF24"/>
<path id="Vector_1383" d="M138.5,87.809c-3.2,1.211 -6.6,1.956 -10,2.201c3.3,3.424 8.3,5.125 13,4.447z" fill="white"/>
<g id="Group_784">
<path id="Vector_1384" d="M128.3,85.249c0.9,-1.112 2.4,-1.445 3.6,-0.967c0.6,0.233 0.9,-0.756 0.3,-0.979c-1.7,-0.656 -3.6,-0.022 -4.7,1.435c-0.4,0.522 0.4,1.034 0.8,0.511z" fill="#2F1C19"/>
</g>
<g id="Group_785">
<path id="Vector_1385" d="M126.6,80.75c0.2,-1.012 1.1,-1.834 2.1,-1.957c0.7,-0.066 0.7,-1.089 0,-1.011c-1.5,0.166 -2.7,1.211 -3.1,2.701c-0.1,0.634 0.9,0.912 1,0.267z" fill="#2F1C19"/>
</g>
<g id="Group_786">
<path id="Vector_1386" d="M128.5,81.783c-0.1,0.556 0,1.112 0.4,1.534c0.2,0.212 0.5,0.189 0.7,0c0.2,-0.2 0.2,-0.511 0,-0.722c-0.1,-0.156 -0.2,-0.356 -0.1,-0.545c0.2,-0.623 -0.8,-0.901 -1,-0.267z" fill="#2F1C19"/>
</g>
<g id="Group_787">
<path id="Vector_1387" d="M138.4,92.058c0.5,-0.289 1,-0.567 1.5,-0.856c0.6,-0.322 0.1,-1.201 -0.5,-0.878c-0.5,0.289 -1,0.567 -1.5,0.856c-0.6,0.322 -0.1,1.201 0.5,0.878z" fill="#2F1C19"/>
</g>
</g></svg>