<svg viewBox="0 0 375 44" fill="none" xmlns="http://www.w3.org/2000/svg" xmlns:xlink="http://www.w3.org/1999/xlink" x="0" y="0"><g id="iPhone X (or newer)_3">
<rect id="Rectangle_11" x="308" y="18" width="3" height="10" rx="1" fill="white"/>
<rect id="Rectangle_12" x="303" y="20" width="3" height="8" rx="1" fill="white"/>
<rect id="Rectangle_13" x="298" y="22" width="3" height="6" rx="1" fill="white"/>
<rect id="Rectangle_14" x="293" y="24" width="3" height="4" rx="1" fill="white"/>
<g id="Battery_3">
<path id="Vector_9" opacity="0.35" d="M340,17.833h14c1.93,0 3.5,1.567 3.5,3.5v3.334c0,1.933 -1.57,3.5 -3.5,3.5h-14c-1.93,0 -3.5,-1.567 -3.5,-3.5v-3.334c0,-1.933 1.57,-3.5 3.5,-3.5z" stroke="white"/>
<path id="Combined Shape_3" opacity="0.4" d="M359,21v4c0.8,-0.339 1.33,-1.127 1.33,-2c0,-0.873 -0.53,-1.661 -1.33,-2z" fill="white"/>
<path id="Vector_10" d="M338,21.333c0,-1.104 0.9,-2 2,-2h14c1.1,0 2,0.896 2,2v3.334c0,1.104 -0.9,2 -2,2h-14c-1.1,0 -2,-0.896 -2,-2z" fill="white"/>
</g>
<path id="Vector_11" d="M321.59,26.586c0.37,-0.375 0.88,-0.586 1.41,-0.586c0.53,0 1.04,0.211 1.41,0.586M318.76,23.757c0.56,-0.557 1.22,-0.999 1.94,-1.3c0.73,-0.302 1.51,-0.457 2.3,-0.457c0.79,0 1.57,0.155 2.3,0.457c0.72,0.301 1.39,0.743 1.94,1.3M315.93,20.929c0.93,-0.929 2.03,-1.665 3.24,-2.168c1.22,-0.502 2.52,-0.761 3.83,-0.761c1.31,0 2.61,0.259 3.83,0.761c1.21,0.503 2.31,1.239 3.24,2.168" stroke="white" stroke-width="2" stroke-linejoin="round"/>
<g id="9:41_3">
<path d="M36.25,28c-0.84,0 -1.54,-0.155 -2.13,-0.464c-0.57,-0.321 -1.01,-0.735 -1.33,-1.243c-0.32,-0.508 -0.52,-1.055 -0.58,-1.641h2.15c0.11,0.486 0.32,0.862 0.64,1.127c0.33,0.254 0.76,0.381 1.28,0.381c0.49,0 0.92,-0.138 1.27,-0.414c0.37,-0.287 0.65,-0.713 0.86,-1.276c0.2,-0.575 0.32,-1.288 0.36,-2.139c0,-0.022 0,-0.049 0,-0.082c0,-0.034 0,-0.061 0,-0.083c-0.17,0.298 -0.41,0.563 -0.72,0.795c-0.31,0.232 -0.66,0.415 -1.05,0.547c-0.37,0.133 -0.78,0.199 -1.21,0.199c-0.65,0 -1.27,-0.155 -1.85,-0.464c-0.59,-0.309 -1.05,-0.746 -1.41,-1.309c-0.35,-0.564 -0.53,-1.232 -0.53,-2.006c0,-0.707 0.18,-1.359 0.53,-1.956c0.36,-0.596 0.85,-1.071 1.47,-1.425c0.63,-0.365 1.36,-0.547 2.18,-0.547c0.91,0 1.68,0.16 2.3,0.481c0.61,0.32 1.11,0.751 1.49,1.292c0.37,0.542 0.64,1.15 0.8,1.824c0.17,0.663 0.26,1.337 0.26,2.022c0,1.293 -0.19,2.42 -0.57,3.381c-0.37,0.95 -0.92,1.691 -1.62,2.221c-0.71,0.519 -1.57,0.779 -2.59,0.779zM36.33,21.818c0.42,0 0.78,-0.083 1.1,-0.249c0.32,-0.177 0.57,-0.409 0.75,-0.696c0.2,-0.298 0.3,-0.63 0.3,-0.995c0,-0.386 -0.1,-0.729 -0.3,-1.027c-0.18,-0.299 -0.44,-0.525 -0.77,-0.68c-0.32,-0.165 -0.68,-0.248 -1.09,-0.248c-0.4,0 -0.76,0.083 -1.08,0.248c-0.32,0.166 -0.57,0.393 -0.76,0.68c-0.18,0.287 -0.27,0.624 -0.27,1.011c0,0.387 0.09,0.729 0.27,1.028c0.19,0.287 0.44,0.513 0.76,0.679c0.32,0.166 0.68,0.249 1.09,0.249z" fill="white"/>
<path d="M43.9,27.884c-0.42,0 -0.77,-0.122 -1.04,-0.365c-0.26,-0.254 -0.4,-0.563 -0.4,-0.928c0,-0.364 0.14,-0.668 0.4,-0.911c0.27,-0.255 0.62,-0.382 1.04,-0.382c0.43,0 0.77,0.127 1.03,0.382c0.26,0.243 0.4,0.547 0.4,0.911c0,0.365 -0.14,0.674 -0.4,0.928c-0.26,0.243 -0.6,0.365 -1.03,0.365zM43.9,21.834c-0.42,0 -0.77,-0.121 -1.04,-0.364c-0.26,-0.255 -0.4,-0.564 -0.4,-0.929c0,-0.364 0.14,-0.668 0.4,-0.911c0.27,-0.254 0.62,-0.381 1.04,-0.381c0.43,0 0.77,0.127 1.03,0.381c0.26,0.243 0.4,0.547 0.4,0.911c0,0.365 -0.14,0.674 -0.4,0.929c-0.26,0.243 -0.6,0.364 -1.03,0.364z" fill="white"/>
<path d="M52.62,27.801v-2.105h-5.89v-1.773l5.58,-7.724h2.61v7.558h1.57v1.939h-1.57v2.105zM49.2,23.757h3.58v-5.088z" fill="white"/>
<path d="M59.6,27.801v-9.033l-2.11,0.53v-1.773l3.11,-1.326h1.4v11.602z" fill="white"/>
</g>
</g></svg>