<svg viewBox="0 0 38.3933 27" fill="none" xmlns="http://www.w3.org/2000/svg" xmlns:xlink="http://www.w3.org/1999/xlink" x="0" y="0"><g id="Vector_175">
<path d="M1.5053,8.598c1.43,0.829 3.26,0.337 4.09,-1.098c0.27,-0.456 0.65,-0.835 1.1,-1.098c0.46,-0.263 0.97,-0.402 1.5,-0.402c0.53,0 1.05,0.139 1.5,0.402c0.46,0.263 0.84,0.642 1.1,1.098c0.83,1.435 2.66,1.927 4.1,1.098c1.43,-0.828 1.92,-2.663 1.1,-4.098c-0.79,-1.368 -1.93,-2.504 -3.3,-3.294c-1.37,-0.79 -2.92,-1.206 -4.5,-1.206c-1.58,0 -3.13,0.416 -4.5,1.206c-1.37,0.79 -2.5,1.926 -3.29,3.294c-0.83,1.435 -0.34,3.27 1.1,4.098z" fill="currentColor"/>
<path d="M23.5053,8.598c1.43,0.829 3.26,0.337 4.09,-1.098c0.27,-0.456 0.65,-0.835 1.1,-1.098c0.46,-0.263 0.97,-0.402 1.5,-0.402c0.53,0 1.05,0.139 1.5,0.402c0.46,0.263 0.84,0.642 1.1,1.098c0.83,1.435 2.66,1.927 4.1,1.098c1.43,-0.828 1.92,-2.663 1.1,-4.098c-0.79,-1.368 -1.93,-2.504 -3.3,-3.294c-1.37,-0.79 -2.92,-1.206 -4.5,-1.206c-1.58,0 -3.13,0.416 -4.5,1.206c-1.37,0.79 -2.5,1.926 -3.29,3.294c-0.83,1.435 -0.34,3.27 1.1,4.098z" fill="currentColor"/>
<path d="M19.1953,27c-2.62,0 -5.23,-0.517 -7.65,-1.522c-2.43,-1.006 -4.63,-2.479 -6.49,-4.336c-1.14,-1.144 -1.49,-2.864 -0.87,-4.359c0.62,-1.495 2.08,-2.469 3.7,-2.469h22.63c1.61,0 3.07,0.974 3.69,2.469c0.62,1.495 0.28,3.215 -0.87,4.359c-1.85,1.857 -4.06,3.331 -6.48,4.336c-2.43,1.005 -5.03,1.522 -7.66,1.522z" fill="currentColor"/>
</g></svg>