<svg viewBox="0 0 19.282 20" fill="none" xmlns="http://www.w3.org/2000/svg" xmlns:xlink="http://www.w3.org/1999/xlink" x="0" y="0"><g id="Vector_316">
<path d="M11.893,0.48c-1.402,-0.48 -2.899,-0.6 -4.359,-0.36c-1.46,0.24 -2.839,0.84 -4.013,1.74c-1.174,0.9 -2.108,2.08 -2.719,3.43c-0.611,1.34 -0.88,2.82 -0.783,4.3c0.097,1.48 0.557,2.91 1.338,4.16c0.454,0.73 1.008,1.39 1.643,1.96v4.29h2v-5.24l-0.375,-0.3c-0.618,-0.49 -1.149,-1.09 -1.569,-1.76c-0.608,-0.98 -0.966,-2.09 -1.041,-3.24c-0.075,-1.15 0.134,-2.3 0.609,-3.35c0.475,-1.05 1.201,-1.96 2.115,-2.66c0.913,-0.7 1.985,-1.17 3.121,-1.36c1.136,-0.18 2.3,-0.09 3.39,0.28c1.09,0.37 2.072,1 2.859,1.84c0.785,0.84 1.352,1.86 1.65,2.97l0.959,3.82h-2.718v4c0,0.55 -0.448,1 -1,1h-3v4h2v-2h1c1.657,0 3,-1.34 3,-3v-2h3.282l-1.587,-6.32l-0.002,-0.01c-0.383,-1.43 -1.112,-2.74 -2.124,-3.82c-1.012,-1.08 -2.275,-1.9 -3.676,-2.37z" fill="currentColor"/>
<path d="M8,8v-3h2v3h3v2h-3v3h-2v-3h-3v-2z" fill="currentColor"/>
</g></svg>