<svg viewBox="0 0 13.3333 13.3333" fill="none" xmlns="http://www.w3.org/2000/svg" xmlns:xlink="http://www.w3.org/1999/xlink" x="0" y="0"><g id="Vector_686">
<path d="M4.667,13.3367c0.485,0 0.941,-0.13 1.333,-0.36v-8.67c-0.392,0.23 -0.848,0.36 -1.333,0.36v-1.33c0.736,0 1.333,-0.6 1.333,-1.34v-1.64c-0.392,-0.23 -0.848,-0.36 -1.333,-0.36c-1.372,0 -2.501,1.04 -2.65,2.37c0.788,0.46 1.316,1.32 1.316,2.3c0,0.74 0.597,1.33 1.334,1.33v1.34c-1.473,0 -2.667,-1.2 -2.667,-2.67c0,-0.2 -0.042,-0.38 -0.118,-0.55c-1.09,0.34 -1.882,1.35 -1.882,2.55c0,0.49 0.13,0.94 0.357,1.33h2.31c1.472,0 2.666,1.2 2.666,2.67h-1.333c0,-0.74 -0.597,-1.33 -1.333,-1.33h-0.667v1.33c0,1.47 1.194,2.67 2.667,2.67z" fill="currentColor"/>
<path d="M8.667,13.3367c-0.486,0 -0.941,-0.13 -1.334,-0.36v-8.67c0.393,0.23 0.848,0.36 1.334,0.36v-1.33c-0.737,0 -1.334,-0.6 -1.334,-1.34v-1.64c0.393,-0.23 0.848,-0.36 1.334,-0.36c1.371,0 2.501,1.04 2.65,2.37c-0.788,0.46 -1.317,1.32 -1.317,2.3c0,0.74 -0.597,1.33 -1.333,1.33v1.34c1.472,0 2.666,-1.2 2.666,-2.67c0,-0.2 0.043,-0.38 0.118,-0.55c1.09,0.34 1.882,1.35 1.882,2.55c0,0.49 -0.129,0.94 -0.356,1.33h-2.31c-1.473,0 -2.667,1.2 -2.667,2.67h1.333c0,-0.74 0.597,-1.33 1.334,-1.33h0.666v1.33c0,1.47 -1.194,2.67 -2.666,2.67z" fill="currentColor"/>
</g></svg>