<svg viewBox="0 0 24 24" fill="none" xmlns="http://www.w3.org/2000/svg" xmlns:xlink="http://www.w3.org/1999/xlink" x="0" y="0"><g id="Monotone telephone">
<path id="Vector" d="M4,6c0,1.839 0.362,3.659 1.066,5.358c0.703,1.698 1.734,3.241 3.035,4.542c1.3,1.3 2.843,2.331 4.541,3.034c1.699,0.704 3.52,1.066 5.358,1.066" stroke="#4B3425" stroke-width="2" stroke-linejoin="round"/>
<path id="Vector_2" d="M4,6c0,-1.657 1.343,-3 3,-3c1.657,0 3,1.343 3,3c0,1.657 -1.343,3 -3,3c-1.657,0 -3,-1.343 -3,-3z" stroke="#4B3425" stroke-width="2" stroke-linejoin="round"/>
<path id="Vector_3" d="M15,17c0,-1.657 1.343,-3 3,-3c1.657,0 3,1.343 3,3c0,1.657 -1.343,3 -3,3c-1.657,0 -3,-1.343 -3,-3z" stroke="#4B3425" stroke-width="2" stroke-linejoin="round"/>
</g></svg>