<svg viewBox="0 0 16.6667 15.4915" fill="none" xmlns="http://www.w3.org/2000/svg" xmlns:xlink="http://www.w3.org/1999/xlink" x="0" y="0"><g id="Vector_668">
<path d="M5.834,5.83c0.69,0 1.25,-0.56 1.25,-1.25c0,-0.69 -0.56,-1.25 -1.25,-1.25c-0.69,0 -1.25,0.56 -1.25,1.25c0,0.69 0.56,1.25 1.25,1.25z" fill="currentColor"/>
<path d="M12.084,4.58c0,0.69 -0.56,1.25 -1.25,1.25c-0.69,0 -1.25,-0.56 -1.25,-1.25c0,-0.69 0.56,-1.25 1.25,-1.25c0.69,0 1.25,0.56 1.25,1.25z" fill="currentColor"/>
<path d="M7.084,8c-0.38,-0.22 -0.7,-0.54 -0.92,-0.92l-1.44,0.84c0.37,0.63 0.89,1.16 1.53,1.52c0.63,0.37 1.35,0.56 2.08,0.56c0.73,0 1.45,-0.19 2.08,-0.56c0.64,-0.36 1.16,-0.89 1.53,-1.52l-1.45,-0.84c-0.22,0.38 -0.53,0.7 -0.91,0.92c-0.38,0.22 -0.81,0.33 -1.25,0.33c-0.44,0 -0.87,-0.11 -1.25,-0.33z" fill="currentColor"/>
<path fill-rule="evenodd" clip-rule="evenodd" d="M7.504,0c-4.15,0 -7.5,3.36 -7.5,7.5v6.32c0,1.49 1.79,2.23 2.84,1.18l0.94,-0.93c0.46,-0.47 1.1,-0.74 1.76,-0.74h4.46c3.68,0 6.66,-2.98 6.66,-6.66c0,-3.69 -2.98,-6.67 -6.66,-6.67zM1.664,7.5c0,-3.22 2.61,-5.83 5.84,-5.83h2.5c2.76,0 5,2.24 5,5c0,2.76 -2.24,5 -5,5h-4.46c-1.1,0 -2.16,0.44 -2.94,1.22l-0.94,0.93z" fill="currentColor"/>
</g></svg>