<svg viewBox="0 0 16.6667 16.6667" fill="none" xmlns="http://www.w3.org/2000/svg" xmlns:xlink="http://www.w3.org/1999/xlink" x="0" y="0"><g id="Vector_698">
<path d="M5.832,16.6633c0.61,0 1.18,-0.16 1.67,-0.44v-10.84c-0.49,0.29 -1.06,0.45 -1.67,0.45v-1.67c0.92,0 1.67,-0.74 1.67,-1.66v-2.06c-0.49,-0.28 -1.06,-0.44 -1.67,-0.44c-1.71,0 -3.12,1.29 -3.31,2.95c0.98,0.58 1.64,1.65 1.64,2.88c0,0.92 0.75,1.67 1.67,1.67v1.66c-1.84,0 -3.33,-1.49 -3.33,-3.33c0,-0.24 -0.05,-0.48 -0.15,-0.69c-1.36,0.42 -2.35,1.69 -2.35,3.19c0,0.61 0.16,1.18 0.44,1.67h2.89c1.84,0 3.33,1.49 3.33,3.33h-1.66c0,-0.92 -0.75,-1.67 -1.67,-1.67h-0.83v1.67c0,1.84 1.49,3.33 3.33,3.33z" fill="currentColor"/>
<path d="M10.832,16.6633c-0.61,0 -1.18,-0.16 -1.67,-0.44v-10.84c0.49,0.29 1.06,0.45 1.67,0.45v-1.67c-0.92,0 -1.67,-0.74 -1.67,-1.66v-2.06c0.49,-0.28 1.06,-0.44 1.67,-0.44c1.72,0 3.13,1.29 3.31,2.95c-0.98,0.58 -1.64,1.65 -1.64,2.88c0,0.92 -0.75,1.67 -1.67,1.67v1.66c1.84,0 3.33,-1.49 3.33,-3.33c0,-0.24 0.06,-0.48 0.15,-0.69c1.36,0.42 2.35,1.69 2.35,3.19c0,0.61 -0.16,1.18 -0.44,1.67h-2.89c-1.84,0 -3.33,1.49 -3.33,3.33h1.66c0,-0.92 0.75,-1.67 1.67,-1.67h0.83v1.67c0,1.84 -1.49,3.33 -3.33,3.33z" fill="currentColor"/>
</g></svg>