<svg viewBox="0 0 36.897 35.5812" fill="none" xmlns="http://www.w3.org/2000/svg" xmlns:xlink="http://www.w3.org/1999/xlink" x="0" y="0"><path id="Vector_1123" d="M22.9292,2.7868c-1.83,-3.716 -7.13,-3.716 -8.96,0l-2.61,5.275c-0.24,0.492 -0.71,0.832 -1.25,0.911l-5.82,0.846c-4.1,0.596 -5.74,5.636 -2.77,8.529l4.21,4.105c0.39,0.383 0.57,0.935 0.48,1.475l-1,5.797c-0.7,4.085 3.59,7.199 7.26,5.271l5.2,-2.737c0.49,-0.255 1.07,-0.255 1.55,0l5.21,2.737c3.67,1.928 7.96,-1.186 7.26,-5.271l-1,-5.797c-0.09,-0.54 0.09,-1.092 0.48,-1.475l4.21,-4.105c2.97,-2.893 1.33,-7.933 -2.77,-8.529l-5.82,-0.846c-0.54,-0.079 -1.01,-0.419 -1.25,-0.911z" fill="currentColor"/></svg>