<svg viewBox="0 0 16.6667 16.6667" fill="none" xmlns="http://www.w3.org/2000/svg" xmlns:xlink="http://www.w3.org/1999/xlink" x="0" y="0"><g id="Vector_558">
<path d="M6.922,3.0633c-0.515,1.92 -0.245,3.96 0.749,5.69c0.995,1.72 2.633,2.98 4.554,3.49l0.432,-1.61c-1.495,-0.4 -2.769,-1.38 -3.542,-2.72c-0.774,-1.34 -0.983,-2.93 -0.583,-4.42z" fill="currentColor"/>
<path fill-rule="evenodd" clip-rule="evenodd" d="M8.333,0.0033c-4.602,0 -8.333,3.73 -8.333,8.33c0,4.6 3.731,8.33 8.333,8.33c4.603,0 8.334,-3.73 8.334,-8.33c0,-4.6 -3.731,-8.33 -8.334,-8.33zM1.667,8.3333c0,-3.68 2.984,-6.67 6.666,-6.67c3.682,0 6.667,2.99 6.667,6.67c0,3.68 -2.985,6.67 -6.667,6.67c-3.682,0 -6.666,-2.99 -6.666,-6.67z" fill="currentColor"/>
</g></svg>