<svg viewBox="0 0 16.6667 16.6667" fill="none" xmlns="http://www.w3.org/2000/svg" xmlns:xlink="http://www.w3.org/1999/xlink" x="0" y="0"><path id="Vector_705" fill-rule="evenodd" clip-rule="evenodd" d="M0.002,8.3333c0,-4.6 3.73,-8.33 8.33,-8.33c4.6,0 8.33,3.73 8.33,8.33c0,4.6 -3.73,8.33 -8.33,8.33c-4.6,0 -8.33,-3.73 -8.33,-8.33zM8.432,10.9333l4.24,-4.24l-1.18,-1.18l-4.24,4.24c-0.11,0.12 -0.26,0.2 -0.42,0.23c-0.16,0.03 -0.33,0.02 -0.48,-0.05c-0.16,-0.06 -0.29,-0.17 -0.38,-0.3c-0.09,-0.14 -0.14,-0.3 -0.14,-0.47v-0.41h-1.67v0.41c0,0.5 0.15,0.98 0.43,1.39c0.27,0.41 0.66,0.73 1.12,0.92c0.45,0.19 0.96,0.24 1.44,0.15c0.49,-0.1 0.93,-0.34 1.28,-0.69z" fill="currentColor"/></svg>