<svg viewBox="0 0 33.125 33.125" fill="none" xmlns="http://www.w3.org/2000/svg" xmlns:xlink="http://www.w3.org/1999/xlink" x="0" y="0"><defs><filter id="filter0_d_10723_18403" x="-10" y="-4.999500000000012" width="53.125" height="53.125" filterUnits="userSpaceOnUse" color-interpolation-filters="sRGB">
<feFlood flood-opacity="0" result="BackgroundImageFix"/>
<feColorMatrix in="SourceAlpha" type="matrix" values="0 0 0 0 0 0 0 0 0 0 0 0 0 0 0 0 0 0 127 0" result="hardAlpha"/>
<feOffset dy="5"/>
<feGaussianBlur stdDeviation="5"/>
<feComposite in2="hardAlpha" operator="out"/>
<feColorMatrix type="matrix" values="0 0 0 0 0.607843 0 0 0 0 0.694118 0 0 0 0 0.403922 0 0 0 0.24 0"/>
<feBlend mode="normal" in2="BackgroundImageFix" result="effect1_dropShadow_10723_18403"/>
<feBlend mode="normal" in="SourceGraphic" in2="effect1_dropShadow_10723_18403" result="shape"/>
</filter><linearGradient id="paint0_linear_10723_18403" x1="16.5625" y1="0.3125" x2="16.5625" y2="32.8125" gradientUnits="userSpaceOnUse">
<stop stop-color="#9BB167"/>
<stop offset="1" stop-color="#9BB167" stop-opacity="0"/>
</linearGradient></defs><g id="Union" filter="url(#filter0_d_10723_18403)">
<path d="M16.5625,0.3125c3.4518,0 6.25,2.798 6.25,6.25c0,3.452 -2.7982,6.25 -6.25,6.25c-3.4518,0 -6.25,-2.798 -6.25,-6.25c0,-3.452 2.7982,-6.25 6.25,-6.25z" fill="#9BB167" shape-rendering="crispEdges"/>
<path d="M12.8125,16.5625c0,-3.452 -2.7982,-6.25 -6.25,-6.25c-3.4518,0 -6.25,2.798 -6.25,6.25c0,3.452 2.7982,6.25 6.25,6.25c3.4518,0 6.25,-2.798 6.25,-6.25z" fill="#9BB167" shape-rendering="crispEdges"/>
<path d="M22.8125,26.5625c0,-3.452 -2.7982,-6.25 -6.25,-6.25c-3.4518,0 -6.25,2.798 -6.25,6.25c0,3.452 2.7982,6.25 6.25,6.25c3.4518,0 6.25,-2.798 6.25,-6.25z" fill="#9BB167" shape-rendering="crispEdges"/>
<path d="M32.8125,16.5625c0,-3.452 -2.7982,-6.25 -6.25,-6.25c-3.4518,0 -6.25,2.798 -6.25,6.25c0,3.452 2.7982,6.25 6.25,6.25c3.4518,0 6.25,-2.798 6.25,-6.25z" fill="#9BB167" shape-rendering="crispEdges"/>
<path d="M16.5625,20.1565c3.5381,0 6.4062,2.868 6.4062,6.406c0,3.538 -2.8681,6.406 -6.4062,6.406c-3.5381,0 -6.4062,-2.868 -6.4062,-6.406c-0.0001,-3.538 2.8681,-6.406 6.4062,-6.406zM6.5625,10.1565c3.5381,0 6.4062,2.868 6.4062,6.406c0,3.538 -2.8681,6.406 -6.4062,6.406c-3.5381,0 -6.4062,-2.868 -6.4062,-6.406c0,-3.538 2.8681,-6.406 6.4062,-6.406zM26.5625,10.1565c3.5381,0 6.406,2.868 6.406,6.406c0,3.538 -2.8679,6.406 -6.406,6.406c-3.5381,0 -6.4062,-2.868 -6.4062,-6.406c0,-3.538 2.8681,-6.406 6.4062,-6.406zM16.5625,0.1565c3.5381,0 6.4062,2.868 6.4062,6.406c0,3.538 -2.8681,6.406 -6.4062,6.406c-3.5381,0 -6.4062,-2.868 -6.4062,-6.406c0,-3.538 2.8681,-6.406 6.4062,-6.406z" stroke="url(#paint0_linear_10723_18403)" stroke-width="0.3125" shape-rendering="crispEdges"/>
</g></svg>