<svg viewBox="0 0 79.5 79.5" fill="none" xmlns="http://www.w3.org/2000/svg" xmlns:xlink="http://www.w3.org/1999/xlink" x="0" y="0"><defs><filter id="filter2_dd_22590_66191" x="-48" y="-24" width="175.5" height="175.5" filterUnits="userSpaceOnUse" color-interpolation-filters="sRGB">
<feFlood flood-opacity="0" result="BackgroundImageFix"/>
<feColorMatrix in="SourceAlpha" type="matrix" values="0 0 0 0 0 0 0 0 0 0 0 0 0 0 0 0 0 0 127 0" result="hardAlpha"/>
<feOffset dy="24"/>
<feGaussianBlur stdDeviation="24"/>
<feColorMatrix type="matrix" values="0 0 0 0 0.0588235 0 0 0 0 0.0901961 0 0 0 0 0.164706 0 0 0 0.02 0"/>
<feBlend mode="normal" in2="BackgroundImageFix" result="effect1_dropShadow_22590_66191"/>
<feColorMatrix in="SourceAlpha" type="matrix" values="0 0 0 0 0 0 0 0 0 0 0 0 0 0 0 0 0 0 127 0" result="hardAlpha"/>
<feOffset dy="12"/>
<feGaussianBlur stdDeviation="12"/>
<feColorMatrix type="matrix" values="0 0 0 0 0.0588235 0 0 0 0 0.0901961 0 0 0 0 0.164706 0 0 0 0.03 0"/>
<feBlend mode="normal" in2="effect1_dropShadow_22590_66191" result="effect2_dropShadow_22590_66191"/>
<feBlend mode="normal" in="SourceGraphic" in2="effect2_dropShadow_22590_66191" result="shape"/>
</filter><linearGradient id="paint6_linear_22590_66191" x1="39.75" y1="0.75" x2="39.75" y2="78.75" gradientUnits="userSpaceOnUse">
<stop stop-color="#F59E0B" stop-opacity="0.701961"/>
<stop offset="1" stop-color="#F59E0B" stop-opacity="0"/>
</linearGradient></defs><g id="Union_5" filter="url(#filter2_dd_22590_66191)">
<path d="M39.75,0.75c8.28,0 15,6.716 15,15c0,8.284 -6.72,15 -15,15c-8.28,0 -15,-6.716 -15,-15c0,-8.284 6.72,-15 15,-15z" fill="#FBBF24"/>
<path d="M30.75,39.75c0,-8.284 -6.72,-15 -15,-15c-8.28,0 -15,6.716 -15,15c0,8.284 6.72,15 15,15c8.28,0 15,-6.716 15,-15z" fill="#FBBF24"/>
<path d="M54.75,63.75c0,-8.284 -6.72,-15 -15,-15c-8.28,0 -15,6.716 -15,15c0,8.284 6.72,15 15,15c8.28,0 15,-6.716 15,-15z" fill="#FBBF24"/>
<path d="M78.75,39.75c0,-8.284 -6.72,-15 -15,-15c-8.28,0 -15,6.716 -15,15c0,8.284 6.72,15 15,15c8.28,0 15,-6.716 15,-15z" fill="#FBBF24"/>
<path d="M39.75,48.375c8.49,0 15.38,6.884 15.38,15.375c0,8.491 -6.89,15.375 -15.38,15.375c-8.49,0 -15.38,-6.884 -15.38,-15.375c0,-8.491 6.89,-15.375 15.38,-15.375zM15.75,24.375c8.49,0 15.38,6.884 15.38,15.375c0,8.491 -6.89,15.375 -15.38,15.375c-8.49,0 -15.38,-6.884 -15.38,-15.375c0,-8.491 6.89,-15.375 15.38,-15.375zM63.75,24.375c8.49,0 15.38,6.884 15.38,15.375c0,8.491 -6.89,15.375 -15.38,15.375c-8.49,0 -15.38,-6.884 -15.38,-15.375c0,-8.491 6.89,-15.375 15.38,-15.375zM39.75,0.375c8.49,0 15.38,6.884 15.38,15.375c0,8.491 -6.89,15.375 -15.38,15.375c-8.49,0 -15.38,-6.884 -15.38,-15.375c0,-8.491 6.89,-15.375 15.38,-15.375z" stroke="url(#paint6_linear_22590_66191)" stroke-width="0.75"/>
</g></svg>