<svg viewBox="0 0 20 21.6593" fill="none" xmlns="http://www.w3.org/2000/svg" xmlns:xlink="http://www.w3.org/1999/xlink" x="0" y="0"><g id="Vector_215">
<path d="M18.967,1.7901c-0.67,-0.88 -1.61,-1.51 -2.673,-1.79l-0.518,1.93c0.638,0.17 1.202,0.55 1.604,1.07c0.193,0.26 0.344,0.53 0.448,0.83h-12.828c-2.761,0 -5,2.24 -5,5v2h2v-2c0,-1.66 1.343,-3 3,-3h12.828c-0.104,0.29 -0.255,0.57 -0.448,0.83c-0.402,0.52 -0.966,0.9 -1.604,1.07l0.518,1.93c1.063,-0.29 2.003,-0.91 2.673,-1.79c0.67,-0.87 1.033,-1.94 1.033,-3.04c0,-1.1 -0.363,-2.17 -1.033,-3.04z" fill="currentColor"/>
<path d="M1.033,13.7901c0.67,-0.88 1.61,-1.51 2.673,-1.79l0.518,1.93c-0.638,0.17 -1.202,0.55 -1.604,1.07c-0.193,0.26 -0.344,0.53 -0.448,0.83h12.828c1.657,0 3,-1.34 3,-3v-2h2v2c0,2.76 -2.239,5 -5,5h-12.828c0.104,0.29 0.255,0.57 0.448,0.83c0.402,0.52 0.966,0.9 1.604,1.07l-0.518,1.93c-1.063,-0.29 -2.003,-0.91 -2.673,-1.79c-0.67,-0.87 -1.033,-1.94 -1.033,-3.04c0,-1.1 0.363,-2.17 1.033,-3.04z" fill="currentColor"/>
</g></svg>