<svg viewBox="0 0 15.5355 15.5355" fill="none" xmlns="http://www.w3.org/2000/svg" xmlns:xlink="http://www.w3.org/1999/xlink" x="0" y="0"><path id="Vector_920" fill-rule="evenodd" clip-rule="evenodd" d="M1.68,0.6352c1.42,-1.1 3.54,-0.7 4.36,0.9l0.45,1c0.71,1.4 0.43,3.1 -0.69,4.2l-0.71,0.7c0.37,1.5 1.52,2.6 2.99,3l0.71,-0.7c1.12,-1.1 2.83,-1.4 4.25,-0.7l0.91,0.5c1.64,0.8 2.1,2.9 0.95,4.3c-0.63,0.8 -1.55,1.5 -2.67,1.6c-1.4,0.2 -2.83,0.1 -4.2,-0.3c-1.84,-0.5 -3.51,-1.4 -4.86,-2.8c-1.34,-1.3 -2.31,-3 -2.8,-4.8c-0.37,-1.4 -0.46,-2.8 -0.28,-4.2c0.15,-1.2 0.8,-2.1 1.59,-2.7zM4.55,2.3352c-0.34,-0.7 -1.23,-0.9 -1.82,-0.4c-0.55,0.4 -0.91,1 -0.99,1.6c-0.15,1.2 -0.07,2.4 0.24,3.5c0.42,1.6 1.23,3 2.37,4.1c1.14,1.2 2.56,2 4.11,2.4c1.16,0.3 2.37,0.4 3.56,0.3c0.58,-0.1 1.14,-0.5 1.58,-1c0.48,-0.6 0.29,-1.5 -0.39,-1.8l-0.91,-0.5c-0.78,-0.4 -1.72,-0.2 -2.33,0.4l-0.72,0.7c-0.41,0.4 -1.01,0.6 -1.57,0.4c-2.07,-0.5 -3.69,-2.1 -4.21,-4.2c-0.14,-0.5 0.03,-1.1 0.44,-1.6l0.72,-0.7c0.61,-0.6 0.76,-1.5 0.37,-2.3z" fill="currentColor"/></svg>