<svg viewBox="0 0 17.8038 17.8038" fill="none" xmlns="http://www.w3.org/2000/svg" xmlns:xlink="http://www.w3.org/1999/xlink" x="0" y="0"><path id="Vector_695" fill-rule="evenodd" clip-rule="evenodd" d="M6.5123,1.3819c1.06,-1.84 3.72,-1.84 4.78,0c0.25,0.43 0.76,0.64 1.24,0.51c2.05,-0.55 3.93,1.33 3.38,3.38c-0.13,0.48 0.08,0.99 0.51,1.24c1.84,1.06 1.84,3.72 0,4.78c-0.43,0.25 -0.64,0.76 -0.51,1.24c0.55,2.05 -1.33,3.93 -3.38,3.38c-0.48,-0.13 -0.99,0.08 -1.24,0.51c-1.06,1.84 -3.72,1.84 -4.78,0c-0.25,-0.43 -0.76,-0.64 -1.24,-0.51c-2.05,0.55 -3.93,-1.33 -3.38,-3.38c0.13,-0.48 -0.08,-0.99 -0.51,-1.24c-1.84,-1.06 -1.84,-3.72 0,-4.78c0.43,-0.25 0.64,-0.76 0.51,-1.24c-0.55,-2.05 1.33,-3.93 3.38,-3.38c0.48,0.13 0.99,-0.08 1.24,-0.51zM9.0023,11.5019l4.24,-4.24l-1.18,-1.18l-4.24,4.24c-0.11,0.12 -0.26,0.2 -0.42,0.23c-0.17,0.03 -0.33,0.02 -0.49,-0.05c-0.15,-0.06 -0.28,-0.17 -0.37,-0.3c-0.09,-0.14 -0.14,-0.3 -0.14,-0.47v-0.41h-1.67v0.41c0,0.5 0.15,0.98 0.42,1.39c0.28,0.41 0.67,0.73 1.13,0.92c0.45,0.19 0.96,0.24 1.44,0.15c0.49,-0.1 0.93,-0.34 1.28,-0.69z" fill="currentColor"/></svg>