<svg viewBox="0 0 16 30.0293" fill="none" xmlns="http://www.w3.org/2000/svg" xmlns:xlink="http://www.w3.org/1999/xlink" id="5d9079a3" x="0" y="0"><g id="Mobile App Components" data-node-id="10723:18403"><g id="Frame_44" data-node-id="20579:99141"><g id="Frame_45" data-node-id="20579:99143"><g id="Health Metrics Date_8" data-node-id="20520:99407"><g id="Type=Sleep" data-node-id="20520:99420"><g id="check single_7" data-node-id="20520:99421">
<path id="Vector_303" data-node-id="I20520:99421;22367:44327" d="M13.35,1.4193l-5.23,5.23c-0.42,0.42 -0.95,0.71 -1.53,0.82c-0.59,0.12 -1.19,0.06 -1.74,-0.17c-0.55,-0.23 -1.01,-0.61 -1.34,-1.1c-0.33,-0.5 -0.51,-1.08 -0.51,-1.67h1c0,0.4 0.12,0.78 0.34,1.11c0.22,0.33 0.53,0.59 0.89,0.74c0.37,0.15 0.77,0.19 1.16,0.11c0.39,-0.08 0.74,-0.27 1.02,-0.55l5.24,-5.23z" fill="#2563EB"/>
</g><g id="Frame_179" data-node-id="20520:99422">
<circle id="Ellipse_11" data-node-id="20520:99423" cx="8" cy="22.02929999999992" r="7" stroke="#2563EB" stroke-width="2"/>
</g></g></g></g></g></g><defs/></svg>