<svg viewBox="0 0 18.3333 18.3333" fill="none" xmlns="http://www.w3.org/2000/svg" xmlns:xlink="http://www.w3.org/1999/xlink" x="0" y="0"><g id="Vector_595">
<path d="M5.836,2.496v-2.496h1.66v2.496z" fill="currentColor"/>
<path d="M10.176,3.506c1.28,-1.29 3.37,-1.29 4.65,0c1.29,1.29 1.29,3.37 0,4.65l-2.08,2.09l1.18,1.18l2.08,-2.09c1.94,-1.93 1.94,-5.07 0,-7.01c-1.94,-1.935 -5.08,-1.935 -7.01,0l-2.09,2.08l1.18,1.18z" fill="currentColor"/>
<path d="M8.156,14.826c-1.28,1.29 -3.36,1.29 -4.65,0c-1.29,-1.28 -1.29,-3.37 0,-4.65l2.08,-2.09l-1.18,-1.18l-2.08,2.09c-1.93,1.93 -1.93,5.07 0,7.01c1.94,1.94 5.08,1.94 7.01,0l2.09,-2.08l-1.18,-1.18z" fill="currentColor"/>
<path d="M3.576,4.756l-2.5,-2.5l1.18,-1.179l2.5,2.499z" fill="currentColor"/>
<path d="M16.076,17.256l1.18,-1.18l-2.5,-2.5l-1.18,1.18z" fill="currentColor"/>
<path d="M12.496,18.336v-2.5h-1.66v2.5z" fill="currentColor"/>
<path d="M2.496,7.496h-2.5v-1.66h2.5z" fill="currentColor"/>
<path d="M18.336,10.836h-2.5v1.66h2.5z" fill="currentColor"/>
</g></svg>