<svg viewBox="0 0 8 40" fill="none" xmlns="http://www.w3.org/2000/svg" xmlns:xlink="http://www.w3.org/1999/xlink" x="0" y="0"><g id="Frame_104">
<path id="Rectangle_27" d="M0,4c0,-2.21 1.791,-4 4,-4c2.209,0 4,1.79 4,4c0,2.21 -1.791,4 -4,4c-2.209,0 -4,-1.79 -4,-4z" fill="#D4DEB8"/>
<path id="Rectangle_28" d="M0,20c0,-2.21 1.791,-4 4,-4c2.209,0 4,1.79 4,4c0,2.21 -1.791,4 -4,4c-2.209,0 -4,-1.79 -4,-4z" fill="#9BB167"/>
<path id="Rectangle_29" d="M0,36c0,-2.21 1.791,-4 4,-4c2.209,0 4,1.79 4,4c0,2.21 -1.791,4 -4,4c-2.209,0 -4,-1.79 -4,-4z" fill="#E7E5E4"/>
</g></svg>