<svg viewBox="0 0 25.0389 67" fill="none" xmlns="http://www.w3.org/2000/svg" xmlns:xlink="http://www.w3.org/1999/xlink" x="0" y="0"><g id="Group_123">
<path id="Vector_247" d="M24.091,29.17c-0.063,-1.68 -0.089,-4.66 0.463,-5.62c1.035,-1.79 0.238,-3.09 -0.757,-3.41c0.056,-0.8 0.218,-4.72 -1.802,-7.28c-2.112,-2.67 -4.536,-5.01 -4.836,-5.3v-1.81h-8.443v1.84c-0.447,0.39 -3.015,2.67 -5.068,5.27c-1.961,2.49 -1.865,6.26 -1.809,7.2c-1.153,0.07 -2.32,1.47 -1.153,3.49c0.555,0.96 0.529,3.94 0.462,5.62c-0.971,0.07 -1.292,1.71 -1.091,2.87c0.146,0.84 0.602,1.69 0.599,2.43c-0.027,6.59 0.003,29.6 0.003,29.6c0,1.61 1.187,2.93 2.638,2.93h18.242c1.451,0 2.638,-1.32 2.638,-2.93c0,0 -0.139,-21.38 -0.013,-29.98c0.013,-0.96 0.661,-1.59 0.803,-2.7c0.142,-1.04 0.096,-2.15 -0.876,-2.22z" fill="#BFDBFE"/>
<path id="Vector_248" d="M22.405,25.26c-0.218,-0.72 -0.985,-0.99 -1.58,-1.23c-1.061,-0.43 -2.092,-0.95 -3.068,-1.57c-0.806,-0.52 -1.821,-0.53 -2.737,-0.34c-0.909,0.19 -1.759,0.63 -2.559,1.13c-1.292,0.81 -2.935,0.77 -4.347,0.39c-1.398,-0.38 -2.972,-1.27 -4.367,-0.4c-0.595,0.38 -0.978,1.43 -0.982,1.99c-0.013,1.12 -0.238,37.45 -0.238,37.45c0,1.36 1.002,2.47 2.228,2.47h15.396c1.226,0 2.228,-1.11 2.228,-2.47c-0.007,-1.31 0.05,-37.35 0.026,-37.42z" fill="#3B82F6"/>
<path id="Vector_249" d="M17.894,4.54v-3.22c0,-0.72 -0.559,-1.32 -1.24,-1.32h-7.438c-0.681,0 -1.239,0.6 -1.239,1.32v3.22z" fill="#3B82F6"/>
<path id="Vector_250" d="M17.891,4.54h-9.914v1.2h9.914z" fill="#3B82F6"/>
<path id="Vector_251" d="M9.295,4.54v-3.22c0,-0.2 -0.149,-0.36 -0.327,-0.36c-0.182,0 -0.327,0.16 -0.327,0.36v3.22h0.654z" fill="#3B82F6"/>
<path id="Vector_252" d="M10.44,4.54v-3.22c0,-0.2 -0.149,-0.36 -0.328,-0.36c-0.181,0 -0.327,0.16 -0.327,0.36v3.22h0.655z" fill="#3B82F6"/>
<path id="Vector_253" d="M11.584,4.54v-3.22c0,-0.2 -0.149,-0.36 -0.327,-0.36c-0.182,0 -0.327,0.16 -0.327,0.36v3.22h0.654z" fill="#3B82F6"/>
<path id="Vector_254" d="M12.729,4.54v-3.22c0,-0.2 -0.149,-0.36 -0.328,-0.36c-0.181,0 -0.327,0.16 -0.327,0.36v3.22h0.655z" fill="#3B82F6"/>
<path id="Vector_255" d="M13.877,4.54v-3.22c0,-0.2 -0.149,-0.36 -0.327,-0.36c-0.179,0 -0.327,0.16 -0.327,0.36v3.22h0.654z" fill="#3B82F6"/>
<path id="Vector_256" d="M15.022,4.54v-3.22c0,-0.2 -0.149,-0.36 -0.328,-0.36c-0.181,0 -0.327,0.16 -0.327,0.36v3.22h0.655z" fill="#3B82F6"/>
<path id="Vector_257" d="M16.162,4.54v-3.22c0,-0.2 -0.148,-0.36 -0.327,-0.36c-0.182,0 -0.327,0.16 -0.327,0.36v3.22h0.654z" fill="#3B82F6"/>
<path id="Vector_258" d="M17.307,4.54v-3.22c0,-0.2 -0.149,-0.36 -0.327,-0.36c-0.182,0 -0.328,0.16 -0.328,0.36v3.22h0.655z" fill="#3B82F6"/>
<path id="Vector_259" d="M22.405,25.26c-0.218,-0.72 -0.985,-0.99 -1.58,-1.23c-1.062,-0.43 -2.093,-0.95 -3.068,-1.57c-0.063,-0.04 -0.126,-0.07 -0.189,-0.11c-0.036,1.03 -0.086,2.06 -0.145,3.09c0.532,0.21 1.071,0.53 1.623,0.94c1.838,1.37 0.185,3.23 -1.656,2.53c-0.07,-0.03 -0.139,-0.05 -0.208,-0.08c-0.017,0.19 -0.03,0.39 -0.05,0.58c-0.456,5.05 -1.134,10.2 -2.512,15.07c-1.158,4.09 -2.734,8.09 -5.148,11.52c-1.867,2.66 -4.112,5.38 -6.949,6.74c0.033,1.33 1.019,2.41 2.225,2.41h15.396c1.226,0 2.228,-1.11 2.228,-2.47c0,-1.31 0.056,-37.35 0.033,-37.42z" fill="#60A5FA"/>
<path id="Vector_260" d="M4.347,27.34c0,0 1.471,-2.49 4.291,-1.23c2.82,1.27 3.878,0.16 5.233,-0.56c1.584,-0.85 3.333,-0.55 5.171,0.83c1.838,1.37 0.185,3.23 -1.657,2.53c-1.838,-0.7 -2.37,-1.66 -4.74,-0.39c-2.37,1.26 -3.633,-0.17 -4.456,-0.35c-1.134,-0.25 -1.838,0.7 -2.781,1.31c-0.935,0.61 -2.122,-0.79 -1.061,-2.14z" fill="#93C5FD"/>
<path id="Vector_261" d="M24.091,29.17c-0.062,-1.68 -0.089,-4.66 0.463,-5.62c1.035,-1.79 0.238,-3.09 -0.757,-3.41c0.056,-0.8 0.218,-4.72 -1.802,-7.28c-1.805,-2.29 -3.834,-4.32 -4.575,-5.05c0.142,2.15 0.218,4.31 0.242,6.47c0.029,2.69 0.003,5.38 -0.093,8.07c0.063,0.03 0.126,0.07 0.188,0.11c0.976,0.62 2.007,1.14 3.068,1.57c0.595,0.24 1.362,0.5 1.58,1.22c0.024,0.08 -0.033,36.12 -0.026,37.43c0,1.36 -1.002,2.48 -2.228,2.48h-15.399c-1.206,0 -2.195,-1.08 -2.225,-2.42c-0.595,0.29 -1.219,0.52 -1.871,0.67c0,0.42 0,0.65 0,0.65c0,1.62 1.187,2.94 2.638,2.94h18.242c1.451,0 2.638,-1.32 2.638,-2.94c0,0 -0.139,-21.37 -0.013,-29.97c0.013,-0.96 0.661,-1.59 0.803,-2.7c0.146,-1.04 0.099,-2.15 -0.873,-2.22z" fill="#BFDBFE"/>
<g id="Group_124">
<path id="Vector_262" d="M4.347,27.34c0,0 1.148,-1.94 3.353,-1.53v-2.29c-1.224,-0.4 -2.553,-1 -3.762,-0.38v5.14c0.036,-0.3 0.158,-0.62 0.409,-0.94z" fill="#3B82F6"/>
</g>
</g></svg>