<svg viewBox="0 0 20.2357 59.7631" fill="none" xmlns="http://www.w3.org/2000/svg" xmlns:xlink="http://www.w3.org/1999/xlink" x="0" y="0"><g id="Group_122">
<path id="Vector_240" d="M0.0004,59.76v-44.7l6.37,-8.96h7.87l5.995,8.96v44.7z" fill="#DBEAFE"/>
<path id="Vector_241" d="M4.3854,11.62l-2.885,4.43v42.19h17.425v-42.19l-2.736,-4.43z" fill="#60A5FA"/>
<path id="Vector_242" d="M14.6154,0h-8.244v6.1h8.244z" fill="#3B82F6"/>
<path id="Vector_243" d="M20.2354,26.11h-20.235v15.63h20.235z" fill="#3B82F6"/>
<path id="Vector_244" d="M19.1854,26.95h-18.099v13.98h18.099z" stroke="#3B82F6" stroke-miterlimit="10"/>
<path id="Vector_245" d="M10.8304,28.85l-2.548,5.3c0,0 -2.323,4.73 2.773,4.84c0,0 3.185,0 1.911,-5.07z" fill="white"/>
<path id="Vector_246" opacity="0.7" d="M4.9474,9.07l-4.01,6.75v42.42h4.01v-41.28l3.447,-7.89z" fill="white"/>
</g></svg>