<svg viewBox="0 0 26.9573 44.0855" fill="none" xmlns="http://www.w3.org/2000/svg" xmlns:xlink="http://www.w3.org/1999/xlink" x="0" y="0"><g id="Group_117">
<path id="Vector_227" opacity="0.4" d="M0.0004,0l2.155,44.09h22.646l2.156,-44.09z" fill="#93C5FD"/>
<path id="Vector_228" d="M2.1994,8.9l1.451,26.81c0.085,1.7 1.475,3.04 3.161,3.04h13.333c1.686,0 3.076,-1.34 3.16,-3.04l1.452,-26.81z" fill="#3B82F6"/>
<path id="Vector_229" opacity="0.5" d="M2.1364,43.31l0.024,0.78h22.641l0.024,-0.83c-3.25,-0.64 -7.101,-1.65 -11.323,-1.65c-4.241,0 -8.111,1.05 -11.366,1.7z" fill="#93C5FD"/>
<path id="Vector_230" opacity="0.5" d="M21.3084,0l-1.789,44.09h2.865l1.789,-44.09z" fill="#93C5FD"/>
<path id="Vector_231" opacity="0.4" d="M0.0004,0l2.155,44.09h5.739l-2.16,-44.09z" fill="#93C5FD"/>
<g id="Group_118">
<path id="Vector_232" d="M9.1684,20.41c0.308,0 0.559,-0.25 0.559,-0.56c0,-0.31 -0.251,-0.56 -0.559,-0.56c-0.309,0 -0.559,0.25 -0.559,0.56c0,0.31 0.25,0.56 0.559,0.56z" fill="#3B82F6"/>
<path id="Vector_233" d="M9.2744,19.94c0.133,0 0.24,-0.11 0.24,-0.24c0,-0.13 -0.107,-0.24 -0.24,-0.24c-0.132,0 -0.239,0.11 -0.239,0.24c0,0.13 0.107,0.24 0.239,0.24z" fill="#3B82F6"/>
</g>
<g id="Group_119">
<path id="Vector_234" d="M17.8974,24.67c0.394,0 0.714,-0.32 0.714,-0.71c0,-0.4 -0.32,-0.72 -0.714,-0.72c-0.394,0 -0.714,0.32 -0.714,0.72c0,0.39 0.32,0.71 0.714,0.71z" fill="#3B82F6"/>
<path id="Vector_235" d="M18.0354,24.06c0.166,0 0.3,-0.13 0.3,-0.3c0,-0.17 -0.134,-0.3 -0.3,-0.3c-0.166,0 -0.301,0.13 -0.301,0.3c0,0.17 0.135,0.3 0.301,0.3z" fill="#3B82F6"/>
</g>
<g id="Group_120">
<path id="Vector_236" d="M11.3634,23.76c0.335,0 0.606,-0.27 0.606,-0.61c0,-0.34 -0.271,-0.61 -0.606,-0.61c-0.334,0 -0.606,0.27 -0.606,0.61c0,0.34 0.272,0.61 0.606,0.61z" fill="#3B82F6"/>
<path id="Vector_237" d="M11.7334,22.99c0,0.14 -0.112,0.25 -0.253,0.25c-0.141,0 -0.254,-0.11 -0.254,-0.25c0,-0.15 0.113,-0.26 0.254,-0.26c0.141,0 0.253,0.11 0.253,0.26z" fill="#3B82F6"/>
</g>
<g id="Group_121">
<path id="Vector_238" d="M9.9204,34.62c0.226,0 0.408,-0.19 0.408,-0.41c0,-0.23 -0.182,-0.42 -0.408,-0.42c-0.226,0 -0.409,0.19 -0.409,0.42c0,0.22 0.183,0.41 0.409,0.41z" fill="#3B82F6"/>
<path id="Vector_239" d="M10.0014,34.27c0.096,0 0.174,-0.08 0.174,-0.17c0,-0.1 -0.078,-0.18 -0.174,-0.18c-0.096,0 -0.173,0.08 -0.173,0.18c0,0.09 0.077,0.17 0.173,0.17z" fill="#3B82F6"/>
</g>
</g></svg>