<svg viewBox="0 0 15 10" fill="none" xmlns="http://www.w3.org/2000/svg" xmlns:xlink="http://www.w3.org/1999/xlink" x="0" y="0"><g id="Vector_557">
<path d="M1.667,3.33c0.92,0 1.666,-0.74 1.666,-1.66c0,-0.92 -0.746,-1.67 -1.666,-1.67c-0.921,0 -1.667,0.75 -1.667,1.67c0,0.92 0.746,1.66 1.667,1.66z" fill="currentColor"/>
<path d="M5,2.5h10v-1.67h-10z" fill="currentColor"/>
<path d="M15,9.17h-10v-1.67h10z" fill="currentColor"/>
<path d="M1.667,10c0.92,0 1.666,-0.75 1.666,-1.67c0,-0.92 -0.746,-1.66 -1.666,-1.66c-0.921,0 -1.667,0.74 -1.667,1.66c0,0.92 0.746,1.67 1.667,1.67z" fill="currentColor"/>
</g></svg>